<svg id="compass" xmlns="http://www.w3.org/2000/svg" viewBox="0 0 110 110">
  <path id="Path_220" data-name="Path 220" d="M93.89,16.126A54.781,54.781,0,0,0,55,0h-.088A55,55,0,0,0,20,12.519a2.238,2.238,0,0,0,2.848,3.454,50.508,50.508,0,0,1,32.069-11.5H55A50.39,50.39,0,1,1,7.437,37.849a2.239,2.239,0,1,0-4.214-1.513A55.024,55.024,0,1,0,93.89,16.126Z" transform="translate(0)"/>
  <path id="Path_221" data-name="Path 221" d="M95.041,41.39a40.81,40.81,0,1,0,24.618,37.466,2.239,2.239,0,0,0-2.238-2.238h-8.187a2.238,2.238,0,0,0,0,4.477h5.877a36.377,36.377,0,0,1-34.017,34.017v-5.877a2.238,2.238,0,0,0-4.477,0v5.877A36.377,36.377,0,0,1,42.6,81.094h5.877a2.238,2.238,0,1,0,0-4.477H42.6A36.377,36.377,0,0,1,76.618,42.6v5.877a2.238,2.238,0,1,0,4.477,0V42.6a35.977,35.977,0,0,1,12.17,2.9,2.238,2.238,0,1,0,1.777-4.109Z" transform="translate(-23.856 -23.856)"/>
  <path id="Path_222" data-name="Path 222" d="M131.439,96.823l-19.811,8.024a11.463,11.463,0,0,0-6.522,6.11,2.307,2.307,0,0,0-.151.3l-8.2,20.254a2.239,2.239,0,0,0,2.914,2.916l20.256-8.2a2.2,2.2,0,0,0,.278-.139,11.46,11.46,0,0,0,5.929-6.047c.007-.016.016-.029.022-.045l8.2-20.256a2.239,2.239,0,0,0-2.915-2.916Zm-15.868,11.805a6.969,6.969,0,1,1-2.735.558l.029-.01.161-.065A6.961,6.961,0,0,1,115.571,108.628Zm-9.889,12.757a11.5,11.5,0,0,0,4.108,4.111l-6.9,2.8ZM125.449,109.8a11.511,11.511,0,0,0-4.071-4.076l6.843-2.772Z" transform="translate(-60.553 -60.597)"/>
</svg>
