<svg xmlns="http://www.w3.org/2000/svg" xmlns:xlink="http://www.w3.org/1999/xlink" width="1080.355" height="802.971" viewBox="0 0 1080.355 802.971"><defs><style>.a,.c{fill:#4ab1d9;}.a,.i{opacity:0.1;}.b{opacity:0.8;}.d{fill:#444053;}.e,.f{fill:none;stroke:#444053;stroke-miterlimit:10;}.f{stroke-width:0.75px;}.g{fill:url(#a);}.h{fill:#fbbebe;}.j{fill:#3f3d56;}</style><linearGradient id="a" x1="0.5" y1="1" x2="0.5" gradientUnits="objectBoundingBox"><stop offset="0" stop-color="gray" stop-opacity="0.251"/><stop offset="0.54" stop-color="gray" stop-opacity="0.122"/><stop offset="1" stop-color="gray" stop-opacity="0.102"/></linearGradient></defs><g transform="translate(0)"><path class="a" d="M547.885,185.807c69.26-1.787,135.223-18.4,198.212-36.567S871.474,110.9,939.075,101.266c43.48-6.2,93.209-7.074,128.235,10.252,33.72,16.651,44.614,45.4,50.468,72.149,4.409,20.087,7,41.222-5.073,60.024-8.39,13.056-23.265,24.025-33.56,36.535-35.818,43.512-10.5,97.158,28.305,139.643,18.193,19.926,39.328,38.932,53.379,60.153s20.547,45.513,8.251,67.162c-12.178,21.4-41.211,37.551-72.663,48.884-63.877,23.019-139.119,29.6-212.541,33.335-162.48,8.261-325.815,4.677-488.723,1.07-60.292-1.327-120.84-2.665-180.148-9.631-32.939-3.842-66.937-9.952-90.855-24.688-30.349-18.706-37.872-50.382-17.529-73.84,34.116-39.349,128.417-49.13,152.292-91.358,13.12-23.243-.353-49.13-19.434-70.694-40.922-46.241-109.508-86.81-113.114-139.675-2.483-36.3,30.488-72.663,81.47-89.838,53.432-18,127.54-15.742,166.942,14.062C415.391,175.534,486.726,187.348,547.885,185.807Z" transform="translate(-95.226 -73.282)"/><g class="b" transform="translate(75.734 0)"><path class="c" d="M820.3,266.117s12.071-4.9,50.468,12.713,43.191,15.378,53.133,12.681,15.485-3.328,26.144-18.032c0,0,7.491-40.74,14.789-47.086S1003.016,230,1003.016,230s37.048,8.518,44.154-41.019c0,0-5.008-37.327,1.819-48.788,0,0-13.783,5.939-36.513-3.649s-40.922,10.338-40.922,10.338-5.736,14.843-5.137,23.682-3.029,12.178-13.912,7.9c0,0-5.351-7.577,2.215-20.1s12.927-21.852,10.819-31.58-8.154-23.2-27.6-29.964-45.866-8.026-58.548-13.248-15.742-8.722-15.742-8.722,7.8,7.823-10.584,40.954-6.667,47.525-6.667,47.525,9.781,23.308,52.951,21.4c0,0,41.6,1.52,18.92,19.156,0,0-14.522-2.954-36.246-9.856s-37.38,21.585-41.275,41.4S820.3,266.117,820.3,266.117Z" transform="translate(-820.3 -74.85)"/><path class="d" d="M951.47,98.294l-.225-.064c-1.669,6.325,16.919,31.73,32.811,51.934l.182-.139C961.829,121.527,950.143,103.153,951.47,98.294Z" transform="translate(-895.565 -73.21)"/><path class="d" d="M909.206,146.24l-.1.257c12.692,16.138,28.658,35.4,41.436,49.665,1.22,1.359,2.429,2.782,3.585,4.281l.375-.289c-1.177-1.466-2.386-2.9-3.606-4.281C938.122,181.587,921.888,162.367,909.206,146.24Z" transform="translate(-820.855 -69.843)"/><path class="d" d="M882.1,196.22l-.257.428c23.254,29.033,24.8,74.107,24.849,74.5l4.9-5.608C911.536,265.094,905.511,225.446,882.1,196.22Z" transform="translate(-748.757 -66.337)"/><path class="e" d="M839.72,245.1s27.417-14.254,48.788-9.139,69.474-18.085,69.474-18.085,20.429-8.294,24.538-17.754c0,0,14.008-14.821,14.811-22.473S1011.81,150.7,1020.67,150" transform="translate(-812.763 -69.579)"/><path class="e" d="M993.578,253.011s13.8-9.3,12.2-20.151" transform="translate(-962.651 -63.767)"/><path class="e" d="M965,265.235s19.755-7.17,21.735-35.315" transform="translate(-912.895 -63.973)"/><path class="e" d="M942.557,272.54s18.877-15.656,12.606-43.02" transform="translate(-858.583 -64.001)"/><path class="e" d="M914.118,265.421s12.563-26.358,1.38-43.5" transform="translate(-791.843 -64.534)"/><path class="e" d="M998.226,222.63s14.286,4.537,11.215,12.05" transform="translate(-971.59 -64.484)"/><path class="e" d="M974.72,198.41s19.113,6.057,19.562,33.1" transform="translate(-930.844 -66.183)"/><path class="e" d="M952.942,192.58s17.39,21.467,16.159,40.976" transform="translate(-882.419 -66.592)"/><path class="e" d="M925.368,200.45s17.283,16.512,15.078,25.683" transform="translate(-824.39 -66.04)"/><path class="e" d="M912.65,195.159s16.2,2.9,18.46-2.419" transform="translate(-801.248 -66.581)"/><path class="e" d="M920.525,176.72s-8.187,10.841-10.295,8.411" transform="translate(-788.073 -67.705)"/><path class="e" d="M939.26,170.922s40.837,2.964,50.072-9.342" transform="translate(-887.947 -68.767)"/><path class="e" d="M935.278,125.68s-19.166,41.126-33.078,46.369" transform="translate(-794.233 -71.285)"/><path class="e" d="M947.347,107.37S935.575,145.2,921,157.014" transform="translate(-826.421 -72.569)"/><path class="f" d="M955.67,141.151s31.034,13.323,49.7-.161" transform="translate(-921.543 -70.211)"/><path class="f" d="M963.491,99.83s-7.1,27.824-16.651,34.534" transform="translate(-870.218 -73.098)"/><path class="f" d="M975.33,112s17.454,6.6,23.971,1.541" transform="translate(-936.516 -72.244)"/><path class="e" d="M890.09,185.21s0,24.239,6.6,25.962" transform="translate(-742.689 -67.109)"/><path class="e" d="M884.14,215.3s-26.219,2.247-38.3-11.279" transform="translate(-682.782 -65.79)"/><path class="e" d="M867.67,158.45s6.335,24.613,23.832,31.205" transform="translate(-713.505 -68.986)"/><path class="e" d="M865.662,191.014s-18.556,6.421-34.512-9.974" transform="translate(-648.584 -67.402)"/><path class="e" d="M858.42,138.7s1.755,20.878,13.109,30.649" transform="translate(-683.634 -70.371)"/><path class="e" d="M850.816,160.952s-15.4.1-19.006-4.912" transform="translate(-634.443 -69.155)"/></g><ellipse class="a" cx="233.291" cy="16.587" rx="233.291" ry="16.587" transform="translate(565.752 769.796)"/><path class="g" d="M240.37,760.808c-3.21-5.768-7.052-11.2-10.156-17.047-2.836-5.351-5.051-11.022-7.609-16.523-4.377-9.417-9.77-18.321-14.682-27.481-3.21-6-6.314-12.542-5.693-19.327.589-6.421,4.355-11.986,5.811-18.192,5.929-25.48,20.194-48.873,28.894-73.519,2.226-6.25,4.388-12.542,7.17-18.578,5.351-11.611,12.842-22.045,20.333-32.393a91.478,91.478,0,0,1,8.989-11.172c2.686-2.686,5.7-5.051,8.144-7.962,5.03-5.993,7.384-14.618,13.676-19.263.107.278.225.546.342.824,4.505-11.5,19.616-19.091,28.38-28.626a168.5,168.5,0,0,0,14.051-18.46L357.1,425.511c3.285-4.751,6.635-9.631,7.962-15.292,1.627-6.828.118-14.1,1.723-20.932a26.4,26.4,0,0,1,5.832-11.087c-.182-.053-.375-.128-.567-.171-3.638-.974-7.491-1.145-11.1-2.012-7.866-1.873-14.7-6.9-22.537-8.914-4-1.07-8.272-1.284-11.9-3.21a9.888,9.888,0,0,1-4.6-10.509c2.536-13.43-4.548-27.042-3.35-40.665.321-3.767,1.284-7.437,1.9-11.172,1.445-8.668,1.177-17.55.663-26.347a55.649,55.649,0,0,0-8.722-10.841c-4.816-4.644-10.562-8.561-13.912-14.372-2.921-5.147-3.628-11.365-2.889-17.251.524-4.281,1.98-8.786,5.351-11.386s8.208-2.793,12.285-1.434c.567.182,1.124.407,1.669.642a14.029,14.029,0,0,1,11.065-.642c4.067,1.348,7.555,4.034,10.83,6.828a24.752,24.752,0,0,1,5.051,5.351c2.065,3.21,2.665,7.17,3.446,10.948a107.016,107.016,0,0,0,7.224,21.178c.578,1.2,2.14,3.35,3.4,5.4l2.29-.471c1,9.535,8.979,16.534,13.837,24.774,2.365,4,4.024,8.379,6.153,12.521a121.361,121.361,0,0,0,8.122,13.024q4.334,6.421,8.679,12.724a180.839,180.839,0,0,0,11.772,15.924c3.927-.321,7.855-.61,11.772-.674a95.55,95.55,0,0,1,19.594,1.744,54.57,54.57,0,0,0,.7-6.86v-.417c0-.556-.064-1.22-.139-1.937a39.6,39.6,0,0,1,1.894-66.991,28.8,28.8,0,0,1-.407-3.639V267.2a5.046,5.046,0,0,1,.075-1.07,14.147,14.147,0,0,1,.364-2.14c.086-.342.182-.685.3-1.07a10.111,10.111,0,0,1,.888-1.926.923.923,0,0,1,.075-.107c.139-.225.278-.449.439-.663s.139-.171.2-.257a5.115,5.115,0,0,1,.364-.449l.268-.278c.118-.128.235-.257.364-.375l.3-.268.375-.332.342-.257.385-.289.375-.246.385-.246c.128-.086.268-.161.407-.235l.4-.225.428-.214.4-.193.471-.2.385-.171.514-.193.364-.139.556-.193.332-.107.61-.193.289-.086.663-.182.257-.075.7-.171.2-.054.771-.171h.128l1.134-.246q7.031-1.445,14.147-2.493c3.885-.578,7.866-1.07,11.7-.2,5.286,1.177,9.7,4.751,14.639,6.967,5.843,2.633,12.328,3.328,18.556,4.773s12.638,3.917,16.544,9.021c2.975,3.9,4.163,8.85,5.051,13.676,7.405,40.28-.578,81.6-2.087,122.542-.589,15.934.128,32.971,9.16,46.016l-26.3-.7c-1.263,0-2.536-.075-3.82-.15s-2.568-.171-3.831-.321a25.34,25.34,0,0,1-9.535-2.857,16.446,16.446,0,0,1-3.713-2.889c-3.574-3.681-5.479-8.829-7.223-13.751-.589-1.659-1.177-3.339-1.7-5.03-.214-.706-.417-1.413-.6-2.14l-.086-.342-.3.139a66.207,66.207,0,0,1-3.564,5.886c-4.591,6.763-10.412,12.542-16.191,18.289-11.483,11.4-23.222,23-37.615,30.317-4.858,2.451-10.113,4.516-13.816,8.561-1.819,1.958-3.392,4.473-5.971,5.147-1.605.417-3.371,0-4.9.685-2.247.942-3.071,3.649-4.109,5.875s-3.382,4.495-5.608,3.478a11.247,11.247,0,0,1-4.195,11.162,8.2,8.2,0,0,0-2.718,2.44,8.871,8.871,0,0,0-.556,2.868,11.333,11.333,0,0,1-4.056,6.945c2.087,3.457.417,8.411.364,12.724,0,3.617,1.188,7.106,2,10.627,2.365,10.327,1.07,21.135-.856,31.548-1.07,5.747-2.429,11.7-6.175,16.159-1.22,1.445-2.675,2.7-3.96,4.1a38.1,38.1,0,0,0-6.046,9.214,72.233,72.233,0,0,0-6.56,21.018,38.268,38.268,0,0,1-3.1,10.595c-2.344,5.115-.2,11.408-2.3,16.63-.952,2.344-2.707,4.345-3.275,6.8-.8,3.564,1.07,7.127,1.573,10.755,1.22,8.5-4.912,16.384-5.468,24.945a1.969,1.969,0,0,0,.3,1.445c.417.471,1.134.46,1.7.728,1.07.514,1.359,1.958,1.7,3.157s1.306,2.558,2.493,2.194c17.582,9.407,35.786,18.1,53.368,27.5l8.026,4.281L458.7,765.441a3.1,3.1,0,0,1,1.723,2.8c0,.514-.064,1.07-.107,1.552,3.007.749,5.9,1.648,7.951,2.023.845.161,1.691.321,2.526.5a2.7,2.7,0,0,1-.385-1.07,2.14,2.14,0,0,1,1.894-2.14,6.861,6.861,0,0,1,3.093.407,45.121,45.121,0,0,0,7.491,1.38c3.007.289,6.068.278,8.978,1.07s5.779,2.558,6.956,5.351a12.981,12.981,0,0,1,.771,5.051A77.318,77.318,0,0,1,497.257,802a1.669,1.669,0,0,1-.781,1.252c-.375.15-.824,0-1.2.171a1.605,1.605,0,0,0-.7.878c-1.8,4.088-2.215,8.647-2.7,13.1q-1.07,9.9-2.707,19.744c-.642,3.831-1.434,7.833-3.927,10.787-2.74,3.21-7.074,4.634-11.258,5.2-8.829,1.188-17.743-.6-26.454-2.429-1.627-.342-3.371-.76-4.463-2.023a5.041,5.041,0,0,1-1.07-3.564c.2-4.4,4.206-7.491,7.844-9.963l4.966-3.435a2.14,2.14,0,0,0,1.07-2.419l-.321-6.5h.963c-1.07-4.58-2.793-8.979-6.164-12.125-2.322-2.14-5.351-3.638-7.78-5.586a19.263,19.263,0,0,1-10.819,3.97c-6.421-8.647-15.464-14.533-24.506-20.333a239.727,239.727,0,0,0-22.741-12.692q-9.481-4.687-19.263-8.786c-9.2-3.874-18.578-7.331-27.963-10.7-6.26-2.247-12.574-4.462-18.342-7.78-14.982-8.657-25.566-25.94-23.543-43.244,2.547-21.831-2.9-44.582-2.536-66.563.107-6.421.342-12.842,2.29-18.995a10.141,10.141,0,0,0-1.273,1.07c-3.9,3.638-4.837,9.417-8.561,13.569-2.9,3.264-7.309,5.351-9.064,9.332-1.338,3.05-1.145,7.17-3.938,8.925-.792.5-1.734.717-2.526,1.209a8.453,8.453,0,0,0-2.344,2.536c-2.964,4.227-6.036,8.754-6.357,13.912-.139,2.044.053,4.409-1.445,5.789-.428.4-.974.685-1.2,1.22-.471,1.07.771,2.2.985,3.392.31,1.648-1.316,2.9-2.322,4.281a6.731,6.731,0,0,0,0,7.93c8.775,11.4,10.359,26.754,18.032,38.943,2.654,4.206,5.608,8.187,8.176,12.446,7.9,13.077,11.889,28.1,15.763,42.9a23.7,23.7,0,0,1-6.581,7.341,36.385,36.385,0,0,0,7.331,13.537,34.081,34.081,0,0,1,2.419,3.028,5.885,5.885,0,0,1,2.386-1.8,84.786,84.786,0,0,1,2.14,18.727c0,4.152-.567,8.893-3.938,11.29a13.967,13.967,0,0,1-4.377,1.809l-7.341,2.14a7.674,7.674,0,0,1-4.056.4c-.867-.246-1.637-.781-2.526-.952a6.2,6.2,0,0,0-2.847.374l-6.346,1.851a41.953,41.953,0,0,0-6.271,2.215c-1.809.867-3.478,1.99-5.254,2.954a63.486,63.486,0,0,1-9.171,3.767l-10.937,3.767a39.8,39.8,0,0,1-9.482,2.461c-2.247.193-4.527,0-6.742.385-1.691.289-3.328.9-5.03,1.07a13.185,13.185,0,0,1-7.919-2.354,7.073,7.073,0,0,1-2.29-2.065c-1.605-2.5-.225-5.811,1.338-8.336,2.9-4.687,6.528-9.075,11.311-11.772,1.937-1.07,4.034-1.862,6.036-2.847,5.693-2.782,9.984-7.427,15.367-10.605a3.649,3.649,0,0,1,4.612.31c4.473-2.9,9.31-5.736,11.772-10.455a23.541,23.541,0,0,0,2.14-7.223c-2.515.6-5.051,1.07-7.609,1.487C253.062,791.789,248.514,775.362,240.37,760.808ZM343.178,304.4c.214,1.209.449,2.408.706,3.606,2.14,10.049,5.2,21.307,12.2,28.787a26.754,26.754,0,0,0,7.9,5.212l.781.385C359.723,328.931,351.7,316.453,343.178,304.4Z" transform="translate(423.525 -64.734)"/><path class="h" d="M423.8,244.672c-.792-3.735-1.391-7.652-3.457-10.873a24.837,24.837,0,0,0-5.062-5.351c-3.275-2.772-6.774-5.436-10.851-6.785s-8.871-1.166-12.3,1.423-4.869,7.052-5.4,11.311c-.728,5.854,0,12.018,2.9,17.122,3.317,5.789,9.075,9.631,13.912,14.276a55.243,55.243,0,0,1,9.064,11.3,32.2,32.2,0,0,0,4.131,6.036,7.844,7.844,0,0,0,6.56,2.622c2.065-.332,3.745-1.766,5.351-3.136,1.98-1.734,7.309-4.826,7.491-7.577.128-2.226-4.034-7.277-5.051-9.364a105.428,105.428,0,0,1-7.288-21.007Z" transform="translate(332.544 -64.61)"/><path class="i" d="M423.8,244.672c-.792-3.735-1.391-7.652-3.457-10.873a24.837,24.837,0,0,0-5.062-5.351c-3.275-2.772-6.774-5.436-10.851-6.785s-8.871-1.166-12.3,1.423-4.869,7.052-5.4,11.311c-.728,5.854,0,12.018,2.9,17.122,3.317,5.789,9.075,9.631,13.912,14.276a55.243,55.243,0,0,1,9.064,11.3,32.2,32.2,0,0,0,4.131,6.036,7.844,7.844,0,0,0,6.56,2.622c2.065-.332,3.745-1.766,5.351-3.136,1.98-1.734,7.309-4.826,7.491-7.577.128-2.226-4.034-7.277-5.051-9.364a105.428,105.428,0,0,1-7.288-21.007Z" transform="translate(332.544 -64.61)"/><path class="c" d="M419.628,348.12a96,96,0,0,0-26.293-3.21c-14.8.214-30.039,3.8-44.133-.738a76.553,76.553,0,0,1-10.584-4.591c-2.836-1.413-5.725-2.868-7.9-5.18-7.009-7.427-10.027-18.61-12.221-28.594s-2.761-20.236-3.328-30.435c-3.649,1.7-7.491,3.382-11.536,3.039s-8.08-3.424-8.058-7.491c.6,9.449,1.07,19.016-.524,28.348-.621,3.7-1.584,7.352-1.916,11.1-1.2,13.527,5.9,27.043,3.36,40.387a9.792,9.792,0,0,0,4.6,10.434c3.638,1.958,7.919,2.2,11.921,3.21,7.844,2,14.693,6.988,22.569,8.85,3.671.867,7.491,1.07,11.108,2,5.2,1.37,9.92,4.345,15.217,5.286,3.97.706,8.058.225,12.071.567,3.489.289,6.913,1.209,10.413,1.295,8.561.214,16.662-4.634,22.355-11.065S416.054,355.911,419.628,348.12Z" transform="translate(449.081 -61.097)"/><path class="i" d="M419.628,348.12a96,96,0,0,0-26.293-3.21c-14.8.214-30.039,3.8-44.133-.738a76.553,76.553,0,0,1-10.584-4.591c-2.836-1.413-5.725-2.868-7.9-5.18-7.009-7.427-10.027-18.61-12.221-28.594s-2.761-20.236-3.328-30.435c-3.649,1.7-7.491,3.382-11.536,3.039s-8.08-3.424-8.058-7.491c.6,9.449,1.07,19.016-.524,28.348-.621,3.7-1.584,7.352-1.916,11.1-1.2,13.527,5.9,27.043,3.36,40.387a9.792,9.792,0,0,0,4.6,10.434c3.638,1.958,7.919,2.2,11.921,3.21,7.844,2,14.693,6.988,22.569,8.85,3.671.867,7.491,1.07,11.108,2,5.2,1.37,9.92,4.345,15.217,5.286,3.97.706,8.058.225,12.071.567,3.489.289,6.913,1.209,10.413,1.295,8.561.214,16.662-4.634,22.355-11.065S416.054,355.911,419.628,348.12Z" transform="translate(449.081 -61.097)"/><path class="j" d="M658.651,356.542a73.669,73.669,0,1,0,73.669,73.665,73.669,73.669,0,0,0-73.669-73.665m0-18.192a91.861,91.861,0,1,1-91.861,91.857A91.861,91.861,0,0,1,658.651,338.35Z" transform="translate(-174.797 -56.367)"/><rect class="j" width="21.531" height="22.666" transform="translate(475.924 260.494)"/><rect class="j" width="21.531" height="22.666" transform="translate(449.192 289.119) rotate(149)"/><rect class="j" width="21.531" height="22.666" transform="matrix(-0.485, 0.875, -0.875, -0.485, 411.477, 317.793)"/><rect class="j" width="21.531" height="22.666" transform="translate(399.749 409.975) rotate(58)"/><rect class="j" width="21.531" height="22.666" transform="matrix(0.485, 0.875, -0.875, 0.485, 576.048, 306.796)"/><rect class="j" width="21.531" height="22.666" transform="translate(587.172 421.978) rotate(122)"/><rect class="j" width="21.531" height="22.666" transform="translate(530.195 269.687) rotate(31)"/><rect class="j" width="21.531" height="22.666" transform="translate(475.924 464.506)"/><rect class="j" width="21.531" height="22.666" transform="translate(437.514 477.983) rotate(-149)"/><rect class="j" width="21.531" height="22.666" transform="translate(518.516 458.554) rotate(-31)"/><rect class="j" width="26.069" height="19.263" transform="translate(573.382 364.769)"/><rect class="j" width="26.069" height="19.263" transform="translate(368.257 364.769)"/><path class="j" d="M818.571,232.632A73.669,73.669,0,1,0,892.24,306.3a73.669,73.669,0,0,0-73.669-73.665m0-18.192A91.861,91.861,0,1,1,726.71,306.3a91.861,91.861,0,0,1,91.861-91.857Z" transform="translate(-505.854 -65.059)"/><rect class="j" width="21.531" height="22.666" transform="translate(304.787 127.903)"/><rect class="j" width="21.531" height="22.666" transform="translate(278.047 156.51) rotate(149)"/><rect class="j" width="21.531" height="22.666" transform="matrix(-0.485, 0.875, -0.875, -0.485, 240.335, 185.187)"/><rect class="j" width="21.531" height="22.666" transform="translate(228.615 277.376) rotate(58)"/><rect class="j" width="21.531" height="22.666" transform="matrix(0.485, 0.875, -0.875, 0.485, 404.918, 174.208)"/><rect class="j" width="21.531" height="22.666" transform="translate(416.039 289.385) rotate(122)"/><rect class="j" width="21.531" height="22.666" transform="translate(359.058 137.082) rotate(31)"/><rect class="j" width="21.531" height="22.666" transform="translate(304.787 331.905)"/><rect class="j" width="21.531" height="22.666" transform="translate(266.376 345.385) rotate(-149)"/><rect class="j" width="21.531" height="22.666" transform="translate(347.387 325.949) rotate(-31)"/><rect class="j" width="26.069" height="19.263" transform="translate(402.255 232.167)"/><rect class="j" width="26.069" height="19.263" transform="translate(197.109 232.167)"/><path class="j" d="M498.853,227.333h-2.6a73.663,73.663,0,1,0,2.5,147.305c.867-.011,1.733-.011,2.611-.011a73.663,73.663,0,1,0-2.515-147.3m0-18.182h0A91.854,91.854,0,1,1,502,392.823c-1.07-.013-2.141.04-3.211.04a91.854,91.854,0,1,1-3.136-183.682c1.07.013,2.141-.04,3.211-.04Z" transform="translate(156.181 -65.431)"/><rect class="j" width="21.531" height="22.666" transform="matrix(-0.999, 0.035, -0.035, -0.999, 665.447, 144.501)"/><rect class="j" width="21.531" height="22.666" transform="translate(617.427 152.109) rotate(147.01)"/><rect class="j" width="21.531" height="22.666" transform="translate(580.724 182.08) rotate(117.01)"/><rect class="j" width="21.531" height="22.666" transform="matrix(0.559, 0.829, -0.829, 0.559, 572.192, 274.583)"/><rect class="j" width="21.531" height="22.666" transform="translate(744.819 165.366) rotate(59.01)"/><rect class="j" width="21.605" height="22.744" transform="translate(761.526 281.775) rotate(119.887)"/><rect class="j" width="21.531" height="22.666" transform="translate(697.678 129.851) rotate(29.01)"/><rect class="j" width="21.531" height="22.666" transform="matrix(-0.999, 0.035, -0.035, -0.999, 672.523, 348.369)"/><rect class="j" width="21.531" height="22.666" transform="translate(612.289 341.284) rotate(-150.99)"/><rect class="j" width="21.531" height="22.666" transform="translate(692.556 319.028) rotate(-32.99)"/><rect class="j" width="26.069" height="19.263" transform="matrix(-0.999, 0.035, -0.035, -0.999, 770.878, 241.757)"/><rect class="j" width="26.069" height="19.263" transform="matrix(0.999, -0.035, 0.035, 0.999, 539.13, 230.498)"/><path class="h" d="M284.038,734.118a22.108,22.108,0,0,1,7.587,2.365c3.21,1.958,5.19,5.415,6.6,8.9,3.542,8.754,4.281,18.364,4.43,27.824.128,7.619-.128,15.421-2.857,22.526a14.233,14.233,0,0,1-3.778,5.9,13.443,13.443,0,0,1-5.169,2.5c-4.067,1.07-8.786,1.07-12.114-1.5-3.7-2.9-4.634-8-5.415-12.638-1.07-6.25-2.558-12.842-7.2-17.2-3.446-3.21-8.379-4.816-10.883-8.8-2.986-4.73-1.413-10.9.492-16.17,1.659-4.559,4.088-13.815,8.861-16.148S279.073,733.219,284.038,734.118Z" transform="translate(608.214 -28.83)"/><path class="h" d="M477.3,755.447a35.8,35.8,0,0,0,7.491,13.815c2.14,2.44,4.762,5.4,3.638,8.433a7.545,7.545,0,0,1-1.99,2.665c-15.688,15.357-37.637,22.826-59.414,25.544a2.046,2.046,0,0,1-1.07,0c-.642-.289-.792-1.07-.878-1.787a22.613,22.613,0,0,1,0-6.849c1.07-5.351,5.725-9.064,10.284-12s9.546-5.779,12.093-10.562c3.21-5.95,1.83-13.7,5.608-19.263,3.061-4.527,8.743-6.421,14.137-7.309,1.873-.289,5.854-2.344,7.491-1.391C476.36,747.709,476.735,753.585,477.3,755.447Z" transform="translate(238.944 -27.739)"/><path class="j" d="M270.164,733.533a2.14,2.14,0,0,1,1.894-2.14,6.849,6.849,0,0,1,3.093.4,45.2,45.2,0,0,0,7.491,1.37c3.007.289,6.078.278,9,1.07s5.779,2.536,6.967,5.351a13.261,13.261,0,0,1,.771,5.019,76.667,76.667,0,0,1-2.333,19.487,1.691,1.691,0,0,1-.792,1.252c-.375.15-.824,0-1.2.171a1.584,1.584,0,0,0-.7.867c-1.809,4.067-2.226,8.561-2.707,13.013q-1.07,9.835-2.707,19.6c-.642,3.8-1.434,7.791-3.938,10.7-2.74,3.21-7.084,4.591-11.269,5.158-8.839,1.177-17.764-.6-26.5-2.419a7.726,7.726,0,0,1-4.463-2,4.987,4.987,0,0,1-1.07-3.542c.2-4.366,4.216-7.491,7.855-9.888l5.008-3.371a2.6,2.6,0,0,0,.878-.792,2.826,2.826,0,0,0,.246-1.605l-.321-6.421a18.385,18.385,0,0,1,16.052,9.963c.7,1.38,1.348,3,2.793,3.531,1.787.674,3.778-.835,4.377-2.643a11.514,11.514,0,0,0-.161-5.65c-2.932-15.71-2.247-31.858-4.034-47.739a10.873,10.873,0,0,0-1.594-5.03C271.94,736.047,270.324,735,270.164,733.533Z" transform="translate(624.229 -28.801)"/><path class="j" d="M462.791,791.81c-.738,1.22-1.883,2.14-2.568,3.4s-.674,3.1.556,3.82a3.766,3.766,0,0,0,2.311.235,78.227,78.227,0,0,0,42.3-19.134,29.651,29.651,0,0,0,5.18-5.682c1.38-2.14,2.547-4.655,4.9-5.533a83.655,83.655,0,0,1,2.14,18.6c0,4.12-.567,8.829-3.938,11.215a14.092,14.092,0,0,1-4.388,1.787l-7.352,2.076a7.823,7.823,0,0,1-4.066.4c-.867-.235-1.637-.781-2.526-.942a6.25,6.25,0,0,0-2.857.364l-6.346,1.851a41.986,41.986,0,0,0-6.282,2.14c-1.809.856-3.489,1.98-5.254,2.932a62.886,62.886,0,0,1-9.193,3.735l-11.172,3.874a39.408,39.408,0,0,1-9.5,2.44c-2.247.193-4.527,0-6.753.385-1.691.289-3.328.9-5.04,1.07a13.324,13.324,0,0,1-7.919-2.344,7.16,7.16,0,0,1-2.3-2.044c-1.605-2.493-.225-5.779,1.348-8.294,2.9-4.644,6.528-9,11.322-11.654,1.948-1.07,4.045-1.862,6.046-2.836,5.693-2.761,10.006-7.373,15.389-10.53C461.914,780.189,465.189,787.883,462.791,791.81Z" transform="translate(213.035 -26.166)"/><path class="h" d="M254.24,373.488a46.283,46.283,0,0,0,19.755,7.684,79.676,79.676,0,0,0,11.183.6,284.435,284.435,0,0,0,46.508-3.885c-6.121-6.742-12.307-13.912-14.618-22.751a37.368,37.368,0,0,1-.7-14.254,106.694,106.694,0,0,1,4.345-17.946,124.349,124.349,0,0,1-19.658-.5c-3.724-.375-12.842-3.767-16.052-1.2-3.007,2.386-.738,10.83-.685,14.725v.417a47.385,47.385,0,0,1-3.756,17.186C275.857,364.092,265.787,372.738,254.24,373.488Z" transform="translate(578.502 -57.635)"/><path class="i" d="M265.339,335.908a39.253,39.253,0,0,0,32.1,4.923,106.691,106.691,0,0,1,4.345-17.946,124.357,124.357,0,0,1-19.659-.5c-3.724-.375-12.842-3.767-16.052-1.2C263.017,323.569,265.286,332.012,265.339,335.908Z" transform="translate(597.441 -57.639)"/><ellipse class="h" cx="39.167" cy="39.167" rx="39.167" ry="39.167" transform="translate(845.059 204.494)"/><path class="c" d="M244.373,497.1a18.192,18.192,0,0,0,8.829,15.72,34.885,34.885,0,0,0,9.631,3.371c17.914,4.281,36.267,7.8,54.663,6.753,3.981-.225,8.026-.7,11.6-2.44s6.624-5.008,7.159-8.946a8.476,8.476,0,0,1,.567-2.847,8.026,8.026,0,0,1,2.718-2.418,11.14,11.14,0,0,0,4.131-11.055c2.237,1,4.57-1.252,5.618-3.467s1.873-4.891,4.12-5.822c1.53-.653,3.3-.268,4.912-.685,2.579-.663,4.152-3.21,5.971-5.115,3.713-3.97,8.979-6.025,13.837-8.465,14.415-7.266,26.165-18.781,37.669-30.1,5.789-5.7,11.622-11.451,16.213-18.192,1.295-1.894,2.461-3.842,3.564-5.843a164.294,164.294,0,0,0,9.032-20.664c1.455-3.788,2.932-7.791,2.333-11.772-.053-.364-.128-.728-.214-1.07a22.527,22.527,0,0,0-3.553-7.181c-3.981-5.854-9.2-11.4-16.052-13.195s-13.687.375-20.643,1.851a52.6,52.6,0,0,1-7.009,1.07c-7.373.524-14.672-1.455-21.8-3.424l-7.769-2.14c-3.9-1.07-5.843-5.779-9.781-6.6a13.731,13.731,0,0,0-5.276.268c-7.994,1.52-16.052,3.478-23.083,7.544a38.029,38.029,0,0,0-4.484,3.05c-5.008,3.96-8.968,9.235-10.423,15.4-1.605,6.774-.1,14.008-1.723,20.782-1.327,5.6-4.687,10.477-7.983,15.2l-19.123,27.31a169.687,169.687,0,0,1-14.072,18.342C263.7,473.473,244.629,481.916,244.373,497.1Z" transform="translate(473.671 -55.25)"/><path class="h" d="M411.849,244.672c-.792-3.735-1.38-7.652-3.446-10.873a24.838,24.838,0,0,0-5.062-5.351c-3.285-2.772-6.774-5.436-10.851-6.785s-8.871-1.166-12.3,1.423-4.869,7.052-5.4,11.311c-.728,5.854,0,12.018,2.9,17.122,3.317,5.789,9.075,9.631,13.912,14.276a55.65,55.65,0,0,1,9.064,11.3,32.2,32.2,0,0,0,4.131,6.036,7.844,7.844,0,0,0,6.56,2.622c2.055-.332,3.746-1.766,5.351-3.135,1.98-1.734,7.32-4.826,7.491-7.577.128-2.226-4.034-7.277-5.051-9.364a106.148,106.148,0,0,1-7.3-21.007Z" transform="translate(357.262 -64.61)"/><path class="j" d="M284.011,680.115c4.923,9.086,10.316,17.936,14.7,27.289,2.558,5.468,4.773,11.1,7.619,16.416,3.1,5.8,6.924,11.194,10.166,16.93,8.165,14.458,12.713,30.767,16.919,46.829a93.284,93.284,0,0,0,33.346-11.772c.7-.407,1.359-.835,2-1.295A23.8,23.8,0,0,0,375.5,767.1c-3.885-14.693-7.876-29.632-15.785-42.613-2.579-4.281-5.533-8.187-8.187-12.36-7.694-12.093-9.278-27.353-18.064-38.675a6.646,6.646,0,0,1,0-7.876c1.017-1.316,2.633-2.568,2.333-4.195-.225-1.188-1.466-2.258-.985-3.371.225-.535.771-.824,1.2-1.209,1.5-1.38,1.306-3.735,1.434-5.757.332-5.126,3.4-9.631,6.421-13.816a8.562,8.562,0,0,1,2.344-2.526c.792-.482,1.734-.7,2.526-1.188,2.8-1.755,2.6-5.843,3.949-8.871,1.755-3.992,6.175-6.025,9.075-9.267,3.692-4.12,4.634-9.867,8.561-13.473a10.7,10.7,0,0,1,1.273-1.07c-1.948,6.046-2.14,12.5-2.279,18.867-.375,21.82,5.083,44.411,2.526,66.092-2.012,17.2,8.561,34.362,23.6,42.956,5.779,3.3,12.093,5.5,18.364,7.737,9.407,3.328,18.781,6.763,28.006,10.616q9.781,4.045,19.263,8.722a243.394,243.394,0,0,1,22.783,12.606c9.053,5.757,18.107,11.611,24.538,20.2,6.218-.171,11.911-3.906,15.849-8.722s6.421-10.7,8.679-16.437c2-4.976,3.97-10.113,4.12-15.474a3.061,3.061,0,0,0-1.862-2.676l-42.988-22.783-8.037-4.281c-17.6-9.342-35.839-17.978-53.443-27.31-1.188.353-2.14-1-2.493-2.14s-.6-2.622-1.712-3.135c-.556-.268-1.284-.257-1.7-.728a2.033,2.033,0,0,1-.3-1.423c.567-8.561,6.71-16.341,5.479-24.784-.524-3.6-2.376-7.138-1.573-10.7.567-2.451,2.322-4.43,3.275-6.753,2.14-5.19,0-11.44,2.312-16.523a38.2,38.2,0,0,0,3.1-10.53,71.519,71.519,0,0,1,6.571-20.868,38.044,38.044,0,0,1,6.046-9.15c1.295-1.391,2.75-2.633,3.981-4.077,3.735-4.43,5.115-10.338,6.175-16.052,1.926-10.348,3.21-21.082.856-31.334-.813-3.5-2.055-6.967-2-10.552.053-4.741,2.14-10.273-1.156-13.7a10.637,10.637,0,0,0-4.816-2.472c-7.577-2.258-15.464-3.285-23.308-4.281l-35.9-4.7c-4.109-.546-8.315-1.07-11.943-3.114-4.869-2.686-8.1-7.662-10.081-12.842-6.3,4.6-8.657,13.173-13.687,19.113-2.451,2.9-5.479,5.244-8.165,7.908a91.625,91.625,0,0,0-9,11.1c-7.491,10.284-14.982,20.643-20.333,32.179-2.793,5.993-4.955,12.242-7.181,18.46-8.764,24.474-23.051,47.707-28.979,73.005-1.455,6.185-5.233,11.772-5.822,18.1C277.687,667.659,280.79,674.144,284.011,680.115Z" transform="translate(347.447 -46.355)"/><path class="i" d="M343.074,477.537a11.022,11.022,0,0,1,1.327,5.3c-.8-3.96-6.25-6.153-6.6-10.07-.161-1.809.171-1.723,1.284-.771C340.773,473.46,341.511,475.985,343.074,477.537Z" transform="translate(476.409 -47.04)"/><path class="i" d="M355.021,488.453a8.166,8.166,0,0,1,2.483,3.671,9.31,9.31,0,0,1,.5,6.421c-.8-.375-1.07-1.359-1.316-2.215a15.451,15.451,0,0,0-1.7-3.788c-.642-1.07-3.606-3.457-3.6-4.58C351.425,486.238,354.229,487.843,355.021,488.453Z" transform="translate(447.864 -45.928)"/><path class="i" d="M240.987,365.212a40.385,40.385,0,0,0,8.261,5.5c7.759,3.927,16.352,6,24.164,9.813a119.64,119.64,0,0,1,11.215,6.539l23.222,14.714a24.9,24.9,0,0,1,5.115,3.885c2.793,2.975,2.782,8.208,5.351,11.4s7,4.987,11.269,5.2a36.609,36.609,0,0,0,12.553-2.14,65.171,65.171,0,0,0,7.17-2.611,33.787,33.787,0,0,0,6.892-3.938c4.141-3.125,7.491-7.673,8.112-12.842a25.362,25.362,0,0,0-1.38-10.466,40.158,40.158,0,0,0-2.472-6.346,25.536,25.536,0,0,0-1.969-3.339c-5.351-7.555-14.736-11.1-23.821-12.842-4.773-.931-9.631-1.5-14.458-2.312a52.6,52.6,0,0,1-7.009,1.07c-7.373.524-14.672-1.455-21.8-3.424l-7.769-2.14c-3.9-1.07-5.843-5.779-9.781-6.6a13.731,13.731,0,0,0-5.276.268c-7.994,1.52-16.052,3.478-23.083,7.544a38.03,38.03,0,0,0-4.505,3.071Z" transform="translate(559.982 -55.256)"/><path class="c" d="M268.836,267.35c1,9.471,8.989,16.427,13.912,24.613,2.365,3.97,4.024,8.326,6.153,12.435a123.253,123.253,0,0,0,8.133,12.949l8.7,12.628c5.115,7.427,10.284,14.918,16.823,21.135,11.4,1.937,20.953,10.4,31.762,14.511,8.647,3.285,18.075,3.735,27.15,5.5s18.481,5.351,23.811,12.842a33.613,33.613,0,0,1,4.452,9.631,24.956,24.956,0,0,1,1.37,10.455c-.653,5.158-3.959,9.7-8.1,12.842s-9.1,5.008-14.062,6.549a36.866,36.866,0,0,1-12.553,2.14c-4.281-.214-8.625-1.862-11.279-5.2s-2.526-8.422-5.351-11.4a24.977,24.977,0,0,0-5.126-3.885l-23.222-14.714a119.659,119.659,0,0,0-11.2-6.5c-7.812-3.82-16.405-5.886-24.164-9.813s-14.982-10.412-16.534-18.974c-4.73-26.3-22.933-48.477-38.525-70.2.514-.107.353-1.273.546-1.766,1.99-5.158,6.421-9.043,11.408-11.493S263.486,268.506,268.836,267.35Z" transform="translate(513.191 -61.348)"/><path class="j" d="M201.764,268.723a14.511,14.511,0,0,1,1.616-8.262c2.579-4.281,7.983-5.789,12.842-6.8q7.052-1.445,14.169-2.483c3.9-.567,7.887-1.07,11.718-.193,5.351,1.166,9.706,4.709,14.661,6.913,5.854,2.611,12.339,3.3,18.588,4.741s12.649,3.9,16.566,8.968c2.975,3.853,4.163,8.775,5.051,13.569,7.416,40.013-.567,81.053-2.087,121.718-.589,15.827.128,32.746,9.171,45.749l-26.336-.7c-6.742-.171-13.987-.524-19.263-4.687-4.666-3.66-6.87-9.556-8.871-15.143-1.573-4.4-3.157-8.882-3.36-13.548-.417-9.556,5.008-18.942,3.21-28.348-1.316-7.02-6.421-12.692-11.889-17.3S226,364.362,221.583,358.712c-7.9-9.984-9.407-23.629-8.422-36.31.589-7.544,1.937-15.089,1.284-22.634-.492-5.64-2.279-11.461-5.971-15.86C204.322,278.922,202.128,275.8,201.764,268.723Z" transform="translate(662.365 -62.528)"/><path class="i" d="M203.321,260.252c2.536-4.216,7.8-5.736,12.628-6.742a12.446,12.446,0,0,0-6.25,4.923,14.425,14.425,0,0,0-1.616,8.261c.364,7.063,2.558,10.188,6.753,15.185,3.692,4.4,5.479,10.209,5.971,15.86.653,7.544-.7,15.089-1.284,22.634-.985,12.681.524,26.326,8.411,36.31,4.43,5.608,10.509,9.631,15.967,14.211s10.584,10.284,11.9,17.3c1.766,9.407-3.66,18.792-3.21,28.348.2,4.666,1.8,9.15,3.371,13.548,1.99,5.586,4.206,11.472,8.871,15.132,5.351,4.163,12.553,4.527,19.263,4.7l18.653.492c.417.685.845,1.37,1.306,2.023l-26.336-.7c-6.742-.171-13.987-.524-19.263-4.687-4.666-3.66-6.87-9.556-8.871-15.143-1.573-4.4-3.157-8.882-3.36-13.548-.417-9.556,5.008-18.942,3.21-28.348-1.316-7.02-6.421-12.692-11.889-17.3S226,364.152,221.578,358.5c-7.9-9.984-9.407-23.629-8.422-36.31.589-7.544,1.937-15.089,1.284-22.634-.492-5.64-2.279-11.461-5.971-15.86-4.195-4.987-6.421-8.112-6.753-15.185A14.511,14.511,0,0,1,203.321,260.252Z" transform="translate(662.424 -62.318)"/><path class="i" d="M429.21,650.313l48.338,117.876a23.8,23.8,0,0,0,6.731-7.416c-3.885-14.693-7.876-29.632-15.785-42.613-2.579-4.281-5.533-8.187-8.187-12.36-7.694-12.093-9.278-27.353-18.064-38.675a6.646,6.646,0,0,1,0-7.876c1.017-1.316,2.633-2.568,2.333-4.195-.225-1.188-1.466-2.258-.985-3.371.225-.535.771-.824,1.2-1.209,1.5-1.38,1.306-3.735,1.434-5.757.332-5.126,3.4-9.631,6.421-13.816a8.561,8.561,0,0,1,2.344-2.526c.792-.482,1.734-.7,2.526-1.188,2.8-1.755,2.6-5.843,3.949-8.871,1.755-3.992,6.175-6.025,9.075-9.267,3.692-4.12,4.634-9.867,8.561-13.473l.332-.835L475.665,572Z" transform="translate(238.665 -39.979)"/></g></svg>