<?xml version="1.0" encoding="utf-8"?>
<!-- Generator: Adobe Illustrator 23.0.4, SVG Export Plug-In . SVG Version: 6.00 Build 0)  -->
<svg version="1.1" id="Capa_1" xmlns="http://www.w3.org/2000/svg" xmlns:xlink="http://www.w3.org/1999/xlink" x="0px" y="0px"
	 viewBox="0 0 512 512" style="enable-background:new 0 0 512 512;" xml:space="preserve">
<style type="text/css">
	.st0{fill:#597690;}
</style>
<g>
	<g>
		<path class="st0" d="M229.7,141.7l-11.3-11.3l-24,24c-3.1,3.1-3.1,8.2,0,11.3l24,24l11.3-11.3L211.3,160L229.7,141.7z"/>
	</g>
</g>
<g>
	<g>
		<path class="st0" d="M317.7,154.3l-24-24l-11.3,11.3l18.3,18.3l-18.3,18.3l11.3,11.3l24-24C320.8,162.5,320.8,157.5,317.7,154.3z"
			/>
	</g>
</g>
<g>
	<g>
		
			<rect x="230.7" y="152" transform="matrix(0.3164 -0.9486 0.9486 0.3164 23.1832 352.2025)" class="st0" width="50.6" height="16"/>
	</g>
</g>
<g>
	<g>
		<path class="st0" d="M368,0H144c-8.8,0-16,7.2-16,16v480c0,8.8,7.2,16,16,16h224c8.8,0,16-7.2,16-16V16C384,7.2,376.8,0,368,0z
			 M368,496H144V16h224V496z"/>
	</g>
</g>
<g>
	<g>
		<path class="st0" d="M200,80V64h-32c-4.4,0-8,3.6-8,8v320c0,4.4,3.6,8,8,8h32v-16h-24V80H200z"/>
	</g>
</g>
<g>
	<g>
		<path class="st0" d="M344,64h-32v16h24v304h-24v16h32c4.4,0,8-3.6,8-8V72C352,67.6,348.4,64,344,64z"/>
	</g>
</g>
<g>
	<g>
		<rect x="216" y="64" class="st0" width="80" height="16"/>
	</g>
</g>
<g>
	<g>
		<path class="st0" d="M256,416c-17.6,0-32,14.4-32,32s14.4,32,32,32s32-14.4,32-32S273.6,416,256,416z M256,464
			c-8.8,0-16-7.2-16-16s7.2-16,16-16c8.8,0,16,7.2,16,16S264.8,464,256,464z"/>
	</g>
</g>
<g>
	<g>
		<rect x="224" y="32" class="st0" width="64" height="16"/>
	</g>
</g>
<g>
	<g>
		<rect x="216" y="384" class="st0" width="80" height="16"/>
	</g>
</g>
<g>
	<g>
		<path class="st0" d="M112,64V48H8c-4.4,0-8,3.6-8,8v64v336c0,4.4,3.6,8,8,8h104v-16H16V128h96v-16H16V64H112z"/>
	</g>
</g>
<g>
	<g>
		<rect x="32" y="80" class="st0" width="16" height="16"/>
	</g>
</g>
<g>
	<g>
		<rect x="64" y="80" class="st0" width="16" height="16"/>
	</g>
</g>
<g>
	<g>
		<rect x="96" y="80" class="st0" width="16" height="16"/>
	</g>
</g>
<g>
	<g>
		<path class="st0" d="M504,48H400v16h96v48h-96v16h96v320h-96v16h104c4.4,0,8-3.6,8-8V120V56C512,51.6,508.4,48,504,48z"/>
	</g>
</g>
<g>
	<g>
		<rect x="432" y="80" class="st0" width="48" height="16"/>
	</g>
</g>
<g>
	<g>
		<rect x="200" y="224" class="st0" width="32" height="16"/>
	</g>
</g>
<g>
	<g>
		<rect x="248" y="224" class="st0" width="64" height="16"/>
	</g>
</g>
<g>
	<g>
		<rect x="280" y="256" class="st0" width="32" height="16"/>
	</g>
</g>
<g>
	<g>
		<rect x="200" y="256" class="st0" width="64" height="16"/>
	</g>
</g>
<g>
	<g>
		<rect x="200" y="288" class="st0" width="32" height="16"/>
	</g>
</g>
<g>
	<g>
		<rect x="248" y="288" class="st0" width="64" height="16"/>
	</g>
</g>
<g>
	<g>
		<rect x="280" y="320" class="st0" width="32" height="16"/>
	</g>
</g>
<g>
	<g>
		<rect x="200" y="320" class="st0" width="64" height="16"/>
	</g>
</g>
</svg>
