<svg xmlns="http://www.w3.org/2000/svg" width="1199.698" height="910.804" viewBox="0 0 1199.698 910.804"><defs><style>.a{fill:#f2f2f2;}.b{fill:#3f3d56;}.c{opacity:0.1;}.d{fill:#b7b7b7;}.e{fill:#597690;}.f{fill:#2f2e41;}.g{fill:#fbbebe;}</style></defs><path class="a" d="M615.53,827.776C357.31,808.126,49.371,608.048,65.049,402.034S378.969,4.24,637.189,23.89s406.86,404.655,391.182,610.668S873.75,847.427,615.53,827.776Z" transform="translate(-35.104 -22.5)"/><ellipse class="b" cx="539.026" cy="33.023" rx="539.026" ry="33.023" transform="translate(63.057 772.319)"/><ellipse class="c" cx="459.131" cy="21.838" rx="459.131" ry="21.838" transform="translate(142.952 782.972)"/><ellipse class="b" cx="226.043" cy="19.707" rx="226.043" ry="19.707" transform="translate(0 871.389)"/><ellipse class="c" cx="192.539" cy="13.032" rx="192.539" ry="13.032" transform="translate(33.504 877.746)"/><rect class="d" width="801.082" height="628.508" transform="translate(208.999 172.573)"/><path class="a" d="M612.8,265.423H415.171a2.4,2.4,0,0,1,0-4.8H612.8a2.4,2.4,0,0,1,0,4.8Z" transform="translate(-12.371 -6.958)"/><path class="a" d="M822.811,290.189H511.982a2.4,2.4,0,0,1,0-4.8H822.811a2.4,2.4,0,0,1,0,4.8Z" transform="translate(-6.052 -5.342)"/><path class="a" d="M613.7,314.954H416.071a2.4,2.4,0,1,1,0-4.8H613.7a2.4,2.4,0,1,1,0,4.8Z" transform="translate(-12.312 -3.725)"/><path class="a" d="M815.875,315.4H618.249a2.4,2.4,0,0,1,0-4.8H815.875a2.4,2.4,0,0,1,0,4.8Z" transform="translate(0.884 -3.696)"/><path class="a" d="M614.148,339.72H416.521a2.4,2.4,0,1,1,0-4.8H614.148a2.4,2.4,0,1,1,0,4.8Z" transform="translate(-12.283 -2.109)"/><path class="a" d="M614.6,364.486H416.972a2.4,2.4,0,1,1,0-4.8H614.6a2.4,2.4,0,0,1,0,4.8Z" transform="translate(-12.253 -0.492)"/><path class="a" d="M690.161,265.873h-56.6a2.4,2.4,0,0,1,0-4.8h56.6a2.4,2.4,0,0,1,0,4.8Z" transform="translate(1.883 -6.929)"/><path class="a" d="M690.161,339.72h-56.6a2.4,2.4,0,0,1,0-4.8h56.6a2.4,2.4,0,0,1,0,4.8Z" transform="translate(1.883 -2.109)"/><path class="a" d="M690.161,364.036h-56.6a2.4,2.4,0,1,1,0-4.8h56.6a2.4,2.4,0,0,1,0,4.8Z" transform="translate(1.883 -0.522)"/><path class="a" d="M779.317,364.036h-56.6a2.4,2.4,0,0,1,0-4.8h56.6a2.4,2.4,0,1,1,0,4.8Z" transform="translate(7.702 -0.522)"/><path class="a" d="M471.322,290.189h-56.6a2.4,2.4,0,0,1,0-4.8h56.6a2.4,2.4,0,0,1,0,4.8Z" transform="translate(-12.4 -5.342)"/><path class="a" d="M613.022,630.154H415.4a2.4,2.4,0,1,1,0-4.8H613.022a2.4,2.4,0,0,1,0,4.8Z" transform="translate(-12.356 16.847)"/><path class="a" d="M612.121,679.686H414.5a2.4,2.4,0,1,1,0-4.8H612.121a2.4,2.4,0,1,1,0,4.8Z" transform="translate(-12.415 20.08)"/><path class="a" d="M612.571,704.452H414.945a2.4,2.4,0,0,1,0-4.8H612.571a2.4,2.4,0,1,1,0,4.8Z" transform="translate(-12.386 21.697)"/><path class="a" d="M683.181,680.136h-56.6a2.4,2.4,0,0,1,0-4.8h56.6a2.4,2.4,0,0,1,0,4.8Z" transform="translate(1.427 20.11)"/><path class="a" d="M683.181,704.452h-56.6a2.4,2.4,0,1,1,0-4.8h56.6a2.4,2.4,0,1,1,0,4.8Z" transform="translate(1.427 21.697)"/><path class="a" d="M772.338,680.136h-56.6a2.4,2.4,0,0,1,0-4.8h56.6a2.4,2.4,0,0,1,0,4.8Z" transform="translate(7.246 20.11)"/><path class="a" d="M823.036,654.92H512.207a2.4,2.4,0,1,1,0-4.8H823.036a2.4,2.4,0,1,1,0,4.8Z" transform="translate(-6.038 18.464)"/><path class="a" d="M471.547,654.92h-56.6a2.4,2.4,0,1,1,0-4.8h56.6a2.4,2.4,0,1,1,0,4.8Z" transform="translate(-12.386 18.464)"/><path class="a" d="M823.036,729.668H512.207a2.4,2.4,0,1,1,0-4.8H823.036a2.4,2.4,0,1,1,0,4.8Z" transform="translate(-6.038 23.342)"/><path class="a" d="M471.547,729.668h-56.6a2.4,2.4,0,1,1,0-4.8h56.6a2.4,2.4,0,1,1,0,4.8Z" transform="translate(-12.386 23.342)"/><path class="e" d="M523.762,401.13l-76.748,75.788,76.748,75.789,17.268-17.268L482.99,477.4l58.519-58.52Z" transform="translate(29.176 26.181)"/><path class="e" d="M626.414,401.13l76.748,75.788-76.748,75.789-17.268-17.268L667.187,477.4l-58.52-58.52Z" transform="translate(39.727 26.181)"/><circle class="e" cx="9.587" cy="9.587" r="9.587" transform="translate(220.717 178.965)"/><circle class="e" cx="9.587" cy="9.587" r="9.587" transform="translate(246.283 178.965)"/><circle class="e" cx="9.587" cy="9.587" r="9.587" transform="translate(271.85 178.965)"/><rect class="c" width="801.082" height="3.196" transform="translate(208.999 204.531)"/><path class="a" d="M1174.15,639.411c0,67.933-40.385,91.653-90.2,91.653s-90.2-23.72-90.2-91.653,90.2-154.355,90.2-154.355S1174.15,571.477,1174.15,639.411Z" transform="translate(25.548 7.69)"/><path class="b" d="M1040.654,698.172l.924-56.854,38.447-70.336-38.3,61.418.415-25.564,26.5-50.887-26.387,44.122h0l.747-45.978,28.374-40.513-28.256,33.283.467-84.306-2.933,111.607.241-4.6L1012.039,525.4l28.385,52.995-2.688,51.349-.08-1.363L1004.4,581.915l33.156,51.283-.336,6.422-.061.1.027.527-6.82,130.278h9.111l1.093-67.291,33.076-51.159Z" transform="translate(65.555 30.19)"/><path class="f" d="M161.422,773.975a45.924,45.924,0,0,1-8.712,3.731c-5.41,1.478-11.193.936-16.658,2.2-2.237.516-4.673,1.6-5.384,3.78-.522,1.6.046,3.331.59,4.925,6.039,17.7,9.678,36.5,19.308,52.539a79.515,79.515,0,0,0,14.906,18.1c2.189,1.973,4.67,3.9,7.6,4.213a7.721,7.721,0,0,0,7.852-10.847c-.863-1.919-2.469-3.4-3.5-5.237a19.981,19.981,0,0,1-1.938-7.447c-.951-7.572-1.868-15.487.756-22.653,1.76-4.807,4.988-8.9,7.677-13.26s4.923-9.344,4.325-14.428c-.408-3.469-2.1-6.644-3.888-9.645s-5.331-11.088-8.93-12.091C171.686,766.808,164.68,772.305,161.422,773.975Z" transform="translate(-30.797 26.139)"/><path class="f" d="M252.4,832.29a14.936,14.936,0,0,1-.706,5.055c-1.127,2.975-3.921,5.013-5.365,7.848-2.008,3.942-1.1,8.707.232,12.927.834,2.645,1.928,5.4,4.168,7.034a13.734,13.734,0,0,0,6.342,2.032c19.214,2.659,38.731,1.134,58.12,1.691,3.534.1,7.275.225,10.36-1.5s4.992-6.069,2.894-8.914c-1.884-2.555-5.609-2.531-8.78-2.682A36.125,36.125,0,0,1,297.39,846.6a16.086,16.086,0,0,1-3.125-3.6,22.1,22.1,0,0,1-1.635-3.747,167.032,167.032,0,0,0-9.676-21.432c-1.043-1.933-2.223-3.947-4.161-4.981a11,11,0,0,0-4.516-.986c-4.832-.313-17.346-1.958-21.083,1.8C249.742,817.13,252.48,827.88,252.4,832.29Z" transform="translate(-23.311 28.979)"/><circle class="g" cx="30.866" cy="30.866" r="30.866" transform="translate(227.963 370.442)"/><path class="g" d="M254.29,424.023c-1.836,4.915-4.95,9.531-9.481,12.176l42.69,8.708a45.224,45.224,0,0,1-.6-19.035,10.974,10.974,0,0,0,.255-4.7c-.8-3.1-4.289-4.588-7.409-5.3-7.791-1.776-14.682-2.729-21.922-6.17C255.612,413.495,255.922,419.655,254.29,424.023Z" transform="translate(-23.334 2.772)"/><path class="f" d="M246.843,423.909a33.384,33.384,0,0,1,29.1.76c5.473,2.884,10,7.238,14.457,11.533,4.1,3.959,8.482,8.493,8.773,14.188.141,2.759-.72,5.457-1.155,8.185a27.448,27.448,0,0,0,14.679,28.2c3.391,5.649,4.091,12.494,4.143,19.083.2,24.966-7.68,50.239-2.056,74.564,1.32,5.711,3.368,11.243,4.508,16.992,1.477,7.447,1.4,15.105,2.177,22.658a101.488,101.488,0,0,0,5.447,23.964c-1.858,2.955-5.724,4.088-9.206,3.848s-6.738-1.75-9.845-3.34c-15.045-7.7-28.825-17.851-44.408-24.394-10.309-4.329-21.292-7.025-31.293-12.025s-19.3-12.935-22.36-23.689c-1.322-4.651-1.4-9.55-1.476-14.384-.3-20.361-.586-40.945,3.846-60.82,3.908-17.528,11.443-34.3,13.086-52.178.535-5.821.546-12.052,3.8-16.909C233.652,433.276,243.578,431.5,246.843,423.909Z" transform="translate(-25.725 3.505)"/><path class="f" d="M265.448,402.514c1.819-2.372,5.327-2.7,8.232-1.994s5.585,2.2,8.519,2.768a4.98,4.98,0,0,0,3.988-.56,5.8,5.8,0,0,0,1.721-3.8,72.616,72.616,0,0,0,.715-18.515,5.481,5.481,0,0,1,.169-2.6c.727-1.751,2.943-2.167,4.753-2.729a14.185,14.185,0,0,0,9.6-14.523,5.775,5.775,0,0,0-1.765-3.985c-1.252-1.02-3-1.083-4.619-1.1q-12.446-.1-24.892.006c-3.071.026-6.3.1-8.958,1.633-1.968,1.132-3.432,2.954-5.2,4.38-4.608,3.719-10.842,4.476-16.449,6.382a16.308,16.308,0,0,0-7.209,4.3c-1.865,2.13-2.761,5.3-1.59,7.875a27.949,27.949,0,0,0,2.01,3.094c3.307,5.288,1.106,12.147,1.6,18.365.617,7.764,12.107,20.359,19.9,22.2C268.551,426.676,261.284,407.61,265.448,402.514Z" transform="translate(-24.174 -0.77)"/><path class="f" d="M247.4,722.5c.794,5.669,1.812,11.358,1.54,17.075-.38,7.983-3.259,15.674-3.791,23.648-.4,5.956.522,11.976-.305,17.887-.53,3.785-1.764,7.434-2.528,11.179a46.227,46.227,0,0,0,7.428,35.436,5.8,5.8,0,0,0,2.155,2.089,6.085,6.085,0,0,0,2.672.353,191.7,191.7,0,0,0,26.813-2.437,2.572,2.572,0,0,0,1.722-.76,2.413,2.413,0,0,0,.374-1.016c1.645-8.454-2.106-16.931-3.059-25.49-1.018-9.14,1.175-18.3,3.351-27.233a120.973,120.973,0,0,1,3.694-13.026c1.052-2.873,2.323-5.668,3.235-8.589a65.478,65.478,0,0,0,2.346-14.064q.95-11.266,1.006-22.582a94.765,94.765,0,0,0-1.774-21.316c-2-8.882-6.1-17.13-10.158-25.279a16.011,16.011,0,0,0-5.984,2.844,133.545,133.545,0,0,1-16.352,9.034c-3.8,1.765-11.209,3.018-13.62,6.7-2.378,3.627-.844,11.027-.662,15.026Q245.972,712.274,247.4,722.5Z" transform="translate(-23.554 19.655)"/><path class="c" d="M247.4,722.5c.794,5.669,1.812,11.358,1.54,17.075-.38,7.983-3.259,15.674-3.791,23.648-.4,5.956.522,11.976-.305,17.887-.53,3.785-1.764,7.434-2.528,11.179a46.227,46.227,0,0,0,7.428,35.436,5.8,5.8,0,0,0,2.155,2.089,6.085,6.085,0,0,0,2.672.353,191.7,191.7,0,0,0,26.813-2.437,2.572,2.572,0,0,0,1.722-.76,2.413,2.413,0,0,0,.374-1.016c1.645-8.454-2.106-16.931-3.059-25.49-1.018-9.14,1.175-18.3,3.351-27.233a120.973,120.973,0,0,1,3.694-13.026c1.052-2.873,2.323-5.668,3.235-8.589a65.478,65.478,0,0,0,2.346-14.064q.95-11.266,1.006-22.582a94.765,94.765,0,0,0-1.774-21.316c-2-8.882-6.1-17.13-10.158-25.279a16.011,16.011,0,0,0-5.984,2.844,133.545,133.545,0,0,1-16.352,9.034c-3.8,1.765-11.209,3.018-13.62,6.7-2.378,3.627-.844,11.027-.662,15.026Q245.972,712.274,247.4,722.5Z" transform="translate(-23.554 19.655)"/><path class="f" d="M210.348,605.518c-4.1,11.036,1.926,22.961,7.161,33.5,12.9,25.978,21.851,53.7,30.759,81.3.667,2.067,1.334,4.323.59,6.364a8.337,8.337,0,0,1-3.006,3.565c-6.142,4.665-13.962,6.327-21.278,8.767a96.075,96.075,0,0,0-20.179,9.459c-5.3,3.285-10.268,7.078-15.225,10.863l-15.779,12.051a10.548,10.548,0,0,0-2.637,2.553c-1.522,2.388-.9,5.5-.141,8.233a140.022,140.022,0,0,0,7.725,21.084,7.361,7.361,0,0,0,2.8,3.672c2.463,1.324,5.475-.431,7.356-2.5s3.507-4.643,6.158-5.532,5.562.187,8.328-.2c4.473-.628,7.442-4.748,10.666-7.911,13.172-12.923,35.165-11.985,49.655-23.412a63.108,63.108,0,0,1,6.638-5.185c2.45-1.448,5.228-2.243,7.769-3.522,7.73-3.893,12.59-11.94,15.193-20.194s3.346-16.967,5.216-25.418c.967-4.369,2.24-8.69,2.67-13.144a70.4,70.4,0,0,0-.27-12.428l-5.228-64.678c-.426-5.266-.852-10.538-1.679-15.756-15.528.555-31.045,1.18-46.582,1.363C234.668,608.561,222.078,609.425,210.348,605.518Z" transform="translate(-28.228 15.552)"/><path class="f" d="M202.6,621.275c2.106,3.388,7.233,3.318,10.764,1.46s6.273-4.978,9.812-6.819c4.755-2.474,10.382-2.381,15.741-2.23,8.483.24,17.071.495,25.233,2.819,8.442,2.4,16.66,7.034,25.39,6.111,1.519-.161,3.18-.6,4.007-1.881a5.906,5.906,0,0,0,.66-3.021l.285-7.626a6.886,6.886,0,0,0-.607-3.862,6.477,6.477,0,0,0-2.893-2.215c-12.425-6.015-26.594-7.135-40.39-7.607q-10.519-.36-21.047-.3c-5.956.036-13.106-.825-18.9.766C202.884,599.01,198.655,614.935,202.6,621.275Z" transform="translate(-26.187 14.925)"/><path class="e" d="M280.72,432.911c-16.28-.144-31.032-10.89-47.31-11.151a12.269,12.269,0,0,0-5.745.991c-2.268,1.143-3.76,3.352-5.483,5.218-4.813,5.212-11.783,8-16.728,13.083-4.636,4.77-7.215,11.877-5.384,18.273s8.739,11.3,15.211,9.763a39.2,39.2,0,0,1,15.273-20.751,77.628,77.628,0,0,1,11.937-6.266c7.316-3.315,15.5-6.693,23.135-4.208a32.638,32.638,0,0,1,7.893,4.3l12.734,8.554C284.769,444.868,283.434,438.3,280.72,432.911Z" transform="translate(-26.292 3.557)"/><path class="e" d="M213.94,462.617c-2.162,2.7.952,6.6.476,10.028-.317,2.274-2.188,4.011-2.968,6.171-.807,2.237-.379,4.716-.685,7.075a30.343,30.343,0,0,1-1.358,5.038,90.522,90.522,0,0,0-2.862,14.941l-2.849,21.279a80.608,80.608,0,0,0-.9,9.67,28.876,28.876,0,0,1-.482,7.23c-.631,2.326-2.028,4.36-2.968,6.578s-1.376,4.9-.106,6.95c-4.252,3.542-5.516,10.5-2.543,15.164a8.415,8.415,0,0,1,1.31,2.413,6.2,6.2,0,0,1-.577,3.558l-2.881,7.677c-.737,1.965-.971,4.957,1.08,5.405a18.118,18.118,0,0,0-3.89,6.143,7.315,7.315,0,0,0,1.036,6.93,8.831,8.831,0,0,1,1.8,2.19,5.83,5.83,0,0,1-.209,3.455,12.683,12.683,0,0,0,1.569,9.943A8.918,8.918,0,0,0,204.9,624.3c5.764-1.3,10.943-3.352,16.754-2.286,12.513,2.3,25.066,4.6,37.184,8.471,13.831,4.416,27.224,10.892,41.68,12.251a4.047,4.047,0,0,0,2.787-.433,4.188,4.188,0,0,0,1.289-2.65l4.468-20.948a215.573,215.573,0,0,0,4.107-23.465c.509-5.093.654-10.215.8-15.332l1.151-40.726a40.689,40.689,0,0,0-2.344-17.7l-6.623-21.144c-3.78-12.066-12.451-22.766-15.538-35.028-1.954-7.76-3.4-16.089-8.637-22.137-7.47-8.623-20.394-9.965-31.706-8.482-5.11.67-10.265,1.826-14.685,4.476-5.111,3.065-8.877,7.892-12.52,12.609C220.068,455.66,217.012,458.785,213.94,462.617Z" transform="translate(-26.827 4.369)"/><path class="g" d="M237.412,574.942c.932,4.019,2.889,7.724,4.087,11.672,2.007,6.614,1.837,13.737,3.84,20.353.841,2.777,2.059,5.442,2.663,8.28,1.407,6.616-.647,13.46-3.2,19.724s-5.66,12.44-6.489,19.153c-.584,4.728.255,10.067,3.9,13.135,3.783,3.186,9.282,2.97,14.21,2.546a14.935,14.935,0,0,0,5.157-1.074c3.769-1.783,5.356-6.242,6.237-10.317,2.952-13.656,2.109-27.81,1.251-41.755l-2.244-36.469c-.432-7.021-.895-14.187-3.058-20.929-.787-2.452-2.159-7.408-4.4-8.973-2.219-1.551-8.554-1.62-11.3-1.749C235.179,547.934,235.323,565.922,237.412,574.942Z" transform="translate(-23.885 11.833)"/><path class="f" d="M252.332,446.971c-2.632-1.378-5.948-.784-8.492.75a26.172,26.172,0,0,0-6.362,6.177c-5.687,6.942-11.708,14.908-10.865,23.843.316,3.35,1.6,6.52,2.469,9.771,3.813,14.253-.4,29.327.08,44.073.28,8.521,2.134,16.9,3.98,25.225.377,1.7.98,3.665,2.624,4.237,1.234.43,2.568-.123,3.789-.587a30.222,30.222,0,0,1,27.658,3.486c3.052-1.628,1.908-6.778,1.224-10.169-2.033-10.075.727-20.468,4.078-30.185s7.362-19.42,7.917-29.683c.629-11.628-3.226-22.979-7.031-33.985-.83-2.4-1.738-4.922-3.663-6.582a14.555,14.555,0,0,0-5.542-2.532C260.156,449.615,256.065,448.926,252.332,446.971Z" transform="translate(-24.526 5.154)"/></svg>