<?xml version="1.0" encoding="utf-8"?>
<!-- Generator: Adobe Illustrator 22.1.0, SVG Export Plug-In . SVG Version: 6.00 Build 0)  -->
<svg version="1.1" id="Capa_1" xmlns="http://www.w3.org/2000/svg" xmlns:xlink="http://www.w3.org/1999/xlink" x="0px" y="0px"
	 viewBox="0 0 431.8 431.8" style="enable-background:new 0 0 431.8 431.8;" xml:space="preserve">
<style type="text/css">
	.st0{fill:#FFFFFF;}
</style>
<g>
	<g>
		<path class="st0" d="M215.9,85.1C153.6,85.2,103,135.7,103,198c0.6,40.7,20.4,78.7,53.4,102.5V382c0,0.9,0.2,1.9,0.6,2.7v0.6
			c0.1,0.3,0.3,0.7,0.5,1l28.2,41.9c1.5,2.2,4,3.5,6.6,3.5h46.6c2.7,0,5.1-1.3,6.6-3.5l28.2-41.9c0.2-0.3,0.3-0.6,0.5-1v-0.6
			c0.3-0.9,0.5-1.8,0.6-2.7v-81.5c33-23.8,52.8-61.8,53.4-102.5C327.9,136,277.9,85.6,215.9,85.1z M234.9,416h-38.1l-17.4-25.9h72.9
			L234.9,416z M172.4,374.1v-21.2h86.9l0.1,21.2H172.4z M263,289.5v0.2c-2.3,1.5-3.6,4-3.6,6.7v40.6h-87V296c0-2.7-1.3-5.2-3.6-6.7
			c-30.6-20.5-49.2-54.7-49.8-91.5c1.5-53.5,46.1-95.6,99.6-94.1c51.3,1.5,92.6,42.7,94.1,94.1C312.3,234.7,293.7,269,263,289.5z"/>
	</g>
</g>
<g>
	<g>
		<path class="st0" d="M219.1,121.4c-4.4,0-8,3.6-8,8s3.6,8,8,8c33.3,0,60.2,27,60.2,60.2c0,4.4,3.6,8,8,8s8-3.6,8-8
			C295.3,155.5,261.2,121.4,219.1,121.4z"/>
	</g>
</g>
<g>
	<g>
		<path class="st0" d="M81.5,189.6H23.9c-4.4,0-8,3.6-8,8s3.6,8,8,8h57.6c4.4,0,8-3.6,8-8l0,0C89.5,193.2,85.9,189.6,81.5,189.6z"/>
	</g>
</g>
<g>
	<g>
		<path class="st0" d="M407.9,189.6h-57.6c-4.4,0-8,3.6-8,8s3.6,8,8,8h57.6c4.4,0,8-3.6,8-8S412.3,189.6,407.9,189.6z"/>
	</g>
</g>
<g>
	<g>
		<path class="st0" d="M127.3,287.1c-2.9-3.4-7.9-3.7-11.3-0.9c-0.3,0.3-0.6,0.6-0.9,0.9V287l-40.9,41c-3.4,2.9-3.7,7.9-0.9,11.3
			s7.9,3.7,11.3,0.9c0.3-0.3,0.6-0.6,0.9-0.9l40.9-40.9C129.8,295.5,130.2,290.5,127.3,287.1z"/>
	</g>
</g>
<g>
	<g>
		<path class="st0" d="M356.6,56c-3-2.6-7.4-2.6-10.4,0l-40.9,40.9c-3.1,3.1-3.2,8.2,0,11.3c1.5,1.5,3.6,2.4,5.7,2.4l-0.1-0.1
			c2.1,0,4.2-0.8,5.7-2.3l40.9-40.9C360.4,63.9,360,58.9,356.6,56z"/>
	</g>
</g>
<g>
	<g>
		<path class="st0" d="M359.1,329.6c-0.5-0.6-1-1.2-1.6-1.6l-40.9-41c-2.9-3.4-7.9-3.7-11.3-0.9c-3.4,2.9-3.7,7.9-0.9,11.3
			c0.3,0.3,0.6,0.6,0.9,0.9l40.9,40.9c2.6,3.6,7.6,4.3,11.2,1.7S361.7,333.2,359.1,329.6z"/>
	</g>
</g>
<g>
	<g>
		<path class="st0" d="M126.4,96.9L85.6,56c-3.4-2.9-8.4-2.5-11.3,0.9c-2.6,3-2.6,7.4,0,10.4l40.9,40.9c3.4,2.9,8.4,2.5,11.3-0.9
			C129,104.3,129,99.9,126.4,96.9z"/>
	</g>
</g>
<g>
	<g>
		<path class="st0" d="M215.9,0c-4.4,0-8,3.6-8,8v57.8c-0.1,4.4,3.3,8.1,7.8,8.2c0.1,0,0.2,0,0.2,0c4.4,0,8-3.6,8-8V8
			C223.9,3.6,220.3,0,215.9,0z"/>
	</g>
</g>
</svg>
