<?xml version="1.0" encoding="utf-8"?>
<!-- Generator: Adobe Illustrator 22.1.0, SVG Export Plug-In . SVG Version: 6.00 Build 0)  -->
<svg version="1.1"
	 id="svg3371" inkscape:version="0.91 r13725" sodipodi:docname="logo.svg" xmlns:cc="http://creativecommons.org/ns#" xmlns:dc="http://purl.org/dc/elements/1.1/" xmlns:inkscape="http://www.inkscape.org/namespaces/inkscape" xmlns:rdf="http://www.w3.org/1999/02/22-rdf-syntax-ns#" xmlns:sodipodi="http://sodipodi.sourceforge.net/DTD/sodipodi-0.dtd" xmlns:svg="http://www.w3.org/2000/svg"
	 xmlns="http://www.w3.org/2000/svg" xmlns:xlink="http://www.w3.org/1999/xlink" x="0px" y="0px" viewBox="0 0 744.1 1052.4"
	 style="enable-background:new 0 0 744.1 1052.4;" xml:space="preserve">
<style type="text/css">
	.st0{fill:#4AB1D9;}
	.st1{fill:#0F5481;}
	.st2{fill:#4D4D4D;}
</style>
<sodipodi:namedview  bordercolor="#666666" borderopacity="1" gridtolerance="10" guidetolerance="10" id="namedview3373" inkscape:current-layer="g3379" inkscape:cx="217.75752" inkscape:cy="781.55724" inkscape:pageopacity="0" inkscape:pageshadow="2" inkscape:window-height="946" inkscape:window-maximized="0" inkscape:window-width="1505" inkscape:window-x="585" inkscape:window-y="29" inkscape:zoom="0.93979041" objecttolerance="10" pagecolor="#ffffff" showgrid="false">
	</sodipodi:namedview>
<g id="g3379" transform="matrix(1.25,0,0,-1.25,0,1052.3623)" inkscape:groupmode="layer" inkscape:label="logo">
	<path id="path3475" inkscape:connector-curvature="0" class="st0" d="M344.2,774.3h-9h-9h-18.7v3.7l0.1,32.2v8.7l-0.1,0
		c-3.3,0.6-6.7,0.9-10.2,0.9v-8.5v-33.3v-3.7v-8.5v-3.7v-33.3v-8.5c3.5,0.1,6.9,0.4,10.2,0.9l0.1,0v8.7l-0.1,32.2v3.7h18.7h9h9h0.7
		c-0.2-1.3-0.4-2.5-0.7-3.7c-3-13-13.3-23.8-27.2-29.3v-9.3c19.5,6.2,34.1,20.9,37.5,38.6c0.2,1.2,0.4,2.5,0.5,3.7
		c0.1,1.4,0.2,2.8,0.2,4.3c0,20.7-15,39.3-38.2,46.6v-9.3C332.1,801.2,344.2,788.6,344.2,774.3"/>
	<path id="path3477" inkscape:connector-curvature="0" class="st1" d="M284.2,810.3c3.3,0.7,6.7,1.1,10.2,1.2v8.5
		c-3.5-0.1-6.9-0.4-10.2-0.9c-24.2-4-43-20.4-47-40.9c-0.2-1.2-0.4-2.5-0.5-3.7c-0.1-1.4-0.2-2.8-0.2-4.3s0.1-2.9,0.2-4.3h10.2h37.3
		v-3.7v-32.2c-18.5,3.8-33,16.4-36.7,32.2h-10.3c3.9-20.5,22.8-36.9,47-40.9c3.3-0.6,6.7-0.9,10.2-0.9v8.5v33.3v3.7v8.5h-10.2h-37.3
		c0.2,1.3,0.4,2.5,0.7,3.7C251.2,793.9,265.6,806.5,284.2,810.3"/>
	<path id="path3479" inkscape:connector-curvature="0" class="st0" d="M514.8,656.1h15.9c0.1-1.5,1.1-2.5,3-3.1
		c1.8-0.6,5.2-0.8,10.1-0.8c5.1,0,8.5,0.2,10.3,0.7c1.8,0.5,2.7,1.3,2.7,2.6c0,1.2-0.9,2-2.6,2.4c-0.8,0.2-5.2,0.3-13.3,0.4
		c-7.5,0-12.2,0.1-13.9,0.3c-4.9,0.6-8.2,1.9-9.9,4c-1.3,1.6-1.9,3.7-1.9,6.4c0,5.2,2.3,8.5,6.8,10.1c3.4,1.2,10.8,1.8,22,1.8
		c7.1,0,12.3-0.2,15.5-0.7c3.2-0.4,5.7-1.3,7.5-2.6c1.1-0.8,1.9-1.7,2.4-2.8c0.5-1.1,0.8-2.7,1-4.8h-15.9c-0.3,0.9-0.6,1.5-1.1,1.7
		c-1.3,0.7-4.6,1-9.8,1c-4.9,0-8.2-0.2-10-0.6c-1.8-0.4-2.7-1.2-2.7-2.2c0-1.4,1.2-2.2,3.8-2.3c2-0.1,9.1-0.2,21.3-0.3
		c5.9,0,10.1-0.9,12.7-2.5c2.6-1.6,4-4.4,4-8.4c0-2.7-0.5-4.8-1.6-6.5c-1-1.7-2.6-2.9-4.9-3.7c-3.7-1.4-11.5-2.1-23.4-2.1
		c-7.6,0-13.1,0.2-16.4,0.7s-5.9,1.5-7.8,2.9C516.2,649.5,514.9,652.3,514.8,656.1"/>
	<path id="path3481" inkscape:connector-curvature="0" class="st0" d="M493.5,694.4h15.6V645h-15.6V694.4z"/>
	<path id="path3483" inkscape:connector-curvature="0" class="st0" d="M470.9,694.4h15.6V645h-15.6V694.4z"/>
	<path id="path3485" inkscape:connector-curvature="0" class="st0" d="M448.2,694.4h15.6v-9.8h-15.6V694.4z"/>
	<path id="path3487" inkscape:connector-curvature="0" class="st0" d="M448.2,680h15.6v-35h-15.6V680z"/>
	<path id="path3489" inkscape:connector-curvature="0" class="st0" d="M362.5,694.4h18.8v-17.7h40.5v17.7h18.8V645h-18.8v17.8h-40.5
		V645h-18.8V694.4z"/>
	<path id="path3491" inkscape:connector-curvature="0" class="st1" d="M276.3,680H291v-5.3h0.9c1.4,2.3,3.4,3.9,6.1,4.8
		c2.7,0.9,6.5,1.4,11.6,1.4c5,0,8.9-0.3,11.8-1c2.9-0.7,5.2-1.8,7-3.4c1.9-1.6,3.2-3.4,3.7-5.4c0.6-2,0.9-5.4,0.9-10.2V645h-15.6
		v15.9c0,2.8-0.1,4.7-0.4,5.7c-0.2,1-0.8,1.9-1.6,2.6c-1.5,1.2-5,1.9-10.4,1.9c-5.4,0-9-0.8-10.7-2.3c-0.9-0.9-1.6-1.9-1.9-3.1
		c-0.3-1.2-0.4-3.4-0.4-6.7v-14h-15.6L276.3,680L276.3,680z"/>
	<path id="path3493" inkscape:connector-curvature="0" class="st1" d="M254.6,656.2h15.6c-0.4-3.8-1.8-6.5-4.1-8.2
		c-2-1.5-4.9-2.5-8.5-3c-3.7-0.6-9.2-0.9-16.5-0.9c-6.1,0-10.7,0.2-14,0.7c-3.3,0.5-5.8,1.3-7.7,2.5c-2,1.3-3.4,3-4.1,5.1
		c-0.7,2.1-1.1,5.4-1.1,9.8c0,3.3,0.1,5.8,0.4,7.5c0.3,1.7,0.8,3.2,1.6,4.5c1.7,2.8,4.7,4.6,9,5.5c3.7,0.7,9.5,1.1,17.4,1.1
		c7,0,11.9-0.2,14.7-0.6c5.1-0.7,8.5-2.3,10.4-4.8c1.9-2.4,2.8-6.6,2.8-12.3c0-0.6,0-1.7-0.1-3.5h-40.8c0-1.8,0.1-3.1,0.4-3.8
		c0.3-0.8,0.8-1.4,1.6-1.9c1.6-1,5.1-1.4,10.5-1.4c3.5,0,6.1,0.1,7.8,0.3c1.7,0.2,2.9,0.6,3.6,1.1
		C254,654.4,254.4,655.1,254.6,656.2L254.6,656.2z M254.8,666.8c-0.1,1.4-0.2,2.3-0.3,2.9c-0.2,0.5-0.5,1-0.9,1.4
		c-1.4,1.2-5,1.7-10.8,1.7c-5.3,0-8.7-0.4-10.4-1.2c-1.7-0.8-2.6-2.4-2.7-4.8H254.8z"/>
	<path id="path3495" inkscape:connector-curvature="0" class="st1" d="M152.4,680h17.8l13-24.9l12.9,24.9h17.7l-20.6-35H173
		L152.4,680z"/>
	<path id="path3497" inkscape:connector-curvature="0" class="st1" d="M136.3,656.2h15.6c-0.4-3.8-1.8-6.5-4.1-8.2
		c-2-1.5-4.9-2.5-8.5-3c-3.7-0.6-9.2-0.9-16.5-0.9c-6.1,0-10.7,0.2-14,0.7c-3.3,0.5-5.8,1.3-7.7,2.5c-2,1.3-3.4,3-4.1,5.1
		c-0.7,2.1-1.1,5.4-1.1,9.8c0,3.3,0.1,5.8,0.4,7.5c0.3,1.7,0.8,3.2,1.6,4.5c1.7,2.8,4.7,4.6,9,5.5c3.7,0.7,9.5,1.1,17.4,1.1
		c7,0,11.9-0.2,14.7-0.6c5.1-0.7,8.5-2.3,10.4-4.8c1.9-2.4,2.8-6.6,2.8-12.3c0-0.6,0-1.7-0.1-3.5h-40.8c0-1.8,0.1-3.1,0.4-3.8
		c0.3-0.8,0.8-1.4,1.6-1.9c1.6-1,5.1-1.4,10.5-1.4c3.5,0,6.1,0.1,7.8,0.3c1.7,0.2,2.9,0.6,3.6,1.1
		C135.7,654.4,136.1,655.1,136.3,656.2L136.3,656.2z M136.5,666.8c-0.1,1.4-0.2,2.3-0.3,2.9c-0.2,0.5-0.5,1-0.9,1.4
		c-1.4,1.2-5,1.7-10.8,1.7c-5.3,0-8.7-0.4-10.4-1.2c-1.7-0.8-2.6-2.4-2.7-4.8H136.5L136.5,666.8z"/>
	<path id="path3499" inkscape:connector-curvature="0" class="st1" d="M19.3,661.3h17.4c0-2.5,0.6-4,1.8-4.8c0.9-0.5,2-0.7,3.3-0.8
		c1.4-0.1,5.7-0.1,12.9-0.2c7.6,0,12.1,0.1,13.6,0.1c1.5,0.1,2.7,0.2,3.6,0.6c1.3,0.5,2,1.7,2,3.7c0,1.5-0.5,2.5-1.4,2.9
		c-0.9,0.5-2.8,0.8-5.7,0.8c-2.2,0-6.9,0.1-14,0.4c-7.3,0.3-12.1,0.5-14.3,0.5c-4.3,0.1-7.6,0.5-9.9,1c-2.3,0.6-4.1,1.5-5.4,2.8
		c-2.2,2.1-3.3,5.7-3.3,10.6c0,5.6,1.3,9.5,3.8,11.8c1.9,1.8,4.9,2.9,8.9,3.4c4,0.5,12.1,0.7,24.3,0.7c8.6,0,14.7-0.2,18.2-0.6
		c5.4-0.6,9.1-1.9,11.1-3.8c2-1.9,3-5.1,3-9.6c0-0.4,0-1.2,0-2.3H71.7c-0.1,1.4-0.2,2.3-0.4,2.8c-0.2,0.5-0.6,0.9-1.3,1.2
		c-0.8,0.4-2.1,0.6-4.1,0.7c-1.9,0.1-6.1,0.2-12.4,0.2c-7.6,0-12.3-0.2-13.9-0.6c-1.7-0.4-2.5-1.5-2.5-3.3c0-1.7,0.8-2.8,2.5-3.2
		c1.4-0.3,7.7-0.6,19-0.9c9.5-0.2,15.9-0.5,19.1-0.9c3.2-0.3,5.8-0.9,7.6-1.9c2.1-1.1,3.7-2.6,4.6-4.5c0.9-1.9,1.3-4.6,1.3-8.2
		c0-4.7-0.8-8.1-2.2-10.4c-1.1-1.7-2.7-2.9-4.7-3.7c-2-0.8-4.8-1.4-8.4-1.7c-3.9-0.3-11.1-0.4-21.7-0.4c-8.8,0-15.4,0.2-19.6,0.6
		c-4.2,0.4-7.4,1.1-9.5,2.1c-2.2,1.1-3.7,2.5-4.6,4.2c-0.8,1.7-1.3,4.4-1.3,7.9L19.3,661.3L19.3,661.3z"/>
	<g id="text3501" transform="scale(1.0917297,-0.91597766)">
		<path id="path3624" class="st2" d="M17.5-684.3h19.9v2.7h-8.4v20.9h-3.2v-20.9h-8.4C17.5-681.6,17.5-684.3,17.5-684.3z"/>
		<path id="path3626" class="st2" d="M90.4-670.3v1.4H77c0.1,2,0.7,3.5,1.8,4.6c1.1,1,2.6,1.6,4.5,1.6c1.1,0,2.2-0.1,3.2-0.4
			c1.1-0.3,2.1-0.7,3.1-1.2v2.7c-1,0.4-2.1,0.8-3.2,1c-1.1,0.2-2.2,0.3-3.3,0.3c-2.8,0-5.1-0.8-6.7-2.5c-1.6-1.6-2.5-3.9-2.5-6.7
			c0-2.9,0.8-5.2,2.3-6.9c1.6-1.7,3.7-2.6,6.3-2.6c2.4,0,4.3,0.8,5.6,2.3C89.7-675,90.4-673,90.4-670.3L90.4-670.3z M87.5-671.2
			c0-1.6-0.5-2.9-1.3-3.8c-0.9-0.9-2-1.4-3.4-1.4c-1.6,0-2.9,0.5-3.9,1.4c-1,0.9-1.5,2.2-1.7,3.9L87.5-671.2L87.5-671.2z"/>
		<path id="path3628" class="st2" d="M143.9-677.8v2.7c-0.8-0.5-1.6-0.8-2.5-1c-0.8-0.2-1.7-0.3-2.5-0.3c-1.9,0-3.3,0.6-4.4,1.8
			c-1,1.2-1.6,2.9-1.6,5c0,2.2,0.5,3.8,1.6,5c1,1.2,2.5,1.8,4.4,1.8c0.8,0,1.7-0.1,2.5-0.3c0.8-0.2,1.7-0.6,2.5-1v2.7
			c-0.8,0.4-1.7,0.7-2.5,0.9c-0.9,0.2-1.8,0.3-2.8,0.3c-2.7,0-4.8-0.8-6.3-2.5s-2.3-3.9-2.3-6.8c0-2.9,0.8-5.1,2.4-6.8
			c1.6-1.7,3.8-2.5,6.5-2.5c0.9,0,1.8,0.1,2.6,0.3C142.2-678.4,143.1-678.1,143.9-677.8L143.9-677.8z"/>
		<path id="path3630" class="st2" d="M201.2-671.4v10.7h-2.9v-10.6c0-1.7-0.3-2.9-1-3.8c-0.7-0.8-1.6-1.2-2.9-1.2
			c-1.6,0-2.8,0.5-3.7,1.5c-0.9,1-1.4,2.4-1.4,4.1v10h-2.9v-24.5h2.9v9.6c0.7-1.1,1.5-1.9,2.4-2.4c0.9-0.5,2-0.8,3.3-0.8
			c2,0,3.6,0.6,4.6,1.9C200.7-675.7,201.2-673.9,201.2-671.4L201.2-671.4z"/>
		<path id="path3632" class="st2" d="M257.2-671.4v10.7h-2.9v-10.6c0-1.7-0.3-2.9-1-3.8c-0.7-0.8-1.6-1.2-2.9-1.2
			c-1.6,0-2.8,0.5-3.7,1.5s-1.4,2.4-1.4,4.1v10h-2.9v-17.7h2.9v2.7c0.7-1.1,1.5-1.9,2.4-2.4c0.9-0.5,2-0.8,3.3-0.8
			c2,0,3.6,0.6,4.6,1.9C256.7-675.7,257.2-673.9,257.2-671.4L257.2-671.4z"/>
		<path id="path3634" class="st2" d="M305.2-676.4c-1.6,0-2.8,0.6-3.7,1.8c-0.9,1.2-1.4,2.9-1.4,5c0,2.1,0.4,3.8,1.3,5
			c0.9,1.2,2.1,1.8,3.7,1.8c1.5,0,2.8-0.6,3.7-1.8c0.9-1.2,1.4-2.9,1.4-5c0-2.1-0.5-3.7-1.4-5C308-675.8,306.7-676.4,305.2-676.4
			L305.2-676.4z M305.2-678.9c2.5,0,4.5,0.8,5.9,2.5c1.4,1.6,2.2,3.9,2.2,6.8c0,2.9-0.7,5.2-2.2,6.8c-1.4,1.6-3.4,2.5-5.9,2.5
			c-2.5,0-4.5-0.8-6-2.5c-1.4-1.7-2.1-3.9-2.1-6.8c0-2.9,0.7-5.2,2.1-6.8C300.7-678,302.7-678.9,305.2-678.9z"/>
		<path id="path3636" class="st2" d="M354.8-685.3h2.9v24.5h-2.9V-685.3z"/>
		<path id="path3638" class="st2" d="M401.7-676.4c-1.6,0-2.8,0.6-3.7,1.8c-0.9,1.2-1.4,2.9-1.4,5c0,2.1,0.4,3.8,1.3,5
			c0.9,1.2,2.1,1.8,3.7,1.8c1.5,0,2.8-0.6,3.7-1.8c0.9-1.2,1.4-2.9,1.4-5c0-2.1-0.5-3.7-1.4-5C404.5-675.8,403.3-676.4,401.7-676.4z
			 M401.7-678.9c2.5,0,4.5,0.8,5.9,2.5c1.4,1.6,2.2,3.9,2.2,6.8c0,2.9-0.7,5.2-2.2,6.8c-1.4,1.6-3.4,2.5-5.9,2.5
			c-2.5,0-4.5-0.8-6-2.5c-1.4-1.7-2.1-3.9-2.1-6.8c0-2.9,0.7-5.2,2.1-6.8C397.2-678,399.2-678.9,401.7-678.9z"/>
		<path id="path3640" class="st2" d="M463-669.8c0-2.1-0.4-3.7-1.3-4.9c-0.9-1.2-2.1-1.7-3.6-1.7c-1.6,0-2.8,0.6-3.6,1.7
			c-0.9,1.2-1.3,2.8-1.3,4.9c0,2.1,0.4,3.7,1.3,4.9c0.9,1.2,2.1,1.7,3.6,1.7c1.6,0,2.8-0.6,3.6-1.7C462.5-666.1,463-667.7,463-669.8
			z M465.9-663c0,3-0.7,5.2-2,6.7c-1.3,1.5-3.4,2.2-6.1,2.2c-1,0-2-0.1-2.9-0.2c-0.9-0.1-1.8-0.4-2.6-0.7v-2.8
			c0.9,0.5,1.7,0.8,2.5,1c0.8,0.2,1.7,0.3,2.5,0.3c1.9,0,3.3-0.5,4.3-1.5c0.9-1,1.4-2.5,1.4-4.5v-1.4c-0.6,1-1.4,1.8-2.3,2.3
			s-2.1,0.8-3.4,0.8c-2.2,0-3.9-0.8-5.2-2.5c-1.3-1.7-2-3.8-2-6.6c0-2.7,0.7-4.9,2-6.6c1.3-1.7,3.1-2.5,5.2-2.5
			c1.3,0,2.4,0.3,3.4,0.8c0.9,0.5,1.7,1.3,2.3,2.3v-2.7h2.9V-663L465.9-663z"/>
		<path id="path3642" class="st2" d="M515.3-659.1c-0.8,2.1-1.6,3.5-2.4,4.1c-0.8,0.6-1.8,1-3.1,1h-2.3v-2.4h1.7
			c0.8,0,1.4-0.2,1.9-0.6c0.4-0.4,0.9-1.3,1.5-2.7l0.5-1.3l-7.1-17.4h3.1l5.5,13.8l5.5-13.8h3.1L515.3-659.1L515.3-659.1z"/>
	</g>
</g>
</svg>
