<?xml version="1.0" encoding="utf-8"?>
<!-- Generator: Adobe Illustrator 22.1.0, SVG Export Plug-In . SVG Version: 6.00 Build 0)  -->
<svg version="1.1" id="Capa_1" xmlns="http://www.w3.org/2000/svg" xmlns:xlink="http://www.w3.org/1999/xlink" x="0px" y="0px"
	 viewBox="0 0 480 480" style="enable-background:new 0 0 480 480;" xml:space="preserve">
<style type="text/css">
	.st0{fill:#FFFFFF;}
</style>
<g>
	<g>
		<path class="st0" d="M472,232C472,232,472,232,472,232h-80V91.4c0-14.9-8.8-28.5-22.4-34.5L243.3,0.7c-4-1.8-8.8,0-10.6,4.1
			c-0.5,1-0.7,2.1-0.7,3.3v128h-48c-4.4,0-8,3.6-8,8c0,0,0,0,0,0v16h-72v-38.2c1.8-1.5,3.5-3,5.2-4.6c25.2-25,25.4-65.6,0.5-90.8
			c-3.1-3.1-8.2-3.1-11.3,0c0,0,0,0,0,0L64,60.7L45.7,42.3L34.3,53.7L52.7,72l-34.3,34.3c-3.1,3.1-3.1,8.2,0,11.3c0,0,0,0,0,0
			c11.9,11.9,28.1,18.6,45,18.6c8.5,0,16.8-1.7,24.7-4.9V160H8c-4.4,0-8,3.6-8,8c0,0,0,0,0,0v304c0,4.4,3.6,8,8,8c0,0,0,0,0,0h464
			c4.4,0,8-3.6,8-8c0,0,0,0,0,0V240C480,235.6,476.4,232,472,232z M35.8,111.5l67.7-67.7c15.3,22.1,9.7,52.5-12.4,67.7
			C74.5,123,52.4,123,35.8,111.5z M112,464H80v-32h32V464z M80.8,416H52.5c-1.4,0-2.7-0.8-3.5-2c-1.2-1.9-1.4-4.2-0.5-6.2l23.3-72
			l15.7,48l-6.1,18.6C79.9,406.8,79.6,411.5,80.8,416z M96.6,407.8l23.4-71.6l23.6,72c0.8,1.9,0.5,4.1-0.6,5.8
			c-0.8,1.2-2.1,1.9-3.5,2h-38.9c-1.4,0-2.7-0.8-3.5-2C95.9,412.2,95.7,409.8,96.6,407.8z M176,464h-48v-32h11.5
			c6.7,0,13-3.4,16.7-8.9c4.1-5.9,5-13.5,2.5-20.2l-23.7-72.4c-3-8.2-12.1-12.5-20.3-9.5c-4.4,1.6-7.9,5.1-9.5,9.5
			c-0.1,0.1-0.1,0.3-0.1,0.4L96,358.2l-9.1-27.7c-3-8.3-12.1-12.5-20.3-9.5c-4.6,1.7-8.1,5.3-9.7,9.9l-23.4,71.6
			c-2.7,6.8-1.8,14.6,2.4,20.6c3.7,5.6,10,8.9,16.7,8.9H64v32H16V176h160L176,464L176,464z M464,464H192V152h48c4.4,0,8-3.6,8-8
			c0,0,0,0,0,0V20.3l115.1,51.1C370.9,75,376,82.8,376,91.4V240c0,4.4,3.6,8,8,8c0,0,0,0,0,0h80V464z"/>
	</g>
</g>
<g>
	<g>
		<path class="st0" d="M424,272C424,272,424,272,424,272h-32c-4.4,0-8,3.6-8,8c0,0,0,0,0,0v32c0,4.4,3.6,8,8,8c0,0,0,0,0,0h32
			c4.4,0,8-3.6,8-8c0,0,0,0,0,0v-32C432,275.6,428.4,272,424,272z M416,304h-16v-16h16V304z"/>
	</g>
</g>
<g>
	<g>
		<path class="st0" d="M424,336C424,336,424,336,424,336h-32c-4.4,0-8,3.6-8,8c0,0,0,0,0,0v32c0,4.4,3.6,8,8,8c0,0,0,0,0,0h32
			c4.4,0,8-3.6,8-8c0,0,0,0,0,0v-32C432,339.6,428.4,336,424,336z M416,368h-16v-16h16V368z"/>
	</g>
</g>
<g>
	<g>
		<path class="st0" d="M424,400C424,400,424,400,424,400h-32c-4.4,0-8,3.6-8,8c0,0,0,0,0,0v32c0,4.4,3.6,8,8,8c0,0,0,0,0,0h32
			c4.4,0,8-3.6,8-8c0,0,0,0,0,0v-32C432,403.6,428.4,400,424,400z M416,432h-16v-16h16V432z"/>
	</g>
</g>
<g>
	<g>
		<path class="st0" d="M256,272C256,272,256,272,256,272h-32c-4.4,0-8,3.6-8,8c0,0,0,0,0,0v32c0,4.4,3.6,8,8,8c0,0,0,0,0,0h32
			c4.4,0,8-3.6,8-8c0,0,0,0,0,0v-32C264,275.6,260.4,272,256,272z M248,304h-16v-16h16V304z"/>
	</g>
</g>
<g>
	<g>
		<path class="st0" d="M256,336C256,336,256,336,256,336h-32c-4.4,0-8,3.6-8,8c0,0,0,0,0,0v32c0,4.4,3.6,8,8,8c0,0,0,0,0,0h32
			c4.4,0,8-3.6,8-8c0,0,0,0,0,0v-32C264,339.6,260.4,336,256,336z M248,368h-16v-16h16V368z"/>
	</g>
</g>
<g>
	<g>
		<path class="st0" d="M256,208C256,208,256,208,256,208h-32c-4.4,0-8,3.6-8,8c0,0,0,0,0,0v32c0,4.4,3.6,8,8,8c0,0,0,0,0,0h32
			c4.4,0,8-3.6,8-8c0,0,0,0,0,0v-32C264,211.6,260.4,208,256,208z M248,240h-16v-16h16V240z"/>
	</g>
</g>
<g>
	<g>
		<path class="st0" d="M72,192C72,192,72,192,72,192H40c-4.4,0-8,3.6-8,8c0,0,0,0,0,0v32c0,4.4,3.6,8,8,8c0,0,0,0,0,0h32
			c4.4,0,8-3.6,8-8c0,0,0,0,0,0v-32C80,195.6,76.4,192,72,192z M64,224H48v-16h16V224z"/>
	</g>
</g>
<g>
	<g>
		<path class="st0" d="M144,192C144,192,144,192,144,192h-32c-4.4,0-8,3.6-8,8c0,0,0,0,0,0v32c0,4.4,3.6,8,8,8c0,0,0,0,0,0h32
			c4.4,0,8-3.6,8-8c0,0,0,0,0,0v-32C152,195.6,148.4,192,144,192z M136,224h-16v-16h16V224z"/>
	</g>
</g>
<g>
	<g>
		<path class="st0" d="M72,256C72,256,72,256,72,256H40c-4.4,0-8,3.6-8,8c0,0,0,0,0,0v32c0,4.4,3.6,8,8,8c0,0,0,0,0,0h32
			c4.4,0,8-3.6,8-8c0,0,0,0,0,0v-32C80,259.6,76.4,256,72,256z M64,288H48v-16h16V288z"/>
	</g>
</g>
<g>
	<g>
		<path class="st0" d="M144,256C144,256,144,256,144,256h-32c-4.4,0-8,3.6-8,8c0,0,0,0,0,0v32c0,4.4,3.6,8,8,8c0,0,0,0,0,0h32
			c4.4,0,8-3.6,8-8c0,0,0,0,0,0v-32C152,259.6,148.4,256,144,256z M136,288h-16v-16h16V288z"/>
	</g>
</g>
<g>
	<g>
		<path class="st0" d="M256,400C256,400,256,400,256,400h-32c-4.4,0-8,3.6-8,8c0,0,0,0,0,0v32c0,4.4,3.6,8,8,8c0,0,0,0,0,0h32
			c4.4,0,8-3.6,8-8c0,0,0,0,0,0v-32C264,403.6,260.4,400,256,400z M248,432h-16v-16h16V432z"/>
	</g>
</g>
<g>
	<g>
		<path class="st0" d="M336,88C336,88,336,88,336,88h-32c-4.4,0-8,3.6-8,8c0,0,0,0,0,0v344c0,4.4,3.6,8,8,8c0,0,0,0,0,0h32
			c4.4,0,8-3.6,8-8c0,0,0,0,0,0V96C344,91.6,340.4,88,336,88z M328,432h-16V104h16V432z"/>
	</g>
</g>
</svg>
