<?xml version="1.0" encoding="utf-8"?>
<!-- Generator: Adobe Illustrator 23.0.6, SVG Export Plug-In . SVG Version: 6.00 Build 0)  -->
<svg version="1.1" id="Layer_1" xmlns="http://www.w3.org/2000/svg" xmlns:xlink="http://www.w3.org/1999/xlink" x="0px" y="0px"
	 viewBox="0 0 781.4 495.5" style="enable-background:new 0 0 781.4 495.5;" xml:space="preserve">
<style type="text/css">
	.st0{opacity:0.5;}
	.st1{fill:url(#SVGID_1_);}
	.st2{fill:#F5F5F5;}
	.st3{fill:#4AB1D9;}
	.st4{fill:#333333;}
	.st5{opacity:0.1;enable-background:new    ;}
	.st6{fill:#BE7C5E;}
	.st7{fill:url(#SVGID_2_);}
	.st8{fill:#F55F44;}
	.st9{fill:#FDA57D;}
	.st10{fill:url(#SVGID_3_);}
	.st11{fill:url(#SVGID_4_);}
	.st12{fill:#72351C;}
	.st13{fill:url(#SVGID_5_);}
	.st14{fill:#FDB797;}
	.st15{fill:url(#SVGID_6_);}
	.st16{fill:none;stroke:#333333;stroke-width:2;stroke-miterlimit:10;}
	.st17{fill:#858585;}
	.st18{fill:none;stroke:#333333;stroke-width:2;stroke-linecap:round;stroke-linejoin:round;}
</style>
<title>team</title>
<g class="st0">
	
		<linearGradient id="SVGID_1_" gradientUnits="userSpaceOnUse" x1="116.72" y1="520.02" x2="116.72" y2="751.8" gradientTransform="matrix(1 0 0 -1 0 758)">
		<stop  offset="0" style="stop-color:#808080;stop-opacity:0.25"/>
		<stop  offset="0.54" style="stop-color:#808080;stop-opacity:0.12"/>
		<stop  offset="1" style="stop-color:#808080;stop-opacity:0.1"/>
	</linearGradient>
	<circle class="st1" cx="116.7" cy="122.1" r="115.9"/>
</g>
<circle class="st2" cx="116.7" cy="121.5" r="113.4"/>
<path class="st3" d="M117,235.2c22.2,0,43.9-6.5,62.4-18.7c-4.2-22.8-20.1-24.1-20.1-24.1H71.6c0,0-15,1.2-19.7,22.2
	C71,228.1,93.7,235.3,117,235.2z"/>
<circle class="st4" cx="115.8" cy="119" r="50.3"/>
<path class="st5" d="M98.2,164.6h35.1l0,0v28.1c0,9.7-7.9,17.5-17.5,17.5h0l0,0c-9.7,0-17.5-7.9-17.5-17.5l0,0L98.2,164.6
	L98.2,164.6z"/>
<path class="st6" d="M101.5,163.3h28.4c1.9,0,3.4,1.5,3.4,3.3v0v24.7c0,9.7-7.9,17.5-17.5,17.5l0,0c-9.7,0-17.5-7.9-17.5-17.5l0,0
	v-24.7C98.2,164.8,99.7,163.3,101.5,163.3z"/>
<path class="st5" d="M98.2,177.8c11.3,4.2,23.8,4.3,35.1,0.1v-4.3H98.2V177.8z"/>
<circle class="st6" cx="115.8" cy="129.9" r="50.3"/>
<path class="st4" d="M85.4,109.1c0.6-2.2,1.3-4.6,3.3-5.7c1.5-0.9,3.5-0.8,5.2-0.7c13.9,0.8,27.7-2.4,41.2-5.7
	c7.7-1.9,16-4.2,21-10.4s-1.5-25.8-9.1-28.1c-5-1.5-10.8,1.3-15.5-0.9c-2.1-1-3.7-2.9-5.5-4.3c-3.7-3-8.5-4.2-13.2-5.3
	c-5.4-1.3-11.3-2.7-16.4-0.5c-4,1.7-6.9,5.2-10.7,7.2c-7.2,4-16,2.1-24.3,2.1c-2.8,0-6.1,0.6-7.2,3.1c-0.8,1.7-0.1,3.7-0.1,5.6
	c0.2,6-4.7,10.7-8.9,15S37.1,91,39.8,96.4c1,2.1,2.8,3.6,3.9,5.6c1.8,3.5,0.9,7.8,1.5,11.7c0.7,3,1.8,5.8,3.3,8.4
	c3.1,6,18.5,38.3,25.7,30.1c3.4-4,4-15.6,5.4-20.8C81.4,124,83.4,116.5,85.4,109.1z"/>
<ellipse class="st6" cx="80.1" cy="128.1" rx="4.7" ry="8.8"/>
<g class="st0">
	
		<linearGradient id="SVGID_2_" gradientUnits="userSpaceOnUse" x1="385.08" y1="267.79" x2="385.08" y2="499.57" gradientTransform="matrix(1 0 0 -1 0 758)">
		<stop  offset="0" style="stop-color:#808080;stop-opacity:0.25"/>
		<stop  offset="0.54" style="stop-color:#808080;stop-opacity:0.12"/>
		<stop  offset="1" style="stop-color:#808080;stop-opacity:0.1"/>
	</linearGradient>
	<circle class="st7" cx="385.1" cy="374.3" r="115.9"/>
</g>
<circle class="st2" cx="385.3" cy="373.6" r="113.4"/>
<path class="st3" d="M385.4,487.5c22.2,0,43.8-6.5,62.3-18.7c-4.2-22.8-20.1-24.2-20.1-24.2h-87.7c0,0-15,1.2-19.7,22.2
	C339.3,480.3,362.1,487.5,385.4,487.5z"/>
<circle class="st8" cx="384.2" cy="371.2" r="54.8"/>
<path class="st5" d="M366.5,416.8h35.1l0,0v28.1c0,9.7-7.9,17.5-17.5,17.5l0,0l0,0c-9.7,0-17.5-7.9-17.5-17.5l0,0L366.5,416.8
	L366.5,416.8z"/>
<path class="st9" d="M369.9,415.5h28.4c1.9,0,3.4,1.5,3.4,3.4l0,0v24.7c0,9.7-7.9,17.5-17.5,17.5l0,0l0,0c-9.7,0-17.5-7.9-17.5-17.5
	l0,0v-24.7C366.5,417,368,415.5,369.9,415.5L369.9,415.5L369.9,415.5z"/>
<path class="st5" d="M366.6,430c11.3,4.2,23.8,4.3,35.1,0.1v-4.3h-35.1V430z"/>
<circle class="st9" cx="384.2" cy="382.1" r="50.3"/>
<circle class="st8" cx="384.1" cy="315.5" r="20.2"/>
<circle class="st8" cx="384.1" cy="295.6" r="13.3"/>
<path class="st8" d="M375.4,326.6c-9.9-4.4-14.5-15.8-10.5-25.9c-0.1,0.3-0.3,0.6-0.4,0.9c-4.6,10.2,0,22.2,10.2,26.8
	s22.2,0,26.8-10.2c0.1-0.3,0.2-0.6,0.4-0.9C396.8,326.9,385.2,331,375.4,326.6z"/>
<path class="st5" d="M348.4,336.4c0,0,21.2,43,81,18l-13.9-21.8l-24.7-8.9L348.4,336.4z"/>
<path class="st8" d="M348.4,335.7c0,0,21.2,43,81,18l-13.9-21.8l-24.7-8.9L348.4,335.7z"/>
<path class="st4" d="M364.7,320.1c13-1,26.1-1,39.2,0C403.9,320.1,375,322.8,364.7,320.1z"/>
<path class="st8" d="M387.2,281.5c-1,0-2,0-3,0.2h0.8c7.3,0.2,13.1,6.4,12.8,13.7c-0.2,6.2-4.7,11.5-10.8,12.6
	c7.3,0.1,13.3-5.8,13.4-13.2C400.4,287.5,394.5,281.5,387.2,281.5L387.2,281.5z"/>
<ellipse class="st9" cx="333.9" cy="382.1" rx="4.7" ry="8.8"/>
<ellipse class="st9" cx="434.5" cy="382.1" rx="4.7" ry="8.8"/>
<polygon class="st8" points="345.2,337 355,331.9 357.2,340 351.2,344.1 "/>
<g class="st0">
	
		<linearGradient id="SVGID_3_" gradientUnits="userSpaceOnUse" x1="384.97" y1="525.71" x2="384.97" y2="757.49" gradientTransform="matrix(1 0 0 -1 0 758)">
		<stop  offset="0" style="stop-color:#808080;stop-opacity:0.25"/>
		<stop  offset="0.54" style="stop-color:#808080;stop-opacity:0.12"/>
		<stop  offset="1" style="stop-color:#808080;stop-opacity:0.1"/>
	</linearGradient>
	<circle class="st10" cx="385" cy="116.4" r="115.9"/>
</g>
<circle class="st2" cx="385" cy="115.8" r="113.4"/>
<path class="st4" d="M340.7,116.8c0,0-12.9,63.4-19.9,59.9c0,0,67.7,58.5,127.5,0c0,0-10.5-44.6-25.7-59.9H340.7z"/>
<path class="st3" d="M385.3,229.5c22.2,0,43.9-6.5,62.4-18.7c-4.2-22.8-20.1-24.1-20.1-24.1h-87.7c0,0-15,1.2-19.7,22.2
	C339.2,222.4,362,229.6,385.3,229.5z"/>
<circle class="st4" cx="384.1" cy="113.3" r="50.3"/>
<path class="st5" d="M366.4,158.9h35.1l0,0V187c0,9.7-7.8,17.5-17.5,17.5l0,0c-9.7,0-17.5-7.9-17.5-17.5L366.4,158.9L366.4,158.9z"
	/>
<path class="st6" d="M369.8,157.6h28.4c1.9,0,3.4,1.5,3.4,3.3v0v24.7c0,9.7-7.8,17.5-17.5,17.5l0,0c-9.7,0-17.5-7.9-17.5-17.5v0
	v-24.7C366.5,159.1,367.9,157.6,369.8,157.6z"/>
<path class="st5" d="M366.5,172.1c11.3,4.2,23.8,4.3,35.1,0.1v-4.3h-35.1V172.1z"/>
<circle class="st6" cx="384.1" cy="124.2" r="50.3"/>
<path class="st4" d="M336,105.1h95.9c0,0-8.2-38.7-44.4-36.2S336,105.1,336,105.1z"/>
<ellipse class="st6" cx="334.8" cy="122" rx="4.7" ry="8.8"/>
<ellipse class="st6" cx="433.1" cy="122" rx="4.7" ry="8.8"/>
<path class="st5" d="M336,106.4h95.9c0,0-8.2-38.7-44.4-36.2S336,106.4,336,106.4z"/>
<g class="st0">
	
		<linearGradient id="SVGID_4_" gradientUnits="userSpaceOnUse" x1="661.23" y1="526.22" x2="661.23" y2="758" gradientTransform="matrix(1 0 0 -1 0 758)">
		<stop  offset="0" style="stop-color:#808080;stop-opacity:0.25"/>
		<stop  offset="0.54" style="stop-color:#808080;stop-opacity:0.12"/>
		<stop  offset="1" style="stop-color:#808080;stop-opacity:0.1"/>
	</linearGradient>
	<circle class="st11" cx="661.2" cy="115.9" r="115.9"/>
</g>
<circle class="st2" cx="661.5" cy="115.1" r="113.4"/>
<path class="st3" d="M661.6,229c22.2,0,43.9-6.5,62.4-18.7c-4.2-22.9-20.1-24.2-20.1-24.2h-87.7c0,0-15,1.2-19.7,22.2
	C615.5,221.9,638.2,229.1,661.6,229z"/>
<circle class="st12" cx="660.4" cy="112.8" r="54.8"/>
<path class="st5" d="M642.7,158.4h35.1l0,0v28.1c0,9.7-7.8,17.6-17.5,17.6c0,0,0,0,0,0l0,0c-9.7,0-17.5-7.9-17.5-17.5L642.7,158.4
	L642.7,158.4z"/>
<path class="st9" d="M646,157.1h28.4c1.9,0,3.3,1.5,3.3,3.4v24.7c0,9.7-7.9,17.5-17.5,17.5l0,0c-9.7,0-17.5-7.9-17.5-17.5v-24.7
	C642.7,158.6,644.2,157.1,646,157.1L646,157.1z"/>
<path class="st5" d="M642.7,171.6c11.3,4.2,23.8,4.3,35.1,0.1v-4.3h-35.1V171.6z"/>
<circle class="st9" cx="660.4" cy="123.7" r="50.3"/>
<path class="st5" d="M624.5,77.9c0,0,21.2,43,81,18l-13.9-21.8L667,65.2L624.5,77.9z"/>
<path class="st12" d="M624.5,77.3c0,0,21.2,43,81,18l-13.9-21.8L667,64.6L624.5,77.3z"/>
<path class="st12" d="M624.3,74.4c1.4-4.4,3.9-8.4,7.2-11.7c9.9-9.8,26.1-11.8,34.4-23c1.8,3.1,0.7,7.1-2.4,8.9
	c-0.2,0.1-0.4,0.2-0.6,0.3c8-0.1,17.2-0.8,21.7-7.3c2.3,5.3,1.3,11.4-2.5,15.7c7.1,0.3,14.6,5.1,15.1,12.2c0.3,4.7-2.6,9.1-6.5,11.9
	s-8.5,3.9-13.1,4.9C664.2,89.2,615.6,101.6,624.3,74.4z"/>
<path class="st12" d="M710.7,124.1h-1.3l-25.9,23.1c-25-11.7-43.3,0-43.3,0l-27.2-22.1l-2.7,0.3c0.8,27.8,23.9,49.6,51.7,48.9
	C688.9,173.5,710.6,151.3,710.7,124.1L710.7,124.1z M660.3,156.1c-9.8,0-17.7-2-17.7-4.4s7.9-4.4,17.7-4.4s17.7,2,17.7,4.4
	S670.1,156.1,660.3,156.1L660.3,156.1z"/>
<ellipse class="st9" cx="610" cy="123.6" rx="4.7" ry="8.8"/>
<ellipse class="st9" cx="710.6" cy="123.6" rx="4.7" ry="8.8"/>
<g class="st0">
	
		<linearGradient id="SVGID_5_" gradientUnits="userSpaceOnUse" x1="115.89" y1="275.38" x2="115.89" y2="507.16" gradientTransform="matrix(1 0 0 -1 0 758)">
		<stop  offset="0" style="stop-color:#808080;stop-opacity:0.25"/>
		<stop  offset="0.54" style="stop-color:#808080;stop-opacity:0.12"/>
		<stop  offset="1" style="stop-color:#808080;stop-opacity:0.1"/>
	</linearGradient>
	<circle class="st13" cx="115.9" cy="366.7" r="115.9"/>
</g>
<circle class="st2" cx="116.1" cy="366" r="113.4"/>
<path class="st3" d="M116.2,479.9c22.2,0,43.8-6.5,62.4-18.7c-4.2-22.8-20.1-24.1-20.1-24.1H70.7c0,0-15,1.2-19.7,22.2
	C70.1,472.7,92.9,479.9,116.2,479.9z"/>
<circle class="st4" cx="115" cy="363.6" r="54.8"/>
<path class="st5" d="M97.3,409.2h35.1l0,0v28.1c0,9.7-7.9,17.5-17.5,17.5h0l0,0c-9.7,0-17.5-7.9-17.5-17.5l0,0L97.3,409.2
	L97.3,409.2z"/>
<path class="st14" d="M100.7,407.9h28.4c1.9,0,3.4,1.5,3.4,3.4l0,0V436c0,9.7-7.9,17.5-17.5,17.5h0l0,0c-9.7,0-17.5-7.8-17.6-17.5
	c0,0,0,0,0,0v-24.8C97.3,409.4,98.8,407.9,100.7,407.9C100.7,407.9,100.7,407.9,100.7,407.9L100.7,407.9z"/>
<path class="st5" d="M97.4,422.5c11.3,4.2,23.8,4.3,35.1,0.1v-4.3H97.4V422.5z"/>
<circle class="st14" cx="115" cy="374.5" r="50.3"/>
<path class="st5" d="M79.2,328.8c0,0,21.2,43,81,18l-13.9-21.8l-24.7-8.9L79.2,328.8z"/>
<path class="st4" d="M79.2,328.1c0,0,21.2,43,81,18l-13.9-21.8l-24.7-8.9L79.2,328.1z"/>
<path class="st4" d="M79,325.2c1.4-4.4,3.9-8.4,7.2-11.7c9.9-9.8,26.1-11.8,34.4-23c1.8,3.1,0.7,7.1-2.4,8.9
	c-0.2,0.1-0.4,0.2-0.6,0.3c8,0,17.2-0.8,21.7-7.3c2.3,5.3,1.3,11.4-2.5,15.7c7.1,0.3,14.6,5.1,15.1,12.2c0.3,4.7-2.6,9.1-6.5,11.9
	s-8.5,3.9-13.1,5C118.8,340.1,70.2,352.5,79,325.2z"/>
<ellipse class="st14" cx="64.7" cy="374.5" rx="4.7" ry="8.8"/>
<ellipse class="st14" cx="165.3" cy="374.5" rx="4.7" ry="8.8"/>
<g class="st0">
	
		<linearGradient id="SVGID_6_" gradientUnits="userSpaceOnUse" x1="665.55" y1="262.53" x2="665.55" y2="494.31" gradientTransform="matrix(1 0 0 -1 0 758)">
		<stop  offset="0" style="stop-color:#808080;stop-opacity:0.25"/>
		<stop  offset="0.54" style="stop-color:#808080;stop-opacity:0.12"/>
		<stop  offset="1" style="stop-color:#808080;stop-opacity:0.1"/>
	</linearGradient>
	<circle class="st15" cx="665.5" cy="379.6" r="115.9"/>
</g>
<circle class="st2" cx="665.5" cy="379" r="113.4"/>
<path class="st3" d="M665.9,492.7c22.2,0,43.9-6.5,62.4-18.7c-4.2-22.8-20.1-24.2-20.1-24.2h-87.7c0,0-15,1.2-19.7,22.2
	C619.8,485.6,642.6,492.8,665.9,492.7z"/>
<path class="st5" d="M647,422.1h35.1l0,0v28.1c0,9.7-7.9,17.5-17.5,17.5l0,0c-9.7,0-17.5-7.8-17.6-17.5c0,0,0,0,0,0V422.1L647,422.1
	z"/>
<path class="st14" d="M650.3,420.8h28.4c1.9,0,3.3,1.5,3.3,3.4v24.7c0,9.7-7.9,17.5-17.5,17.5l0,0c-9.7,0-17.5-7.8-17.5-17.5
	c0,0,0,0,0,0v-24.7C647,422.3,648.5,420.8,650.3,420.8L650.3,420.8z"/>
<path class="st5" d="M647.1,435.3c11.3,4.2,23.8,4.3,35.1,0.1v-4.3h-35.1V435.3z"/>
<circle class="st14" cx="664.7" cy="387.4" r="50.3"/>
<ellipse class="st14" cx="615.4" cy="385.2" rx="4.7" ry="8.8"/>
<ellipse class="st14" cx="713.7" cy="385.2" rx="4.7" ry="8.8"/>
<path class="st16" d="M638.4,387.6h12.8c2.4,0,4.3,1.9,4.3,4.4v2.1c0,2.4-1.9,4.4-4.3,4.4h-12.8c-2.4,0-4.3-1.9-4.3-4.4V392
	C634,389.6,636,387.6,638.4,387.6z"/>
<path class="st16" d="M691,398.4h-12.8c-2.4,0-4.3-1.9-4.3-4.4v-2.1c0-2.4,1.9-4.4,4.3-4.4H691c2.4,0,4.3,1.9,4.3,4.4v2.1
	C695.3,396.4,693.4,398.4,691,398.4z"/>
<path class="st16" d="M654.7,388.6c0,0,6.8-3.7,19.5,0"/>
<path class="st17" d="M699.4,350.9l12.3,28.7C711.8,379.6,726.9,360.6,699.4,350.9z"/>
<line class="st18" x1="695.3" y1="393" x2="713.7" y2="376.5"/>
<path class="st17" d="M629.9,350.9l-12.3,28.7C617.6,379.6,602.5,360.6,629.9,350.9z"/>
<line class="st18" x1="634" y1="393" x2="615.4" y2="376.5"/>
</svg>
