<?xml version="1.0" encoding="iso-8859-1"?>
<!-- Generator: Adobe Illustrator 19.0.0, SVG Export Plug-In . SVG Version: 6.00 Build 0)  -->
<svg version="1.1" id="Capa_1" xmlns="http://www.w3.org/2000/svg" xmlns:xlink="http://www.w3.org/1999/xlink" x="0px" y="0px"
	 viewBox="0 0 512 512" style="enable-background:new 0 0 512 512;" xml:space="preserve">
<rect x="162.133" y="42.667" style="fill:#87CED9;" width="324.267" height="204.8"/>
<polygon style="fill:#7DC6D1;" points="193.86,247.467 486.4,247.467 486.4,42.667 437.325,42.667 "/>
<path style="fill:#88B337;" d="M420.207,94.123l-34.133-8.533l-4.147,16.555l15.983,3.994l-64.768,45.338l-37.675-30.14
	c-2.987-2.381-7.185-2.492-10.291-0.273l-59.733,42.667l9.916,13.875l54.485-38.912l37.623,30.106
	c2.961,2.372,7.134,2.509,10.24,0.324l71.893-50.33v17.741h17.067V102.4C426.667,98.483,424.004,95.07,420.207,94.123z"/>
<path id="SVGCleanerId_0" style="fill:#FEC9A3;" d="M443.733,366.933L443.733,366.933c18.85,0,34.133,15.283,34.133,34.133v17.067
	c0,18.85-15.283,34.133-34.133,34.133l0,0c-18.85,0-34.133-15.283-34.133-34.133v-17.067
	C409.6,382.217,424.883,366.933,443.733,366.933z"/>
<path style="fill:#4398D1;" d="M469.333,452.267h-51.2c-18.85,0-34.133,15.283-34.133,34.133V512h119.467v-25.6
	C503.467,467.55,488.184,452.267,469.333,452.267z"/>
<path style="fill:#FEC9A3;" d="M324.267,366.933L324.267,366.933c18.85,0,34.133,15.283,34.133,34.133v17.067
	c0,18.85-15.283,34.133-34.133,34.133l0,0c-18.85,0-34.133-15.283-34.133-34.133v-17.067
	C290.133,382.217,305.417,366.933,324.267,366.933z"/>
<path style="fill:#4398D1;" d="M349.867,452.267h-51.2c-18.85,0-34.133,15.283-34.133,34.133V512H384v-25.6
	C384,467.55,368.717,452.267,349.867,452.267z"/>
<path style="fill:#FEC9A3;" d="M204.8,366.933L204.8,366.933c18.85,0,34.133,15.283,34.133,34.133v17.067
	c0,18.85-15.283,34.133-34.133,34.133l0,0c-18.85,0-34.133-15.283-34.133-34.133v-17.067
	C170.667,382.217,185.95,366.933,204.8,366.933z"/>
<g>
	<path style="fill:#FABD91;" d="M214.409,368.478c4.864,7.074,7.467,15.471,7.458,24.055v21.333
		c-0.034,15.957-9.011,30.541-23.228,37.777c18.338,3.575,36.096-8.397,39.671-26.735c0.435-2.227,0.64-4.497,0.623-6.775v-17.067
		C238.899,385.963,228.907,372.693,214.409,368.478z"/>
	<path style="fill:#FABD91;" d="M333.875,368.478c4.864,7.074,7.467,15.471,7.458,24.055v21.333
		c-0.034,15.957-9.011,30.541-23.228,37.777c18.338,3.575,36.096-8.397,39.671-26.735c0.435-2.227,0.64-4.497,0.623-6.775v-17.067
		C358.366,385.963,348.373,372.693,333.875,368.478z"/>
</g>
<g>
	<path id="SVGCleanerId_0_1_" style="fill:#FEC9A3;" d="M443.733,366.933L443.733,366.933c18.85,0,34.133,15.283,34.133,34.133
		v17.067c0,18.85-15.283,34.133-34.133,34.133l0,0c-18.85,0-34.133-15.283-34.133-34.133v-17.067
		C409.6,382.217,424.883,366.933,443.733,366.933z"/>
</g>
<path style="fill:#FABD91;" d="M453.342,368.478c4.864,7.074,7.467,15.471,7.458,24.055v21.333
	c-0.034,15.957-9.011,30.541-23.228,37.777c18.338,3.575,36.096-8.397,39.671-26.735c0.435-2.227,0.64-4.497,0.623-6.775v-17.067
	C477.833,385.963,467.84,372.693,453.342,368.478z"/>
<path style="fill:#4398D1;" d="M230.4,452.267h-51.2c-18.85,0-34.133,15.283-34.133,34.133V512h119.467v-25.6
	C264.533,467.55,249.25,452.267,230.4,452.267z"/>
<polygon style="fill:#3B86B8;" points="388.233,325.393 332.8,293.717 332.8,247.467 315.733,247.467 315.733,293.717 
	260.301,325.393 268.766,340.207 315.733,313.37 315.733,341.333 332.8,341.333 332.8,313.37 379.767,340.207 "/>
<g>
	<rect x="145.067" y="8.533" style="fill:#4398D1;" width="358.4" height="34.133"/>
	<rect x="145.067" y="238.933" style="fill:#4398D1;" width="358.4" height="17.067"/>
</g>
<path style="fill:#FEC9A3;" d="M76.8,93.867L76.8,93.867c18.85,0,34.133,15.283,34.133,34.133v17.067
	c0,18.85-15.283,34.133-34.133,34.133l0,0c-18.85,0-34.133-15.283-34.133-34.133V128C42.667,109.15,57.95,93.867,76.8,93.867z"/>
<polygon style="fill:#4398D1;" points="128,435.2 25.6,435.2 42.667,409.6 42.667,298.667 110.933,298.667 110.933,409.6 "/>
<rect x="68.267" y="324.267" style="fill:#3685BA;" width="17.067" height="110.933"/>
<rect x="8.533" y="281.6" style="fill:#FEC9A3;" width="34.133" height="34.133"/>
<path style="fill:#F0E4D6;" d="M158.251,213.333l-4.651,12.8l-8.32-22.878c-5.257-14.438-18.978-24.055-34.347-24.055H42.667
	c-18.85,0-34.133,15.283-34.133,34.133V281.6h34.133v17.067h68.267v-85.333l18.313,36.634c6.511,13.022,22.349,18.295,35.362,11.785
	c5.777-2.884,10.291-7.791,12.689-13.79l13.85-34.628H158.251z"/>
<polygon style="fill:#FEC9A3;" points="204.8,179.2 170.667,179.2 158.251,213.333 191.147,213.333 "/>
<rect x="34.133" y="213.333" style="fill:#E0D2C1;" width="17.067" height="85.333"/>
<rect x="68.267" y="179.2" style="fill:#4398D1;" width="17.067" height="93.867"/>
<rect x="162.133" y="42.667" style="fill:#7DC6D1;" width="324.267" height="17.067"/>
<g>
	<path style="fill:#3E8FC9;" d="M264.533,486.4c-0.026-15.309-10.283-28.715-25.045-32.751
		c-16.649,24.055-38.545,44.006-64.034,58.351h89.079V486.4z"/>
	<path style="fill:#3E8FC9;" d="M384,486.4c-0.026-15.309-10.283-28.715-25.045-32.751c-16.649,24.055-38.545,44.006-64.034,58.351
		H384V486.4z"/>
	<path style="fill:#3E8FC9;" d="M503.467,486.4c-0.026-15.309-10.283-28.715-25.045-32.751
		c-16.649,24.055-38.545,44.006-64.034,58.351h89.079V486.4z"/>
</g>
<path style="fill:#FABD91;" d="M86.409,95.411c4.864,7.074,7.467,15.471,7.458,24.055V140.8
	c-0.034,15.957-9.011,30.541-23.228,37.777c18.338,3.575,36.096-8.397,39.671-26.735c0.435-2.227,0.64-4.497,0.623-6.775V128
	C110.899,112.896,100.907,99.627,86.409,95.411z"/>
<path d="M477.013,444.51c6.042-7.467,9.353-16.777,9.387-26.377v-17.067c0-23.561-19.106-42.667-42.667-42.667
	s-42.667,19.106-42.667,42.667v17.067c0.034,9.6,3.345,18.91,9.387,26.377c-10.598,1.971-20.053,7.885-26.453,16.555
	c-6.4-8.67-15.855-14.583-26.453-16.555c6.042-7.467,9.353-16.777,9.387-26.377v-17.067c0-23.561-19.106-42.667-42.667-42.667
	S281.6,377.506,281.6,401.067v17.067c0.034,9.6,3.345,18.91,9.387,26.377c-10.598,1.971-20.053,7.885-26.453,16.555
	c-6.4-8.67-15.855-14.583-26.453-16.555c6.042-7.467,9.353-16.777,9.387-26.377v-17.067c0-23.561-19.106-42.667-42.667-42.667
	s-42.667,19.106-42.667,42.667v17.067c0.034,9.6,3.345,18.91,9.387,26.377c-20.233,3.703-34.944,21.316-34.987,41.89V512H153.6
	v-25.6c0-14.14,11.46-25.6,25.6-25.6h51.2c14.14,0,25.6,11.46,25.6,25.6V512h17.067v-25.6c0-14.14,11.46-25.6,25.6-25.6h51.2
	c14.14,0,25.6,11.46,25.6,25.6V512h17.067v-25.6c0-14.14,11.46-25.6,25.6-25.6h51.2c14.14,0,25.6,11.46,25.6,25.6V512H512v-25.6
	C511.957,465.826,497.246,448.213,477.013,444.51z M179.2,401.067c0-14.14,11.46-25.6,25.6-25.6c14.14,0,25.6,11.46,25.6,25.6
	v17.067c0,14.14-11.46,25.6-25.6,25.6c-14.14,0-25.6-11.46-25.6-25.6V401.067z M298.667,401.067c0-14.14,11.46-25.6,25.6-25.6
	c14.14,0,25.6,11.46,25.6,25.6v17.067c0,14.14-11.46,25.6-25.6,25.6c-14.14,0-25.6-11.46-25.6-25.6V401.067z M418.133,401.067
	c0-14.14,11.46-25.6,25.6-25.6c14.14,0,25.6,11.46,25.6,25.6v17.067c0,14.14-11.46,25.6-25.6,25.6c-14.14,0-25.6-11.46-25.6-25.6
	V401.067z"/>
<path d="M8.533,324.267h25.6v82.773L18.5,430.464c-2.62,3.917-1.562,9.216,2.364,11.836c1.399,0.939,3.046,1.434,4.736,1.434H128
	c4.71,0,8.533-3.823,8.533-8.533c0-1.69-0.495-3.337-1.434-4.736l-15.633-23.424V249.481l2.15,4.267
	c8.619,17.237,29.585,24.218,46.814,15.59c7.637-3.823,13.611-10.308,16.785-18.236l13.858-34.637l13.653-34.133
	c1.732-4.386-0.418-9.344-4.804-11.068c-0.998-0.393-2.057-0.597-3.123-0.597h-34.133c-3.593,0-6.793,2.244-8.021,5.615
	l-9.045,24.875l-0.299-0.811c-6.511-17.792-23.424-29.636-42.368-29.679h-0.222c5.649-7.339,8.721-16.341,8.755-25.6V128
	c0-23.561-19.106-42.667-42.667-42.667S34.133,104.439,34.133,128v17.067c0.034,9.259,3.106,18.261,8.755,25.6h-0.222
	C19.115,170.692,0.026,189.781,0,213.333v102.4C0,320.444,3.823,324.267,8.533,324.267z M17.067,307.2v-17.067h17.067V307.2H17.067z
	 M85.333,426.667v-102.4H68.267v102.4H41.549l8.218-12.331c0.93-1.408,1.434-3.055,1.434-4.736V307.2h51.2v102.4
	c0,1.681,0.503,3.328,1.434,4.736l8.218,12.331H85.333z M176.64,187.733h15.556L185.37,204.8h-14.933L176.64,187.733z M51.2,145.067
	V128c0-14.14,11.46-25.6,25.6-25.6s25.6,11.46,25.6,25.6v17.067c0,14.14-11.46,25.6-25.6,25.6S51.2,159.206,51.2,145.067z
	 M17.067,213.333c0-14.14,11.46-25.6,25.6-25.6h25.6v85.333h17.067v-85.333h25.6c11.776,0.026,22.281,7.381,26.325,18.441
	l8.32,22.878c1.604,4.429,6.502,6.716,10.931,5.111c2.372-0.862,4.25-2.731,5.111-5.111l2.611-7.185h14.31l-9.173,22.938
	c-3.661,9.139-14.037,13.577-23.177,9.916c-4.045-1.621-7.356-4.668-9.31-8.567l-18.27-36.634
	c-2.057-4.241-7.159-6.016-11.401-3.959c-2.978,1.442-4.847,4.471-4.813,7.774v76.8H51.2v-76.8c0-4.71-3.823-8.533-8.533-8.533
	s-8.533,3.823-8.533,8.533v59.733H17.067V213.333z"/>
<path d="M503.467,0h-358.4c-4.71,0-8.533,3.823-8.533,8.533v34.133c0,4.71,3.823,8.533,8.533,8.533h8.533v102.4h17.067V51.2h307.2
	v187.733H204.8V256h110.933v37.717l-55.467,31.676l8.465,14.814l47.002-26.837v27.964H332.8V313.37l46.933,26.837l8.465-14.814
	L332.8,293.717V256H512v-17.067h-17.067V51.2h8.533c4.71,0,8.533-3.823,8.533-8.533V8.533C512,3.823,508.177,0,503.467,0z
	 M494.933,34.133H153.6V17.067h341.333V34.133z"/>
<path d="M295.467,121.335c-2.987-2.381-7.185-2.492-10.291-0.273l-59.733,42.667l9.916,13.884l54.485-38.921l37.623,30.106
	c2.961,2.372,7.134,2.509,10.24,0.324l71.893-50.33v17.741h17.067V102.4c0-3.917-2.662-7.33-6.46-8.277l-34.133-8.533l-4.147,16.555
	l15.983,3.994l-64.768,45.338L295.467,121.335z"/>
<g>
</g>
<g>
</g>
<g>
</g>
<g>
</g>
<g>
</g>
<g>
</g>
<g>
</g>
<g>
</g>
<g>
</g>
<g>
</g>
<g>
</g>
<g>
</g>
<g>
</g>
<g>
</g>
<g>
</g>
</svg>
