<?xml version="1.0" encoding="iso-8859-1"?>
<!-- Generator: Adobe Illustrator 19.0.0, SVG Export Plug-In . SVG Version: 6.00 Build 0)  -->
<svg version="1.1" id="Capa_1" xmlns="http://www.w3.org/2000/svg" xmlns:xlink="http://www.w3.org/1999/xlink" x="0px" y="0px"
	 viewBox="0 0 512.008 512.008" style="enable-background:new 0 0 512.008 512.008;" xml:space="preserve">
<path style="fill:#F7B483;" d="M6.093,209.345V19.76h94.792l46.655,46.655c3.232,3.232,7.618,5.05,12.185,5.05h39.821
	c14.047,0,27.49,5.713,37.236,15.83l213.111,221.151c11.703,12.09,11.392,31.385-0.698,43.087
	c-11.815,11.435-30.575,11.435-42.389,0c11.703,12.09,11.392,31.385-0.698,43.087c-11.815,11.435-30.575,11.435-42.389,0
	c11.703,12.09,11.392,31.385-0.698,43.087c-11.815,11.435-30.575,11.435-42.389,0c11.901,11.901,11.901,31.195,0,43.096
	c-0.388,0.388-0.784,0.758-1.189,1.12c-12.754,10.651-31.566,9.626-43.087-2.344L6.093,209.345z"/>
<path style="fill:#F5AD78;" d="M47.388,250.64L276.32,479.581c11.522,11.97,30.334,12.995,43.087,2.344
	c12.53-11.237,13.581-30.497,2.344-43.027c-0.362-0.405-0.741-0.801-1.12-1.189c12.09,11.703,31.385,11.392,43.087-0.698
	c11.435-11.815,11.435-30.575,0-42.389c12.09,11.703,31.385,11.392,43.087-0.698c11.435-11.815,11.435-30.575,0-42.389
	c11.849,11.892,31.092,11.935,42.984,0.086c10.849-10.806,11.961-27.99,2.611-40.106C290.47,344.002,133.313,290.074,47.388,250.64z
	"/>
<g>
	<path style="fill:#FEC9A3;" d="M411.115,19.76L364.46,66.415c-3.232,3.232-7.618,5.05-12.185,5.05H250.588
		c-13.124,0.009-25.758,5.007-35.332,13.986L92.268,200.728c29.032,29.032,75.662,30.403,106.357,3.128l22.905-20.363l12.926,12.926
		c32.161,32.152,81.522,39.58,121.722,18.312l72.172,72.172l17.235-17.235l43.087-43.087l17.235-17.235V19.76
		C505.907,19.76,411.115,19.76,411.115,19.76z"/>
	<path style="fill:#FEC9A3;" d="M191.369,437.7l25.852-25.852c11.901-11.901,31.195-11.901,43.087,0l0,0
		c11.901,11.901,11.901,31.187,0,43.087l-25.852,25.853c-11.901,11.901-31.195,11.901-43.087,0l0,0
		C179.459,468.896,179.468,449.601,191.369,437.7z"/>
	<path style="fill:#FEC9A3;" d="M148.273,394.613l25.852-25.852c11.901-11.901,31.195-11.901,43.087,0l0,0
		c11.901,11.901,11.901,31.187,0,43.087L191.36,437.7c-11.901,11.901-31.195,11.901-43.087,0l0,0
		C136.372,425.808,136.381,406.514,148.273,394.613z"/>
	<path style="fill:#FEC9A3;" d="M105.185,351.525l25.853-25.853c11.901-11.901,31.195-11.901,43.087,0l0,0
		c11.901,11.901,11.901,31.187,0,43.087l-25.852,25.852c-11.901,11.901-31.195,11.901-43.087,0l0,0
		C93.284,382.721,93.293,363.426,105.185,351.525z"/>
	<path style="fill:#FEC9A3;" d="M62.106,308.438l25.852-25.853c11.901-11.901,31.195-11.901,43.087,0l0,0
		c11.901,11.901,11.901,31.187,0,43.087l-25.852,25.853c-11.901,11.901-31.195,11.901-43.087,0l0,0
		C50.206,339.633,50.206,320.339,62.106,308.438z"/>
</g>
<g>
	<path style="fill:#FAC199;" d="M62.106,351.534c11.892,11.901,31.187,11.901,43.079,0.009l0.009-0.009l25.852-25.853
		c4.619-4.645,7.601-10.66,8.505-17.149c-25.663,16.184-54.075,27.55-83.822,33.522C57.237,345.596,59.4,348.811,62.106,351.534z"/>
	<path style="fill:#FAC199;" d="M105.616,394.621c11.892,11.901,31.187,11.901,43.079,0.009l0.009-0.009l25.852-25.853
		c4.619-4.645,7.601-10.66,8.505-17.149c-25.663,16.184-54.075,27.55-83.822,33.522C100.739,388.684,102.91,391.898,105.616,394.621
		z"/>
	<path style="fill:#FAC199;" d="M148.704,437.709c11.892,11.901,31.187,11.901,43.079,0.009l0.009-0.009l25.852-25.852
		c4.619-4.645,7.601-10.66,8.505-17.149c-25.663,16.184-54.075,27.55-83.822,33.522
		C143.826,431.771,145.998,434.986,148.704,437.709z"/>
	<path style="fill:#FAC199;" d="M191.791,480.796c11.892,11.901,31.187,11.901,43.079,0.009l0.009-0.009l25.853-25.852
		c4.619-4.645,7.601-10.66,8.505-17.149c-25.663,16.184-54.075,27.55-83.822,33.522
		C186.914,474.859,189.085,478.073,191.791,480.796z"/>
</g>
<g>
	<path style="fill:#E6A270;" d="M385.262,329.999L385.262,329.999c3.369-3.369,8.824-3.369,12.185,0l22.285,22.285
		c3.369,3.369,3.369,8.824,0,12.185l0,0c-3.369,3.369-8.824,3.369-12.185,0l-22.285-22.285
		C381.893,338.815,381.893,333.36,385.262,329.999z"/>
	<path style="fill:#E6A270;" d="M342.175,373.086L342.175,373.086c3.369-3.369,8.824-3.369,12.185,0l22.285,22.285
		c3.369,3.369,3.369,8.824,0,12.185l0,0c-3.369,3.369-8.824,3.369-12.185,0l-22.285-22.285
		C338.806,381.911,338.806,376.447,342.175,373.086z"/>
	<path style="fill:#E6A270;" d="M299.087,416.174L299.087,416.174c3.369-3.369,8.824-3.369,12.185,0l22.285,22.285
		c3.369,3.369,3.369,8.824,0,12.185l0,0c-3.369,3.369-8.824,3.369-12.185,0l-22.285-22.285
		C295.718,424.998,295.718,419.535,299.087,416.174z"/>
</g>
<path style="fill:#FAC199;" d="M391.639,250.192l36.711,36.711l17.235-17.235l37.633-37.633
	C454.409,244.772,423.128,250.976,391.639,250.192z"/>
<rect x="433.103" y="230.905" transform="matrix(-0.7071 0.7071 -0.7071 -0.7071 981.5328 72.4797)" width="85.304" height="17.235"/>
<path d="M370.061,216.429c6.101-4.076,11.789-8.738,16.985-13.917l30.161-30.161l-12.185-12.185l-30.161,30.161
	c-37.116,37.029-97.197,37.029-134.312,0L227.623,177.4c-3.223-3.223-8.402-3.378-11.815-0.345l-22.914,20.355
	c-24.741,21.957-61.581,23.267-87.821,3.128L221.125,91.742c7.98-7.506,18.519-11.677,29.472-11.659h101.686
	c6.86,0.026,13.452-2.706,18.286-7.575l46.655-46.655l-12.202-12.185l-46.655,46.655c-1.62,1.62-3.809,2.525-6.101,2.525H250.58
	c-15.331-0.017-30.092,5.817-41.261,16.322L86.373,194.446c-3.473,3.257-3.645,8.712-0.388,12.185c0.06,0.069,0.121,0.129,0.19,0.19
	c32.281,32.221,84.064,33.729,118.172,3.447l16.83-14.951l7.187,7.178c33.134,33.152,83.4,42.157,125.979,22.569l89.458,89.476
	c8.402,8.669,8.178,22.5-0.491,30.902c-8.471,8.212-21.94,8.212-30.411,0l-21.544-21.544l-12.185,12.185l21.544,21.544
	c8.523,8.54,8.523,22.362,0,30.902c-8.652,8.238-22.25,8.238-30.902,0l-21.544-21.544l-12.185,12.185l21.544,21.544
	c8.523,8.54,8.523,22.362,0,30.902c-8.652,8.238-22.25,8.238-30.902,0l-21.544-21.544l-12.185,12.185l21.544,21.544
	c8.523,8.54,8.523,22.362,0,30.902c-8.652,8.238-22.25,8.238-30.902,0l-15.632-15.632c14.271-15.968,12.892-40.485-3.085-54.756
	c-8.342-7.454-19.501-10.944-30.601-9.565c2.637-21.156-12.375-40.451-33.531-43.087c-3.171-0.396-6.386-0.396-9.557,0
	c2.637-21.156-12.375-40.451-33.531-43.087c-3.171-0.396-6.386-0.396-9.557,0c2.62-21.259-12.478-40.614-33.738-43.234
	c-11.091-1.37-22.233,2.111-30.575,9.557l-71.646-71.646L0,215.438l71.465,71.465l-15.451,15.451
	c-15.262,15.244-15.279,39.977-0.026,55.247c7.333,7.342,17.287,11.461,27.662,11.453c1.491-0.06,2.973-0.198,4.447-0.422
	c-2.611,21.259,12.504,40.606,33.755,43.217c1.62,0.198,3.249,0.293,4.886,0.293c1.491-0.06,2.973-0.198,4.447-0.422
	c-2.611,21.259,12.504,40.606,33.755,43.217c1.62,0.198,3.249,0.293,4.886,0.293c1.491-0.06,2.973-0.198,4.447-0.422
	c-2.516,21.371,12.78,40.735,34.151,43.251c11.849,1.396,23.689-2.723,32.126-11.168L256,471.438l15.451,15.451
	c15.253,15.262,39.994,15.27,55.255,0.017c8.385-8.385,12.513-20.113,11.22-31.902c21.432,2.361,40.726-13.099,43.087-34.53
	c0.31-2.844,0.31-5.713,0-8.557c21.432,2.361,40.726-13.099,43.087-34.53c0.31-2.844,0.31-5.713,0-8.557
	c21.449,2.353,40.752-13.124,43.105-34.573c1.293-11.789-2.835-23.526-11.22-31.902L370.061,216.429z M68.199,345.441
	c-8.523-8.54-8.523-22.362,0-30.902l25.852-25.853c8.669-8.402,22.5-8.178,30.902,0.491c8.212,8.471,8.212,21.94,0,30.411
	l-25.852,25.852C90.561,353.955,76.739,353.955,68.199,345.441z M111.286,388.529c-8.523-8.54-8.523-22.362,0-30.902l25.852-25.852
	c8.669-8.402,22.5-8.178,30.902,0.491c8.212,8.48,8.212,21.94,0,30.411l-25.852,25.852
	C133.649,397.043,119.826,397.043,111.286,388.529z M154.374,431.616c-8.523-8.54-8.523-22.362,0-30.902l25.852-25.852
	c8.669-8.402,22.5-8.178,30.902,0.491c8.212,8.48,8.212,21.94,0,30.411l-25.852,25.853
	C176.736,440.13,162.914,440.13,154.374,431.616z M228.364,474.704c-8.669,8.402-22.5,8.178-30.902-0.491
	c-8.212-8.48-8.212-21.94,0-30.411l25.852-25.853c8.669-8.402,22.5-8.178,30.902,0.491c8.212,8.48,8.212,21.94,0,30.411
	L228.364,474.704z"/>
<path d="M187.06,80.083V62.848h-27.326c-2.292,0-4.481-0.905-6.101-2.525l-46.655-46.655L94.792,25.853l46.655,46.655
	c4.834,4.869,11.427,7.601,18.286,7.575H187.06z"/>
<g>
</g>
<g>
</g>
<g>
</g>
<g>
</g>
<g>
</g>
<g>
</g>
<g>
</g>
<g>
</g>
<g>
</g>
<g>
</g>
<g>
</g>
<g>
</g>
<g>
</g>
<g>
</g>
<g>
</g>
</svg>
