<svg id="piggy-bank" xmlns="http://www.w3.org/2000/svg" viewBox="0 0 112.243 110">
  <g id="Group_127" data-name="Group 127" transform="translate(83.574 58.204)">
    <g id="Group_126" data-name="Group 126">
      <path id="Path_232" data-name="Path 232" d="M390.277,270.613a1.633,1.633,0,0,0-1.633,1.633,2.074,2.074,0,1,1-4.148,0,1.633,1.633,0,0,0-3.267,0,5.341,5.341,0,1,0,10.682,0A1.633,1.633,0,0,0,390.277,270.613Z" transform="translate(-381.228 -270.613)"/>
    </g>
  </g>
  <g id="Group_129" data-name="Group 129" transform="translate(0 0)">
    <g id="Group_128" data-name="Group 128">
      <path id="Path_233" data-name="Path 233" d="M107.956,63.585l-4.6-1.473a1.923,1.923,0,0,1-1.241-1.257,29.643,29.643,0,0,0-4.346-8.6,31.546,31.546,0,0,0-2.9-3.425,40.517,40.517,0,0,0,1-9.252c-.068-4.162-.9-6.6-2.543-7.463-.885-.464-3.577-1.873-18.148,4.8a5.3,5.3,0,0,0-.966.575c-.982-.264-1.986-.508-3-.727-.122-.027-.247-.05-.37-.076a22.253,22.253,0,0,0,2-8.273,1.634,1.634,0,0,0-3.264-.146A19.006,19.006,0,0,1,57.145,45.261a47.371,47.371,0,0,0-13.148,0A19.021,19.021,0,1,1,67.574,18.854a1.634,1.634,0,0,0,2.918-1.469A22.3,22.3,0,1,0,38.74,46.31h0q-1.524.4-3.02.894a1.634,1.634,0,0,0,1.036,3.1,43.838,43.838,0,0,1,27.629,0,1.634,1.634,0,0,0,1.036-3.1q-1.5-.5-3.02-.894h0a22.274,22.274,0,0,0,6.781-6.63c.45.087.9.179,1.338.275q.88.191,1.749.408c-.018.071-.037.142-.052.214a19.481,19.481,0,0,0,.154,9.937A11.826,11.826,0,0,0,76.7,56.6a13.741,13.741,0,0,0,8.04,2.552,10.779,10.779,0,0,0,5.211-1.205c1.535-.87,2.822-2.7,3.84-5.453q.706.824,1.337,1.688A26.376,26.376,0,0,1,99,61.836a5.2,5.2,0,0,0,3.361,3.389l4.6,1.473a2.893,2.893,0,0,1,2.017,2.764v7.624a2.893,2.893,0,0,1-2.017,2.764L99.552,82.22a5.047,5.047,0,0,0-2.824,2.294c-2.91,5.029-7.486,9.191-13.6,12.37a2.559,2.559,0,0,0-1.343,1.8l-2.372,12.562a.734.734,0,0,1-.721.6H70.978a.734.734,0,0,1-.721-.6l-1.314-6.943a2.567,2.567,0,0,0-2.919-2.064A68.285,68.285,0,0,1,55.848,103a65.123,65.123,0,0,1-7.487-.423,2.588,2.588,0,0,0-2.831,2.076l-1.249,6.6a.734.734,0,0,1-.721.6H35.847a.736.736,0,0,1-.722-.6L32.841,99.381A2.564,2.564,0,0,0,31.523,97.6C21.1,92.033,15.591,82.737,15.591,70.715a31.4,31.4,0,0,1,3.95-15.965A28.5,28.5,0,0,1,30.158,44.385a1.634,1.634,0,0,0-1.636-2.828A31.092,31.092,0,0,0,12.745,64.782h0c-.157-.014-.315-.028-.471-.044a8.133,8.133,0,0,0-.6-3.259,6.691,6.691,0,0,0-4.96-4.332A4.514,4.514,0,0,0,2.464,59.04c-1.558,2.059-1.3,3.689-.817,4.694.823,1.7,2.938,2.894,6.447,3.648q-.145.217-.319.435a8.015,8.015,0,0,1-6.1,3.23A1.715,1.715,0,0,0,0,72.754v.008a1.711,1.711,0,0,0,1.639,1.706q.176.008.367.008c2.007,0,5.229-.74,8.324-4.621a9.316,9.316,0,0,0,1.193-1.927q.462.052.888.091a0,0,0,0,1,0,0c-.056.885-.087,1.783-.087,2.7a33.663,33.663,0,0,0,4.819,18.027A33.025,33.025,0,0,0,29.7,100.323l2.221,11.535a4,4,0,0,0,3.931,3.257h7.714a4,4,0,0,0,3.931-3.257l1.129-5.965a68.841,68.841,0,0,0,7.227.374,71.763,71.763,0,0,0,10.008-.7l1.19,6.288a4,4,0,0,0,3.931,3.257h7.714a4,4,0,0,0,3.931-3.257l2.31-12.231A35.615,35.615,0,0,0,99.556,86.15a1.786,1.786,0,0,1,.993-.818l7.407-2.373a6.15,6.15,0,0,0,4.287-5.875V69.46A6.149,6.149,0,0,0,107.956,63.585Zm-15.6-19.414c-.629,5.377-2.315,9.976-4.01,10.936-1.926,1.091-6.373,1.3-9.712-1.141s-4.455-6.842-3.218-12.716h0a1.971,1.971,0,0,1,1.121-1.365c8.178-3.743,12.893-4.968,14.644-4.968a1.708,1.708,0,0,1,.592.079C92.3,35.558,92.989,38.745,92.354,44.172ZM4.586,62.308c-.169-.349.23-.961.483-1.3a1.3,1.3,0,0,1,1.049-.638,1.225,1.225,0,0,1,.164.012A3.56,3.56,0,0,1,8.644,62.7a4.96,4.96,0,0,1,.342,1.54C6.724,63.77,4.968,63.094,4.586,62.308Z" transform="translate(0 -5.115)"/>
    </g>
  </g>
  <g id="Group_131" data-name="Group 131" transform="translate(44.469 10.489)">
    <g id="Group_130" data-name="Group 130">
      <path id="Path_234" data-name="Path 234" d="M210.534,62.894V57.048c2.016.144,2.765,1.065,3.456,1.065.864,0,1.267-1.094,1.267-1.641,0-1.411-2.765-2.016-4.723-2.073v-.778c0-.346-.432-.662-.864-.662a.76.76,0,0,0-.835.662v.835c-2.736.288-5.471,1.728-5.471,5.356,0,3.686,2.88,4.723,5.471,5.644v6.767c-2.937-.23-3.715-2.246-4.665-2.246-.72,0-1.325.95-1.325,1.642,0,1.411,2.419,3.34,5.99,3.4h0v.893a.76.76,0,0,0,.835.662c.432,0,.864-.317.864-.662v-.979c3.11-.432,5.241-2.39,5.241-5.932C215.775,65.083,213.039,63.815,210.534,62.894Zm-1.526-.547c-1.526-.576-2.764-1.181-2.764-2.822,0-1.5,1.152-2.217,2.764-2.419Zm1.354,9.819V66.09c1.411.6,2.534,1.411,2.534,3.225A2.739,2.739,0,0,1,210.361,72.166Z" transform="translate(-202.845 -52.959)"/>
    </g>
  </g>
</svg>
