<svg id="creative" xmlns="http://www.w3.org/2000/svg" viewBox="0 0 101.908 110">
  <g id="Group_109" data-name="Group 109" transform="translate(22.196 21.686)">
    <g id="Group_108" data-name="Group 108">
      <path id="Path_223" data-name="Path 223" d="M131.759,85.12A28.779,28.779,0,0,0,103,113.879a32.733,32.733,0,0,0,13.595,26.109v20.769a2.04,2.04,0,0,0,.143.693v.163a2.049,2.049,0,0,0,.122.245l7.174,10.68a2.038,2.038,0,0,0,1.692.9h11.862a2.038,2.038,0,0,0,1.692-.9l7.174-10.68a2.049,2.049,0,0,0,.122-.245v-.163a2.04,2.04,0,0,0,.143-.693V139.988a32.732,32.732,0,0,0,13.595-26.109A28.779,28.779,0,0,0,131.759,85.12Zm4.851,84.3h-9.7l-4.443-6.6h18.568Zm-15.918-10.68v-5.4h22.135l.02,5.4ZM143.763,137.2v.061a2.038,2.038,0,0,0-.917,1.712v10.354H120.691V138.846a2.038,2.038,0,0,0-.917-1.712A28.535,28.535,0,0,1,107.1,113.817a24.682,24.682,0,0,1,49.344,0A28.534,28.534,0,0,1,143.763,137.2Z" transform="translate(-103 -85.12)"/>
    </g>
  </g>
  <g id="Group_111" data-name="Group 111" transform="translate(49.731 30.919)">
    <g id="Group_110" data-name="Group 110">
      <path id="Path_224" data-name="Path 224" d="M213.118,121.36a2.038,2.038,0,1,0,0,4.076,15.368,15.368,0,0,1,15.347,15.347,2.038,2.038,0,1,0,4.076,0A19.444,19.444,0,0,0,213.118,121.36Z" transform="translate(-211.08 -121.36)"/>
    </g>
  </g>
  <g id="Group_113" data-name="Group 113" transform="translate(0 48.305)">
    <g id="Group_112" data-name="Group 112">
      <path id="Path_225" data-name="Path 225" d="M32.593,189.6H17.918a2.038,2.038,0,1,0,0,4.076H32.593a2.038,2.038,0,0,0,2.038-2.038h0A2.038,2.038,0,0,0,32.593,189.6Z" transform="translate(-15.88 -189.6)"/>
    </g>
  </g>
  <g id="Group_115" data-name="Group 115" transform="translate(83.157 48.305)">
    <g id="Group_114" data-name="Group 114">
      <path id="Path_226" data-name="Path 226" d="M358.993,189.6H344.318a2.038,2.038,0,1,0,0,4.076h14.675a2.038,2.038,0,1,0,0-4.076Z" transform="translate(-342.28 -189.6)"/>
    </g>
  </g>
  <g id="Group_117" data-name="Group 117" transform="translate(14.166 72.437)">
    <g id="Group_116" data-name="Group 116">
      <path id="Path_227" data-name="Path 227" d="M85.707,285.036a2.038,2.038,0,0,0-3.1,0V285L72.2,295.451a2.038,2.038,0,1,0,2.874,2.874L85.485,287.91A2.038,2.038,0,0,0,85.707,285.036Z" transform="translate(-71.483 -284.323)"/>
    </g>
  </g>
  <g id="Group_119" data-name="Group 119" transform="translate(73.138 13.777)">
    <g id="Group_118" data-name="Group 118">
      <path id="Path_228" data-name="Path 228" d="M316.623,54.566a2.038,2.038,0,0,0-2.651,0L303.556,64.981A2.038,2.038,0,0,0,305,68.467l-.02-.02a2.039,2.039,0,0,0,1.447-.591L316.845,57.44A2.038,2.038,0,0,0,316.623,54.566Z" transform="translate(-302.953 -54.076)"/>
    </g>
  </g>
  <g id="Group_121" data-name="Group 121" transform="translate(73.028 72.397)">
    <g id="Group_120" data-name="Group 120">
      <path id="Path_229" data-name="Path 229" d="M316.929,295.742a2.028,2.028,0,0,0-.4-.41L306.11,284.876a2.038,2.038,0,1,0-2.874,2.874l10.415,10.415a2.038,2.038,0,1,0,3.278-2.423Z" transform="translate(-302.523 -284.163)"/>
    </g>
  </g>
  <g id="Group_123" data-name="Group 123" transform="translate(14.389 13.777)">
    <g id="Group_122" data-name="Group 122">
      <path id="Path_230" data-name="Path 230" d="M86.135,64.981,75.72,54.566a2.038,2.038,0,0,0-2.874,2.874L83.261,67.855a2.038,2.038,0,0,0,2.874-2.874Z" transform="translate(-72.356 -54.076)"/>
    </g>
  </g>
  <g id="Group_125" data-name="Group 125" transform="translate(48.915)">
    <g id="Group_124" data-name="Group 124">
      <path id="Path_231" data-name="Path 231" d="M209.915,0a2.038,2.038,0,0,0-2.038,2.038V16.774a2.038,2.038,0,0,0,1.976,2.1h.062a2.038,2.038,0,0,0,2.038-2.038V2.038A2.038,2.038,0,0,0,209.915,0Z" transform="translate(-207.876)"/>
    </g>
  </g>
</svg>
