<svg xmlns="http://www.w3.org/2000/svg" viewBox="0 0 109.999 110">
  <g id="company" transform="translate(-0.002)">
    <g id="Group_133" data-name="Group 133" transform="translate(0.002 0)">
      <g id="Group_132" data-name="Group 132" transform="translate(0 0)">
        <path id="Path_238" data-name="Path 238" d="M108.17,53.167H89.835V20.939a8.673,8.673,0,0,0-5.144-7.917L55.746.159a1.833,1.833,0,0,0-2.578,1.676V31.167h-11A1.832,1.832,0,0,0,40.335,33v3.669h-16.5V27.921a15.042,15.042,0,0,0,1.189-1.065,14.738,14.738,0,0,0,.107-20.818,1.833,1.833,0,0,0-2.592,0h0l-7.871,7.871-4.2-4.2L7.872,12.3l4.2,4.2-7.87,7.87a1.833,1.833,0,0,0,0,2.592h0a14.522,14.522,0,0,0,10.311,4.252,14.857,14.857,0,0,0,5.652-1.121v6.572H1.835A1.832,1.832,0,0,0,0,38.5v69.668A1.832,1.832,0,0,0,1.833,110H108.168A1.832,1.832,0,0,0,110,108.169V55A1.832,1.832,0,0,0,108.17,53.167ZM8.2,25.558,23.726,10.036A11.159,11.159,0,0,1,8.2,25.558Zm17.465,80.775H18.335V99h7.333Zm-7.14-11H12.04a.98.98,0,0,1-.795-.456,1.493,1.493,0,0,1-.111-1.42l5.339-16.491,3.6,11-1.392,4.255A5.086,5.086,0,0,0,18.529,95.333Zm3.606-1.876,5.367-16.4L32.9,93.55a1.429,1.429,0,0,1-.143,1.327.98.98,0,0,1-.795.456H23.041a.98.98,0,0,1-.795-.456A1.493,1.493,0,0,1,22.134,93.457Zm18.2,12.876h-11V99h2.628a4.586,4.586,0,0,0,3.819-2.05,5.041,5.041,0,0,0,.571-4.632L30.925,75.736a3.64,3.64,0,0,0-6.846,0,.917.917,0,0,0-.032.091L22,82.078l-2.077-6.342a3.64,3.64,0,0,0-6.879.091l-5.364,16.4a5.1,5.1,0,0,0,.539,4.725A4.586,4.586,0,0,0,12.04,99h2.628v7.333h-11v-66H40.335v66Zm66,0H44v-71.5H55A1.832,1.832,0,0,0,56.835,33V4.656L83.2,16.374a5,5,0,0,1,2.967,4.565V55A1.832,1.832,0,0,0,88,56.834h18.335Z" transform="translate(-0.002 0)"/>
      </g>
    </g>
    <g id="Group_135" data-name="Group 135" transform="translate(88.001 62.334)">
      <g id="Group_134" data-name="Group 134">
        <path id="Path_239" data-name="Path 239" d="M393.172,272.005h-7.335A1.832,1.832,0,0,0,384,273.836v7.335A1.832,1.832,0,0,0,385.834,283h7.335A1.832,1.832,0,0,0,395,281.174v-7.335A1.832,1.832,0,0,0,393.172,272.005Zm-1.836,7.333h-3.667v-3.667h3.667Z" transform="translate(-384.003 -272.005)"/>
      </g>
    </g>
    <g id="Group_137" data-name="Group 137" transform="translate(88.001 77)">
      <g id="Group_136" data-name="Group 136">
        <path id="Path_240" data-name="Path 240" d="M393.172,336.005h-7.335A1.832,1.832,0,0,0,384,337.836v7.335A1.832,1.832,0,0,0,385.834,347h7.335A1.832,1.832,0,0,0,395,345.174v-7.335A1.832,1.832,0,0,0,393.172,336.005Zm-1.836,7.333h-3.667v-3.667h3.667Z" transform="translate(-384.003 -336.005)"/>
      </g>
    </g>
    <g id="Group_139" data-name="Group 139" transform="translate(88.001 91.667)">
      <g id="Group_138" data-name="Group 138">
        <path id="Path_241" data-name="Path 241" d="M393.172,400.005h-7.335A1.832,1.832,0,0,0,384,401.836v7.335A1.832,1.832,0,0,0,385.834,411h7.335A1.832,1.832,0,0,0,395,409.174v-7.335A1.832,1.832,0,0,0,393.172,400.005Zm-1.836,7.333h-3.667v-3.667h3.667Z" transform="translate(-384.003 -400.005)"/>
      </g>
    </g>
    <g id="Group_141" data-name="Group 141" transform="translate(49.502 62.334)">
      <g id="Group_140" data-name="Group 140">
        <path id="Path_242" data-name="Path 242" d="M225.172,272.005h-7.335A1.832,1.832,0,0,0,216,273.836v7.335A1.832,1.832,0,0,0,217.834,283h7.335A1.832,1.832,0,0,0,227,281.174v-7.335A1.832,1.832,0,0,0,225.172,272.005Zm-1.836,7.333h-3.667v-3.667h3.667Z" transform="translate(-216.003 -272.005)"/>
      </g>
    </g>
    <g id="Group_143" data-name="Group 143" transform="translate(49.502 77)">
      <g id="Group_142" data-name="Group 142">
        <path id="Path_243" data-name="Path 243" d="M225.172,336.005h-7.335A1.832,1.832,0,0,0,216,337.836v7.335A1.832,1.832,0,0,0,217.834,347h7.335A1.832,1.832,0,0,0,227,345.174v-7.335A1.832,1.832,0,0,0,225.172,336.005Zm-1.836,7.333h-3.667v-3.667h3.667Z" transform="translate(-216.003 -336.005)"/>
      </g>
    </g>
    <g id="Group_145" data-name="Group 145" transform="translate(49.502 47.667)">
      <g id="Group_144" data-name="Group 144">
        <path id="Path_244" data-name="Path 244" d="M225.172,208h-7.335A1.832,1.832,0,0,0,216,209.836v7.335A1.832,1.832,0,0,0,217.834,219h7.335A1.832,1.832,0,0,0,227,217.174v-7.335A1.832,1.832,0,0,0,225.172,208Zm-1.836,7.333h-3.667v-3.667h3.667Z" transform="translate(-216.003 -208.005)"/>
      </g>
    </g>
    <g id="Group_147" data-name="Group 147" transform="translate(7.335 44.001)">
      <g id="Group_146" data-name="Group 146">
        <path id="Path_245" data-name="Path 245" d="M41.172,192.005H33.836A1.832,1.832,0,0,0,32,193.836v7.335A1.832,1.832,0,0,0,33.834,203H41.17A1.832,1.832,0,0,0,43,201.174v-7.335A1.832,1.832,0,0,0,41.172,192.005Zm-1.836,7.333H35.669v-3.667h3.667Z" transform="translate(-32.003 -192.005)"/>
      </g>
    </g>
    <g id="Group_149" data-name="Group 149" transform="translate(23.835 44.001)">
      <g id="Group_148" data-name="Group 148">
        <path id="Path_246" data-name="Path 246" d="M113.172,192.005h-7.335A1.832,1.832,0,0,0,104,193.836v7.335A1.832,1.832,0,0,0,105.834,203h7.335A1.832,1.832,0,0,0,115,201.174v-7.335A1.832,1.832,0,0,0,113.172,192.005Zm-1.836,7.333h-3.667v-3.667h3.667Z" transform="translate(-104.003 -192.005)"/>
      </g>
    </g>
    <g id="Group_151" data-name="Group 151" transform="translate(7.335 58.667)">
      <g id="Group_150" data-name="Group 150">
        <path id="Path_247" data-name="Path 247" d="M41.172,256.005H33.836A1.832,1.832,0,0,0,32,257.836v7.335A1.832,1.832,0,0,0,33.834,267H41.17A1.832,1.832,0,0,0,43,265.174v-7.335A1.832,1.832,0,0,0,41.172,256.005Zm-1.836,7.333H35.669v-3.667h3.667Z" transform="translate(-32.003 -256.005)"/>
      </g>
    </g>
    <g id="Group_153" data-name="Group 153" transform="translate(23.835 58.667)">
      <g id="Group_152" data-name="Group 152">
        <path id="Path_248" data-name="Path 248" d="M113.172,256.005h-7.335A1.832,1.832,0,0,0,104,257.836v7.335A1.832,1.832,0,0,0,105.834,267h7.335A1.832,1.832,0,0,0,115,265.174v-7.335A1.832,1.832,0,0,0,113.172,256.005Zm-1.836,7.333h-3.667v-3.667h3.667Z" transform="translate(-104.003 -256.005)"/>
      </g>
    </g>
    <g id="Group_155" data-name="Group 155" transform="translate(49.502 91.667)">
      <g id="Group_154" data-name="Group 154">
        <path id="Path_249" data-name="Path 249" d="M225.172,400.005h-7.335A1.832,1.832,0,0,0,216,401.836v7.335A1.832,1.832,0,0,0,217.834,411h7.335A1.832,1.832,0,0,0,227,409.174v-7.335A1.832,1.832,0,0,0,225.172,400.005Zm-1.836,7.333h-3.667v-3.667h3.667Z" transform="translate(-216.003 -400.005)"/>
      </g>
    </g>
    <g id="Group_157" data-name="Group 157" transform="translate(67.835 20.168)">
      <g id="Group_156" data-name="Group 156">
        <path id="Path_250" data-name="Path 250" d="M305.172,88.005h-7.335A1.832,1.832,0,0,0,296,89.836v78.835a1.832,1.832,0,0,0,1.831,1.833h7.335A1.832,1.832,0,0,0,307,168.673V89.838A1.832,1.832,0,0,0,305.172,88.005Zm-1.836,78.832h-3.667V91.672h3.667Z" transform="translate(-296.003 -88.005)"/>
      </g>
    </g>
  </g>
</svg>
