<svg id="Layer_1" data-name="Layer 1" xmlns="http://www.w3.org/2000/svg" viewBox="0 0 600 600"><defs><style>.cls-1{fill:#231f20;}</style></defs><path class="cls-1" d="M175.74,436.84h17.49c16.88,0,26.83,3.42,26.83,17.39,0,9.65-6.33,14.68-13.57,15.18v2c10.86.2,18.8,5.33,18.8,17.49,0,13.87-9.95,18.8-26.84,18.8H175.74ZM193.23,468c12.56,0,20.2-2,20.2-12.76,0-11.86-7.64-12.77-20.2-12.77H182.37V468Zm5.22,34.08c12.57,0,20.21-2.41,20.21-14.17,0-10.86-7.64-14.28-20.21-14.28H182.37v28.45Z"/><path class="cls-1" d="M266.55,508.71c-24.52,0-31.36-11.06-31.36-27.34h6.64c0,17.89,9.65,21.71,24.72,21.71,12.37,0,20-3,20-12.46,0-11.86-13.27-14.07-24.73-17.39-13.77-4-23.42-7.84-23.42-20.1,0-10.66,7.24-17.29,24.53-17.29,20.7,0,27.34,13.07,27.34,24.12h-6.64c0-12.66-9.45-18.49-20.7-18.49-10.26,0-17.9,2.61-17.9,11.26,0,8.34,7.14,11.25,18.8,14.87,14.07,4.32,29.35,7.74,29.35,22.52C293.19,500.37,287.36,508.71,266.55,508.71Z"/><path class="cls-1" d="M305.48,547.23V480.89h6.63v66.24l35.88-1v5.63l-37,1C307.49,552.86,305.48,550.74,305.48,547.23Z"/><path class="cls-1" d="M357.94,547.23V480.89h6.64v66.24l35.88-1v5.63l-37,1C360,552.86,357.94,550.74,357.94,547.23Z"/><path class="cls-1" d="M434.44,479.88c17.79,0,29.35,10.86,31.46,28.35h-6.64c-1.61-14.38-10.15-22.72-24.82-22.72-17.39,0-25.84,13.17-25.84,30.76s8.45,30.86,25.84,30.86c14.67,0,23.21-8.45,24.82-22.82h6.64c-2.11,17.59-13.67,28.44-31.46,28.44C413.93,552.75,402,537,402,516.27S413.93,479.88,434.44,479.88Z"/><path d="M568.43,168.77c-.31-.58-.79-.76-1.31-.4a11.7,11.7,0,0,1-2.09,1,3.07,3.07,0,0,0-.91.44,5.76,5.76,0,0,1-2,1c-.83.31-1.39,1.18-2.38,1.24-.11,0-.2.2-.31.29a3.36,3.36,0,0,1-.55.46l-3.49,1.72c-.17.08-.37.12-.54.21-1.29.74-2.58,1.47-3.94,2.09a1.76,1.76,0,0,0-.38.21,5.36,5.36,0,0,1-2.24,1,4.73,4.73,0,0,0-1.57.7,10.31,10.31,0,0,1-3.25,1.53,6.32,6.32,0,0,0-2,.87,3.19,3.19,0,0,1-.9.46,14.81,14.81,0,0,0-2.82,1.06c-1,.49-2.09.68-3.08,1.19a3.64,3.64,0,0,1-1.7.32c-1.06,0-2.13,0-3.19,0s-2,.39-3,.38c-.13,0-.27.11-.38.19a1.08,1.08,0,0,1-.65.29c-1.31,0-2.49.83-3.83.65a.39.39,0,0,0-.28.06c-.87.65-2,.49-2.92.74a2.63,2.63,0,0,1-2,.11.65.65,0,0,0-.43,0,13,13,0,0,1-3.46.18,2.58,2.58,0,0,1-1.12-.28,1.13,1.13,0,0,1-.43-.35,18,18,0,0,0-2-2.41.82.82,0,0,1-.13-1.17,3.27,3.27,0,0,1,.25-.36,12.25,12.25,0,0,1,2.91-2.79,5.18,5.18,0,0,0,1.71-1.71,6.1,6.1,0,0,1,2.23-2.38,3.44,3.44,0,0,0,1.33-1.26,2.87,2.87,0,0,1,1-1.18,9.41,9.41,0,0,0,1.88-1.55,20.58,20.58,0,0,0,2.07-1.79c.6-.67,1.39-1.15,2.07-1.77,1.14-1,2.4-1.92,3.56-2.95A6.5,6.5,0,0,0,530,163a3.69,3.69,0,0,1,.8-.83c.38-.37.8-.69,1.15-1.08a2.85,2.85,0,0,0,.78-1.69c.08-1-.3-1.26-1.35-1a.74.74,0,0,0-.36.23,4.94,4.94,0,0,1-2.15,1.15,1,1,0,0,0-.4.16c-.61.51-1.45.58-2.06,1a5,5,0,0,1-2.09.92c-.17,0-.32.21-.46.33a23.91,23.91,0,0,1-3,2c-1,.58-2,1.17-3,1.78l-5.11,3.22a43.71,43.71,0,0,1-4.59,2.43c-.87.41-1.73.85-2.58,1.3a2.38,2.38,0,0,0-.49.51,1.62,1.62,0,0,0-1.78,1.14h-.26a4.79,4.79,0,0,0-2.77.66,2.14,2.14,0,0,1-2.31.14c-.26-.12-.53-.23-.78-.37a.9.9,0,0,1-.51-1.09c.11-.41.3-.81.45-1.22a.46.46,0,0,0-.35-.66,7.68,7.68,0,0,1-3.19-1.25,1.44,1.44,0,0,0-.53-.21,24,24,0,0,1-4-1.6c-.58-.24-1.07-.77-1.71-.73a5.54,5.54,0,0,1-2.86-.89,4.17,4.17,0,0,0-1.47-.59,4.81,4.81,0,0,1-2.86-1.27,2.08,2.08,0,0,0-1.32-.48,6.26,6.26,0,0,1-3.56-1,1.44,1.44,0,0,0-1-.14c-.61,0-.72-.76-1.28-.89a3.45,3.45,0,0,1-1.39-.73,1.83,1.83,0,0,0-.65-.3,8.69,8.69,0,0,0-3.54-.26,34.18,34.18,0,0,0-3.87,1.15,2,2,0,0,0-.89.7c-.51.63-1,1.3-1.53,1.89a2.61,2.61,0,0,0-.75,1.65,15.72,15.72,0,0,0,0,2.17c0,.74-.43,1.39-.32,2.13-.72.47-.93.84-.78,1.48a7.2,7.2,0,0,1,.39,1.5c-.47.51-.55,1.21-.93,1.75.31.75-.58,1.05-.62,1.65a7.46,7.46,0,0,1-.56,1.85l-1-.08-.28-.3a2.5,2.5,0,0,0-.53-1.17,2.14,2.14,0,0,0-1.33-.8c-.46-.08-1-.18-1.33.28h-.88l-.53,0a.55.55,0,0,0-.62.55,1.55,1.55,0,0,0-1,.24c-.34.26-.71.5-1.06.75-.81.6-.95.58-1.66-.19q-.29-.32-.6-.6a1.47,1.47,0,0,1-.49-2,2.64,2.64,0,0,0,.38-1.37V174a2.69,2.69,0,0,1,.31-1.38,2.27,2.27,0,0,0,.12-2.21,6.53,6.53,0,0,1-.45-1.93,2.25,2.25,0,0,0-1.15-2c0-.2,0-.4,0-.6.77-.71.76-1,0-1.63a1.94,1.94,0,0,0-.24-.15c0-.27,0-.54,0-.81a1,1,0,0,0,0-1.34c-.61-1-1.24-2-1.93-3a8.3,8.3,0,0,1-.92-1.28,1,1,0,0,0-.94-.54,4.08,4.08,0,0,0-1.06-1.86,15.83,15.83,0,0,1-1.46-2,3.51,3.51,0,0,0-.83-1.15c-.56-.45-1.06-1-1.58-1.49a32.34,32.34,0,0,1-3.16-3.35,8.06,8.06,0,0,0-2-1.63c-.48-.32-1,.21-1.54.16a11.28,11.28,0,0,0-1.3,0,7.46,7.46,0,0,0-1.16,0c-.48.08-.95.23-1.06.82l-.57,0a2.38,2.38,0,0,0-1.11-.29h-2.61a2.34,2.34,0,0,0-1.25.3,2.76,2.76,0,0,1-1.41.27,20.18,20.18,0,0,1-4-.26,2,2,0,0,1-1.45-.78.77.77,0,0,0-1-.33,2,2,0,0,1-1.55,0,.7.7,0,0,0-.43,0,19.51,19.51,0,0,1-4.32.21,2.41,2.41,0,0,1-1.5-.41,4.85,4.85,0,0,0-2.89-.76,4.63,4.63,0,0,1-1.29-.11,5.22,5.22,0,0,0-1.57-.17,6.82,6.82,0,0,1-2.29-.27,1.75,1.75,0,0,0-1-.18,4.79,4.79,0,0,1-2.41-.25,13.31,13.31,0,0,0-4-.11c-.76.08-1.52.2-2.29.26a2.11,2.11,0,0,1-1.23-.19,3.05,3.05,0,0,0-2.38-.25,4.59,4.59,0,0,1-2.44,0,8.08,8.08,0,0,0-2.29-.2,12.58,12.58,0,0,1-3.29-.36,11,11,0,0,0-4.28-.22h-.3c-.56-.37-.58-.37-1.14,0h-.6a1.52,1.52,0,0,0-.49-.25,2.81,2.81,0,0,0-1.44.08c-.58.23-1.25.08-1.79.51-.72.59-1.21-.41-1.87-.33a5.66,5.66,0,0,1-.58,0c-.38,0-.77,0-1.16,0a4.08,4.08,0,0,0-2.25.4,2.08,2.08,0,0,1-1.13.17,11.3,11.3,0,0,0-3.17.26,2.48,2.48,0,0,1-1.15,0,10.88,10.88,0,0,0-2.85,0c-.69,0-1.33.31-2,.31a11,11,0,0,0-2.85.47,2.85,2.85,0,0,1-.71.12c-1.26,0-2.47.44-3.74.31a1.65,1.65,0,0,0-.57.09,9.18,9.18,0,0,1-3.87.05,1.45,1.45,0,0,0-1.1.15,2.84,2.84,0,0,1-1.07.43,22.49,22.49,0,0,1-3.28.44,12.76,12.76,0,0,0-2.9.06,6.83,6.83,0,0,1-3.42,0,1.08,1.08,0,0,0-1.08.25,3,3,0,0,1-1.6.92.58.58,0,0,0-.36.23,1.65,1.65,0,0,1-1.24.64c-.9.16-1.79.38-2.69.5-.66.09-1.34,0-1.92.46-.18.16-.56.12-.84.13H312.4a2.94,2.94,0,0,0-1.55.25,3.3,3.3,0,0,1-1.69.34,1.22,1.22,0,0,0-1,.23,1.77,1.77,0,0,1-1.22.35,12.25,12.25,0,0,1-5-.67,5.06,5.06,0,0,0-3.66.28,3.86,3.86,0,0,1-1.8.37,5.78,5.78,0,0,0-2.93.71,5.14,5.14,0,0,1-1.46.54,7.82,7.82,0,0,0-3.32,1.29,1.39,1.39,0,0,1-.52.25c-1.42.28-2.77.8-4.21,1a7.07,7.07,0,0,0-3.14,1c-.79,0-1.18.78-1.86,1h-.29c-.27-.27-.61-.22-.95-.25-1.74-.18-3.44.38-5.18.31a1,1,0,0,0-.74.39c-.63.73-1.75.49-2.4,1.2-.09.09-.28.07-.42.1a.32.32,0,0,1-.14,0c-1.07-.11-2.09.33-3.15.32a1.1,1.1,0,0,0-.88.42,5.76,5.76,0,0,1-.62.59,2.5,2.5,0,0,0-1,1.87.52.52,0,0,1-.51.24,13.19,13.19,0,0,0-2.78-.5.71.71,0,0,0-.29,0,5.93,5.93,0,0,1-1.83.28.91.91,0,0,0-.64.27,1.53,1.53,0,0,1-.79.32c-.79.18-1.57.38-2.36.55a3.67,3.67,0,0,0-2.11,1.1,2.48,2.48,0,0,1-.27,0,2.14,2.14,0,0,0-.85.09,18.79,18.79,0,0,0-2.54,1.56,13,13,0,0,0-1.72,1.23c-.52.59-1.23.69-1.82,1a3.17,3.17,0,0,1-2.74.29,3.32,3.32,0,0,0-2.06.37c-.1,0-.13.24-.19.37a1.4,1.4,0,0,1-.29,0c-.65-.07-1,.49-1.55.69s-1.2,0-1.62.52l-.88,0a1.86,1.86,0,0,0-1.5.37c-1,.79-2.28,1.2-3.15,2.19a2,2,0,0,0-1.2.42,6.68,6.68,0,0,1-1.38.79c-1.28.4-2.43,1.17-3.82,1.29a2.25,2.25,0,0,0-.93.37,5.58,5.58,0,0,1-.93.36,6.73,6.73,0,0,1-2.44.25,2.33,2.33,0,0,0-1.76.54,1,1,0,0,1-.77.32,6,6,0,0,0-2.81.55c-.34.15-.76.05-1.09.33a3.37,3.37,0,0,1-1.75.6,5.64,5.64,0,0,0-3.22,1.13,1.25,1.25,0,0,1-.38.2c-1.28.43-2.45,1.12-3.76,1.46a2.68,2.68,0,0,0-1,.28,2.87,2.87,0,0,1-1.8.4h-2.47a1.94,1.94,0,0,1-1.5-.38,1.09,1.09,0,0,0-.83-.19c-.48,0-1,0-1.45,0a3,3,0,0,1-2.17-.65,4.36,4.36,0,0,0-1-.63,13,13,0,0,1-2.87-1.29,4.08,4.08,0,0,1-2-.88c-1.24-.85-2.48-.42-3.73-.14a5,5,0,0,1-3.65,1H180a1.45,1.45,0,0,0-1.25.61c-.3.37-.67.69-1,1a1,1,0,0,1-.76.35,2,2,0,0,1-1.27-.17,2.74,2.74,0,0,0-1.8-.39,4.81,4.81,0,0,0-1.79.13c-.29.48-.55.89-.79,1.3a.93.93,0,0,0-.17.83,2,2,0,0,1-.05,1.41,1.86,1.86,0,0,0,.28,1.66,5.05,5.05,0,0,0,1.4,1.81,1.21,1.21,0,0,1,.39.42c.68,1.11,1.64,2,2.29,3.16a5.67,5.67,0,0,1,.77,2.28,2.54,2.54,0,0,0,.48,1.77c.11.12.1.37.12.56a5.59,5.59,0,0,1-1.2,4.48,1.48,1.48,0,0,0-.23.36c-.33.88-1.16,1.26-1.84,1.78a6.21,6.21,0,0,1-1.34.52,5.24,5.24,0,0,0-1.06.95L171,203a6.7,6.7,0,0,1-2.67,1.6c-.12,0-.22.19-.3.31a1.34,1.34,0,0,1-.71.47,1.79,1.79,0,0,0-.77.37c-.82.91-2.22,1-2.91,2.08-.06.11-.24.15-.37.21a6.6,6.6,0,0,1-1.71.71,4.1,4.1,0,0,1-1.53-.44c-.27.2-.53.41-.81.59a.68.68,0,0,1-1-.2,5.54,5.54,0,0,1-.33-.64c-.35-.7-.7-.8-1.37-.37-.2.13-.37.31-.57.45a.41.41,0,0,1-.58-.23,2.5,2.5,0,0,1,.09-1.43.7.7,0,0,0,0-.69c-.52-.63-1-1.31-2-1.3-.68,0-1.35,0-2,0s-.88-.26-.49-.88a1.78,1.78,0,0,0,.25-1.09.55.55,0,0,0-.38-.56.56.56,0,0,0-.66.16c-.33.5-.9.72-1.31,1.12a2.13,2.13,0,0,1-2.8.22c-.57-.33-1.22-.67-1.15-1.59.1-.1.23-.22.36-.36.29-.32.59-.64.86-1s.21-.54,0-.68c-.46-.4-1-.68-1.28-1.3,0-.06-.16-.09-.25-.12a19,19,0,0,1-3.93-1.42,1.18,1.18,0,0,0-.43-.06,4.8,4.8,0,0,0-3.05.63,1.3,1.3,0,0,0-.51,1.83c.08.17.15.35.21.5a4.06,4.06,0,0,0-.37.85c-.18.94-1,1.37-1.56,2-.13.16-.43.2-.66.25s-.57.05-.82.08a3.31,3.31,0,0,0-1.12,2c-.2.82-1,1.25-1.15,2.1,0,.06-.15.12-.23.15a1,1,0,0,0-.71,1.13c0,.38,0,.77,0,1.16a.79.79,0,0,1-.25.66c-.83.54-1,1.53-1.54,2.25a.8.8,0,0,0,0,1.07,2,2,0,0,1,.4,1.06c.09.51.27,1,.38,1.42a1.18,1.18,0,0,0,.78.25,1.63,1.63,0,0,1,1.36,2,.71.71,0,0,1-.18.38,13.16,13.16,0,0,0-1.53,1.73,1.57,1.57,0,0,1-1.27.56c-.63,0-1.26,0-1.89,0-.22-.35-.35-.8-.88-.83l-.87,0c-.15-.13-.27-.33-.43-.37-.79-.2-1.4-.88-2.28-.8a1,1,0,0,1-.76-.39,2.86,2.86,0,0,0-1.57-.69,2.72,2.72,0,0,1-1.72-.65.5.5,0,0,0-.39-.12,4.29,4.29,0,0,1-1.84-.29,4,4,0,0,0-1.57-.06c-1.63.3-1.61.29-2.7-1a1.48,1.48,0,0,1-.33-1.48c.17-.55.41-1.08.61-1.62a3.53,3.53,0,0,0,0-2.56c-.38-.94-1.31-1.49-2.07-2.15-.72-.11-.88-.64-1-1.26,0-.28,0-.7-.15-.82-.61-.45-.9-1.23-1.74-1.46a2.5,2.5,0,0,1-1.89-1.58,2.22,2.22,0,0,0-1.25-1.17c-.26-.12-.57-.15-.78-.63v-1a12.56,12.56,0,0,0-.25-2.73,9.75,9.75,0,0,1-.2-2.85c0-.67.14-1.34.15-2a8.34,8.34,0,0,1,.2-1.86,22.49,22.49,0,0,0,.36-2.72,10.16,10.16,0,0,0,0-1.46,1.21,1.21,0,0,0-.58-1,.48.48,0,0,0-.64.14,2.35,2.35,0,0,0-.19.39,14.25,14.25,0,0,1-.79,2.16,9.75,9.75,0,0,0-1,3.31,1.7,1.7,0,0,1-.23.83,2.78,2.78,0,0,0-.53,1.63,10.68,10.68,0,0,1-1.32,3.49.53.53,0,0,1-.6.31.51.51,0,0,1-.46-.29,3.22,3.22,0,0,1-.36-1.39,2.69,2.69,0,0,0-.42-1.53,5.34,5.34,0,0,1-.73-2.74,23.38,23.38,0,0,1,0-2.9A6,6,0,0,1,96.3,186c-.11-.29-.25-.6-.36-.91a3.31,3.31,0,0,1,0-2.28,11.45,11.45,0,0,0,.72-4.25A3.93,3.93,0,0,1,98,175.61c.8-.8,1.64-1.58,2.45-2.39.31-.3.73-.48.94-.89.38-.73.79-1.44,1.18-2.15a.77.77,0,0,0,.09-.7,1.36,1.36,0,0,1,.32-1.71c.31-.28.3-.71.46-1.05s.72-.25,1-.55c.06-.08.11-.16.17-.23a3,3,0,0,0,.79-1.83,2.61,2.61,0,0,1,.83-2.08.56.56,0,0,0,.19-.51,2.81,2.81,0,0,1,1-2.57c.14-.1.2-.32.29-.49a6.66,6.66,0,0,0,.46-4.52,4.15,4.15,0,0,1,0-1.57,10.22,10.22,0,0,0,0-3.74,16.17,16.17,0,0,1-.44-4.16,2.71,2.71,0,0,0-.39-1.95,1.83,1.83,0,0,1-.17-.84,9.07,9.07,0,0,0-1.22-4c-.28-.44-.47-.94-.74-1.4a28.15,28.15,0,0,0-1.73-3.31,2.65,2.65,0,0,1-.37-1.24,1.17,1.17,0,0,1,.72-1.41,2.09,2.09,0,0,0,1.31-2.31,12,12,0,0,1,.46-4.45,2.33,2.33,0,0,0,0-1.43,2.12,2.12,0,0,1,0-1.27,3.48,3.48,0,0,0,.22-1.69,7.38,7.38,0,0,0-1.28-3.2,3.1,3.1,0,0,1-.53-1,15.32,15.32,0,0,0-1.56-3.87,1.16,1.16,0,0,1-.16-.4,5.52,5.52,0,0,0-1.46-2.77,1.22,1.22,0,0,1-.36-.92,3.18,3.18,0,0,0-.66-1.88,14.82,14.82,0,0,1-1.32-2c-.47-1.17-1.7-1.74-2.05-2.94A11.47,11.47,0,0,1,94.47,98a16.05,16.05,0,0,1-2.65-3.58,2.2,2.2,0,0,0-.73-.89,7.69,7.69,0,0,1-1.57-1.26c-.48-.52-.8-1.17-1.5-1.48-.18-.08-.29-.37-.38-.59a1,1,0,0,0-.46-.54,7.09,7.09,0,0,1-1.59-1.24A28.34,28.34,0,0,0,82.49,86a6.79,6.79,0,0,1-2.06-1.78,2.27,2.27,0,0,0-.41-.41,41.21,41.21,0,0,0-6-4.46,13.05,13.05,0,0,1-2.1-1.52,6.61,6.61,0,0,0-1.57-1,16.55,16.55,0,0,1-3.2-1.94c-1-.74-1.87-1.72-3.23-1.81a.28.28,0,0,1-.13-.06,3.66,3.66,0,0,0-2.37-.92,13.08,13.08,0,0,0-2.71-.43,45.9,45.9,0,0,0-7.23.31,2.41,2.41,0,0,0-2,1c-.13.23-.45.35-.66.54a3.28,3.28,0,0,0-.81.81c-.38.76-1.22,1.12-1.54,1.9-1.37.88-1.81,2.47-2.82,3.63A12.14,12.14,0,0,1,43,81.47c-.23.61.09,1.36-.37,2,0,0,.11.23.17.36A1.12,1.12,0,0,1,42.65,85a1,1,0,0,0-.23,1.07,1.82,1.82,0,0,1,0,1.13,8.13,8.13,0,0,0,0,3,1.5,1.5,0,0,1-.24,1.46.67.67,0,0,0,0,.7,5,5,0,0,1,.22,2.83,5,5,0,0,0,0,.87c0,1.41,0,2.81,0,4.21a4.36,4.36,0,0,1-.1,1.15A6,6,0,0,0,42,103.2a11.8,11.8,0,0,1-.27,3.6,2.46,2.46,0,0,0,0,.72c0,1.31,0,2.62,0,3.92s.39,2.58.35,3.89a.5.5,0,0,0,.46.48,5.85,5.85,0,0,0,.73,0,4.55,4.55,0,0,1,2.8.49.72.72,0,0,0,.42.07c.94-.08,1.94.29,2.78-.44.13-.11.38-.08.56-.11a8.26,8.26,0,0,0,1-.2,6,6,0,0,1,2.12-.41.85.85,0,0,0,.79-.3,1.42,1.42,0,0,1,1.4-.56,1.93,1.93,0,0,0,.72,0c1-.35,2.15,0,3-.75a.81.81,0,0,1,.42-.08H62a4.81,4.81,0,0,1,1.44,2.36,4.89,4.89,0,0,0,.59,1.16,4.69,4.69,0,0,1,.4.77,6.86,6.86,0,0,0,1.12,2.76c.42,1.33,1.17,2.54,1.51,3.91a2.77,2.77,0,0,0,.27.67,9.29,9.29,0,0,1,1.19,3.06,1.28,1.28,0,0,0,.23.52c.62.81.78,1.87,1.5,2.63a.91.91,0,0,1,.2.53,3.72,3.72,0,0,0,.75,2,1,1,0,0,1,.16.55,6.43,6.43,0,0,0,1.12,3.39,5.43,5.43,0,0,1,1,2.4.9.9,0,0,0,.22.52,1.35,1.35,0,0,1,.33.93,2,2,0,0,0,.45,1.19,5.22,5.22,0,0,1,1.35,3,.77.77,0,0,0,.28.48c.7.54.83,1.54,1.62,2a4.68,4.68,0,0,0,2.79,2.35c.63.26,1.24.54,1.84.84A3,3,0,0,1,84,153.41a5.07,5.07,0,0,0,.91,1.64.92.92,0,0,0,1.19.12,1.77,1.77,0,0,0,.3-.31,12.31,12.31,0,0,1,1.9-1.72l1.48.2a1.18,1.18,0,0,1,.55.15c.52.46,1.26.52,1.78.95a6.91,6.91,0,0,1,1.17,1.79c.16.25.3.52.62.56.57.07.67.45.69.93a4,4,0,0,1-.25,1.42,3.46,3.46,0,0,0-.34,1.7c.12.69-.48,1.14-.55,1.76a.76.76,0,0,0,0,.15c0,.73-.21,1.44-.25,2.14a8.38,8.38,0,0,1-1,3.41,1.52,1.52,0,0,0-.16.55,20.22,20.22,0,0,1-.36,2.72c-.3,1.1,0,2.34-.75,3.33a.72.72,0,0,0-.06.42,7.9,7.9,0,0,1-.27,2,12.26,12.26,0,0,0-.34,3.31,1.54,1.54,0,0,1-.17,1.12,2.71,2.71,0,0,0-.39,1.81v3.63a5.62,5.62,0,0,1-.07,1.3,2.87,2.87,0,0,0,.31,2.08,2.39,2.39,0,0,1,.32,1.24,21.35,21.35,0,0,0,.62,4.28,6,6,0,0,1,.74,2,1.26,1.26,0,0,0,.6.78,2.77,2.77,0,0,1,1,1,1.79,1.79,0,0,0,1.34.77c.23,0,.48,0,.72,0a1.64,1.64,0,0,1,1.65,1.66,4.72,4.72,0,0,1-.15,1.58,8.75,8.75,0,0,0-.44,3.14,2.12,2.12,0,0,1-.39,1.64,1.2,1.2,0,0,0-.16.69,2.79,2.79,0,0,1-.41,1.8.54.54,0,0,0,0,.42,7.75,7.75,0,0,1,.06,2.88,1.59,1.59,0,0,0,.22,1,2.42,2.42,0,0,0,.79.83,4.47,4.47,0,0,1,1.64,2,1.69,1.69,0,0,0,.31.49,6.86,6.86,0,0,1,1.43,2.42,7.71,7.71,0,0,1,4,1.35,8.48,8.48,0,0,0,1.73,1c.68.19,1,.71,1.5,1a4,4,0,0,1,1.4,1.2,1.31,1.31,0,0,0,.2.21,1,1,0,0,1,.13,1.23,14.9,14.9,0,0,1-2.18,3.4c-.61.6-.6.63-1.33.28a7.8,7.8,0,0,0-1.2-.5,1.49,1.49,0,0,0-1.93.81,21,21,0,0,0-1.71,3c-.18.39-.39.77-.59,1.15a2.58,2.58,0,0,0,.09,3.1.61.61,0,0,1,.13.66,6.37,6.37,0,0,1-1.24,1,5.14,5.14,0,0,0-2,2.24.31.31,0,0,0,0,.26.33.33,0,0,0,.39.12c.41-.09.62-.45.91-.69s.36-.34.64-.25a.71.71,0,0,1,0,.92,13.09,13.09,0,0,0-.92,1.63,1.23,1.23,0,0,1-.91.83,4.19,4.19,0,0,0-1.84,1.1,2.65,2.65,0,0,0-.73,1.7c-.08.55.33.88.73,1.16a1.28,1.28,0,0,1,.62.94,2.11,2.11,0,0,0,.74,1.79c.13.09.13.35.19.54a12.85,12.85,0,0,0,.79,2.61,1,1,0,0,1-.24,1.2,6.6,6.6,0,0,1-1,.81.88.88,0,0,0-.14,1.37,16.85,16.85,0,0,0,2.32,1.73,1.5,1.5,0,0,1,1,1.12,2.38,2.38,0,0,0,1.76,1.93,3.2,3.2,0,0,1,1.31.88c.71.72,1.41,1.46,2.16,2.13a8.05,8.05,0,0,0,1.94,1.51,3.59,3.59,0,0,1,1.61,1.41,7.13,7.13,0,0,0,2,2,12.38,12.38,0,0,1,1.81,1.66,3.46,3.46,0,0,0,.49.52,1,1,0,0,0,1.63-.68c.06-.32-.1-.7.25-.91s.38.07.55.16A4.72,4.72,0,0,1,116,273a1.67,1.67,0,0,0,2.45.08c.18-.16.27-.4.44-.57a2.57,2.57,0,0,1,1.13-.87,17.72,17.72,0,0,1,2.28-.36,1.19,1.19,0,0,1,1.35.88c.31,1,1.08,1.86,1,3,0,.35.28.59.44.89a3.76,3.76,0,0,1,.69,2.18,2.28,2.28,0,0,0,.31,1.09c.51,1.19,1.08,2.39.58,3.75a.53.53,0,0,0,0,.28c.11,1.3-.25,2.59,0,3.89a7.66,7.66,0,0,1,0,2c-.07.69.44,1.32.17,2s.24,1.31.15,2,.26,1.3,0,2a1.2,1.2,0,0,0,.53,1.27,2.62,2.62,0,0,1-.33,1.39,1.7,1.7,0,0,0,.28,2.13.47.47,0,0,0,.74-.11,2.38,2.38,0,0,0,.16-.7,2.14,2.14,0,0,1,.75-1.36.59.59,0,0,1,.95.23c.09.28.15.56.23.84.33,1.19.23,2.5.93,3.59a.56.56,0,0,1,0,.29,6.63,6.63,0,0,0,.27,1.71,18.7,18.7,0,0,0,1,4.48,1.59,1.59,0,0,1,.06,1.28,2.61,2.61,0,0,0,.48,2.7c.21.27.42.53.64.78.47.55,1.06,1,1.5,1.54a1.47,1.47,0,0,0,1.34.67,1.66,1.66,0,0,1,1.11.24l1.26,1-.46.39c.36.69.36.79-.1,1.06a4.84,4.84,0,0,0-1.18.83A1.82,1.82,0,0,1,135,320c-.27-.1-.52-.26-.8-.34a2,2,0,0,0-2,.42,2.14,2.14,0,0,0-.67,1.55,10.65,10.65,0,0,0,0,2.46,7.07,7.07,0,0,0,.8,2.88,3,3,0,0,1,.62,1.76,1.82,1.82,0,0,0,1,1.77,2.64,2.64,0,0,1,1.28,1.68,1.84,1.84,0,0,0,.57,1,7.21,7.21,0,0,1,2.08,3.06,8.5,8.5,0,0,0,1.09,2.17,7.8,7.8,0,0,0,1.4,1.54l.35.25a1.9,1.9,0,0,1,.19,2.6,5.46,5.46,0,0,1-1.71,1.31,14.87,14.87,0,0,1-2.78,2.23,11.69,11.69,0,0,1-6.22,2.5,3,3,0,0,1-2-.59,15.74,15.74,0,0,1-2-2.06,2.34,2.34,0,0,1-.74-1.51,31.11,31.11,0,0,0-.35-3.6,6.81,6.81,0,0,1,0-1,1.41,1.41,0,0,1,.24-.82,16.57,16.57,0,0,1,1.13-1.69,2.61,2.61,0,0,1,2.35-1.16,5,5,0,0,1,1.82.41c.52.27.84,0,1.07-.59a.46.46,0,0,0,0-.28c-.22-.67-.22-1.42-.94-1.88a2.9,2.9,0,0,1-1.19-1.78,2.69,2.69,0,0,0-1-1.51c-.6-.48-1-1.18-1.81-1.42-.12,0-.22-.19-.3-.31a5.85,5.85,0,0,0-1-.81,12,12,0,0,0-2.79-1.5,26,26,0,0,0-3-1,2.52,2.52,0,0,0-.73,0c-.53,0-1.06,0-1.59,0a4.7,4.7,0,0,1-2.63-.47,2.37,2.37,0,0,1-1.69.46,8.65,8.65,0,0,0-3.83.6,3.74,3.74,0,0,1-1.56.29,3.3,3.3,0,0,0-1.78.52,5.47,5.47,0,0,1-1.76.63,1.91,1.91,0,0,0-.69.2,4.44,4.44,0,0,1-2.61.67,4.92,4.92,0,0,0-1.44.06,9.88,9.88,0,0,1-2.59.23,2.84,2.84,0,0,0-1.95.39c-.09.08-.27.07-.41.08l-2.59.12a2.48,2.48,0,0,0-2.06,1.14,1.87,1.87,0,0,0-.42,1,2.82,2.82,0,0,0,.74,2.54,2.27,2.27,0,0,1,.48.72A4.33,4.33,0,0,0,92.5,337a1.48,1.48,0,0,1,.94,1.36,1.83,1.83,0,0,0,1,1.65,2.41,2.41,0,0,1,1,1.18,3.8,3.8,0,0,0,2.89,2.13c1.14.06,2.08.7,3.17.82,0,.32.09.56.13.79a.77.77,0,0,0,.34.62,13.92,13.92,0,0,1,2.51,2.34c.59.51,1.08,1.1,2,1.07a.68.68,0,0,1,.64.69,4.37,4.37,0,0,1-.11,1.87,1.9,1.9,0,0,0,0,1.21c1.15,1.06,2.46,2.1,2.64,3.86,1.46.85,2.83,1.75,4.31,2.44a2.18,2.18,0,0,0,1.1.31,2.09,2.09,0,0,1,2.14,1.41,3.22,3.22,0,0,0,.7,1.13,5.63,5.63,0,0,1,3,2.12,1.52,1.52,0,0,0,1.28.58,7,7,0,0,1,1.58.13,11.52,11.52,0,0,1,4,2,2.35,2.35,0,0,0,.72.47,1.71,1.71,0,0,1,1,1,4.81,4.81,0,0,0,1.82,2.2c.27.14.44.49.66.75a2.55,2.55,0,0,0,.58.64,12.63,12.63,0,0,1,2.51,2.39,1.8,1.8,0,0,1,.66,1.21c0,.54.41.75.85.86a4.77,4.77,0,0,0,1,.08c.49,0,1,0,1.46,0a1.72,1.72,0,0,1,1.43,2.54,6.33,6.33,0,0,1-.59.83c-.26,0-.5.07-.73.12a3.81,3.81,0,0,0-1.84.77,1.33,1.33,0,0,0-.31,1.57,2.51,2.51,0,0,0,1.35,1,15.74,15.74,0,0,0,2.28.39,32.63,32.63,0,0,1,5.5.17.68.68,0,0,0,.28,0,14.45,14.45,0,0,1,2.46-.15,1.76,1.76,0,0,1,2.16,1.2c0,.05.06.08.08.12.58.81.88.9,1.82.45a2,2,0,0,1,1-.29c1.6.09,1.54-.21,2.51-1.12l.41-.41a3.34,3.34,0,0,1,2.34-1.54,1.36,1.36,0,0,0,.64-.33c.66-.54,1.61-.72,2-1.6a.85.85,0,0,1,.35-.25,6.09,6.09,0,0,0,1.33-.87,1.53,1.53,0,0,1,.65-.28,16.2,16.2,0,0,0,3.95-2,6.05,6.05,0,0,0,1.76-1.5c.53-.67,1.35-.91,2-1.46a3.79,3.79,0,0,1,2.55-1.14c.1,0,.26,0,.27.08a1.73,1.73,0,0,1,0,1.61,4,4,0,0,0-.54,1.78,3.93,3.93,0,0,1-.66,2.17,1.66,1.66,0,0,0-.21,1,6.34,6.34,0,0,1-.09,1.58,6,6,0,0,0,.11,3.27,1.25,1.25,0,0,0,.69.89c1.79.76,3.37,2.11,5.49,1.91a2,2,0,0,1,.56.14,4.6,4.6,0,0,0,2.3,0,8.49,8.49,0,0,1,2-.2h3.31a1.89,1.89,0,0,0,.28-.16c.86-1.05,1.69-2.11,3.2-2.28a.7.7,0,0,0,.61-.72,9.65,9.65,0,0,1,.13-1.86c0-.75-.31-1.08-1.07-1a1.85,1.85,0,0,1-1.36-.31,2.14,2.14,0,0,0-.64-.32,3,3,0,0,1-2.16-2.44,39.48,39.48,0,0,1-.54-4.86c-.23-1.62-.54-3.23-.68-4.86,0-.12-.16-.24-.24-.35,0-.29,0-.57,0-.86.51-.18.53-.21.26-.59a2,2,0,0,0,.32-1.16.59.59,0,0,0,.58-.59c.6-.53,1.46-.8,1.65-1.72,0-.08.13-.16.21-.2a1.67,1.67,0,0,0,.84-1.11,2.7,2.7,0,0,1,.69-1.1,14.73,14.73,0,0,0,2.1-2.75c.35-.58.75-1.11,1.14-1.65.68-.94,1.38-1.86,2.06-2.8a34.23,34.23,0,0,1,2.1-3.27.89.89,0,0,0,.2-.37,4,4,0,0,1,1.48-2.07,3.06,3.06,0,0,0,.76-.86c.35-.88,1.21-1.54,1.08-2.62,0-.15.2-.32.28-.49a2.41,2.41,0,0,0,.2-.68,33.57,33.57,0,0,0,.3-5.49c0-.48,0-1,0-1.45a1.71,1.71,0,0,1,.35-1.08,13.11,13.11,0,0,1,2-2.12,1.27,1.27,0,0,1,.48-.32c1-.26,2-.79,3-1a10.83,10.83,0,0,0,2.79-.74,7.44,7.44,0,0,1,3.64-.71,6.18,6.18,0,0,0,2.69-.45,5.84,5.84,0,0,1,2.23-.42h1.42a.77.77,0,0,0,.61-.3l1.46,0a5.31,5.31,0,0,0,1.44,0,8.25,8.25,0,0,1,2.15-.2c.54,0,1.07,0,1.6,0a12.8,12.8,0,0,0,3.6-.22,3.78,3.78,0,0,0,2.52-.28,3.68,3.68,0,0,1,.58-.06c1.23-.17,2.52-.13,3.51-1.09a.84.84,0,0,1,.4-.15,13.71,13.71,0,0,1,4.25-.79,2.44,2.44,0,0,0,2.1-1,2.73,2.73,0,0,0,.8-2.22,7,7,0,0,1,0-1,2,2,0,0,0-1.28-2.07c-.35-.14-.69-.35-1-.52a3.08,3.08,0,0,1-1.31-.87,2.39,2.39,0,0,0-2-.94,13.9,13.9,0,0,1-3.22-.78,1.52,1.52,0,0,1-1.24-1.16c.6-.43,1.36-.63,1.69-1.34h.29a7.55,7.55,0,0,0,1.78-.69c.13-.05.19-.3.27-.45a5.06,5.06,0,0,0,1.85-.3c.65-.21,1.2-.62,1.83-.83a5.32,5.32,0,0,0,2.33-1.09c1.15-.14,1.81-1.28,2.94-1.45a15.49,15.49,0,0,1,1.64-.91c1.13-.72,2.25-1.45,3.43-2.1.9-.49,1.84-.79,2.76-1.18.22-.09.52-.11.65-.28a2.36,2.36,0,0,1,1.72-1,.93.93,0,0,0,.38-.2,31.22,31.22,0,0,1,5.52-3.12c.87-.39,1.72-.83,2.59-1.24,1-.49,1.85-1.38,3-1.61a1,1,0,0,0,.35-.25,28.74,28.74,0,0,1,3.27-2.09,1.76,1.76,0,0,1,.66-.29,3.57,3.57,0,0,0,1.67-.8,10.8,10.8,0,0,1,2.46-1.48,1,1,0,0,0,.35-.26,2.57,2.57,0,0,1,1-.57,7.43,7.43,0,0,0,2.09-1,20,20,0,0,1,3.26-1.8,3.72,3.72,0,0,0,.86-.52,10.94,10.94,0,0,1,2.93-1.81,9.44,9.44,0,0,0,1.69-.82,17.32,17.32,0,0,1,3.15-1.75,2.92,2.92,0,0,0,.88-.5,5.66,5.66,0,0,1,1.71-1.07,4.86,4.86,0,0,0,1.31-.9,7.77,7.77,0,0,1,2-1.37,12.77,12.77,0,0,0,3-1.74,1.61,1.61,0,0,1,.93-.34,3,3,0,0,0,2.16-1.29,9.26,9.26,0,0,1,3.66-2.74c1.49-.54,2.7-1.68,4.3-2a4.47,4.47,0,0,1,1.77-.59c.45-.12,1-.26,1.33.24s-.07.92-.29,1.35a1.24,1.24,0,0,1-.17.23,13.15,13.15,0,0,0-1.7,2.3c-.82,1.36-2.12,2.36-2.9,3.75-.47.84-1.21,1.47-1.74,2.29s-.94,2-1.62,2.9a1.71,1.71,0,0,0-.26.67,7,7,0,0,1-1.44,2.79,3.31,3.31,0,0,1-1.79,1.36,2.9,2.9,0,0,0-1.31.57,9.18,9.18,0,0,0-1.68,2.3,10.63,10.63,0,0,0-.59,2.08,3.44,3.44,0,0,0,.54,3,11.53,11.53,0,0,1,.72,1.05,7.37,7.37,0,0,0,1.61,2,11.76,11.76,0,0,1,1.26,1.19,5.7,5.7,0,0,1,1.13,1.48c.29.55,1.05.63,1.47,1.14a5.67,5.67,0,0,0,3.71,2,2,2,0,0,1,1.17.51,3,3,0,0,0,1.7.71c.92.14,1.94-.05,2.72.68,0,0,.09,0,.14,0a12.13,12.13,0,0,1,5,2.25,2.46,2.46,0,0,0,1.74.52,7.64,7.64,0,0,1,3.47.86,2.44,2.44,0,0,0,.79.3,7.13,7.13,0,0,1,2.32.81,10.17,10.17,0,0,0,1.88.73c.88.26,1.79.4,2.66.65a3.14,3.14,0,0,0,2.18,0,3.2,3.2,0,0,1,2.4-.21,4.57,4.57,0,0,0,1.29.09,2,2,0,0,1,.85.13,9,9,0,0,0,2.77.75,6.16,6.16,0,0,1,1.75.65,5,5,0,0,0,5.82-.37,3.9,3.9,0,0,0,2.36.57,3,3,0,0,1,1.15.08,7.45,7.45,0,0,0,2.15.21,18.44,18.44,0,0,1,2.47.07,4.39,4.39,0,0,0,2.93-.49,5.44,5.44,0,0,1,2.45-.73,2,2,0,0,0,1.19-.48,4.8,4.8,0,0,1,.69-.52,1.47,1.47,0,0,0,.83-1.28,3.64,3.64,0,0,1,.55-1.63c.34-.59.69-1.17,1-1.74a2,2,0,0,1,.72-.71l1.13-.65a2,2,0,0,1,2.4.25,2,2,0,0,1,.67.75,2.19,2.19,0,0,0,1.25,1.14,2.78,2.78,0,0,1,1.26.94.59.59,0,0,0,.33.23,8.13,8.13,0,0,1,3.34,1.62,2.23,2.23,0,0,0,.63.33c1.65.57,3,1.74,4.75,2.12.08,0,.15.11.24.16a12.9,12.9,0,0,0,4.21,1.8,4.34,4.34,0,0,1,1.49.55c1.89,1.15,3.19,2.92,4.69,4.47a1.45,1.45,0,0,1,.22.38,10.65,10.65,0,0,1,1.17,2.78,3.28,3.28,0,0,0,.53,1,7.1,7.1,0,0,1,.9,2.27,14.28,14.28,0,0,1,.23,2.6,2.18,2.18,0,0,0,.17,1.27,2.83,2.83,0,0,1,.39,1.81c0,2.85,0,5.71,0,8.57a2,2,0,0,1-.4,1.49.59.59,0,0,0-.13.41,16.48,16.48,0,0,1-.31,2.43,18.8,18.8,0,0,1-1.15,4.6,3.51,3.51,0,0,0-.33,1.4,2.38,2.38,0,0,1-.44,1.51,3.69,3.69,0,0,0-.64,1.74,12.21,12.21,0,0,1-.81,2.29c-.31.77-.27,1.69-.54,2.53-.44,1.37-.89,2.74-1.2,4.14a8.14,8.14,0,0,0,.2,4,.74.74,0,0,0,.61.55,4.28,4.28,0,0,0,.72.07.91.91,0,0,1,.94.74,2.15,2.15,0,0,0,.28.66,3.51,3.51,0,0,0,1.91,1.63c1.8.48,1.18.31,2.23,1.84a4,4,0,0,1,.28.67.87.87,0,0,0,.79.54,1.76,1.76,0,0,0,1.65-.67c1.05-1.22,1.63-2.72,2.56-4a1.9,1.9,0,0,0,.18-.7,16.48,16.48,0,0,1,.48-2,11.28,11.28,0,0,0,.67-3.39,3.22,3.22,0,0,1,.19-1c.35-.84.26-1.83.88-2.57.06-.07,0-.19.06-.29.16-1.14.58-2.24.63-3.41a1.68,1.68,0,0,1,1.09-1.42c.55-.25.89.2,1.25.51a2,2,0,0,1,.43.39,1.21,1.21,0,0,0,.82.54c1,.16,1.47,1.06,2.32,1.4.12,0,.2.2.3.31.74.82,1.47,1.66,2.24,2.45a4.26,4.26,0,0,1,1,1.57,6,6,0,0,0,.85,1.67,3.53,3.53,0,0,1,.68,1.42,18,18,0,0,0,1.13,4.45,1.36,1.36,0,0,1,.06.29c.11.95.22,1.91.32,2.87a1.1,1.1,0,0,0,.24.67c.54.57,1.1,1.11,2,.74a2.6,2.6,0,0,1,.62-.08c.47.49,1,1,1.39,1.48a1.61,1.61,0,0,0,.91.67,2.12,2.12,0,0,1,1.66,1.43,1.85,1.85,0,0,0,1.25,1.12c.55.12.84.62,1.25,1,.2,0,.39.05.58.05a2.52,2.52,0,0,0,2.61-1.68c.09-.22.26-.42.34-.64a3.24,3.24,0,0,0-.06-2.66,29.22,29.22,0,0,0-1.82-3.1,3.36,3.36,0,0,1-.79-2.26,25,25,0,0,1-1.57-4.17,3.88,3.88,0,0,0-1-1.59,6.87,6.87,0,0,1-2.09-3.38,2.52,2.52,0,0,0-.48-.88,7,7,0,0,1-1.19-1.62c-.25-.71-1-1-1.08-1.83a18,18,0,0,1-2.66-3.75,15.84,15.84,0,0,1-.87-1.5,3.48,3.48,0,0,0-.39-.77c-.82-.9-1-2.2-1.92-3a.2.2,0,0,1-.06-.13,3.62,3.62,0,0,1,.86-3.62c.46-.42.94-.83,1.36-1.29a2.66,2.66,0,0,0,.74-2.66,4.71,4.71,0,0,1-.18-2.83,2.74,2.74,0,0,0,0-.86c0-1.94,0-3.88,0-5.81a8.5,8.5,0,0,0-.2-1.87,10.42,10.42,0,0,1-.39-3.29,1.86,1.86,0,0,0-.2-1.13,5.36,5.36,0,0,1-.67-2.34,6.07,6.07,0,0,0-.58-1.76,17.39,17.39,0,0,0-1.38-3,1.07,1.07,0,0,1-.05-.57,2.42,2.42,0,0,0-.69-1.85,2.22,2.22,0,0,1-.54-1.16c-.13-.61-.32-1.22-.5-1.82a1.53,1.53,0,0,0-.31-.64,5.84,5.84,0,0,1-1.19-2.08,3.14,3.14,0,0,0-.23-.53,25.14,25.14,0,0,1-1.65-2.85c-.27-.5-.79-.87-.84-1.5a3.32,3.32,0,0,1-1-1.4,1.24,1.24,0,0,0-.4-.42,6.66,6.66,0,0,1-1.35-1.5,4.44,4.44,0,0,0-.64-.77,2.83,2.83,0,0,1-.87-1.13,6.27,6.27,0,0,0-.89-1.47c-.66-.75-1.4-1.44-2.13-2.15s-1.54-1.29-2.3-1.93-1.83-1.41-2.72-2.15c-.71-.59-1.36-1.4-2.44-1.45-.2,0-.38-.28-.58-.41s-.64-.43-1-.61-.84-.47-1.26-.67a11.67,11.67,0,0,0-4.13-1.61,1.14,1.14,0,0,1-.78-.34,1.92,1.92,0,0,0-1.29-.55,6.87,6.87,0,0,1-2-.36,2.6,2.6,0,0,0-1.91-.26,2.6,2.6,0,0,1-1.65-.41c-.2-.09-.27-.47-.43-.77l-.68.07a18.12,18.12,0,0,1-3.6.31,11.22,11.22,0,0,0-1.16,0,4,4,0,0,0-2.11.37,1.27,1.27,0,0,1-1.69-.37c-.22-.26-.53-.44-.61-.79a.25.25,0,0,1,.23-.31.56.56,0,0,1,.41.06,2.57,2.57,0,0,0,1.8.42h3.05a1.77,1.77,0,0,0,1.11-.23,2,2,0,0,1,1.38-.34,1.34,1.34,0,0,0,1.27-.56,3.49,3.49,0,0,1,1.76-1.22c.66-.31,1.11-.9,1.82-1.16a15.6,15.6,0,0,0,3.38-1.59,10.81,10.81,0,0,1,3-1,.88.88,0,0,1,.57.07,3.1,3.1,0,0,0,2.64-.33,20.62,20.62,0,0,1,2.41-.92,5.73,5.73,0,0,0,1.32-.57c1.66-1.06,3.22-2.3,5-3.25a1.94,1.94,0,0,0,.65-.56c.87-1.3,2.28-1.85,3.59-2.5a1.36,1.36,0,0,1,1.4.08,4.67,4.67,0,0,0,1.63.57,1,1,0,0,0,1.3-.94c.05-.47-.13-1,.25-1.45a3.31,3.31,0,0,0,1.06-.27,3.89,3.89,0,0,0,.77-.84,10.27,10.27,0,0,1,2.8-2,.77.77,0,0,1,.77,0c.11.59.63.94,1,1.38s1.33.61,1.73,1.25c0,0,.09.05.09.05.8,0,1.58.28,2.28-.25a3.6,3.6,0,0,1,1.5-.5,1.62,1.62,0,0,1,1.73.44.86.86,0,0,0,.65.32c.41,0,.58-.46.93-.63a5.64,5.64,0,0,0,2.13-1.93,5.21,5.21,0,0,1,.67-.74,22.5,22.5,0,0,0,1.85-1.8,2.9,2.9,0,0,1,1.25-.94,10.47,10.47,0,0,0,2.22-1.37c0-.24.06-.48.11-.71a3.28,3.28,0,0,1,1.85-2.46,17.74,17.74,0,0,1,4.38-1.83,2.08,2.08,0,0,0,1.34-1,.78.78,0,0,0,.06-.83,4.38,4.38,0,0,0-.95-1.31,4.74,4.74,0,0,1-1.78-.49,1.38,1.38,0,0,1-.85-1.51,5.39,5.39,0,0,1,.75-2.48,3.69,3.69,0,0,0-1.17-.82c-1-.42-1.07-.64-.82-1.65.07-.29.12-.57.19-.85a5,5,0,0,1,2-2.88,3.42,3.42,0,0,1,2.2-.42c.61,0,1,.43,1.32.81a1.52,1.52,0,0,1,.22,2,5.07,5.07,0,0,1-.36.45.74.74,0,0,0-.1.94,4.36,4.36,0,0,1,.51,1.64,2.13,2.13,0,0,0,.83,1.48c.28.17.26.64.64.75a2.32,2.32,0,0,1,2,.88c.28.26.64.43.93.67.64.54,1.44,1,1.63,1.92a1.09,1.09,0,0,0,1,.91c.81.05,1.37.67,2.14.8a.73.73,0,0,1,.57.75,1.27,1.27,0,0,0,.46,1c.71.59,1.36,1.23,2.1,1.77a4.58,4.58,0,0,1,1.31,1.32,4.87,4.87,0,0,0,.73.9c.8.83,1.58,1.7,2.88,1.73a3.74,3.74,0,0,1,3,1.81l.25.32a6.28,6.28,0,0,0,.93.06c1.22-.06,2.27.82,3.52.66a1.19,1.19,0,0,1,.55.18c1.09.46,1.72,1.39.53,2.41a1.37,1.37,0,0,0-.5,1.14,2.51,2.51,0,0,0,.35,1.67,1.38,1.38,0,0,1,.22,1c-.07,1,.67,1.79.75,2.76,0,.19.28.38.45.55a8.18,8.18,0,0,0,1.24,1.18,9.7,9.7,0,0,1,1.25,1.37,2.51,2.51,0,0,1,.69.92.62.62,0,0,0,.38.41c.39.12.6.45.89.71,1,.93,2.11,1.83,3.17,2.75a1.43,1.43,0,0,0,.78.35,1,1,0,0,1,.86.67c.21.58.78.84,1.14,1.28a1.29,1.29,0,0,0,.79.32,1.06,1.06,0,0,0,1.09-.58.81.81,0,0,0-.11-.94c-.24-.36-.43-.75-.65-1.13a1.5,1.5,0,0,1,.05-1.64c.3-.49.77-.78,1.21-.51,1,.6,2.26.6,2.95,1.68a.57.57,0,0,0,.36.21,8.09,8.09,0,0,1,1.49.55,1.05,1.05,0,0,0,1-.11c1.41-1,2-2.55,2.84-3.94.05-.07,0-.19.05-.28a20,20,0,0,0,.27-5.06,1.53,1.53,0,0,0-.09-.56,3.58,3.58,0,0,1,0-2,4.67,4.67,0,0,0-.59-4,2.23,2.23,0,0,1-.24-2.32,11.09,11.09,0,0,0,.66-3.82,7.37,7.37,0,0,1,.48-2.69,9.18,9.18,0,0,0,.69-3.5,4.57,4.57,0,0,1,.2-1.72,1.18,1.18,0,0,0,0-1,4,4,0,0,1-.55-1.92,1.43,1.43,0,0,0-.33-.63c-.17-.23-.41-.41-.43-.77a5.88,5.88,0,0,0,.05-3.25,1.21,1.21,0,0,1,.05-.7,4.41,4.41,0,0,0,.14-1.44c0-.63,0-1.26,0-1.89a1.55,1.55,0,0,1,.17-1,2.62,2.62,0,0,0,.39-1.8,5.91,5.91,0,0,1,.36-2.27c.29-.71-.23-1.51,0-2.28a.89.89,0,0,1,0-.14,5.38,5.38,0,0,0,.22-2.15,14.4,14.4,0,0,1,.06-2.46,15.49,15.49,0,0,0,.25-2.88,1.15,1.15,0,0,1,.23-.82,1.47,1.47,0,0,0,.33-1.08c0-.34,0-.68,0-1a12.64,12.64,0,0,1,.2-3.47,1.63,1.63,0,0,0-.1-.7,5.16,5.16,0,0,1,0-2.44,5,5,0,0,0,.17-1.43v-3.34a1.08,1.08,0,0,1,.55-1.1,1.11,1.11,0,0,0,.61-.92c.05-.33.19-.65.24-1a5.05,5.05,0,0,1,2-3.06,1.14,1.14,0,0,1,.67-.24,4.89,4.89,0,0,1,1.87.08,5.63,5.63,0,0,0,1.73.18h9.58a3.47,3.47,0,0,0,1,0,12.42,12.42,0,0,1,3.6-.25,4.62,4.62,0,0,0,2.36-.58,1.69,1.69,0,0,1,.8-.29,23.65,23.65,0,0,0,3.13-.59,3.18,3.18,0,0,0,1.68-.78,1.92,1.92,0,0,1,.92-.4,7,7,0,0,1,2.14-.29,1.34,1.34,0,0,0,1-.19,3.85,3.85,0,0,1,1.87-.73,3.06,3.06,0,0,0,1.1-.32c1.18-.79,2.6-1,3.86-1.56s2.31-.92,3.38-1.56a2.94,2.94,0,0,0,1.5-2.17,1.85,1.85,0,0,1,.56-1.14,5.42,5.42,0,0,1,1.14-.88c.51-.28.93-.78,1.46-.91a5.4,5.4,0,0,0,1.58-.93,35.39,35.39,0,0,0,4.72-3c.07-.07.19-.08.26-.14.76-.73,1.85-1.14,2.31-2.15a6.75,6.75,0,0,1,2.5-2.53c1-.71,1.9-1.48,2.85-2.22a2.06,2.06,0,0,0,.49-.53c.46-.73.86-1.5,1.33-2.23a7.5,7.5,0,0,1,2.52-2.73,3.32,3.32,0,0,0,.72-.68,5.35,5.35,0,0,0,1.57-2.37.19.19,0,0,1,.09-.11c.8-.48,1-1.45,1.86-2A1.79,1.79,0,0,0,568.43,168.77Zm-221.36-7.89h0Zm0,0v0l0,0Zm5.23,49.38Z"/><path d="M133.07,429.74a.41.41,0,0,1-.08-.27,6.59,6.59,0,0,0-.51-2,8.43,8.43,0,0,1-.72-3.64.92.92,0,0,0-.06-.43,11.73,11.73,0,0,1-.5-4.29,7,7,0,0,0-.09-.7c-.6-.11-.83-.64-1.15-1.13s-.56-1.22-1.15-1.45a5.27,5.27,0,0,1-1.35-1.07c-.84-.7-1.41-1.72-2.53-2.09-.12,0-.21-.19-.32-.29-.28-.27-.57-.52-.84-.8s-.86-.17-1.17-.57a2,2,0,0,1,.2-1.79,34.65,34.65,0,0,1,2-3.16,4.2,4.2,0,0,0,1-2.2c0-.39.13-.77.2-1.14a1.31,1.31,0,0,1,.57-1,3.06,3.06,0,0,0,1.42-2.41,6.94,6.94,0,0,1,1.87-3.82,10.58,10.58,0,0,1,1.67-1.93c.14-.1.16-.34.27-.5a26.77,26.77,0,0,0,1.12-2.66,12.3,12.3,0,0,0,1.21-5.75,17.08,17.08,0,0,1,.06-3,3.18,3.18,0,0,0-.42-2.32c-.3-.55-.54-1.13-.79-1.7a6.72,6.72,0,0,0-2.25-2.91,1.59,1.59,0,0,1-.54-.67,2.67,2.67,0,0,0-1.07-1c-.28-.17-.64-.23-.91-.42a1.27,1.27,0,0,0-1.59,0,34.43,34.43,0,0,0-2.72,2.39.75.75,0,0,0-.21.52c0,1.08-.68,2-.75,3.08a2,2,0,0,1-.45.89c-.27.39-.58.74-.91,1.15-.4-.25-.88-.13-1.23-.44s0-1-.35-1.38a2.28,2.28,0,0,1-.41-1.2,11.15,11.15,0,0,1-.29-2.44.8.8,0,0,0-.5-.82,1.91,1.91,0,0,1-1.2-1.67,2.29,2.29,0,0,0-.59-1.13,6.13,6.13,0,0,1-1.56-2.23c-.44-.38-.64-.93-1.07-1.35a13,13,0,0,1-1.66-1.73,4.52,4.52,0,0,0-2.43-1.48,6,6,0,0,1-1.73-.63,3.54,3.54,0,0,0-2.2-.59c-.87.05-1.74,0-2.62,0a3.6,3.6,0,0,1-1.14-.12c-.84-.29-1.75-.06-2.57-.43a.61.61,0,0,0-.42,0,9.07,9.07,0,0,0-2.89,1.62,1.14,1.14,0,0,0-.27,1.32,3.66,3.66,0,0,0,.31.49,9.61,9.61,0,0,1,1.4,4.65,2.36,2.36,0,0,0,1,2.13,3.35,3.35,0,0,1,.66.7,4.33,4.33,0,0,1,3.6,1.88,1.76,1.76,0,0,0,.3.31,15.73,15.73,0,0,1,1.58,1.88,1.09,1.09,0,0,1,.34.77,2.7,2.7,0,0,0,.56,1.65,2.58,2.58,0,0,0-.55,1.9,1.74,1.74,0,0,1-.07.72A7.23,7.23,0,0,0,105,386a.42.42,0,0,1,0,.28c-.55.59-.46,1.34-.56,2.05a12.24,12.24,0,0,1-.46,2,6.41,6.41,0,0,0-.69,2.61c0,.17-.14.35-.22.53a19.86,19.86,0,0,0-1.13,2.79,20.15,20.15,0,0,1-1,3.76c-.6,1.21-.7,2.6-1.42,3.76-.3.49-.25,1.13-.56,1.64a6.45,6.45,0,0,0-.56,1.48c-.33,1.16-.76,2.29-1.17,3.42a25.83,25.83,0,0,1-1.43,3.49,3.52,3.52,0,0,0-.29,1A34.07,34.07,0,0,1,94.26,418a1,1,0,0,1-.33.46,1.38,1.38,0,0,0-.49,1,7,7,0,0,1-.88,3,3.6,3.6,0,0,0-.55,1.64,7.7,7.7,0,0,1-1,2.55,9.63,9.63,0,0,1-2,2.72,4.26,4.26,0,0,1-.47,2.66c-.47.82-.41,1.78-.88,2.57a1.59,1.59,0,0,1-.23.36,2.36,2.36,0,0,0-.63,1.13,2.75,2.75,0,0,1-.77,1.18,3.87,3.87,0,0,0-1.39,2.9,12.47,12.47,0,0,1-.44,2.56,5.82,5.82,0,0,0-.07,2.16c.09.66.25,1.31.38,2a2.4,2.4,0,0,0,1.38.77,1.22,1.22,0,0,1,.85.5,3.41,3.41,0,0,0,2.82,1.24,2,2,0,0,1,1.26.56,2.93,2.93,0,0,0,2.7.64c.83-.25,1.43-.85,1.22-1.64-.24-.95-.08-1.94-.39-2.87a1.43,1.43,0,0,1,0-.71,1.4,1.4,0,0,0-.16-1.24,1.43,1.43,0,0,1-.17-.83,5.41,5.41,0,0,0-.54-2.9c.21-.41.42-.74.56-1.1s.84-.25,1.12-.94c0-.3,0-.83,0-1.36s.31-1,.27-1.56.56-.82.81-1.19c-.45-.9-.42-.89-.31-1.56A6.25,6.25,0,0,1,97,430a1.91,1.91,0,0,0,.47-1,3.57,3.57,0,0,1,1.2-2.4c.16-.17.4-.3.5-.5a.85.85,0,0,1,.93-.53,1.21,1.21,0,0,1,1,.7,2.73,2.73,0,0,1,.23.68,6.14,6.14,0,0,0,1,2.29,9,9,0,0,1,1.48.76c.62.39,1.26.71,1.54,1.46.07.2.32.36.52.49a20,20,0,0,1,3.66,2.54,2.51,2.51,0,0,0,.6.4,1.59,1.59,0,0,0,1.89-.12,2.76,2.76,0,0,0,1.14-2.37,3.27,3.27,0,0,1,1.94-3.11,3,3,0,0,1,2.66,0,12,12,0,0,1,2.37,1.62,6,6,0,0,0,2,1.17,10.93,10.93,0,0,1,3.47,2,.71.71,0,0,0,.38.2,3.1,3.1,0,0,1,2,1.15c.63.58,1.33,1.11,1.91,1.73a2.7,2.7,0,0,0,1.76.84c1.23.12,2.47-.43,2.48-1.95a6,6,0,0,1,.2-2,1.44,1.44,0,0,0-.1-1.13C133.74,431.84,133.85,430.62,133.07,429.74Z"/><path d="M94.67,214.76a.26.26,0,0,0-.25-.29.26.26,0,0,0-.23.11.27.27,0,0,0,.48.18Z"/></svg>