<?xml version="1.0" encoding="utf-8"?>
<!-- Generator: Adobe Illustrator 22.1.0, SVG Export Plug-In . SVG Version: 6.00 Build 0)  -->
<svg version="1.1" id="Layer_1" xmlns="http://www.w3.org/2000/svg" xmlns:xlink="http://www.w3.org/1999/xlink" x="0px" y="0px"
	 viewBox="0 0 147.8 147.8" style="enable-background:new 0 0 147.8 147.8;" xml:space="preserve">
<g id="planning" transform="translate(-139.625 -29.568)">
	<g id="Group_8" transform="translate(230.793 41.888)">
		<g id="Group_7">
			<path id="Path_1" d="M12.3,0C5.5,0,0,5.5,0,12.3c0,6.8,5.5,12.3,12.3,12.3c6.8,0,12.3-5.5,12.3-12.3S19.1,0,12.3,0L12.3,0z
				 M12.3,19.7c-4.1,0-7.4-3.3-7.4-7.4s3.3-7.4,7.4-7.4s7.4,3.3,7.4,7.4v0C19.7,16.4,16.4,19.7,12.3,19.7
				C12.3,19.7,12.3,19.7,12.3,19.7z"/>
		</g>
	</g>
	<g id="Group_14" transform="translate(151.945 81.311)">
		<g id="Group_13">
			<path id="Path_4" d="M12.3,0C5.5,0,0,5.5,0,12.3c0,6.8,5.5,12.3,12.3,12.3s12.3-5.5,12.3-12.3C24.6,5.5,19.1,0,12.3,0
				C12.3,0,12.3,0,12.3,0z M12.3,19.7c-4.1,0-7.4-3.3-7.4-7.4s3.3-7.4,7.4-7.4s7.4,3.3,7.4,7.4l0,0C19.7,16.4,16.4,19.7,12.3,19.7z"
				/>
		</g>
	</g>
	<g id="Group_18" transform="translate(188.274 106.937)">
		<g id="Group_17">
			<path id="Path_6" d="M31.3,0c-6.1,4.2-13.4,6.4-20.8,6.4C7.4,6.4,4.3,6,1.2,5.2L0,10c3.4,0.9,6.9,1.3,10.5,1.3
				c8.4,0,16.6-2.5,23.6-7.3L31.3,0z"/>
		</g>
	</g>
	<g id="Group_195">
		<g id="Group_10" transform="translate(218.473 29.568)">
			<g id="Group_9">
				<path id="Path_2" d="M46.8,17.2h-3.9l-0.1-0.3l2.8-2.8c1-1,1-2.5,0-3.5l-7-7c-1-0.9-2.5-0.9-3.5,0l-2.8,2.8L32,6.4V2.5
					C32,1.1,30.9,0,29.6,0c0,0,0,0,0,0h-9.9c-1.4,0-2.5,1.1-2.5,2.5v3.9l-0.3,0.1l-2.8-2.8c-1-1-2.5-1-3.5,0l-7,7c-1,1-1,2.5,0,3.5
					l2.8,2.8l-0.1,0.3H2.5c-1.4,0-2.5,1.1-2.5,2.5c0,0,0,0,0,0v9.9C0,30.9,1.1,32,2.5,32h3.9l0.1,0.3l-2.8,2.8c-1,1-1,2.5,0,3.5l7,7
					c1,0.9,2.5,0.9,3.5,0l2.8-2.8l0.3,0.1v3.9c0,1.4,1.1,2.5,2.5,2.5h9.9c1.4,0,2.5-1.1,2.5-2.5v-3.9l0.3-0.1l2.8,2.8
					c1,1,2.5,1,3.5,0l7-7c1-1,1-2.5,0-3.5l-2.8-2.8l0.1-0.3h3.9c1.4,0,2.5-1.1,2.5-2.5v-9.9C49.3,18.4,48.2,17.3,46.8,17.2z
					 M44.4,27.1h-3.2c-1.1,0-2,0.7-2.4,1.8c-0.3,1-0.7,1.9-1.2,2.8c-0.5,1-0.3,2.1,0.4,2.9l2.2,2.2l-3.5,3.5l-2.2-2.2
					c-0.8-0.8-2-0.9-2.9-0.4c-0.9,0.5-1.8,0.9-2.8,1.2c-1,0.3-1.8,1.3-1.8,2.4v3.2h-4.9v-3.2c0-1.1-0.7-2-1.8-2.4
					c-1-0.3-1.9-0.7-2.8-1.2c-1-0.5-2.1-0.3-2.9,0.4l-2.2,2.2L9,36.8l2.2-2.2c0.8-0.8,0.9-2,0.4-2.9c-0.5-0.9-0.9-1.8-1.2-2.8
					c-0.3-1-1.3-1.8-2.4-1.8H4.9v-4.9h3.2c1.1,0,2.1-0.7,2.4-1.8c0.3-1,0.7-1.9,1.2-2.8c0.5-1,0.3-2.1-0.4-2.9L9,12.4L12.4,9
					l2.2,2.2c0.8,0.8,2,0.9,2.9,0.4c0.9-0.5,1.8-0.9,2.8-1.2c1-0.3,1.8-1.3,1.8-2.4V4.9h4.9v3.2c0,1.1,0.7,2,1.8,2.4
					c1,0.3,1.9,0.7,2.8,1.2c1,0.5,2.1,0.3,2.9-0.4L36.8,9l3.5,3.5l-2.2,2.2c-0.8,0.8-0.9,2-0.4,2.9c0.5,0.9,0.9,1.8,1.2,2.8
					c0.3,1,1.3,1.8,2.4,1.8h3.2L44.4,27.1z"/>
			</g>
		</g>
		<g id="Group_12" transform="translate(198.762 76.383)">
			<g id="Group_11">
				<path id="Path_3" d="M88.7,98.3l-4.9-46.8c-0.1-1-0.8-1.8-1.7-2.1l-20.5-6.8v-9.1c0.2-0.2,0.4-0.3,0.6-0.5
					c9-7.6,14.1-18.7,14.1-30.5c0-1.4-1.1-2.5-2.5-2.5c0,0,0,0,0,0h-7.4v4.9h4.8c-0.7,9.4-5.1,18.1-12.3,24.2
					c-8.5,7.1-20.9,7.1-29.5,0C22.5,23,18.1,14.3,17.4,4.9h4.8V0h-7.4c-1.4,0-2.5,1.1-2.5,2.5c0,0,0,0,0,0
					c0.1,11.7,5.3,22.8,14.1,30.4c0.2,0.2,0.4,0.3,0.6,0.5v9.1L6.6,49.4c-0.9,0.3-1.6,1.1-1.7,2.1L0,98.3c-0.1,1.4,0.8,2.6,2.2,2.7
					c0.1,0,0.2,0,0.3,0h83.8c1.4,0,2.5-1.1,2.5-2.5C88.7,98.5,88.7,98.4,88.7,98.3L88.7,98.3z M27.1,96.1H5.2l4.5-42.5l17.4-5.8
					L27.1,96.1z M32,53.3l5.9,3l-5.9,2V53.3z M32,96.1V63.4l8.7-2.9l-6.2,22.7c-0.2,0.6-0.1,1.2,0.2,1.7l5.6,11.2L32,96.1z
					 M39.6,83.5L44.4,66l4.8,17.5l-4.8,9.5L39.6,83.5z M56.7,96.1h-8.3l5.6-11.2c0.3-0.5,0.3-1.2,0.2-1.7l-6.2-22.7l8.7,2.9
					L56.7,96.1z M56.7,58.2l-5.9-2l5.9-2.9V58.2z M56.7,47.8l-12.3,6.2L32,47.8V36.5c7.8,3.8,16.9,3.8,24.6,0V47.8z M61.6,96.1V47.8
					L79,53.6l4.5,42.5H61.6z"/>
			</g>
		</g>
		<g id="Group_16" transform="translate(139.625 68.991)">
			<g id="Group_15">
				<path id="Path_5" d="M46.8,17.2h-3.9l-0.1-0.3l2.8-2.8c1-1,1-2.5,0-3.5l-7-7c-1-0.9-2.5-0.9-3.5,0l-2.8,2.8L32,6.4V2.5
					C32,1.1,30.9,0,29.6,0c0,0,0,0,0,0h-9.9c-1.4,0-2.5,1.1-2.5,2.5l0,0v3.9l-0.3,0.1l-2.8-2.8c-1-1-2.5-1-3.5,0l-7,7
					c-1,1-1,2.5,0,3.5l2.8,2.8l-0.1,0.3H2.5c-1.4,0-2.5,1.1-2.5,2.5c0,0,0,0,0,0v9.9C0,30.9,1.1,32,2.5,32c0,0,0,0,0,0h3.9l0.1,0.3
					l-2.8,2.8c-1,1-1,2.5,0,3.5l7,7c1,0.9,2.5,0.9,3.5,0l2.8-2.8l0.3,0.1v3.9c0,1.4,1.1,2.5,2.5,2.5c0,0,0,0,0,0h9.9
					c1.4,0,2.5-1.1,2.5-2.5l0,0v-3.9l0.3-0.1l2.8,2.8c1,1,2.5,1,3.5,0l7-7c1-1,1-2.5,0-3.5l-2.8-2.8l0.1-0.3h3.9
					c1.4,0,2.5-1.1,2.5-2.5l0,0v-9.9C49.3,18.4,48.2,17.3,46.8,17.2z M44.4,27.1h-3.2c-1.1,0-2,0.7-2.4,1.8c-0.3,1-0.7,1.9-1.2,2.8
					c-0.5,1-0.3,2.1,0.4,2.9l2.2,2.2l-3.5,3.5l-2.2-2.2c-0.8-0.8-2-0.9-2.9-0.4c-0.9,0.5-1.8,0.9-2.8,1.2c-1,0.3-1.8,1.3-1.8,2.4
					v3.2h-4.9v-3.2c0-1.1-0.7-2-1.8-2.4c-1-0.3-1.9-0.7-2.8-1.2c-1-0.5-2.1-0.3-2.9,0.4l-2.2,2.2L9,36.8l2.2-2.2
					c0.8-0.8,0.9-2,0.4-2.9c-0.5-0.9-0.9-1.8-1.2-2.8c-0.3-1-1.3-1.8-2.4-1.8H4.9v-4.9h3.2c1.1,0,2-0.7,2.4-1.8
					c0.3-1,0.7-1.9,1.2-2.8c0.5-1,0.3-2.1-0.4-2.9L9,12.4L12.4,9l2.2,2.2c0.8,0.8,2,0.9,2.9,0.4c0.9-0.5,1.8-0.9,2.8-1.2
					c1-0.3,1.8-1.3,1.8-2.4V4.9h4.9v3.2c0,1.1,0.7,2,1.8,2.4c1,0.3,1.9,0.7,2.8,1.2c1,0.5,2.1,0.3,2.9-0.4L36.8,9l3.5,3.5l-2.2,2.2
					c-0.8,0.8-0.9,2-0.4,2.9c0.5,0.9,0.9,1.8,1.2,2.8c0.3,1,1.3,1.8,2.4,1.8h3.2L44.4,27.1z"/>
			</g>
		</g>
		<g id="Group_20" transform="translate(158.96 34.484)">
			<g id="Group_19">
				<path id="Path_7" d="M0.9,26.3c-0.3,0.8-0.7,1.7-0.9,2.6l4.7,1.5C11.1,10.9,32,0.4,51.4,6.8c0.8,0.3,1.5,0.5,2.2,0.8l1.8-4.6
					C34-5.6,9.6,4.8,0.9,26.3C0.9,26.3,0.9,26.3,0.9,26.3z"/>
			</g>
		</g>
		<g id="Group_22" transform="translate(165.325 121.114)">
			<g id="Group_21">
				<path id="Path_8" d="M2.8,0L0,4.1c1.3,0.9,2.6,1.7,4,2.5l2.5-4.3C5.2,1.6,4,0.8,2.8,0z"/>
			</g>
		</g>
		<g id="Group_24" transform="translate(193.626 130.389)">
			<g id="Group_23">
				<path id="Path_9" d="M0.4,0L0,4.9c1.7,0.1,3.4,0.2,5.1,0.2V0.2C3.6,0.2,2,0.1,0.4,0z"/>
			</g>
		</g>
		<g id="Group_26" transform="translate(183.506 128.77)">
			<g id="Group_25">
				<path id="Path_10" d="M1.3,0L0,4.8c1.6,0.4,3.3,0.8,5,1.1L5.9,1C4.3,0.7,2.8,0.4,1.3,0z"/>
			</g>
		</g>
		<g id="Group_28" transform="translate(173.845 125.567)">
			<g id="Group_27">
				<path id="Path_11" d="M2.1,0L0,4.5c1.5,0.7,3.1,1.4,4.8,2l1.7-4.6C5,1.3,3.5,0.7,2.1,0z"/>
			</g>
		</g>
		<g id="Group_30" transform="translate(176.176 55.003)">
			<g id="Group_29">
				<path id="Path_12" d="M3.7,0C2.3,1.2,1.1,2.5,0,3.9L3.9,7c0.9-1.2,2-2.3,3.1-3.3L3.7,0z"/>
			</g>
		</g>
		<g id="Group_32" transform="translate(203.987 46.978)">
			<g id="Group_31">
				<path id="Path_13" d="M0.5,0L0,4.9C1.4,5,2.7,5.3,4,5.6l1.2-4.8C3.7,0.4,2.1,0.2,0.5,0z"/>
			</g>
		</g>
		<g id="Group_34" transform="translate(193.88 46.88)">
			<g id="Group_33">
				<path id="Path_14" d="M5.3,0C3.5,0.1,1.7,0.4,0,0.8l1.1,4.8c1.5-0.3,3-0.6,4.5-0.7L5.3,0z"/>
			</g>
		</g>
		<g id="Group_36" transform="translate(184.083 49.312)">
			<g id="Group_35">
				<path id="Path_15" d="M4.7,0C3.1,0.7,1.5,1.5,0,2.5l2.6,4.2c1.3-0.8,2.6-1.5,4-2.1L4.7,0z"/>
			</g>
		</g>
		<g id="Group_38" transform="translate(171.016 63.307)">
			<g id="Group_37">
				<path id="Path_16" d="M2.2,0C1.3,1.6,0.6,3.2,0,4.9l4.6,1.6c0.5-1.4,1.1-2.8,1.9-4.1L2.2,0z"/>
			</g>
		</g>
	</g>
</g>
</svg>
