<?xml version="1.0" encoding="utf-8"?>
<!-- Generator: Adobe Illustrator 22.1.0, SVG Export Plug-In . SVG Version: 6.00 Build 0)  -->
<svg version="1.1" id="Layer_1" xmlns="http://www.w3.org/2000/svg" xmlns:xlink="http://www.w3.org/1999/xlink" x="0px" y="0px"
	 viewBox="0 0 118.3 147.8" style="enable-background:new 0 0 118.3 147.8;" xml:space="preserve">
<style type="text/css">
	.st0{fill:#23374E;}
	.st1{fill:#87CED9;}
	.st2{fill:#3077A6;}
	.st3{fill:#3B86B8;}
</style>
<g id="Group_196" transform="translate(-151.124 -32.853)">
	<g id="Group_40" transform="translate(151.124 32.853)">
		<g id="Group_39">
			<path id="Path_17" class="st0" d="M106,0H12.3C5.5,0,0,5.5,0,12.3v66.5c0,6.8,5.5,12.3,12.3,12.3H46l-3.5,12.3h-8v4.9h49.3v-4.9
				h-8l-3.5-12.3H106c6.8,0,12.3-5.5,12.3-12.3V12.3C118.3,5.5,112.7,0,106,0z M47.6,103.5l3.5-12.3h16l3.5,12.3H47.6z M113.3,78.8
				c0,4.1-3.3,7.4-7.4,7.4H12.3c-4.1,0-7.4-3.3-7.4-7.4v-4.9h108.4V78.8z M113.3,69H4.9V12.3c0-4.1,3.3-7.4,7.4-7.4H106
				c4.1,0,7.4,3.3,7.4,7.4L113.3,69z"/>
		</g>
	</g>
	<g id="Group_42" transform="translate(158.516 146.196)">
		<g id="Group_41">
			<path id="Path_18" class="st0" d="M71.5,0h-69C1.1,0,0,1.1,0,2.5V32c0,1.4,1.1,2.5,2.5,2.5h69c1.4,0,2.5-1.1,2.5-2.5V2.5
				C73.9,1.1,72.8,0,71.5,0z M69,29.6H4.9V4.9H69V29.6z"/>
		</g>
	</g>
	<g id="Group_62" transform="translate(237.363 146.196)">
		<g id="Group_61">
			<path id="Path_19" class="st0" d="M12.3,0C5.5,0,0,5.5,0,12.3l0,0v9.9C0,29,5.5,34.5,12.3,34.5S24.6,29,24.6,22.2v-9.9
				C24.6,5.5,19.1,0,12.3,0L12.3,0z M19.7,22.2c0,4.1-3.3,7.4-7.4,7.4s-7.4-3.3-7.4-7.4v-9.9c0-4.1,3.3-7.4,7.4-7.4s7.4,3.3,7.4,7.4
				V22.2z"/>
		</g>
	</g>
</g>
<path class="st1" d="M106,4.9H12.6C8.4,4.9,5,8.3,5,12.5v56.3C5,68.9,5.1,69,5.2,69h108.2V12.3C113.3,8.2,110,4.9,106,4.9z"/>
<path class="st2" d="M106,86.2H12.3c-4.1,0-7.4-3.3-7.4-7.4v-4.9h108.4v5C113.3,82.9,110,86.2,106,86.2z"/>
<g id="Group_42_1_" transform="translate(158.516 146.196)">
	<g id="Group_41_1_">
		<path id="Path_18_1_" class="st2" d="M-82.1-3.3h-64.1V-28h64.1V-3.3z"/>
	</g>
</g>
<rect x="16.3" y="133.1" class="st3" width="5.1" height="5.1"/>
<rect x="16.3" y="122.9" class="st3" width="5.1" height="5.1"/>
<rect x="26.5" y="122.9" class="st3" width="5.1" height="5.1"/>
<rect x="36.7" y="122.9" class="st3" width="5.1" height="5.1"/>
<rect x="57.1" y="122.9" class="st3" width="5.1" height="5.1"/>
<rect x="46.9" y="122.9" class="st3" width="5.1" height="5.1"/>
<rect x="67.3" y="133.1" class="st3" width="5.1" height="5.1"/>
<line class="st3" x1="67.3" y1="128" x2="67.3" y2="122.9"/>
<rect x="26.5" y="133.1" class="st3" width="35.7" height="5.1"/>
<path class="st2" d="M98.8,142.9h-0.2c-4.1,0-7.4-3.3-7.4-7.4v-9.9c0-4.1,3.3-7.4,7.4-7.4h0.2c4,0,7.2,3.2,7.2,7.2v10.4
	C105.9,139.7,102.7,142.9,98.8,142.9z"/>
<rect x="96" y="120.8" class="st3" width="5.1" height="5.1"/>
<rect x="40.6" y="35.6" transform="matrix(0.2751 -0.9614 0.9614 0.2751 6.1928 84.5197)" class="st2" width="37.1" height="5.1"/>
<path class="st2" d="M42.2,52.8L26.9,40.1c-1.1-0.9-1.2-2.5-0.3-3.6c0.1-0.1,0.2-0.2,0.3-0.3l15.3-12.7l3.3,3.9L32.6,38.1l12.9,10.8
	L42.2,52.8z"/>
<path class="st2" d="M76.1,52.8l-3.3-3.9l13-10.8L72.9,27.3l3.3-3.9l15.2,12.7c1.1,0.9,1.2,2.5,0.3,3.6c-0.1,0.1-0.2,0.2-0.3,0.3
	L76.1,52.8z"/>
<rect x="67.3" y="122.9" class="st3" width="5.1" height="5.1"/>
</svg>
