<?xml version="1.0" encoding="utf-8"?>
<!-- Generator: Adobe Illustrator 22.1.0, SVG Export Plug-In . SVG Version: 6.00 Build 0)  -->
<svg version="1.1" id="Layer_1" xmlns="http://www.w3.org/2000/svg" xmlns:xlink="http://www.w3.org/1999/xlink" x="0px" y="0px"
	 viewBox="0 0 118.3 147.8" style="enable-background:new 0 0 118.3 147.8;" xml:space="preserve">
<g id="Group_196" transform="translate(-151.124 -32.853)">
	<g id="Group_40" transform="translate(151.124 32.853)">
		<g id="Group_39">
			<path id="Path_17" d="M106,0H12.3C5.5,0,0,5.5,0,12.3v66.5c0,6.8,5.5,12.3,12.3,12.3H46l-3.5,12.3h-8v4.9h49.3v-4.9h-8l-3.5-12.3
				h33.7c6.8,0,12.3-5.5,12.3-12.3V12.3C118.3,5.5,112.7,0,106,0z M47.6,103.5l3.5-12.3h16l3.5,12.3H47.6z M113.3,78.8
				c0,4.1-3.3,7.4-7.4,7.4H12.3c-4.1,0-7.4-3.3-7.4-7.4v-4.9h108.4V78.8z M113.3,69H4.9V12.3c0-4.1,3.3-7.4,7.4-7.4H106
				c4.1,0,7.4,3.3,7.4,7.4L113.3,69z"/>
		</g>
	</g>
	<g id="Group_42" transform="translate(158.516 146.196)">
		<g id="Group_41">
			<path id="Path_18" d="M71.5,0h-69C1.1,0,0,1.1,0,2.5V32c0,1.4,1.1,2.5,2.5,2.5h69c1.4,0,2.5-1.1,2.5-2.5V2.5
				C73.9,1.1,72.8,0,71.5,0z M69,29.6H4.9V4.9H69V29.6z"/>
		</g>
	</g>
	<g id="Group_62" transform="translate(237.363 146.196)">
		<g id="Group_61">
			<path id="Path_19" d="M12.3,0C5.5,0,0,5.5,0,12.3l0,0v9.9C0,29,5.5,34.5,12.3,34.5S24.6,29,24.6,22.2v-9.9
				C24.6,5.5,19.1,0,12.3,0L12.3,0z M19.7,22.2c0,4.1-3.3,7.4-7.4,7.4c-4.1,0-7.4-3.3-7.4-7.4v-9.9c0-4.1,3.3-7.4,7.4-7.4
				c4.1,0,7.4,3.3,7.4,7.4V22.2z"/>
		</g>
	</g>
</g>
</svg>
