<svg xmlns="http://www.w3.org/2000/svg" viewBox="0 0 147.839 147.839">
  <g id="Group_195" data-name="Group 195" transform="translate(-139.625 -29.568)">
    <g id="Group_10" data-name="Group 10" transform="translate(218.473 29.568)">
      <g id="Group_9" data-name="Group 9">
        <path id="Path_2" data-name="Path 2" d="M302.816,17.248h-3.9l-.123-.3,2.76-2.76a2.464,2.464,0,0,0,0-3.484l-6.971-6.968a2.535,2.535,0,0,0-3.484,0l-2.76,2.76-.3-.126v-3.9A2.464,2.464,0,0,0,285.568,0h-9.856a2.464,2.464,0,0,0-2.464,2.464v3.9l-.3.126-2.76-2.76a2.464,2.464,0,0,0-3.484,0L259.733,10.7a2.464,2.464,0,0,0,0,3.484l2.76,2.76-.126.3h-3.9A2.464,2.464,0,0,0,256,19.712v9.856a2.464,2.464,0,0,0,2.464,2.464h3.9l.123.3-2.76,2.757a2.464,2.464,0,0,0,0,3.484l6.971,6.971a2.535,2.535,0,0,0,3.484,0l2.76-2.76.3.126v3.9a2.464,2.464,0,0,0,2.464,2.464h9.856a2.464,2.464,0,0,0,2.464-2.464v-3.9l.3-.126,2.76,2.76a2.464,2.464,0,0,0,3.484,0l6.971-6.971a2.464,2.464,0,0,0,0-3.484l-2.76-2.757.123-.3h3.9a2.464,2.464,0,0,0,2.464-2.464V19.712A2.464,2.464,0,0,0,302.816,17.248Zm-2.464,9.858h-3.188a2.464,2.464,0,0,0-2.36,1.762,14.57,14.57,0,0,1-1.156,2.806,2.464,2.464,0,0,0,.424,2.917l2.25,2.247-3.484,3.482-2.25-2.25a2.464,2.464,0,0,0-2.917-.424,14.832,14.832,0,0,1-2.806,1.156,2.464,2.464,0,0,0-1.759,2.36v3.188h-4.928V41.163a2.464,2.464,0,0,0-1.759-2.36,14.831,14.831,0,0,1-2.806-1.156,2.464,2.464,0,0,0-2.917.424l-2.25,2.25-3.484-3.487,2.25-2.247a2.464,2.464,0,0,0,.424-2.917,14.554,14.554,0,0,1-1.156-2.806,2.464,2.464,0,0,0-2.361-1.759h-3.188V22.176h3.188a2.464,2.464,0,0,0,2.361-1.762,14.573,14.573,0,0,1,1.156-2.806,2.464,2.464,0,0,0-.424-2.917l-2.25-2.25,3.484-3.482,2.25,2.25a2.464,2.464,0,0,0,2.917.424,14.811,14.811,0,0,1,2.806-1.156,2.464,2.464,0,0,0,1.759-2.36V4.928H283.1V8.116a2.464,2.464,0,0,0,1.759,2.36,14.813,14.813,0,0,1,2.806,1.156,2.464,2.464,0,0,0,2.917-.424l2.25-2.25,3.484,3.484-2.25,2.25a2.464,2.464,0,0,0-.424,2.917,14.552,14.552,0,0,1,1.156,2.806,2.464,2.464,0,0,0,2.36,1.762h3.188Z" transform="translate(-256)"/>
      </g>
    </g>
    <g id="Group_12" data-name="Group 12" transform="translate(198.762 76.383)">
      <g id="Group_11" data-name="Group 11">
        <path id="Path_3" data-name="Path 3" d="M280.694,250.313,275.766,203.5a2.464,2.464,0,0,0-1.671-2.08l-20.493-6.84v-9.139c.214-.168.436-.318.648-.493a40.042,40.042,0,0,0,14.136-30.482A2.464,2.464,0,0,0,265.922,152H258.53v4.928h4.839A35.018,35.018,0,0,1,251.1,181.159a23.021,23.021,0,0,1-29.481,0,36.045,36.045,0,0,1-12.241-24.231h4.8V152h-7.392a2.473,2.473,0,0,0-2.464,2.5,40.655,40.655,0,0,0,14.136,30.45c.209.175.434.325.648.493v9.134l-20.49,6.83a2.464,2.464,0,0,0-1.671,2.08L192.017,250.3a2.464,2.464,0,0,0,2.194,2.707,2.43,2.43,0,0,0,.255.013h83.775a2.464,2.464,0,0,0,2.452-2.71ZM219.106,248.1H197.2l4.475-42.516,17.428-5.808Zm4.928-42.829,5.9,2.957-5.9,1.956Zm0,42.829V215.376l8.732-2.91-6.182,22.669a2.463,2.463,0,0,0,.173,1.749l5.61,11.211Zm7.552-12.579,4.768-17.482,4.765,17.494-4.765,9.521ZM248.674,248.1h-8.333l5.608-11.218a2.464,2.464,0,0,0,.173-1.749l-6.182-22.669,8.735,2.917Zm0-37.916-5.9-1.971,5.9-2.942Zm0-10.423-12.32,6.16-12.32-6.16V188.541a27.764,27.764,0,0,0,24.64,0ZM253.6,248.1V199.772l17.428,5.808L275.5,248.1Z" transform="translate(-192.004 -152)"/>
      </g>
    </g>
    <g id="Group_16" data-name="Group 16" transform="translate(139.625 68.991)">
      <g id="Group_15" data-name="Group 15">
        <path id="Path_5" data-name="Path 5" d="M46.816,145.248h-3.9l-.123-.3,2.76-2.76a2.464,2.464,0,0,0,0-3.484l-6.971-6.968a2.535,2.535,0,0,0-3.484,0l-2.76,2.76-.3-.126v-3.9A2.464,2.464,0,0,0,29.568,128H19.712a2.464,2.464,0,0,0-2.464,2.464v3.9l-.3.126-2.76-2.76a2.464,2.464,0,0,0-3.484,0L3.733,138.7a2.464,2.464,0,0,0,0,3.484l2.76,2.76-.126.3h-3.9A2.464,2.464,0,0,0,0,147.712v9.856a2.464,2.464,0,0,0,2.464,2.464h3.9l.123.3-2.76,2.757a2.464,2.464,0,0,0,0,3.484l6.971,6.971a2.535,2.535,0,0,0,3.484,0l2.76-2.76.3.126v3.9a2.464,2.464,0,0,0,2.464,2.464h9.856a2.464,2.464,0,0,0,2.464-2.464v-3.9l.3-.126,2.76,2.76a2.464,2.464,0,0,0,3.484,0l6.971-6.971a2.464,2.464,0,0,0,0-3.484l-2.76-2.757.123-.3h3.9a2.464,2.464,0,0,0,2.464-2.464v-9.856A2.464,2.464,0,0,0,46.816,145.248Zm-2.464,9.858H41.163a2.464,2.464,0,0,0-2.36,1.762,14.572,14.572,0,0,1-1.156,2.806,2.464,2.464,0,0,0,.424,2.917l2.25,2.247-3.484,3.482-2.25-2.25a2.464,2.464,0,0,0-2.917-.424,14.832,14.832,0,0,1-2.806,1.156,2.464,2.464,0,0,0-1.759,2.36v3.188H22.176v-3.188a2.464,2.464,0,0,0-1.759-2.36,14.832,14.832,0,0,1-2.806-1.156,2.464,2.464,0,0,0-2.917.424l-2.25,2.25-3.484-3.487,2.25-2.247a2.464,2.464,0,0,0,.424-2.917,14.553,14.553,0,0,1-1.156-2.806,2.464,2.464,0,0,0-2.36-1.759H4.928v-4.928H8.116a2.464,2.464,0,0,0,2.36-1.762,14.572,14.572,0,0,1,1.156-2.806,2.464,2.464,0,0,0-.424-2.917l-2.25-2.25,3.484-3.482,2.25,2.25a2.464,2.464,0,0,0,2.917.424,14.811,14.811,0,0,1,2.806-1.156,2.464,2.464,0,0,0,1.759-2.36v-3.188H27.1v3.188a2.464,2.464,0,0,0,1.759,2.36,14.811,14.811,0,0,1,2.806,1.156,2.464,2.464,0,0,0,2.917-.424l2.25-2.25,3.487,3.484-2.25,2.25a2.464,2.464,0,0,0-.424,2.917,14.572,14.572,0,0,1,1.156,2.806,2.464,2.464,0,0,0,2.36,1.762h3.186Z" transform="translate(0 -128)"/>
      </g>
    </g>
    <g id="Group_20" data-name="Group 20" transform="translate(158.96 34.484)">
      <g id="Group_19" data-name="Group 19">
        <path id="Path_7" data-name="Path 7" d="M63.71,42.22q-.509,1.261-.934,2.553l4.682,1.54a37,37,0,0,1,46.725-23.55q1.136.375,2.246.822l1.85-4.568A41.929,41.929,0,0,0,63.71,42.22Z" transform="translate(-62.776 -15.963)"/>
      </g>
    </g>
    <g id="Group_22" data-name="Group 22" transform="translate(165.325 121.114)">
      <g id="Group_21" data-name="Group 21">
        <path id="Path_8" data-name="Path 8" d="M86.242,297.232l-2.8,4.056c1.269.875,2.6,1.725,3.957,2.5l2.464-4.268C88.629,298.8,87.4,298.038,86.242,297.232Z" transform="translate(-83.44 -297.232)"/>
      </g>
    </g>
    <g id="Group_24" data-name="Group 24" transform="translate(193.626 130.389)">
      <g id="Group_23" data-name="Group 23">
        <path id="Path_9" data-name="Path 9" d="M175.752,327.344l-.424,4.908c1.7.148,3.432.222,5.135.222v-4.928C178.9,327.546,177.314,327.479,175.752,327.344Z" transform="translate(-175.328 -327.344)"/>
      </g>
    </g>
    <g id="Group_26" data-name="Group 26" transform="translate(183.506 128.77)">
      <g id="Group_25" data-name="Group 25">
        <path id="Path_10" data-name="Path 10" d="M143.743,322.088l-1.271,4.76c1.646.441,3.336.813,5.024,1.106l.848-4.857C146.8,322.83,145.251,322.49,143.743,322.088Z" transform="translate(-142.472 -322.088)"/>
      </g>
    </g>
    <g id="Group_28" data-name="Group 28" transform="translate(173.845 125.567)">
      <g id="Group_27" data-name="Group 27">
        <path id="Path_11" data-name="Path 11" d="M113.186,311.688l-2.082,4.46c1.54.719,3.139,1.38,4.753,1.971l1.683-4.635C116.062,312.95,114.6,312.343,113.186,311.688Z" transform="translate(-111.104 -311.688)"/>
      </g>
    </g>
    <g id="Group_30" data-name="Group 30" transform="translate(176.176 55.003)">
      <g id="Group_29" data-name="Group 29">
        <path id="Path_12" data-name="Path 12" d="M122.329,82.584a32.629,32.629,0,0,0-3.657,3.886l3.859,3.065a27.286,27.286,0,0,1,3.092-3.284Z" transform="translate(-118.672 -82.584)"/>
      </g>
    </g>
    <g id="Group_32" data-name="Group 32" transform="translate(203.987 46.978)">
      <g id="Group_31" data-name="Group 31">
        <path id="Path_13" data-name="Path 13" d="M209.461,56.528l-.493,4.9a27.152,27.152,0,0,1,4.029.717l1.232-4.773A32.5,32.5,0,0,0,209.461,56.528Z" transform="translate(-208.968 -56.528)"/>
      </g>
    </g>
    <g id="Group_34" data-name="Group 34" transform="translate(193.88 46.88)">
      <g id="Group_33" data-name="Group 33">
        <path id="Path_14" data-name="Path 14" d="M181.427,56.208a32,32,0,0,0-5.275.779l1.126,4.8a27.11,27.11,0,0,1,4.462-.66Z" transform="translate(-176.152 -56.208)"/>
      </g>
    </g>
    <g id="Group_36" data-name="Group 36" transform="translate(184.083 49.312)">
      <g id="Group_35" data-name="Group 35">
        <path id="Path_15" data-name="Path 15" d="M149.07,64.1a31.886,31.886,0,0,0-4.726,2.474l2.639,4.162a27.044,27.044,0,0,1,3.994-2.092Z" transform="translate(-144.344 -64.104)"/>
      </g>
    </g>
    <g id="Group_38" data-name="Group 38" transform="translate(171.016 63.307)">
      <g id="Group_37" data-name="Group 37">
        <path id="Path_16" data-name="Path 16" d="M104.11,109.544a32.236,32.236,0,0,0-2.19,4.864l4.647,1.641a27.137,27.137,0,0,1,1.853-4.112Z" transform="translate(-101.92 -109.544)"/>
      </g>
    </g>
  </g>
</svg>
