<svg xmlns="http://www.w3.org/2000/svg" viewBox="0 0 147.839 147.84">
  <defs>
    <style>
      .cls-1 {
        fill: #d45b5b;
      }

      .cls-2 {
        fill: #b3d5e4;
      }

      .cls-3 {
        fill: #fff;
      }

      .cls-4 {
        fill: #23374e;
      }
    </style>
  </defs>
  <g id="planning-color" transform="translate(-140 -32.856)">
    <g id="Group_88" data-name="Group 88" transform="translate(221.312 35.32)">
      <path id="Path_143" data-name="Path 143" class="cls-1" d="M372.274,263.037c.155-.076.306-.158.461-.237C372.58,262.879,372.427,262.96,372.274,263.037Z" transform="translate(-338.926 -184.322)"/>
      <path id="Path_144" data-name="Path 144" class="cls-1" d="M378.242,259.87c.116-.069.227-.145.34-.214C378.469,259.727,378.355,259.8,378.242,259.87Z" transform="translate(-343.056 -182.146)"/>
      <path id="Path_145" data-name="Path 145" class="cls-1" d="M366.146,265.783q.255-.1.51-.207Q366.4,265.683,366.146,265.783Z" transform="translate(-334.686 -186.243)"/>
      <path id="Path_146" data-name="Path 146" class="cls-1" d="M347.874,271c.089-.012.175-.02.264-.035C348.051,270.983,347.963,270.99,347.874,271Z" transform="translate(-322.041 -189.974)"/>
      <path id="Path_147" data-name="Path 147" class="cls-1" d="M292.658,259.656c.113.071.227.145.34.214C292.885,259.8,292.771,259.728,292.658,259.656Z" transform="translate(-283.832 -182.146)"/>
      <path id="Path_148" data-name="Path 148" class="cls-1" d="M316.77,269.68c.153.037.306.067.458.1C317.078,269.747,316.923,269.717,316.77,269.68Z" transform="translate(-300.517 -189.083)"/>
      <path id="Path_149" data-name="Path 149" class="cls-1" d="M323.274,270.968l.264.035C323.449,270.99,323.36,270.983,323.274,270.968Z" transform="translate(-305.018 -189.974)"/>
      <path id="Path_150" data-name="Path 150" class="cls-1" d="M353.738,269.787c.153-.034.306-.064.458-.1C354.046,269.723,353.891,269.752,353.738,269.787Z" transform="translate(-326.099 -189.088)"/>
      <path id="Path_151" data-name="Path 151" class="cls-1" d="M304.2,265.576q.255.107.51.207Q304.453,265.683,304.2,265.576Z" transform="translate(-291.82 -186.243)"/>
      <path id="Path_152" data-name="Path 152" class="cls-1" d="M359.938,268.038c.173-.052.345-.1.515-.158C360.28,267.934,360.108,267.986,359.938,268.038Z" transform="translate(-330.39 -187.837)"/>
      <path id="Path_153" data-name="Path 153" class="cls-1" d="M298.242,262.8c.153.079.306.16.461.237C298.548,262.96,298.395,262.879,298.242,262.8Z" transform="translate(-287.696 -184.322)"/>
      <path id="Path_154" data-name="Path 154" class="cls-1" d="M310.394,267.88c.17.057.343.106.515.158C310.739,267.986,310.567,267.934,310.394,267.88Z" transform="translate(-296.105 -187.837)"/>
      <path id="Path_155" data-name="Path 155" class="cls-1" d="M264,25.248V35.1h5.652A17.229,17.229,0,0,0,271,38.381l-3.992,3.992,6.968,6.968,3.992-3.992a17.232,17.232,0,0,0,3.277,1.35v5.652h9.856V46.7a17.233,17.233,0,0,0,3.277-1.35l3.992,3.992,6.968-6.968-3.992-3.992A17.23,17.23,0,0,0,302.7,35.1h5.652V25.248H302.7a17.23,17.23,0,0,0-1.35-3.277l3.992-3.992-6.968-6.968L294.383,15a17.075,17.075,0,0,0-3.277-1.35V8H281.25v5.652A17.072,17.072,0,0,0,277.973,15l-3.992-3.992-6.968,6.968L271,21.971a17.23,17.23,0,0,0-1.35,3.277Zm22.176-4.928a9.856,9.856,0,1,1-9.856,9.856A9.856,9.856,0,0,1,286.178,20.32Z" transform="translate(-264.002 -8)"/>
    </g>
    <circle id="Ellipse_1" data-name="Ellipse 1" class="cls-2" cx="9.856" cy="9.856" r="9.856" transform="translate(233.632 47.64)"/>
    <g id="Group_89" data-name="Group 89" transform="translate(201.6 124.024)">
      <path id="Path_156" data-name="Path 156" class="cls-1" d="M227.106,300.928V296l-22.176,7.392L200,350.208h27.1v-49.28Z" transform="translate(-200.002 -296)"/>
      <path id="Path_157" data-name="Path 157" class="cls-1" d="M384,296v54.208h27.1l-4.928-46.816Z" transform="translate(-327.33 -296)"/>
    </g>
    <g id="Group_90" data-name="Group 90" transform="translate(228.704 128.952)">
      <path id="Path_158" data-name="Path 158" class="cls-2" d="M288,324.32l14.784-4.928L288,312Z" transform="translate(-288.002 -312)"/>
      <path id="Path_159" data-name="Path 159" class="cls-2" d="M350.786,324.32V312L336,319.392Z" transform="translate(-321.218 -312)"/>
    </g>
    <g id="Group_91" data-name="Group 91" transform="translate(228.704 111.892)">
      <path id="Path_160" data-name="Path 160" class="cls-1" d="M299.73,263.568c.453.222.912.426,1.375.618C300.644,263.994,300.183,263.79,299.73,263.568Z" transform="translate(-296.118 -261.424)"/>
      <path id="Path_161" data-name="Path 161" class="cls-1" d="M293.762,260.352c.453.269.912.515,1.377.754C294.676,260.867,294.215,260.621,293.762,260.352Z" transform="translate(-291.988 -259.199)"/>
      <path id="Path_162" data-name="Path 162" class="cls-1" d="M288,256.608h0c.468.335.949.641,1.434.939C288.951,257.249,288.47,256.941,288,256.608Z" transform="translate(-288.002 -256.608)"/>
      <path id="Path_163" data-name="Path 163" class="cls-1" d="M355.234,268.789c.488-.116.968-.251,1.449-.4C356.2,268.537,355.719,268.673,355.234,268.789Z" transform="translate(-334.527 -264.763)"/>
      <path id="Path_164" data-name="Path 164" class="cls-1" d="M361.61,266.751q.706-.229,1.4-.5C362.546,266.428,362.078,266.6,361.61,266.751Z" transform="translate(-338.939 -263.279)"/>
      <path id="Path_165" data-name="Path 165" class="cls-1" d="M331.443,271.08a25.608,25.608,0,0,1-7.313,0A25.43,25.43,0,0,0,331.443,271.08Z" transform="translate(-313.003 -266.623)"/>
      <path id="Path_166" data-name="Path 166" class="cls-1" d="M380.78,256.608c-.468.335-.949.641-1.434.939.485-.3.966-.606,1.434-.939Z" transform="translate(-351.212 -256.608)"/>
      <path id="Path_167" data-name="Path 167" class="cls-1" d="M348.73,270.3c.517-.081,1.03-.185,1.542-.3C349.76,270.113,349.247,270.219,348.73,270.3Z" transform="translate(-330.026 -265.875)"/>
      <path id="Path_168" data-name="Path 168" class="cls-1" d="M367.8,264.186c.463-.192.922-.4,1.375-.618C368.726,263.79,368.265,263.994,367.8,264.186Z" transform="translate(-343.224 -261.424)"/>
      <path id="Path_169" data-name="Path 169" class="cls-1" d="M373.762,261.106c.466-.239.924-.485,1.377-.754C374.689,260.621,374.228,260.867,373.762,261.106Z" transform="translate(-347.348 -259.199)"/>
    </g>
    <path id="Path_170" data-name="Path 170" class="cls-3" d="M302.8,281.061l14.784-7.392V256.608c-.468.335-.949.641-1.434.939-.113.071-.227.145-.34.214-.453.269-.912.515-1.377.754-.153.079-.306.16-.461.237-.453.222-.912.426-1.375.618q-.255.107-.51.207c-.463.18-.929.35-1.4.5-.17.057-.342.106-.515.158-.48.145-.963.281-1.449.4-.153.037-.306.067-.458.1-.513.113-1.025.217-1.542.3l-.264.034a25.6,25.6,0,0,1-7.313,0c-.089-.012-.175-.02-.264-.034-.517-.081-1.03-.185-1.543-.3-.153-.035-.306-.064-.458-.1-.488-.116-.968-.251-1.449-.4-.173-.052-.345-.1-.515-.158q-.706-.229-1.4-.5-.255-.1-.51-.207c-.463-.192-.922-.4-1.375-.618-.155-.076-.306-.158-.461-.237-.466-.239-.924-.485-1.377-.754-.116-.069-.227-.145-.34-.214-.485-.3-.966-.606-1.434-.939v17.061Z" transform="translate(-59.309 -144.716)"/>
    <g id="Group_92" data-name="Group 92" transform="translate(234.204 114.861)">
      <path id="Path_171" data-name="Path 171" class="cls-1" d="M312.066,268.392c.48.145.963.281,1.449.4C313.029,268.673,312.547,268.537,312.066,268.392Z" transform="translate(-310.154 -267.732)"/>
      <path id="Path_172" data-name="Path 172" class="cls-1" d="M305.858,266.248c.463.18.929.35,1.4.5C306.787,266.6,306.319,266.428,305.858,266.248Z" transform="translate(-305.858 -266.248)"/>
      <path id="Path_173" data-name="Path 173" class="cls-1" d="M318.266,270.008c.513.113,1.025.217,1.542.3C319.291,270.225,318.779,270.119,318.266,270.008Z" transform="translate(-314.444 -268.85)"/>
    </g>
    <g id="Group_93" data-name="Group 93" transform="translate(228.704 136.344)">
      <path id="Path_174" data-name="Path 174" class="cls-2" d="M336,336l7.392,27.1L336,377.888h14.784v-36.96Z" transform="translate(-321.218 -336)"/>
      <path id="Path_175" data-name="Path 175" class="cls-2" d="M302.786,336,288,340.928v36.96h14.784L295.394,363.1Z" transform="translate(-288.002 -336)"/>
    </g>
    <g id="Group_94" data-name="Group 94" transform="translate(142.464 74.744)">
      <path id="Path_176" data-name="Path 176" class="cls-1" d="M319.394,336,312,363.1l7.392,14.784,7.392-14.784Z" transform="translate(-218.37 -274.4)"/>
      <path id="Path_177" data-name="Path 177" class="cls-1" d="M25.25,141.652A17.074,17.074,0,0,0,21.973,143l-3.992-3.992-6.968,6.968L15,149.971a17.073,17.073,0,0,0-1.35,3.277H8V163.1h5.652A17.232,17.232,0,0,0,15,166.381l-3.992,3.992,6.968,6.968,3.992-3.992a17.233,17.233,0,0,0,3.277,1.35v5.652h9.856V174.7a17.233,17.233,0,0,0,3.277-1.35l3.992,3.992,6.968-6.968-3.992-3.992A17.231,17.231,0,0,0,46.7,163.1h5.652v-9.856H46.7a17.231,17.231,0,0,0-1.35-3.277l3.992-3.992-6.968-6.968L38.383,143a17.233,17.233,0,0,0-3.277-1.35V136H25.25Zm14.784,16.524a9.856,9.856,0,1,1-9.856-9.856A9.856,9.856,0,0,1,40.034,158.176Z" transform="translate(-8.002 -136)"/>
    </g>
    <circle id="Ellipse_2" data-name="Ellipse 2" class="cls-2" cx="9.856" cy="9.856" r="9.856" transform="translate(154.784 87.064)"/>
    <path id="Path_178" data-name="Path 178" class="cls-3" d="M299.138,160H240s2.464,34.5,29.568,34.5S299.138,160,299.138,160Z" transform="translate(-26.082 -77.864)"/>
    <g id="Group_95" data-name="Group 95" transform="translate(140 32.856)">
      <path id="Path_179" data-name="Path 179" class="cls-4" d="M308.322,64.64A12.32,12.32,0,1,0,296,52.32,12.334,12.334,0,0,0,308.322,64.64Zm0-19.712a7.392,7.392,0,1,1-7.392,7.392A7.4,7.4,0,0,1,308.322,44.928Z" transform="translate(-204.834 -27.68)"/>
      <path id="Path_182" data-name="Path 182" class="cls-4" d="M52.322,192.64A12.32,12.32,0,1,0,40,180.32,12.334,12.334,0,0,0,52.322,192.64Zm0-19.712a7.392,7.392,0,1,1-7.392,7.392A7.4,7.4,0,0,1,52.322,172.928Z" transform="translate(-27.682 -116.256)"/>
      <g id="Group_198" data-name="Group 198">
        <path id="Path_180" data-name="Path 180" class="cls-4" d="M258.466,17.248A2.463,2.463,0,0,0,256,19.712v9.856a2.463,2.463,0,0,0,2.464,2.464h3.9c.042.1.081.2.123.3l-2.76,2.757a2.463,2.463,0,0,0,0,3.484l6.971,6.971a2.536,2.536,0,0,0,3.484,0l2.76-2.76.3.126v3.9a2.463,2.463,0,0,0,2.464,2.464h9.856a2.463,2.463,0,0,0,2.464-2.464v-3.9l.3-.126,2.76,2.76a2.463,2.463,0,0,0,3.484,0l6.971-6.971a2.463,2.463,0,0,0,0-3.484l-2.76-2.757c.042-.1.084-.2.123-.3h3.9a2.463,2.463,0,0,0,2.464-2.464V19.712a2.463,2.463,0,0,0-2.464-2.464h-3.9c-.042-.1-.081-.2-.123-.3l2.76-2.76a2.463,2.463,0,0,0,0-3.484l-6.971-6.968a2.536,2.536,0,0,0-3.484,0l-2.76,2.76-.3-.126v-3.9A2.463,2.463,0,0,0,285.57,0h-9.856a2.463,2.463,0,0,0-2.464,2.464v3.9l-.3.126-2.76-2.76a2.463,2.463,0,0,0-3.484,0L259.733,10.7a2.463,2.463,0,0,0,0,3.484l2.76,2.76c-.039.1-.081.2-.123.3Zm5.652,4.928a2.462,2.462,0,0,0,2.361-1.762,14.6,14.6,0,0,1,1.156-2.806,2.468,2.468,0,0,0-.424-2.917l-2.25-2.247,3.487-3.484,2.25,2.25a2.466,2.466,0,0,0,2.917.424,14.864,14.864,0,0,1,2.806-1.156,2.465,2.465,0,0,0,1.757-2.361V4.928h4.928V8.116a2.465,2.465,0,0,0,1.759,2.361,14.7,14.7,0,0,1,2.807,1.156,2.461,2.461,0,0,0,2.917-.424l2.25-2.25,3.487,3.484-2.25,2.25a2.465,2.465,0,0,0-.424,2.917,14.685,14.685,0,0,1,1.156,2.806,2.459,2.459,0,0,0,2.358,1.759h3.188V27.1h-3.188a2.462,2.462,0,0,0-2.361,1.762,14.592,14.592,0,0,1-1.156,2.806,2.465,2.465,0,0,0,.424,2.917l2.25,2.247-3.484,3.487-2.25-2.25a2.468,2.468,0,0,0-2.917-.424,14.864,14.864,0,0,1-2.807,1.156,2.459,2.459,0,0,0-1.759,2.358v3.188h-4.928V41.164a2.465,2.465,0,0,0-1.759-2.361,14.706,14.706,0,0,1-2.807-1.156,2.461,2.461,0,0,0-2.917.424l-2.25,2.25-3.484-3.487,2.25-2.247a2.465,2.465,0,0,0,.424-2.917,14.685,14.685,0,0,1-1.156-2.806,2.465,2.465,0,0,0-2.361-1.759H260.93V22.176Z" transform="translate(-177.154)"/>
        <path id="Path_181" data-name="Path 181" class="cls-4" d="M205.034,152.734a2.455,2.455,0,0,0-.71,1.762,40.654,40.654,0,0,0,14.136,30.45c.209.175.434.325.648.493v9.139l-20.491,6.83a2.46,2.46,0,0,0-1.671,2.08L192.019,250.3a2.463,2.463,0,0,0,2.449,2.72h83.776a2.463,2.463,0,0,0,2.449-2.72l-4.928-46.816a2.46,2.46,0,0,0-1.671-2.08l-20.491-6.83v-9.139c.214-.168.436-.318.648-.493a40.046,40.046,0,0,0,14.136-30.482A2.463,2.463,0,0,0,265.924,152h-7.392v4.928h4.839A35.022,35.022,0,0,1,251.1,181.159c-.448.375-.914.717-1.382,1.052a.009.009,0,0,1,0,0,22.871,22.871,0,0,1-3.013,1.811c-.059.03-.118.062-.18.091a23.191,23.191,0,0,1-3.127,1.264c-.074.025-.15.047-.224.069a22.964,22.964,0,0,1-3.282.766c-.027,0-.057.007-.084.01a23.029,23.029,0,0,1-6.884,0c-.027,0-.057-.007-.084-.01a23.041,23.041,0,0,1-3.282-.766c-.074-.022-.15-.044-.224-.069a22.868,22.868,0,0,1-3.127-1.264c-.059-.03-.118-.062-.18-.091a22.869,22.869,0,0,1-3.013-1.811s0,0,0,0c-.468-.335-.934-.678-1.382-1.052a36.051,36.051,0,0,1-12.241-24.231h4.8V152h-7.392A2.458,2.458,0,0,0,205.034,152.734Zm36.09,82.783-4.768,9.533-4.768-9.533,4.768-17.48Zm7.552-25.337-5.9-1.964,5.9-2.949Zm-24.64,0v-4.913l5.9,2.949Zm-22.356-4.6,17.428-5.808V248.1h-21.9Zm22.356,9.8,8.732-2.91-6.182,22.664a2.472,2.472,0,0,0,.172,1.749L232.37,248.1h-8.333ZM240.343,248.1l5.608-11.219a2.459,2.459,0,0,0,.172-1.749l-6.182-22.664,8.735,2.912V248.1Zm30.689-42.516,4.475,42.516H253.6V199.772Zm-22.356-17.029v11.206l-12.32,6.16-12.32-6.16V188.551c.037.017.074.03.111.047a27.909,27.909,0,0,0,5.771,2.057c.136.032.271.057.407.089q1.3.285,2.612.448c.14.017.278.039.419.054a29.1,29.1,0,0,0,3,.177,28.429,28.429,0,0,0,3-.18c.14-.015.278-.037.419-.054q1.316-.163,2.612-.448c.135-.03.271-.057.407-.089a27.851,27.851,0,0,0,5.771-2.057C248.6,188.581,248.639,188.568,248.676,188.551Z" transform="translate(-132.868 -105.184)"/>
        <path id="Path_183" data-name="Path 183" class="cls-4" d="M2.466,160.032h3.9c.042.1.081.2.123.3l-2.76,2.757a2.463,2.463,0,0,0,0,3.484l6.971,6.971a2.536,2.536,0,0,0,3.484,0l2.76-2.76.3.126v3.9a2.463,2.463,0,0,0,2.464,2.464H29.57a2.463,2.463,0,0,0,2.464-2.464v-3.9l.3-.126,2.76,2.76a2.463,2.463,0,0,0,3.484,0l6.971-6.971a2.463,2.463,0,0,0,0-3.484l-2.76-2.757c.042-.1.084-.2.123-.3h3.9a2.463,2.463,0,0,0,2.464-2.464v-9.856a2.463,2.463,0,0,0-2.464-2.464h-3.9c-.042-.1-.081-.2-.123-.3l2.76-2.76a2.463,2.463,0,0,0,0-3.484l-6.971-6.968a2.536,2.536,0,0,0-3.484,0l-2.76,2.76-.3-.126v-3.9A2.463,2.463,0,0,0,29.57,128H19.714a2.463,2.463,0,0,0-2.464,2.464v3.9l-.3.126-2.76-2.76a2.463,2.463,0,0,0-3.484,0L3.733,138.7a2.463,2.463,0,0,0,0,3.484l2.76,2.76c-.039.1-.081.2-.123.3h-3.9A2.463,2.463,0,0,0,0,147.712v9.856A2.463,2.463,0,0,0,2.466,160.032Zm2.464-9.856H8.118a2.462,2.462,0,0,0,2.361-1.762,14.594,14.594,0,0,1,1.156-2.806,2.468,2.468,0,0,0-.424-2.917l-2.25-2.247,3.487-3.484,2.25,2.25a2.466,2.466,0,0,0,2.917.424,14.863,14.863,0,0,1,2.806-1.156,2.465,2.465,0,0,0,1.757-2.361v-3.188h4.928v3.188a2.465,2.465,0,0,0,1.759,2.361,14.7,14.7,0,0,1,2.806,1.156,2.469,2.469,0,0,0,2.917-.424l2.25-2.25,3.487,3.484-2.25,2.25a2.464,2.464,0,0,0-.424,2.917,14.686,14.686,0,0,1,1.156,2.807,2.459,2.459,0,0,0,2.358,1.759h3.188V155.1H41.166a2.462,2.462,0,0,0-2.361,1.762,14.594,14.594,0,0,1-1.156,2.806,2.465,2.465,0,0,0,.424,2.917l2.25,2.247-3.484,3.487-2.25-2.25a2.468,2.468,0,0,0-2.917-.424,14.862,14.862,0,0,1-2.806,1.156,2.459,2.459,0,0,0-1.759,2.358v3.188H22.178v-3.188a2.465,2.465,0,0,0-1.759-2.361,14.7,14.7,0,0,1-2.806-1.156,2.465,2.465,0,0,0-2.917.424l-2.25,2.25-3.484-3.487,2.25-2.247a2.465,2.465,0,0,0,.424-2.917,14.686,14.686,0,0,1-1.156-2.806A2.465,2.465,0,0,0,8.118,155.1H4.93Z" transform="translate(-0.002 -88.576)"/>
        <path id="Path_184" data-name="Path 184" class="cls-4" d="M192.015,255.311l-2.777-4.071a37.062,37.062,0,0,1-30.041,5.226l-1.227,4.775a42.244,42.244,0,0,0,10.482,1.321A41.665,41.665,0,0,0,192.015,255.311Z" transform="translate(-109.316 -173.858)"/>
        <path id="Path_185" data-name="Path 185" class="cls-4" d="M62.778,44.8l4.682,1.54a37,37,0,0,1,48.972-22.728l1.85-4.568A41.931,41.931,0,0,0,62.778,44.8Z" transform="translate(-43.443 -11.072)"/>
        <path id="Path_186" data-name="Path 186" class="cls-4" d="M142.474,326.848c1.646.441,3.336.813,5.024,1.106l.848-4.857c-1.545-.269-3.092-.609-4.6-1.01Z" transform="translate(-98.593 -222.885)"/>
        <path id="Path_187" data-name="Path 187" class="cls-4" d="M83.442,301.272c1.269.875,2.6,1.715,3.957,2.5l2.459-4.268c-1.242-.717-2.459-1.486-3.62-2.284Z" transform="translate(-57.742 -205.673)"/>
        <path id="Path_188" data-name="Path 188" class="cls-4" d="M180.465,332.474v-4.928c-1.565,0-3.149-.067-4.711-.2l-.424,4.908C177.033,332.4,178.762,332.474,180.465,332.474Z" transform="translate(-121.329 -226.522)"/>
        <path id="Path_189" data-name="Path 189" class="cls-4" d="M111.106,316.137c1.54.719,3.139,1.38,4.753,1.966l1.683-4.635c-1.478-.535-2.942-1.141-4.354-1.8Z" transform="translate(-76.886 -215.677)"/>
        <path id="Path_190" data-name="Path 190" class="cls-4" d="M209.457,56.528l-.5,4.9a27.175,27.175,0,0,1,4.029.717l1.225-4.775A33.018,33.018,0,0,0,209.457,56.528Z" transform="translate(-144.602 -39.117)"/>
        <path id="Path_191" data-name="Path 191" class="cls-4" d="M181.429,56.208a32.088,32.088,0,0,0-5.275.779l1.126,4.8a27,27,0,0,1,4.462-.66Z" transform="translate(-121.899 -38.896)"/>
        <path id="Path_192" data-name="Path 192" class="cls-4" d="M144.346,66.578l2.639,4.162a27.282,27.282,0,0,1,3.994-2.092L149.072,64.1A32.073,32.073,0,0,0,144.346,66.578Z" transform="translate(-99.888 -44.36)"/>
        <path id="Path_193" data-name="Path 193" class="cls-4" d="M125.625,86.25l-3.294-3.666a32.747,32.747,0,0,0-3.657,3.876l3.851,3.075A27.513,27.513,0,0,1,125.625,86.25Z" transform="translate(-82.123 -57.148)"/>
        <path id="Path_194" data-name="Path 194" class="cls-4" d="M101.922,114.408l4.647,1.641a27.325,27.325,0,0,1,1.853-4.112l-4.31-2.393A32.326,32.326,0,0,0,101.922,114.408Z" transform="translate(-70.531 -75.804)"/>
      </g>
    </g>
  </g>
</svg>
