<?xml version="1.0" encoding="utf-8"?>
<!-- Generator: Adobe Illustrator 22.1.0, SVG Export Plug-In . SVG Version: 6.00 Build 0)  -->
<svg version="1.1" id="Layer_1" xmlns="http://www.w3.org/2000/svg" xmlns:xlink="http://www.w3.org/1999/xlink" x="0px" y="0px"
	 viewBox="0 0 147.8 147.8" style="enable-background:new 0 0 147.8 147.8;" xml:space="preserve">
<style type="text/css">
	.st0{fill:#D45B5B;}
	.st1{fill:#B3D5E4;}
	.st2{fill:#FFFFFF;}
	.st3{fill:#23374E;}
</style>
<g id="planning-color" transform="translate(-140 -32.856)">
	<g id="Group_88" transform="translate(221.312 35.32)">
		<path id="Path_143" class="st0" d="M33.3,78.7c0.2-0.1,0.3-0.2,0.5-0.2C33.7,78.6,33.5,78.6,33.3,78.7z"/>
		<path id="Path_144" class="st0" d="M35.2,77.7c0.1-0.1,0.2-0.1,0.3-0.2C35.4,77.6,35.3,77.7,35.2,77.7z"/>
		<path id="Path_145" class="st0" d="M31.5,79.5c0.2-0.1,0.3-0.1,0.5-0.2C31.8,79.4,31.6,79.5,31.5,79.5z"/>
		<path id="Path_146" class="st0" d="M25.8,81c0.1,0,0.2,0,0.3,0C26,81,25.9,81,25.8,81z"/>
		<path id="Path_147" class="st0" d="M8.8,77.5c0.1,0.1,0.2,0.1,0.3,0.2C9.1,77.7,8.9,77.6,8.8,77.5z"/>
		<path id="Path_148" class="st0" d="M16.3,80.6c0.2,0,0.3,0.1,0.5,0.1C16.6,80.7,16.4,80.6,16.3,80.6z"/>
		<path id="Path_149" class="st0" d="M18.3,81h0.3C18.4,81,18.3,81,18.3,81z"/>
		<path id="Path_150" class="st0" d="M27.6,80.7c0.2,0,0.3-0.1,0.5-0.1C27.9,80.6,27.8,80.7,27.6,80.7z"/>
		<path id="Path_151" class="st0" d="M12.4,79.3c0.2,0.1,0.3,0.1,0.5,0.2C12.7,79.5,12.5,79.4,12.4,79.3z"/>
		<path id="Path_152" class="st0" d="M29.5,80.2c0.2-0.1,0.3-0.1,0.5-0.2C29.9,80.1,29.7,80.2,29.5,80.2z"/>
		<path id="Path_153" class="st0" d="M10.5,78.5c0.2,0.1,0.3,0.2,0.5,0.2C10.9,78.6,10.7,78.6,10.5,78.5z"/>
		<path id="Path_154" class="st0" d="M14.3,80c0.2,0.1,0.3,0.1,0.5,0.2C14.6,80.2,14.5,80.1,14.3,80z"/>
		<path id="Path_155" class="st0" d="M0,17.2v9.9h5.7C6,28.2,6.4,29.3,7,30.4l-4,4l7,7l4-4c1,0.6,2.1,1,3.3,1.3v5.7h9.9v-5.7
			c1.1-0.3,2.2-0.8,3.3-1.3l4,4l7-7l-4-4c0.6-1,1-2.1,1.4-3.3h5.7v-9.9h-5.7c-0.3-1.1-0.8-2.2-1.4-3.3l4-4l-7-7l-4,4
			c-1-0.6-2.1-1-3.3-1.4V0h-9.9v5.7C16.1,6,15,6.4,14,7l-4-4l-7,7l4,4c-0.6,1-1,2.1-1.4,3.3L0,17.2z M22.2,12.3
			c5.4,0,9.9,4.4,9.9,9.9S27.6,32,22.2,32s-9.9-4.4-9.9-9.9l0,0C12.3,16.7,16.7,12.3,22.2,12.3L22.2,12.3L22.2,12.3z"/>
	</g>
	<circle id="Ellipse_1" class="st1" cx="243.5" cy="57.5" r="9.9"/>
	<g id="Group_89" transform="translate(201.6 124.024)">
		<path id="Path_156" class="st0" d="M27.1,4.9V0L4.9,7.4L0,54.2h27.1V4.9L27.1,4.9z"/>
		<path id="Path_157" class="st0" d="M56.7,0v54.2h27.1l-5-46.8L56.7,0z"/>
	</g>
	<g id="Group_90" transform="translate(228.704 128.952)">
		<path id="Path_158" class="st1" d="M0,12.3l14.8-4.9L0,0V12.3z"/>
		<path id="Path_159" class="st1" d="M29.6,12.3V0L14.8,7.4L29.6,12.3z"/>
	</g>
	<g id="Group_91" transform="translate(228.704 111.892)">
		<path id="Path_160" class="st0" d="M3.6,2.1C4.1,2.4,4.5,2.6,5,2.8C4.5,2.6,4.1,2.4,3.6,2.1z"/>
		<path id="Path_161" class="st0" d="M1.8,1.2C2.3,1.5,2.7,1.7,3.2,2C2.7,1.7,2.2,1.4,1.8,1.2z"/>
		<path id="Path_162" class="st0" d="M0,0L0,0c0.5,0.3,0.9,0.6,1.4,0.9C1,0.6,0.5,0.3,0,0z"/>
		<path id="Path_163" class="st0" d="M20.7,4c0.5-0.1,1-0.3,1.4-0.4C21.7,3.8,21.2,3.9,20.7,4z"/>
		<path id="Path_164" class="st0" d="M22.7,3.5c0.5-0.2,0.9-0.3,1.4-0.5C23.6,3.2,23.1,3.3,22.7,3.5z"/>
		<path id="Path_165" class="st0" d="M18.4,4.5c-2.4,0.3-4.9,0.3-7.3,0C13.6,4.8,16,4.8,18.4,4.5z"/>
		<path id="Path_166" class="st0" d="M29.6,0c-0.5,0.3-0.9,0.6-1.4,0.9C28.6,0.6,29.1,0.3,29.6,0z"/>
		<path id="Path_167" class="st0" d="M18.7,4.4c0.5-0.1,1-0.2,1.5-0.3C19.7,4.2,19.2,4.3,18.7,4.4z"/>
		<path id="Path_168" class="st0" d="M24.6,2.8C25,2.6,25.5,2.4,26,2.1C25.5,2.4,25,2.6,24.6,2.8z"/>
		<path id="Path_169" class="st0" d="M26.4,1.9c0.5-0.2,0.9-0.5,1.4-0.8C27.3,1.4,26.9,1.7,26.4,1.9z"/>
	</g>
	<path id="Path_170" class="st2" d="M243.5,136.3l14.8-7.4v-17.1c-0.5,0.3-0.9,0.6-1.4,0.9c-0.1,0.1-0.2,0.1-0.3,0.2
		c-0.5,0.3-0.9,0.5-1.4,0.8c-0.2,0.1-0.3,0.2-0.5,0.2c-0.5,0.2-0.9,0.4-1.4,0.6c-0.2,0.1-0.3,0.1-0.5,0.2c-0.5,0.2-0.9,0.4-1.4,0.5
		c-0.2,0.1-0.3,0.1-0.5,0.2c-0.5,0.1-1,0.3-1.4,0.4c-0.2,0-0.3,0.1-0.5,0.1c-0.5,0.1-1,0.2-1.5,0.3h-0.3c-2.4,0.3-4.9,0.3-7.3,0
		c-0.1,0-0.2,0-0.3,0c-0.5-0.1-1-0.2-1.5-0.3c-0.2,0-0.3-0.1-0.5-0.1c-0.5-0.1-1-0.3-1.4-0.4c-0.2-0.1-0.3-0.1-0.5-0.2
		c-0.5-0.2-0.9-0.3-1.4-0.5c-0.2-0.1-0.3-0.1-0.5-0.2c-0.5-0.2-0.9-0.4-1.4-0.6c-0.2-0.1-0.3-0.2-0.5-0.2c-0.5-0.2-0.9-0.5-1.4-0.8
		c-0.1-0.1-0.2-0.1-0.3-0.2c-0.5-0.3-1-0.6-1.4-0.9V129L243.5,136.3z"/>
	<g id="Group_92" transform="translate(234.204 114.861)">
		<path id="Path_171" class="st0" d="M1.9,0.7c0.5,0.1,1,0.3,1.4,0.4C2.9,0.9,2.4,0.8,1.9,0.7z"/>
		<path id="Path_172" class="st0" d="M0,0c0.5,0.2,0.9,0.4,1.4,0.5C0.9,0.4,0.5,0.2,0,0z"/>
		<path id="Path_173" class="st0" d="M3.8,1.2c0.5,0.1,1,0.2,1.5,0.3C4.8,1.4,4.3,1.3,3.8,1.2z"/>
	</g>
	<g id="Group_93" transform="translate(228.704 136.344)">
		<path id="Path_174" class="st1" d="M14.8,0l7.4,27.1l-7.4,14.8h14.8v-37L14.8,0z"/>
		<path id="Path_175" class="st1" d="M14.8,0L0,4.9v37h14.8L7.4,27.1L14.8,0z"/>
	</g>
	<g id="Group_94" transform="translate(142.464 74.744)">
		<path id="Path_176" class="st0" d="M101,61.6l-7.4,27.1l7.4,14.8l7.4-14.8L101,61.6z"/>
		<path id="Path_177" class="st0" d="M17.2,5.7C16.1,6,15,6.4,14,7l-4-4l-7,7l4,4c-0.6,1-1,2.1-1.4,3.3H0v9.9h5.7
			c0.3,1,0.7,2.1,1.3,3.2l-4,4l7,7l4-4c1,0.6,2.1,1,3.3,1.4v5.7h9.9v-5.7c1.1-0.3,2.2-0.8,3.3-1.4l4,4l7-7l-4-4c0.6-1,1-2.1,1.4-3.3
			h5.7v-9.9h-5.7c-0.3-1.1-0.8-2.2-1.3-3.3l4-4l-7-7l-4,4c-1-0.6-2.1-1-3.3-1.4V0h-9.9v5.7H17.2z M32,22.2c0,5.4-4.4,9.9-9.9,9.9
			s-9.9-4.4-9.9-9.9c0-5.4,4.4-9.9,9.9-9.9S32,16.7,32,22.2L32,22.2z"/>
	</g>
	<circle id="Ellipse_2" class="st1" cx="164.6" cy="96.9" r="9.9"/>
	<path id="Path_178" class="st2" d="M273.1,82.1H214c0,0,2.5,34.5,29.6,34.5S273.1,82.1,273.1,82.1z"/>
	<g id="Group_95" transform="translate(140 32.856)">
		<path id="Path_179" class="st3" d="M103.5,37c6.8,0,12.3-5.5,12.3-12.3s-5.5-12.3-12.3-12.3s-12.3,5.5-12.3,12.3
			C91.2,31.4,96.7,37,103.5,37z M103.5,17.2c4.1,0,7.4,3.3,7.4,7.4s-3.3,7.4-7.4,7.4s-7.4-3.3-7.4-7.4l0,0
			C96.1,20.6,99.4,17.3,103.5,17.2z"/>
		<path id="Path_182" class="st3" d="M24.6,76.4c6.8,0,12.3-5.5,12.3-12.3s-5.5-12.3-12.3-12.3s-12.3,5.5-12.3,12.3
			C12.3,70.9,17.8,76.4,24.6,76.4z M24.6,56.7c4.1,0,7.4,3.3,7.4,7.4s-3.3,7.4-7.4,7.4s-7.4-3.3-7.4-7.4l0,0
			C17.3,60,20.6,56.7,24.6,56.7z"/>
		<g id="Group_198">
			<path id="Path_180" class="st3" d="M81.3,17.2c-1.4,0-2.5,1.1-2.5,2.5l0,0v9.9c0,1.4,1.1,2.5,2.5,2.5l0,0h3.9
				c0,0.1,0.1,0.2,0.1,0.3l-2.8,2.8c-1,1-1,2.5,0,3.5l0,0l7,7c1,0.9,2.5,0.9,3.5,0l2.8-2.8l0.3,0.1v3.9c0,1.4,1.1,2.5,2.5,2.5l0,0
				h9.9c1.4,0,2.5-1.1,2.5-2.5l0,0V43l0.3-0.1l2.8,2.8c1,1,2.5,1,3.5,0l0,0l7-7c1-1,1-2.5,0-3.5l0,0l-2.8-2.8c0-0.1,0.1-0.2,0.1-0.3
				h3.9c1.4,0,2.5-1.1,2.5-2.5l0,0v-9.9c0-1.4-1.1-2.5-2.5-2.5l0,0h-3.9c0-0.1-0.1-0.2-0.1-0.3l2.8-2.8c1-1,1-2.5,0-3.5l0,0l-7-7
				c-1-0.9-2.5-0.9-3.5,0l-2.8,2.8L111,6.3V2.5c0-1.4-1.1-2.5-2.5-2.5h-9.9c-1.4,0-2.5,1.1-2.5,2.5l0,0v3.9l-0.3,0.1L93,3.7
				c-1-1-2.5-1-3.5,0l0,0l-7,7c-1,1-1,2.5,0,3.5l0,0l2.8,2.8c0,0.1-0.1,0.2-0.1,0.3L81.3,17.2z M87,22.2c1.1,0,2.1-0.7,2.4-1.8
				c0.3-1,0.7-1.9,1.2-2.8c0.5-1,0.3-2.1-0.4-2.9L88,12.5L91.3,9l2.2,2.2c0.8,0.8,2,0.9,2.9,0.4s1.8-0.9,2.8-1.2S101,9.1,101,8V4.9
				h4.9v3.2c0,1.1,0.7,2,1.8,2.4c1,0.3,1.9,0.7,2.8,1.2c1,0.5,2.1,0.3,2.9-0.4l2.2-2.2l3.5,3.5l-2.2,2.2c-0.8,0.8-0.9,2-0.4,2.9
				c0.5,0.9,0.9,1.8,1.2,2.8c0.3,1,1.3,1.8,2.4,1.8h3.2v4.9H120c-1.1,0-2.1,0.7-2.4,1.8c-0.3,1-0.7,1.9-1.2,2.8
				c-0.5,1-0.3,2.1,0.4,2.9l2.2,2.2l-3.5,3.5l-2.2-2.2c-0.8-0.8-2-0.9-2.9-0.4s-1.8,0.9-2.8,1.2s-1.8,1.3-1.8,2.4v3.2H101v-3.2
				c0-1.1-0.7-2-1.8-2.4c-1-0.3-1.9-0.7-2.8-1.2c-1-0.5-2.1-0.3-2.9,0.4l-2.2,2.2l-3.5-3.5l2.2-2.2c0.8-0.8,0.9-2,0.4-2.9
				S89.5,30,89.2,29c-0.3-1-1.3-1.8-2.4-1.8h-3.2v-4.9L87,22.2z"/>
			<path id="Path_181" class="st3" d="M72.2,47.6c-0.5,0.5-0.7,1.1-0.7,1.8c0.1,11.7,5.3,22.8,14.1,30.5c0.2,0.2,0.4,0.3,0.6,0.5
				v9.1l-20.5,6.8c-0.9,0.3-1.6,1.1-1.7,2.1l-4.9,46.8c-0.1,1.4,0.8,2.6,2.2,2.7c0.1,0,0.2,0,0.3,0h83.8c1.4,0,2.5-1.1,2.5-2.5
				c0-0.1,0-0.2,0-0.3L143,98.3c-0.1-1-0.8-1.8-1.7-2.1l-20.5-6.8v-9.1c0.2-0.2,0.4-0.3,0.6-0.5c9-7.6,14.1-18.7,14.1-30.5
				c0-1.4-1.1-2.5-2.5-2.5h-7.4v4.9h4.8c-0.7,9.4-5.1,18.1-12.3,24.2c-0.4,0.4-0.9,0.7-1.4,1.1l0,0c-1,0.7-2,1.3-3,1.8
				c-0.1,0-0.1,0.1-0.2,0.1c-1,0.5-2.1,0.9-3.1,1.3c-0.1,0-0.1,0-0.2,0.1c-1.1,0.3-2.2,0.6-3.3,0.8h-0.1c-2.3,0.3-4.6,0.3-6.9,0
				h-0.1c-1.1-0.2-2.2-0.4-3.3-0.8c-0.1,0-0.1,0-0.2-0.1c-1.1-0.3-2.1-0.8-3.1-1.3c-0.1,0-0.1-0.1-0.2-0.1c-1-0.5-2.1-1.1-3-1.8l0,0
				c-0.5-0.3-0.9-0.7-1.4-1.1C81.5,69.7,77.1,61,76.4,51.7h4.8v-4.9h-7.4C73.3,46.8,72.6,47.1,72.2,47.6z M108.3,130.3l-4.8,9.5
				l-4.8-9.5l4.8-17.5L108.3,130.3z M115.8,105l-5.9-2l5.9-2.9V105z M91.2,105v-4.9l5.9,2.9L91.2,105z M68.8,100.4l17.4-5.8v48.3
				H64.3L68.8,100.4z M91.2,110.2l8.7-2.9L93.7,130c-0.2,0.6-0.1,1.2,0.2,1.7l5.6,11.2h-8.3L91.2,110.2z M107.5,142.9l5.6-11.2
				c0.3-0.5,0.3-1.2,0.2-1.7l-6.2-22.7l8.7,2.9v32.7L107.5,142.9L107.5,142.9z M138.2,100.4l4.5,42.5h-21.9V94.6L138.2,100.4z
				 M115.8,83.4v11.2l-12.3,6.2l-12.3-6.2V83.4h0.1c1.8,0.9,3.8,1.6,5.8,2.1c0.1,0,0.3,0.1,0.4,0.1c0.9,0.2,1.7,0.3,2.6,0.4
				c0.1,0,0.3,0,0.4,0.1c1,0.1,2,0.2,3,0.2s2-0.1,3-0.2c0.1,0,0.3,0,0.4-0.1c0.9-0.1,1.7-0.3,2.6-0.4c0.1,0,0.3-0.1,0.4-0.1
				C111.9,85,113.8,84.3,115.8,83.4C115.7,83.4,115.8,83.4,115.8,83.4L115.8,83.4z"/>
			<path id="Path_183" class="st3" d="M2.5,71.5h3.9c0,0.1,0.1,0.2,0.1,0.3l-2.8,2.8c-1,1-1,2.5,0,3.5l0,0l7,7c1,0.9,2.5,0.9,3.5,0
				l2.8-2.8l0.3,0.1v3.9c0,1.4,1.1,2.5,2.5,2.5l0,0h9.9c1.4,0,2.5-1.1,2.5-2.5l0,0v-3.9l0.3-0.1l2.8,2.8c1,1,2.5,1,3.5,0l0,0l7-7
				c1-1,1-2.5,0-3.5l0,0L43,71.8c0-0.1,0.1-0.2,0.1-0.3H47c1.4,0,2.5-1.1,2.5-2.5l0,0v-9.9c0-1.4-1.1-2.5-2.5-2.5l0,0h-3.9
				c0-0.1-0.1-0.2-0.1-0.3l2.8-2.8c1-1,1-2.5,0-3.5l0,0l-7-7c-1-0.9-2.5-0.9-3.5,0l-2.8,2.8H32v-3.9c0-1.4-1.1-2.5-2.5-2.5l0,0h-9.9
				c-1.4,0-2.5,1.1-2.5,2.5l0,0v3.9l-0.3,0.1L14,43.1c-1-1-2.5-1-3.5,0l0,0l-7,7c-1,1-1,2.5,0,3.5l0,0l2.8,2.8
				c0,0.1-0.1,0.2-0.1,0.3H2.5c-1.4,0-2.5,1.1-2.5,2.5l0,0V69C0,70.4,1.1,71.5,2.5,71.5L2.5,71.5z M4.9,61.6h3.2
				c1.1,0,2.1-0.7,2.4-1.8c0.3-1,0.7-1.9,1.2-2.8c0.5-1,0.3-2.1-0.4-2.9L9,51.9l3.5-3.5l2.2,2.2c0.8,0.8,2,0.9,2.9,0.4
				s1.8-0.9,2.8-1.2s1.8-1.3,1.8-2.4v-3.2h4.9v3.2c0,1.1,0.7,2,1.8,2.4c1,0.3,1.9,0.7,2.8,1.2c1,0.5,2.1,0.3,2.9-0.4l2.2-2.2
				l3.5,3.5l-2.2,2.2c-0.8,0.8-0.9,2-0.4,2.9s0.9,1.8,1.2,2.8s1.3,1.8,2.4,1.8h3.2v4.9h-3.2c-1.1,0-2.1,0.7-2.4,1.8
				c-0.3,1-0.7,1.9-1.2,2.8c-0.5,1-0.3,2.1,0.4,2.9l2.2,2.2l-3.5,3.5l-2.2-2.2c-0.8-0.8-2-0.9-2.9-0.4s-1.8,0.9-2.8,1.2
				c-1,0.3-1.8,1.3-1.8,2.4v3.2h-4.9v-3.2c0-1.1-0.7-2-1.8-2.4c-1-0.3-1.9-0.7-2.8-1.2c-1-0.5-2.1-0.3-2.9,0.4l-2.2,2.2L9,76.3
				l2.2-2.2c0.8-0.8,0.9-2,0.4-2.9s-0.9-1.8-1.2-2.8S9.1,66.6,8,66.6H4.9V61.6z"/>
			<path id="Path_184" class="st3" d="M82.7,81.5l-2.8-4.1c-8.8,6-19.7,7.9-30,5.2l-1.2,4.8c3.4,0.9,6.9,1.3,10.5,1.3
				C67.5,88.7,75.8,86.2,82.7,81.5z"/>
			<path id="Path_185" class="st3" d="M19.3,33.7l4.7,1.5c6.4-19.4,27.3-29.9,46.7-23.5c0.8,0.2,1.5,0.5,2.2,0.8L74.8,8
				C53.4-0.7,28.9,9.7,20.3,31.2C19.9,32,19.6,32.9,19.3,33.7z"/>
			<path id="Path_186" class="st3" d="M43.9,104c1.6,0.4,3.3,0.8,5,1.1l0.8-4.9c-1.5-0.3-3.1-0.6-4.6-1L43.9,104z"/>
			<path id="Path_187" class="st3" d="M25.7,95.6c1.3,0.9,2.6,1.7,4,2.5l2.5-4.3c-1.2-0.7-2.5-1.5-3.6-2.3L25.7,95.6z"/>
			<path id="Path_188" class="st3" d="M59.1,106v-5c-1.6,0-3.1-0.1-4.7-0.2l-0.4,4.9C55.7,105.9,57.4,106,59.1,106z"/>
			<path id="Path_189" class="st3" d="M34.2,100.5c1.5,0.7,3.1,1.4,4.8,2l1.7-4.6c-1.5-0.5-2.9-1.1-4.4-1.8L34.2,100.5z"/>
			<path id="Path_190" class="st3" d="M64.9,17.4l-0.5,4.9c1.4,0.1,2.7,0.4,4,0.7l1.2-4.8C68,17.9,66.5,17.6,64.9,17.4z"/>
			<path id="Path_191" class="st3" d="M59.5,17.3c-1.8,0.1-3.5,0.4-5.3,0.8l1.1,4.8c1.5-0.3,3-0.6,4.5-0.7L59.5,17.3z"/>
			<path id="Path_192" class="st3" d="M44.5,22.2l2.6,4.2c1.3-0.8,2.6-1.5,4-2.1l-1.9-4.5C47.5,20.4,46,21.3,44.5,22.2z"/>
			<path id="Path_193" class="st3" d="M43.5,29.1l-3.3-3.7c-1.3,1.2-2.5,2.5-3.7,3.9l3.9,3.1C41.3,31.2,42.4,30.1,43.5,29.1z"/>
			<path id="Path_194" class="st3" d="M31.4,38.6l4.6,1.6c0.5-1.4,1.1-2.8,1.9-4.1l-4.3-2.4C32.7,35.3,32,36.9,31.4,38.6z"/>
		</g>
	</g>
</g>
</svg>
