<svg height="200pt" viewBox="-10 0 512 512.002" width="200pt" xmlns="http://www.w3.org/2000/svg"><path d="m267.410156 95.195312h-42.460937v-37.621093c0-8.503907 6.894531-15.402344 15.402343-15.402344h11.660157c8.503906 0 15.398437 6.898437 15.398437 15.402344zm0 0" fill="#c7cfe2"/><path d="m251.796875 42.171875h-11.230469c-1.753906 0-3.429687.300781-5.003906.835937 6.171875 2.085938 10.617188 7.90625 10.617188 14.78125v37.40625h21.230468v-37.40625c0-8.625-6.988281-15.617187-15.613281-15.617187zm0 0" fill="#acb8d1"/><path d="m159.761719 177.785156c0-47.726562 38.691406-86.417968 86.417969-86.417968 47.726562 0 86.417968 38.691406 86.417968 86.417968" fill="#eff2fa"/><path d="m246.179688 91.367188c-5.746094 0-11.355469.574218-16.789063 1.644531 39.691406 7.816406 69.632813 42.792969 69.632813 84.773437h33.574218c0-47.726562-38.691406-86.417968-86.417968-86.417968zm0 0" fill="#d7deed"/><path d="m351.734375 230.910156h-211.109375v-46.941406c0-8.1875 6.636719-14.824219 14.824219-14.824219h181.460937c8.1875 0 14.824219 6.636719 14.824219 14.824219zm0 0" fill="#acb8d1"/><path d="m369.167969 244.695312v66.992188h-245.980469v-66.992188c0-7.613281 6.175781-13.789062 13.78125-13.789062h218.421875c7.613281 0 13.777344 6.175781 13.777344 13.789062zm0 0" fill="#c7cfe2"/><path d="m369.167969 288.671875v23.015625h-245.980469v-23.015625l122.992188-37.519531zm0 0" fill="#acb8d1"/><path d="m369.167969 301.597656v149.675782h-245.980469v-149.675782l122.992188-37.515625zm0 0" fill="#eff2fa"/><path d="m123.1875 311.6875v139.585938h-87.21875v-126.558594c0-7.199219 5.832031-13.027344 13.027344-13.027344zm0 0" fill="#c7cfe2"/><path d="m456.386719 324.714844v126.5625h-87.21875v-139.589844h74.199219c7.191406 0 13.019531 5.828125 13.019531 13.027344zm0 0" fill="#c7cfe2"/><path d="m7.605469 504.394531v-25.746093c0-15.117188 12.257812-27.375 27.375-27.375h422.398437c15.117188 0 27.375 12.257812 27.375 27.375v25.746093" fill="#4f495b"/><path d="m463.996094 444.304688v-119.589844c0-11.375-9.257813-20.632813-20.632813-20.632813h-66.585937v-2.488281c0-.019531-.003906-.039062-.003906-.0625v-56.835938c0-10.445312-7.527344-19.152343-17.433594-21.011718v-39.507813c0-11.769531-9.035156-21.46875-20.535156-22.53125-2.117188-12.15625-6.640626-23.902343-13.269532-34.308593-2.257812-3.542969-6.957031-4.582032-10.5-2.328126-3.539062 2.257813-4.582031 6.957032-2.324218 10.5 5.058593 7.941407 8.652343 16.816407 10.59375 26.035157h-154.253907c6.117188-29.125 28.453125-52.769531 57.757813-60.175781 12.59375-3.175782 26.144531-3.175782 38.738281 0 10.546875 2.664062 20.273437 7.414062 28.910156 14.117187 3.320313 2.574219 8.09375 1.972656 10.671875-1.34375 2.574219-3.320313 1.96875-8.097656-1.347656-10.671875-8.71875-6.765625-18.375-11.859375-28.765625-15.195312v-30.488282c0-12.128906-9.355469-22.113281-21.230469-23.125v-27.054687c0-4.203125-3.40625-7.605469-7.605468-7.605469-4.199219 0-7.605469 3.402344-7.605469 7.605469v27.050781c-11.875 1.011719-21.234375 10.996094-21.234375 23.128906v30.5c-33.164063 10.675782-57.847656 39.089844-63.792969 73.359375-11.496094 1.066407-20.527344 10.761719-20.527344 22.53125v39.507813c-9.910156 1.855468-17.4375 10.566406-17.4375 21.011718v56.886719.011719 2.488281h-66.585937c-11.378906 0-20.632813 9.253907-20.632813 20.628907v119.59375c-16.132812 3.101562-28.363281 17.316406-28.363281 34.34375v25.746093c0 4.199219 3.40625 7.605469 7.605469 7.605469s7.605469-3.402344 7.605469-7.605469v-25.746093c0-10.902344 8.867187-19.769532 19.769531-19.769532h22.839843c4.199219 0 7.605469-3.40625 7.605469-7.605468 0-4.203126-3.40625-7.605469-7.605469-7.605469h-14.246093v-91.316407h72.007812v91.316407h-20.585937c-4.199219 0-7.605469 3.40625-7.605469 7.605469 0 4.203124 3.40625 7.605468 7.605469 7.605468h362.382812c10.902344 0 19.769532 8.871094 19.769532 19.773438v25.746094c0 4.199218 3.40625 7.605468 7.605468 7.605468 4.199219 0 7.605469-3.40625 7.605469-7.605468v-25.75c0-17.023438-12.230469-31.242188-28.363281-34.34375zm-223.433594-394.527344h5.578125.039063.039062 5.578125c4.414063 0 8.007813 3.589844 8.007813 8.007812v26.976563c-9.011719-1.296875-18.242188-1.296875-27.253907 0v-26.976563c0-4.417968 3.59375-8.007812 8.011719-8.007812zm202.800781 269.511718c2.992188 0 5.421875 2.433594 5.421875 5.421876v12.429687h-72.007812v-17.851563zm-123.386719 85.570313c-4.199218 0-7.605468 3.40625-7.605468 7.605469v31.203125h-33.988282v-91.316407h33.988282v29.128907c0 4.199219 3.40625 7.605469 7.605468 7.605469 4.199219 0 7.605469-3.402344 7.605469-7.605469v-29.128907h33.988281v91.316407h-33.992187v-31.203125c0-4.199219-3.402344-7.605469-7.601563-7.605469zm-189.1875-93.152344c0-.007812.003907-.015625.003907-.019531v-4.464844l115.386719-35.1875 115.382812 35.1875v4.464844c0 .03125.003906.0625.007812.097656v25.355469h-230.78125zm83.1875 40.644531v91.316407h-33.988281v-91.316407zm15.210938 0h33.988281v91.316407h-33.988281zm-92.21875-113.839843h3.597656.058594.058594 22.496094c4.199218 0 7.605468-3.40625 7.605468-7.605469 0-4.203125-3.40625-7.605469-7.605468-7.605469h-14.949219v-39.125c0-4.097656 3.332031-7.425781 7.425781-7.425781h4.480469c.019531 0 .039062.003906.058593.003906.023438 0 .042969-.003906.0625-.003906h171.84375c.019532 0 .039063.003906.0625.003906.019532 0 .039063-.003906.058594-.003906h4.484375c4.09375 0 7.425781 3.328125 7.425781 7.425781v39.125h-146.738281c-4.199219 0-7.605469 3.402344-7.605469 7.605469 0 4.199219 3.40625 7.605469 7.605469 7.605469h154.28125.058594.058594 3.597656c3.402344 0 6.171875 2.773437 6.171875 6.183593v46.628907l-113.164062-34.511719c-1.445313-.441406-2.992188-.441406-4.4375 0l-113.167969 34.511719v-46.628907c0-3.410156 2.769531-6.183593 6.175781-6.183593zm-93.394531 98.628906v-12.429687c0-2.988282 2.433593-5.421876 5.421875-5.421876h66.585937v17.851563zm87.214843 15.210937h33.992188v91.316407h-33.988281v-91.316407zm245.988282 91.316407v-91.316407h72.007812v91.316407zm0 0"/><path d="m183.984375 321.902344c.730469 0 1.472656-.105469 2.210937-.328125l60.546876-18.359375 62.21875 18.375c4.027343 1.191406 8.257812-1.113282 9.445312-5.140625 1.191406-4.027344-1.109375-8.257813-5.140625-9.445313l-64.398437-19.019531c-1.421876-.421875-2.9375-.414063-4.359376.015625l-62.726562 19.019531c-4.019531 1.21875-6.292969 5.464844-5.070312 9.484375.992187 3.28125 4.011718 5.398438 7.273437 5.398438zm0 0"/><path d="m178.390625 206.890625v-11.0625c0-4.199219-3.40625-7.605469-7.605469-7.605469-4.199218 0-7.605468 3.40625-7.605468 7.605469v11.0625c0 4.199219 3.40625 7.601563 7.605468 7.601563 4.199219 0 7.605469-3.402344 7.605469-7.601563zm0 0"/><path d="m200.941406 214.492188c4.203125 0 7.605469-3.402344 7.605469-7.605469v-11.058594c0-4.199219-3.402344-7.605469-7.605469-7.605469-4.199218 0-7.601562 3.402344-7.601562 7.605469v11.058594c0 4.203125 3.402344 7.605469 7.601562 7.605469zm0 0"/><path d="m231.101562 214.492188c4.199219 0 7.605469-3.402344 7.605469-7.605469v-11.058594c0-4.199219-3.40625-7.605469-7.605469-7.605469-4.199218 0-7.605468 3.402344-7.605468 7.605469v11.058594c0 4.203125 3.40625 7.605469 7.605468 7.605469zm0 0"/><path d="m261.257812 214.492188c4.203126 0 7.605469-3.402344 7.605469-7.605469v-11.058594c0-4.199219-3.402343-7.605469-7.605469-7.605469-4.199218 0-7.605468 3.402344-7.605468 7.605469v11.058594c.003906 4.203125 3.40625 7.605469 7.605468 7.605469zm0 0"/><path d="m291.417969 214.492188c4.199219 0 7.605469-3.402344 7.605469-7.605469v-11.058594c0-4.199219-3.40625-7.605469-7.605469-7.605469s-7.605469 3.402344-7.605469 7.605469v11.058594c0 4.203125 3.40625 7.605469 7.605469 7.605469zm0 0"/><path d="m321.574219 214.492188c4.203125 0 7.605469-3.402344 7.605469-7.605469v-11.058594c0-4.199219-3.402344-7.605469-7.605469-7.605469-4.199219 0-7.601563 3.402344-7.601563 7.605469v11.058594c0 4.203125 3.402344 7.605469 7.601563 7.605469zm0 0"/></svg>