<svg id="undraw_ideation_2a64" xmlns="http://www.w3.org/2000/svg" width="1366.112" height="1040" viewBox="0 0 1366.112 1040">
  <path id="Path_1076" data-name="Path 1076" d="M1000.587,501.832l-20.188,90.8L964.01,666.3,950.948,725.05,934.57,798.715,881.05,1039.377,217.87,732.933,169.122,710.4l-61.7-28.517L58.653,659.357,0,632.251l33.251-48.377L60.9,543.648l34.98-50.894,27.641-40.2L434.585,0,764.106,292.166l58.68,52.025,46.79,41.486L928.264,437.7Z" fill="#f2f2f2"/>
  <path id="Path_1077" data-name="Path 1077" d="M606.236,484.662,640.494,544l34.256,59.335H537.723L571.979,544Z" transform="translate(145.935 131.534)" fill="#4ab1d9"/>
  <rect id="Rectangle_836" data-name="Rectangle 836" width="143.667" height="143.667" transform="translate(413.839 499.658)" fill="#4ab1d9"/>
  <ellipse id="Ellipse_82" data-name="Ellipse 82" cx="92.5" cy="92" rx="92.5" ry="92" transform="translate(568 224)" fill="#4ab1d9"/>
  <path id="Path_1078" data-name="Path 1078" d="M647.5,413.813a15.257,15.257,0,1,1,15.257,15.257A15.257,15.257,0,0,1,647.5,413.813Zm2.543,0A12.714,12.714,0,1,0,662.757,401.1a12.714,12.714,0,0,0-12.714,12.714Z" transform="translate(95.948 56.038)" fill="#3f3d56"/>
  <path id="Path_1079" data-name="Path 1079" d="M548.979,629.227l-22.458-24.077L550.6,582.691l22.458,24.077ZM530.1,605.274l19,20.373,20.373-19-19-20.373Z" transform="translate(63.115 106.012)" fill="#3f3d56"/>
  <path id="Path_1080" data-name="Path 1080" d="M402.206,357.972l-18.278-19.6,19.6-18.278,18.278,19.6Zm-15.365-19.495,15.466,16.581,16.581-15.466-15.466-16.581Z" transform="translate(24.416 34.745)" fill="#3f3d56"/>
  <rect id="Rectangle_837" data-name="Rectangle 837" width="793.35" height="2.543" transform="translate(572.763 1037.457)" fill="#3f3d56"/>
  <path id="Path_1081" data-name="Path 1081" d="M627.389,425.279A127.139,127.139,0,1,1,754.529,298.139,127.139,127.139,0,0,1,627.389,425.279Zm0-251.736a124.6,124.6,0,1,0,124.6,124.6A124.6,124.6,0,0,0,627.389,173.543Z" transform="translate(55.985 -5.719)" fill="#3f3d56"/>
  <rect id="Rectangle_838" data-name="Rectangle 838" width="75.835" height="2.543" transform="translate(572.264 459.694) rotate(-64.336)" fill="#3f3d56"/>
  <rect id="Rectangle_839" data-name="Rectangle 839" width="2.543" height="164.497" transform="translate(596.315 552.9) rotate(-61.578)" fill="#3f3d56"/>
  <path id="Path_1082" data-name="Path 1082" d="M572.873,587.623H387.25V402H572.873Zm-183.081-2.543H570.331V404.543H389.793Z" transform="translate(25.317 56.973)" fill="#3f3d56"/>
  <path id="Path_1083" data-name="Path 1083" d="M790.745,655.494h-192l96-166.28Zm-187.6-2.543H786.34L694.743,494.3Z" transform="translate(82.715 80.643)" fill="#3f3d56"/>
  <circle id="Ellipse_83" data-name="Ellipse 83" cx="31.785" cy="31.785" r="31.785" transform="translate(1083.863 396.675)" fill="#a0616a"/>
  <path id="Path_1084" data-name="Path 1084" d="M960.578,391.03s3.814,38.142,10.171,44.5-44.5-3.814-44.5-3.814,7.628-31.785,2.543-36.87S960.578,391.03,960.578,391.03Z" transform="translate(171.598 53.958)" fill="#a0616a"/>
  <path id="Path_1085" data-name="Path 1085" d="M972.921,441.5s15.257,43.227,19.071,69.927,3.814,38.142,3.814,38.142,16.528,50.856,11.443,75.012c0,0,19.071,57.213,2.543,57.213s-21.614-47.042-21.614-47.042L962.75,513.969Z" transform="translate(181.504 67.693)" fill="#a0616a"/>
  <path id="Path_1086" data-name="Path 1086" d="M1008.774,470.012s-3.814-47.042-20.342-50.856c-7.891-1.821-20.707-4.511-31.948-6.826C936.9,408.3,916.7,417.589,907.8,435.491a32.454,32.454,0,0,0-3.282,10.364c-2.543,20.342-15.257,20.342-3.814,47.042s8.9,54.67,8.9,54.67l7.628,67.384s-31.785,89-29.242,148.753L858.75,909.914s6.357,15.257,24.156,7.628c0,0,44.5-75.012,40.685-129.682l45.77-101.711s31.785,96.626,40.685,105.526l22.885,137.311s21.614,6.357,31.785,0c0,0,3.814-132.225-17.8-153.839,0,0-21.614-91.54-16.528-115.7s6.357-61.027-31.785-94.083c0,0,5.086-13.985-11.443-21.614l12.714-40.685Z" transform="translate(153.279 59.524)" fill="#2f2e41"/>
  <path id="Path_1087" data-name="Path 1087" d="M928.2,414.927q-.515-.074-1.051-.123c-11.257-1.016-20.95,7.972-21.452,19.264l-2.01,45.212-7.628,49.584-16.528,106.8s-31.785,38.142-10.171,40.685,25.428-41.956,25.428-41.956l27.971-83.912L934.2,472.923s13.346-13.346,7.792-44.2a16.722,16.722,0,0,0-13.792-13.8Z" transform="translate(154.114 60.427)" fill="#a0616a"/>
  <path id="Path_1088" data-name="Path 1088" d="M861.284,799.5l-8.9,45.77s-21.614,10.171-7.628,22.885,33.056-2.543,33.056-2.543l5.086-15.257-1.271,22.885h3.814l3.814-22.885s7.628-13.985,2.543-25.428V809.671Z" transform="translate(148.203 164.852)" fill="#2f2e41"/>
  <path id="Path_1089" data-name="Path 1089" d="M996.969,803l-5.086,41.956s-21.614,10.171-7.628,22.885,33.056-2.543,33.056-2.543l5.086-15.257-1.271,22.885h3.814l3.814-22.885s7.628-13.985,2.543-25.428V809.357Z" transform="translate(186.062 165.802)" fill="#2f2e41"/>
  <path id="Path_1090" data-name="Path 1090" d="M963.64,339.745h0a27.5,27.5,0,0,0-5.309.528,23.269,23.269,0,0,0-10.136-2.336h-.92c-17.737,0-32.115,16.05-32.115,35.849H921.1l.96-7.306,1.407,7.306h4.951a70.062,70.062,0,0,0-2.3,17.96v36.488h8.986l5.2-13.519-1.3,13.519h57.757l4.729-12.29-1.182,12.29h6.5v-28.65C1006.815,366.536,987.485,339.745,963.64,339.745Z" transform="translate(168.588 39.587)" fill="#2f2e41"/>
  <rect id="Rectangle_840" data-name="Rectangle 840" width="2.383" height="426.228" transform="translate(1308.731 612.227)" fill="#3f3d56"/>
  <ellipse id="Ellipse_84" data-name="Ellipse 84" cx="46.478" cy="106.065" rx="46.478" ry="106.065" transform="translate(1263.905 789.797)" fill="#3f3d56"/>
  <ellipse id="Ellipse_85" data-name="Ellipse 85" cx="46.478" cy="106.065" rx="46.478" ry="106.065" transform="translate(1263.905 547.873)" fill="#3f3d56"/>
  <path id="Path_1091" data-name="Path 1091" d="M1110.839,510.413l-2.283-.684c.144-.482,14.157-48.5-8.852-79.412-13-17.458-35.294-26.311-66.279-26.311v-2.383c31.784,0,54.728,9.178,68.2,27.28C1125.343,460.783,1110.987,509.92,1110.839,510.413Z" transform="translate(200.685 56.87)" fill="#3f3d56"/>
  <circle id="Ellipse_86" data-name="Ellipse 86" cx="29.794" cy="29.794" r="29.794" transform="translate(1204.317 429.891)" fill="#f2f2f2"/>
</svg>
