<?xml version="1.0" encoding="utf-8"?>
<!-- Generator: Adobe Illustrator 22.1.0, SVG Export Plug-In . SVG Version: 6.00 Build 0)  -->
<svg version="1.1" id="Layer_1" xmlns="http://www.w3.org/2000/svg" xmlns:xlink="http://www.w3.org/1999/xlink" x="0px" y="0px"
	 viewBox="0 0 147.8 147.8" style="enable-background:new 0 0 147.8 147.8;" xml:space="preserve">
<style type="text/css">
	.st0{fill:#AFB6BB;}
	.st1{fill:#DD352E;}
	.st2{fill:#E7ECED;}
	.st3{fill:#EBBA16;}
	.st4{fill:#23374E;}
</style>
<path id="Path_203" class="st0" d="M25.7,59.9L14.6,88.4l7.3-5.2l7.3,1.2c4.1-10.1,5.9-14,11.4-23.5L25.7,59.9z"/>
<path id="Path_208" class="st1" d="M100.1,14.1L134,47.9c13.6-26.8,9.4-43,9.4-43C143.3,4.4,127.3,0.5,100.1,14.1z"/>
<path id="Path_207" class="st0" d="M69,78.8H56.3l-21.7,34.3L69,89.8V78.8z"/>
<path id="Path_204" class="st0" d="M87.9,122.1l-28.5,11.3l5.2-7.3l-1.2-7.4c10.1-4.3,14-5.8,23.5-11.4L87.9,122.1z"/>
<path class="st2" d="M61.2,114.2l-8.4-8.4l20.9-13.7l0.2-15c0-0.3,0.2-1.4-0.5-2.3c-0.3-0.4-0.6-0.6-0.9-0.7c-6.2,0-12.4,0-18.6,0.1
	L41.8,94.9l-8.3-8.3c3.9-11.1,12.1-29.5,29-46.7C73.3,29,86.9,20.6,95.3,16c12.7,12.5,23.9,24.1,36.5,36.5c-2.1,4.3-5,9.8-9.3,15.8
	c0,0-6.4,9.1-15.2,17.4C90.4,101.8,68.3,111.3,61.2,114.2z"/>
<path class="st2" d="M73.9,74.9"/>
<path class="st2" d="M75.3,74.5"/>
<path class="st3" d="M32.2,115.5L7.4,140.4"/>
<path class="st3" d="M39.6,122.1"/>
<path class="st3" d="M7.4,140.4l26.8-12.2c2.2-1.1,3.8-3.2,3.8-3.2c0.5-0.7,1.2-1.7,1.7-3c0.4-1.1,0.6-2,0.6-2.7
	c0.1-0.7,0.1-1.7-0.1-2.9c-0.2-1.1-0.7-2.6-0.8-2.7c0,0-1.3,0.4-2.4,1.4c-0.1,0.1-0.6,0.4-1.2,0.7c-0.6,0.3-1,0.5-1.2,0.6
	c-0.3,0.1-1.1,0.2-2.3-0.8c-0.2-0.3-0.6-0.8-0.6-1.5c0-0.2,0-0.4,0-0.4c0-0.2,0.1-0.5,0.4-1.2c0.2-0.3,0.3-0.5,0.3-0.6
	c0.4-0.6,0.7-1.2,1-1.8c0,0,0.8-1.5,0.8-1.5c-0.9-0.4-2.4-0.9-4.4-1c-2.1,0-3.7,0.6-4.6,1c-2.7,1.3-4.3,2.8-5.4,4.8
	c-3.6,6.5-6.3,13.7-9.4,20.6C9.4,136,8.4,138.3,7.4,140.4z"/>
<path class="st2" d="M134.6,67.4"/>
<g>
	<g>
		<path class="st4" d="M147.6,2.6c-0.1-1.2-1-2.1-2.2-2.2c-1-0.1-23.7-1.8-50.5,10.5c-0.7,0.3-1.2,1-1.4,1.8
			c-0.1,0.8,0.1,1.6,0.7,2.2l39,39c0.5,0.5,1.1,0.7,1.7,0.7c0.1,0,0.3,0,0.4,0c0.8-0.1,1.5-0.7,1.8-1.4
			C149.4,26.4,147.7,3.6,147.6,2.6z M134,47.9l-33.9-33.9c19.6-8.3,36.8-8.8,42.7-8.8C142.9,11.1,142.3,28.2,134,47.9z"/>
	</g>
</g>
<g>
	<g>
		<path class="st4" d="M71.4,74.1H54.9c-0.9,0-1.7,0.5-2.2,1.3l-20.8,37.4c-0.5,1-0.3,2.2,0.4,3c0.5,0.5,1.1,0.7,1.7,0.7
			c0.4,0,0.9-0.1,1.3-0.3l37.4-22.7c0.7-0.4,1.2-1.2,1.2-2.1V76.6C73.9,75.2,72.8,74.1,71.4,74.1z M69,90L40.7,107l15.6-28l0,0H69
			L69,90L69,90z"/>
	</g>
</g>
<g id="Group_197" transform="translate(-139.625 -35.083)">
	<g id="Group_72" transform="translate(146.268 89.953)">
		<g id="Group_71">
			<path id="Path_22" class="st4" d="M40.3,2.7c-0.4-0.8-1.2-1.3-2-1.3L17.6,0c-1.1-0.1-2.1,0.5-2.5,1.6L0.2,39.8
				C-0.3,41,0.3,42.5,1.6,43c0.8,0.3,1.7,0.2,2.4-0.3l12.4-9.3l7.2,1.4c1.2,0.2,2.4-0.4,2.8-1.5C30,23.4,34.7,14,40.2,5.2
				C40.7,4.4,40.7,3.5,40.3,2.7z M22.5,29.5l-6.3-1.3c-0.7-0.1-1.4,0-2,0.4l-6.4,4.8L19,5l14.9,1C29.5,13.6,25.7,21.4,22.5,29.5
				L22.5,29.5z"/>
		</g>
	</g>
	<g id="Group_74" transform="translate(189.44 135.645)">
		<g id="Group_73">
			<path id="Path_23" class="st4" d="M43.1,23L41.7,2.3c-0.1-1.4-1.3-2.4-2.6-2.3c-0.4,0-0.8,0.2-1.1,0.4
				C29.1,5.9,19.7,10.6,9.9,14.2c-1.1,0.4-1.8,1.6-1.5,2.8l1.4,7.2L0.5,36.7c-0.8,1.1-0.6,2.6,0.5,3.5c0.4,0.3,0.9,0.5,1.5,0.5
				c0.3,0,0.6-0.1,0.9-0.2l38.2-14.9C42.6,25.1,43.2,24.1,43.1,23z M9.6,32.7l4.8-6.4c0.4-0.6,0.6-1.3,0.4-2l-1.3-6.3
				c8.1-3.2,16-7,23.5-11.4l1,14.9L9.6,32.7z"/>
		</g>
	</g>
	<g id="Group_78" transform="translate(167.854 35.083)">
		<g id="Group_77">
			<path id="Path_25" class="st4" d="M119.5,2.3c-0.1-1.2-1.1-2.2-2.2-2.3C116.4,0,35.3-5.6,0.2,86.3C-0.2,87.3,0,88.3,0.7,89
				l11.7,11.7c1,1,2.5,1,3.5,0c0.2-0.2,0.3-0.4,0.4-0.6l11.7-21.3h12.7v11l-21.4,13.5c-1.2,0.7-1.5,2.2-0.8,3.4
				c0.1,0.2,0.2,0.3,0.3,0.4l11.7,11.7c0.5,0.5,1.1,0.7,1.7,0.7c0.3,0,0.6-0.1,0.9-0.2C125.2,84.3,119.6,3.2,119.5,2.3z M106.6,46.1
				C97.9,67.4,78.1,96.5,33,114.2l-8.4-8.4l20-12.6c0.7-0.5,1.1-1.2,1.1-2.1V76.4c0-1.4-1.1-2.5-2.5-2.5H26.6
				c-0.9,0-1.7,0.5-2.2,1.3L13.6,94.9l-8.3-8.3C36.2,8,101.9,4.7,114.7,4.9C114.6,19,111.9,33,106.6,46.1z"/>
		</g>
	</g>
	<g id="Group_80" transform="translate(139.625 137.619)">
		<g id="Group_79">
			<path id="Path_26" class="st4" d="M42.2,6.3c-0.5-0.7-1.4-1.1-2.2-1c0.1-0.9-0.3-1.7-1-2.2c-3.8-2.8-8.6-3.8-13.2-2.6
				c-4.9,1.2-9,4.6-11.1,9.2l-14.6,32c-0.6,1.2,0,2.7,1.2,3.3c0.6,0.3,1.4,0.3,2,0l32-14.6c4.6-2.1,8-6.2,9.2-11.1
				C46,14.9,45,10,42.2,6.3z M40,18.2c-0.9,3.5-3.3,6.3-6.5,7.8L7.4,37.8l11.8-26.1c1.5-3.2,4.3-5.6,7.8-6.5C28,5,28.9,4.9,29.8,4.9
				c1.5,0,3,0.3,4.4,1L31.9,10c-0.7,1.2-0.2,2.7,0.9,3.4c0.8,0.4,1.7,0.4,2.4,0l4.2-2.3C40.4,13.3,40.6,15.8,40,18.2L40,18.2z"/>
		</g>
	</g>
</g>
</svg>
