<?xml version="1.0" encoding="utf-8"?>
<!-- Generator: Adobe Illustrator 23.0.4, SVG Export Plug-In . SVG Version: 6.00 Build 0)  -->
<svg version="1.1" id="Capa_1" xmlns="http://www.w3.org/2000/svg" xmlns:xlink="http://www.w3.org/1999/xlink" x="0px" y="0px"
	 viewBox="0 0 512 512" style="enable-background:new 0 0 512 512;" xml:space="preserve">
<style type="text/css">
	.st0{fill:#597690;}
</style>
<path class="st0" d="M456.1,0c-30.8,0-55.9,25.1-55.9,55.9c0,9.6,2.4,18.7,6.8,26.6L315.6,174c-12.6-9.8-28.4-15.7-45.6-15.7
	s-33,5.9-45.6,15.7L153,102.6c3.3-5.5,5.3-11.9,5.3-18.8c0-20.5-16.7-37.2-37.2-37.2S83.8,63.2,83.8,83.8S100.5,121,121,121
	c6.9,0,13.3-2,18.8-5.3l71.4,71.4c-9.8,12.6-15.7,28.4-15.7,45.6s5.9,33,15.7,45.6L93.3,396.2c-9.9-9-23-14.5-37.5-14.5
	c-30.7,0-55.8,25-55.8,55.8s25.1,55.9,55.9,55.9s55.9-25.1,55.9-55.9c0-9.6-2.4-18.7-6.8-26.6l119.4-119.4
	c10.3,8,22.7,13.4,36.3,15.1v94.6c-26.4,4.4-46.5,27.4-46.5,55c0,30.8,25.1,55.9,55.9,55.9S326,487,326,456.2
	c0-27.6-20.2-50.6-46.5-55v-94.6c13.6-1.7,26-7.1,36.3-15.1l71.4,71.4c-3.3,5.5-5.3,11.9-5.3,18.8c0,20.5,16.7,37.2,37.2,37.2
	s37.2-16.7,37.2-37.2s-16.7-37.2-37.2-37.2c-6.9,0-13.3,2-18.8,5.3l-71.4-71.4c9.8-12.6,15.7-28.4,15.7-45.6s-5.9-33-15.7-45.6
	l90-90c9.9,9,23,14.5,37.5,14.5c30.8,0,55.9-25.1,55.9-55.9S486.9,0,456.1,0z M102.4,83.8c0-10.3,8.4-18.6,18.6-18.6
	s18.6,8.4,18.6,18.6s-8.4,18.6-18.6,18.6S102.4,94,102.4,83.8z M55.9,474.8c-20.5,0-37.2-16.7-37.2-37.2s16.7-37.2,37.2-37.2
	s37.2,16.7,37.2,37.2S76.4,474.8,55.9,474.8z M307.2,456.1c0,20.5-16.7,37.2-37.2,37.2s-37.2-16.7-37.2-37.2s16.7-37.2,37.2-37.2
	S307.2,435.6,307.2,456.1z M270,288.6c-30.8,0-55.9-25.1-55.9-55.9s25.1-55.9,55.9-55.9s55.9,25.1,55.9,55.9S300.8,288.6,270,288.6z
	 M437.5,381.7c0,10.3-8.4,18.6-18.6,18.6c-10.3,0-18.6-8.4-18.6-18.6c0-10.3,8.4-18.6,18.6-18.6
	C429.2,363.1,437.5,371.4,437.5,381.7z M456.1,93.1c-20.5,0-37.2-16.7-37.2-37.2s16.7-37.2,37.2-37.2s37.2,16.7,37.2,37.2
	S476.7,93.1,456.1,93.1z"/>
</svg>
