<?xml version="1.0" encoding="utf-8"?>
<!-- Generator: Adobe Illustrator 23.0.4, SVG Export Plug-In . SVG Version: 6.00 Build 0)  -->
<svg version="1.1" id="Capa_1" xmlns="http://www.w3.org/2000/svg" xmlns:xlink="http://www.w3.org/1999/xlink" x="0px" y="0px"
	 viewBox="0 0 512 512" style="enable-background:new 0 0 512 512;" xml:space="preserve">
<style type="text/css">
	.st0{fill:#597690;}
</style>
<g transform="translate(-1)">
	<g>
		<g>
			<path class="st0" d="M257.1,59.8c-66,0-119.4,53.5-119.4,119.4c0.1,65.9,53.5,119.4,119.4,119.4c66,0,119.4-53.5,119.4-119.4
				S323,59.8,257.1,59.8z M257.1,281.6c-56.5,0-102.4-45.8-102.4-102.4c0.1-56.5,45.9-102.3,102.4-102.4
				c56.5,0,102.4,45.8,102.4,102.4S313.6,281.6,257.1,281.6z"/>
			<path class="st0" d="M512.9,406.6c-1.5-17.6-16.3-31.2-34-31.1c-15.5,0.1-29,10.6-32.9,25.6h-69.5c-4.7,0-8.5-3.8-8.5-8.5v-34.1
				h36.9c17.3,0,31.4-14.1,31.4-31.4V31.4c0-17.3-14.1-31.4-31.4-31.4H111.7C93,0.1,77.9,15.2,77.9,33.8V327
				c0,17.3,14.1,31.4,31.4,31.4h36.9v34.1c0,4.7-3.8,8.5-8.5,8.5H68.2c-4.3-16.6-20.3-27.5-37.3-25.3C13.8,377.9,1,392.4,1,409.6
				s12.8,31.7,29.8,33.9c17,2.2,33-8.7,37.3-25.3h69.5c14.1,0,25.6-11.5,25.6-25.6v-34.1h34.1v102.4c0,4.7-3.8,8.5-8.5,8.5h-18.3
				c-4.3-16.6-20.3-27.5-37.3-25.3c-17,2.2-29.8,16.7-29.8,33.9s12.8,31.7,29.8,33.9s33-8.7,37.3-25.3h18.3
				c14.1,0,25.6-11.5,25.6-25.6V358.4h85.3v102.4c0,14.1,11.5,25.6,25.6,25.6h18.3c4.3,16.6,20.3,27.5,37.3,25.3
				s29.8-16.7,29.8-33.9S398,446.1,380.9,444c-17-2.2-33,8.7-37.3,25.3h-18.3c-4.7,0-8.5-3.8-8.5-8.5V358.4h34.1v34.1
				c0,14.1,11.5,25.6,25.6,25.6H446c4.5,17.1,21.3,28,38.7,25C502.2,440.1,514.4,424.2,512.9,406.6z M35.3,426.6
				c-9.4,0-17.1-7.6-17.1-17.1c0-9.4,7.6-17.1,17.1-17.1s17.1,7.6,17.1,17.1C52.3,419,44.7,426.6,35.3,426.6z M137.6,494.9
				c-9.4,0-17.1-7.6-17.1-17.1c0-9.4,7.6-17.1,17.1-17.1c9.4,0,17.1,7.6,17.1,17.1C154.7,487.2,147.1,494.9,137.6,494.9z
				 M376.5,460.8c9.4,0,17.1,7.6,17.1,17.1c0,9.4-7.6,17.1-17.1,17.1c-9.4,0-17.1-7.6-17.1-17.1
				C359.4,468.4,367.1,460.8,376.5,460.8z M109.3,341.3c-7.9,0-14.3-6.4-14.3-14.3V33.8c0-9.2,7.5-16.7,16.7-16.7h293.2
				c7.9,0,14.3,6.4,14.3,14.3V327c0,7.9-6.4,14.3-14.3,14.3H109.3z M478.9,426.6c-9.4,0-17.1-7.6-17.1-17.1
				c0-9.4,7.6-17.1,17.1-17.1s17.1,7.6,17.1,17.1C495.9,419,488.3,426.6,478.9,426.6z"/>
			<path class="st0" d="M257.1,204.8c-18.8,0-34.1,15.3-34.1,34.1v8.5c0,4.7,3.8,8.5,8.5,8.5h51.2c4.7,0,8.5-3.8,8.5-8.5v-8.5
				C291.2,220.1,275.9,204.8,257.1,204.8z M240,238.9c0-9.4,7.6-17.1,17.1-17.1c9.4,0,17.1,7.6,17.1,17.1H240z"/>
			<path class="st0" d="M240,162.2v-25.6c0-14.1-11.5-25.6-25.6-25.6s-25.6,11.5-25.6,25.6v25.6c0,14.1,11.5,25.6,25.6,25.6
				S240,176.3,240,162.2z M222.9,162.2c0,4.7-3.8,8.5-8.5,8.5c-4.7,0-8.5-3.8-8.5-8.5v-25.6c0-4.7,3.8-8.5,8.5-8.5
				c4.7,0,8.5,3.8,8.5,8.5V162.2z"/>
			<path class="st0" d="M299.7,111c-14.1,0-25.6,11.5-25.6,25.6v25.6c0,14.1,11.5,25.6,25.6,25.6c14.1,0,25.6-11.5,25.6-25.6v-25.6
				C325.3,122.4,313.9,111,299.7,111z M308.3,162.2c0,4.7-3.8,8.5-8.5,8.5s-8.5-3.8-8.5-8.5v-25.6c0-4.7,3.8-8.5,8.5-8.5
				s8.5,3.8,8.5,8.5V162.2z"/>
			<path class="st0" d="M118.1,173.2c-0.4-0.4-0.8-0.7-1.3-1c-0.5-0.3-1-0.6-1.5-0.8c-0.5-0.3-1.1-0.4-1.6-0.5
				c-1.1-0.2-2.2-0.2-3.3,0c-0.5,0.1-1.1,0.3-1.5,0.5c-0.5,0.2-1.1,0.4-1.5,0.8c-0.4,0.3-0.9,0.7-1.3,1c-0.8,0.8-1.4,1.8-1.8,2.8
				c-0.5,1-0.7,2.1-0.7,3.2c0,1.1,0.2,2.2,0.6,3.2c0.5,1,1.1,2,1.9,2.8c0.8,0.7,1.8,1.4,2.8,1.8c2.1,0.9,4.4,0.9,6.5,0
				c1-0.4,2-1,2.8-1.8c0.8-0.8,1.4-1.8,1.8-2.8c0.9-2.1,0.9-4.4,0-6.5C119.5,174.9,118.8,174,118.1,173.2z"/>
			<path class="st0" d="M408.2,185.3c0.8-0.8,1.4-1.8,1.8-2.8c0.9-2.1,0.9-4.4,0-6.5c-0.4-1-1-2-1.8-2.8c-0.4-0.4-0.8-0.7-1.3-1
				c-0.5-0.3-1-0.6-1.5-0.8c-0.5-0.3-1.1-0.4-1.6-0.5c-1.1-0.2-2.2-0.2-3.3,0c-0.5,0.1-1.1,0.3-1.5,0.5c-0.5,0.2-1.1,0.4-1.5,0.8
				c-0.4,0.3-0.9,0.7-1.3,1c-0.8,0.8-1.4,1.8-1.8,2.8c-0.5,1-0.7,2.1-0.7,3.2c0,1.1,0.2,2.2,0.6,3.2c0.5,1,1.1,2,1.9,2.8
				c0.8,0.7,1.8,1.4,2.8,1.8c2.1,0.9,4.4,0.9,6.5,0C406.4,186.6,407.3,186,408.2,185.3z"/>
		</g>
	</g>
</g>
</svg>
