<?xml version="1.0" encoding="iso-8859-1"?>
<!-- Generator: Adobe Illustrator 19.0.0, SVG Export Plug-In . SVG Version: 6.00 Build 0)  -->
<svg xmlns="http://www.w3.org/2000/svg" xmlns:xlink="http://www.w3.org/1999/xlink" version="1.1" id="Capa_1" x="0px" y="0px" viewBox="0 0 512.12 512.12" style="enable-background:new 0 0 512.12 512.12;" xml:space="preserve" width="512px" height="512px">
<g transform="translate(-1)">
	<g>
		<g>
			<path d="M257.128,59.792c-65.98,0-119.467,53.487-119.467,119.467c0.071,65.95,53.516,119.396,119.467,119.467     c65.98,0,119.467-53.487,119.467-119.467S323.107,59.792,257.128,59.792z M257.128,281.659c-56.554,0-102.4-45.846-102.4-102.4     c0.061-56.529,45.871-102.339,102.4-102.4c56.554,0,102.4,45.846,102.4,102.4S313.682,281.659,257.128,281.659z" fill="#FFFFFF"/>
			<path d="M512.993,406.673c-1.52-17.638-16.295-31.174-33.998-31.148c-15.517,0.058-29.042,10.576-32.922,25.6h-69.478     c-4.713,0-8.533-3.821-8.533-8.533v-34.133h36.881c17.328-0.014,31.372-14.058,31.386-31.386V31.436     c-0.019-17.325-14.061-31.363-31.386-31.377H111.72C93.065,0.078,77.947,15.196,77.928,33.851v293.222     c0.014,17.328,14.058,31.371,31.386,31.386h36.881v34.133c0,4.713-3.82,8.533-8.533,8.533H68.183     c-4.297-16.643-20.299-27.494-37.35-25.328C13.781,377.963,1,392.471,1,409.659s12.781,31.695,29.832,33.861     s33.053-8.685,37.35-25.328h69.478c14.138,0,25.6-11.462,25.6-25.6v-34.133h34.133v102.4c0,4.713-3.82,8.533-8.533,8.533h-18.278     c-4.297-16.643-20.299-27.494-37.35-25.328c-17.051,2.166-29.832,16.673-29.832,33.861s12.781,31.695,29.832,33.861     c17.051,2.166,33.053-8.685,37.35-25.328h18.278c14.138,0,25.6-11.462,25.6-25.6v-102.4h85.333v102.4     c0,14.138,11.462,25.6,25.6,25.6h18.278c4.297,16.643,20.299,27.494,37.35,25.328c17.051-2.166,29.832-16.673,29.832-33.861     s-12.781-31.695-29.832-33.861c-17.051-2.166-33.053,8.685-37.35,25.328h-18.278c-4.713,0-8.533-3.82-8.533-8.533v-102.4h34.133     v34.133c0,14.138,11.461,25.6,25.6,25.6h69.478c4.465,17.131,21.305,27.99,38.752,24.987     C502.272,440.176,514.513,424.312,512.993,406.673z M35.261,426.726c-9.426,0-17.067-7.641-17.067-17.067     s7.641-17.067,17.067-17.067s17.067,7.641,17.067,17.067S44.687,426.726,35.261,426.726z M137.661,494.992     c-9.426,0-17.067-7.641-17.067-17.067s7.641-17.067,17.067-17.067s17.067,7.641,17.067,17.067S147.087,494.992,137.661,494.992z      M376.595,460.859c9.426,0,17.067,7.641,17.067,17.067s-7.641,17.067-17.067,17.067s-17.067-7.641-17.067-17.067     S367.169,460.859,376.595,460.859z M109.313,341.392c-7.904-0.009-14.31-6.415-14.319-14.319V33.851     c0.009-9.233,7.492-16.716,16.725-16.725h293.222c7.903,0.005,14.31,6.408,14.319,14.31v295.637     c-0.009,7.904-6.415,14.31-14.319,14.319H109.313z M478.995,426.726c-9.426,0-17.067-7.641-17.067-17.067     s7.641-17.067,17.067-17.067s17.067,7.641,17.067,17.067S488.42,426.726,478.995,426.726z" fill="#FFFFFF"/>
			<path d="M257.128,204.859c-18.851,0-34.133,15.282-34.133,34.133v8.533c0,4.713,3.82,8.533,8.533,8.533h51.2     c4.713,0,8.533-3.82,8.533-8.533v-8.533C291.261,220.141,275.979,204.859,257.128,204.859z M240.061,238.992     c0-9.426,7.641-17.067,17.067-17.067c9.426,0,17.067,7.641,17.067,17.067H240.061z" fill="#FFFFFF"/>
			<path d="M240.061,162.192v-25.6c0-14.138-11.461-25.6-25.6-25.6c-14.139,0-25.6,11.461-25.6,25.6v25.6     c0,14.138,11.461,25.6,25.6,25.6C228.6,187.792,240.061,176.331,240.061,162.192z M222.995,162.192     c0,4.713-3.821,8.533-8.533,8.533c-4.713,0-8.533-3.82-8.533-8.533v-25.6c0-4.713,3.821-8.533,8.533-8.533     c4.713,0,8.533,3.82,8.533,8.533V162.192z" fill="#FFFFFF"/>
			<path d="M299.795,110.992c-14.138,0-25.6,11.461-25.6,25.6v25.6c0,14.138,11.461,25.6,25.6,25.6s25.6-11.461,25.6-25.6v-25.6     C325.395,122.454,313.933,110.992,299.795,110.992z M308.328,162.192c0,4.713-3.82,8.533-8.533,8.533s-8.533-3.82-8.533-8.533     v-25.6c0-4.713,3.82-8.533,8.533-8.533s8.533,3.82,8.533,8.533V162.192z" fill="#FFFFFF"/>
			<path d="M118.12,173.2c-0.407-0.365-0.835-0.707-1.28-1.024c-0.475-0.325-0.991-0.583-1.536-0.768     c-0.511-0.262-1.062-0.438-1.63-0.521c-1.093-0.248-2.227-0.248-3.319,0c-0.535,0.096-1.053,0.271-1.536,0.521     c-0.547,0.185-1.067,0.443-1.545,0.768c-0.443,0.317-0.867,0.659-1.271,1.024c-0.755,0.828-1.361,1.781-1.792,2.816     c-0.478,1.013-0.712,2.123-0.683,3.243c-0.015,1.109,0.185,2.21,0.589,3.243c0.503,1.017,1.137,1.964,1.886,2.816     c0.832,0.75,1.784,1.356,2.816,1.792c2.066,0.91,4.419,0.91,6.485,0c1.031-0.438,1.982-1.044,2.816-1.792     c0.751-0.831,1.357-1.783,1.792-2.816c0.91-2.066,0.91-4.419,0-6.485C119.481,174.981,118.875,174.029,118.12,173.2z" fill="#FFFFFF"/>
			<path d="M408.253,185.318c0.751-0.831,1.357-1.783,1.792-2.816c0.911-2.066,0.911-4.419,0-6.485     c-0.431-1.035-1.037-1.987-1.792-2.816c-0.407-0.365-0.835-0.707-1.28-1.024c-0.475-0.325-0.991-0.583-1.536-0.768     c-0.511-0.262-1.062-0.438-1.63-0.521c-1.093-0.248-2.227-0.248-3.32,0c-0.535,0.096-1.053,0.271-1.536,0.521     c-0.547,0.185-1.067,0.443-1.545,0.768c-0.443,0.317-0.867,0.659-1.271,1.024c-0.755,0.828-1.361,1.781-1.792,2.816     c-0.478,1.013-0.712,2.123-0.683,3.243c-0.015,1.109,0.185,2.21,0.589,3.243c0.503,1.017,1.137,1.964,1.886,2.816     c0.832,0.75,1.784,1.356,2.816,1.792c2.066,0.911,4.419,0.911,6.485,0C406.468,186.672,407.42,186.066,408.253,185.318z" fill="#FFFFFF"/>
		</g>
	</g>
</g>
<g>
</g>
<g>
</g>
<g>
</g>
<g>
</g>
<g>
</g>
<g>
</g>
<g>
</g>
<g>
</g>
<g>
</g>
<g>
</g>
<g>
</g>
<g>
</g>
<g>
</g>
<g>
</g>
<g>
</g>
</svg>
