<svg id="svg3371" xmlns="http://www.w3.org/2000/svg" viewBox="0 0 692.1 333"><defs><style>.cls-1{fill:#4ab1d9;}.cls-2{fill:#0f5481;}.cls-3{fill:#597690;}</style></defs><title>Logo</title><g id="Color_Logo" data-name="Color Logo"><path id="path3475" class="cls-1" d="M403.93,72.42H360V67l.12-47.24V7H360a51,51,0,0,0-12.21-1.34v146A67,67,0,0,0,360,150.26h.12V137.51L360,90.27V84.81h44.77c-.24,1.94-.48,3.64-.84,5.46a59.76,59.76,0,0,1-32.56,42.87v13.6c23.34-9.11,40.82-30.6,44.89-56.47.24-1.7.48-3.64.6-5.46.12-2.07.23-4,.23-6.32,0-30.23-17.95-57.56-45.72-68.24v13.6c18.07,9.23,32.56,27.69,32.56,48.57"/><path id="path3477" class="cls-2" d="M332.1,19.72A51.16,51.16,0,0,1,344.31,18V5.63A67.92,67.92,0,0,0,332.1,7c-29,5.83-51.47,29.87-56.26,59.87-.24,1.7-.48,3.64-.6,5.46-.12,2.07-.23,4-.23,6.32s.11,4.25.23,6.31H332.1v52.58c-22.14-5.59-39.5-24-43.93-47.24H275.84c4.67,30,27.3,54,56.26,59.87a51,51,0,0,0,12.21,1.34V72.3H287.45c.24-1.94.48-3.64.84-5.46A59.77,59.77,0,0,1,332.1,19.72"/><path id="path3479" class="cls-1" d="M608.14,245.46h19c.12,2.19,1.31,3.65,3.59,4.62s6.22,1.21,12.09,1.21c6.1,0,10.17-.24,12.33-1.09s3.23-1.94,3.23-3.76-1.08-2.92-3.11-3.53c-1-.24-6.23-.36-15.92-.48-9,0-14.61-.12-16.64-.37-5.87-1-9.82-2.79-11.85-5.82-1.56-2.31-2.28-5.47-2.28-9.35,0-7.53,2.76-12.39,8.14-14.7,4.07-1.7,12.93-2.55,26.34-2.55,8.5,0,14.72.24,18.55,1.09a17.13,17.13,0,0,1,9,3.77,10.27,10.27,0,0,1,2.87,4,26.85,26.85,0,0,1,1.2,7h-19c-.36-1.34-.72-2.19-1.32-2.43-1.56-1.09-5.51-1.46-11.73-1.46-5.87,0-9.82.25-12,1-2.16.48-3.23,1.7-3.23,3.27,0,2.07,1.43,3.28,4.54,3.4q3.6.19,25.5.37c7.06,0,12.09,1.33,15.2,3.64s4.79,6.44,4.79,12.27a19.94,19.94,0,0,1-1.91,9.47,11.35,11.35,0,0,1-5.87,5.46c-4.43,2.07-13.76,3.16-28,3.16-9.1,0-15.68-.24-19.63-1.09s-7.06-2.19-9.34-4.25c-2.87-3-4.43-7.29-4.55-12.88"/><path id="path3481" class="cls-1" d="M582.65,189.36h18.67v72.38H582.65Z"/><path id="path3483" class="cls-1" d="M555.59,189.36h18.68v72.38H555.59Z"/><path id="path3485" class="cls-1" d="M528.42,189.36h18.67v14.33H528.42Z"/><path id="path3487" class="cls-1" d="M528.42,210.49h18.67v51.25H528.42Z"/><path id="path3489" class="cls-1" d="M425.83,189.36h22.51v26h48.48v-26h22.5v72.38h-22.5V235.63H448.34v26.11H425.83Z"/><path id="path3491" class="cls-2" d="M322.65,210.49h17.59v7.77h1.08a13.87,13.87,0,0,1,7.3-7c3.24-1.34,7.78-2.06,13.89-2.06s10.65.36,14.12,1.45a17.7,17.7,0,0,1,8.38,5,15.68,15.68,0,0,1,4.43,8c.72,2.91,1.08,8,1.08,15V262H371.85V238.54a44.29,44.29,0,0,0-.48-8.38,7.07,7.07,0,0,0-1.92-3.76c-1.79-1.7-6-2.79-12.45-2.79s-10.77,1.21-12.81,3.4a10.47,10.47,0,0,0-2.27,4.61,59.51,59.51,0,0,0-.48,9.84V262H322.77l-.12-51.49Z"/><path id="path3493" class="cls-2" d="M296.67,245.34h18.68c-.48,5.59-2.16,9.47-4.91,12-2.4,2.18-5.87,3.64-10.18,4.49s-11,1.33-19.75,1.33c-7.3,0-12.81-.24-16.76-1.09s-6.94-1.94-9.21-3.64a14.69,14.69,0,0,1-4.91-7.41c-.84-3.16-1.32-8-1.32-14.33a83.32,83.32,0,0,1,.48-10.93,22.81,22.81,0,0,1,1.92-6.68c2-4,5.62-6.8,10.77-8.13,4.43-1.1,11.37-1.58,20.83-1.58,8.38,0,14.24.24,17.59,1,6.11,1.09,10.18,3.4,12.45,7s3.35,9.6,3.35,18c0,1,0,2.42-.11,5.1H266.75a20.88,20.88,0,0,0,.47,5.58,5.06,5.06,0,0,0,1.92,2.79c1.91,1.46,6.1,2.07,12.57,2.07a84.47,84.47,0,0,0,9.34-.37,9.31,9.31,0,0,0,4.31-1.57,9.45,9.45,0,0,0,1.31-3.65Zm.24-15.54c-.12-2.06-.24-3.4-.36-4.25a6.66,6.66,0,0,0-1.08-2.06c-1.67-1.7-6-2.43-12.92-2.43-6.35,0-10.42.48-12.45,1.7s-3.11,3.52-3.23,7Z"/><path id="path3495" class="cls-2" d="M174.33,210.49h21.31L211.2,247l15.44-36.55h21.19l-24.66,51.25H199Z"/><path id="path3497" class="cls-2" d="M155.06,245.34h18.68c-.48,5.59-2.16,9.47-4.91,12-2.4,2.18-5.87,3.64-10.18,4.49s-11,1.33-19.75,1.33c-7.3,0-12.81-.24-16.76-1.09s-6.94-1.94-9.21-3.64a14.69,14.69,0,0,1-4.91-7.41c-.84-3.16-1.32-8-1.32-14.33a83.32,83.32,0,0,1,.48-10.93,23.12,23.12,0,0,1,1.91-6.68c2-4,5.63-6.8,10.78-8.13,4.43-1.1,11.37-1.58,20.83-1.58,8.38,0,14.24.24,17.59,1,6.11,1.09,10.18,3.4,12.45,7s3.35,9.6,3.35,18c0,1,0,2.42-.12,5.1H125.13a20.36,20.36,0,0,0,.48,5.58,5.06,5.06,0,0,0,1.92,2.79c1.91,1.46,6.1,2.07,12.57,2.07a84.14,84.14,0,0,0,9.33-.37,9.21,9.21,0,0,0,4.31-1.57,9.29,9.29,0,0,0,1.32-3.65Zm.24-15.54c-.12-2.06-.24-3.4-.36-4.25a6.66,6.66,0,0,0-1.08-2.06c-1.67-1.7-6-2.43-12.92-2.43-6.35,0-10.42.48-12.45,1.7s-3.12,3.52-3.24,7Z"/><path id="path3499" class="cls-2" d="M15,237.94H35.84c0,3.64.71,5.82,2.15,7a8,8,0,0,0,3.95,1.21c1.68.12,6.82.12,15.44.25,9.1,0,14.49-.13,16.28-.13s3.23-.24,4.31-1c1.56-.73,2.4-2.43,2.4-5.46,0-2.19-.6-3.64-1.68-4.25s-3.35-1.22-6.82-1.22c-2.64,0-8.26-.12-16.76-.48-8.74-.37-14.49-.73-17.12-.73a51.93,51.93,0,0,1-11.85-1.46,14.42,14.42,0,0,1-6.46-4c-2.64-3.16-4-8.38-4-15.55,0-8.26,1.56-14,4.55-17.24,2.28-2.55,5.87-4.25,10.66-5s14.48-1.09,29.09-1.09c10.29,0,17.59.24,21.78,1,6.47,1,10.89,2.79,13.29,5.58s3.59,7.41,3.59,14.09v3.4h-21a17.41,17.41,0,0,0-.48-4,2.72,2.72,0,0,0-1.55-1.7,12.39,12.39,0,0,0-4.91-1.09c-2.28-.12-7.3-.24-14.84-.24-9.1,0-14.73.24-16.64,1-2,.48-3,2.18-3,4.86,0,2.42,1,4,3,4.73,1.67.37,9.21,1,22.74,1.34,11.37.24,19,.73,22.86,1.33a19.77,19.77,0,0,1,9.1,2.8,13.1,13.1,0,0,1,5.51,6.68c1.08,2.91,1.55,6.8,1.55,12,0,6.92-.95,11.9-2.63,15.3a12.9,12.9,0,0,1-5.63,5.46,27.53,27.53,0,0,1-10,2.43c-4.67.37-13.29.49-26,.49-10.53,0-18.43-.25-23.46-1-5-.49-8.86-1.58-11.37-3.16a13.39,13.39,0,0,1-5.51-6.07c-1-2.43-1.55-6.44-1.55-11.66l.12-4.49Z"/><g id="text3501"><path id="path3624" class="cls-3" d="M14.78,288.4h26V292h-11v28H25.63V292h-11A31.6,31.6,0,0,0,14.78,288.4Z"/><path id="path3626" class="cls-3" d="M110.05,307.2v1.89H92.54a9.4,9.4,0,0,0,2.35,6.23,8.38,8.38,0,0,0,5.88,2.11A17.29,17.29,0,0,0,105,317a24.61,24.61,0,0,0,4-1.56V319a25.49,25.49,0,0,1-4.18,1.33,27.22,27.22,0,0,1-4.31.34c-3.66,0-6.67-1.11-8.76-3.34a12.51,12.51,0,0,1-3.27-9,13.77,13.77,0,0,1,3-9.23,10.84,10.84,0,0,1,8.23-3.45,9.18,9.18,0,0,1,7.32,3.12c2.09,2.22,3,4.78,3,8.45ZM106.26,306a7.84,7.84,0,0,0-1.7-5.12,5.89,5.89,0,0,0-4.44-1.89,7.21,7.21,0,0,0-5.1,1.89,8.13,8.13,0,0,0-2.22,5.23l13.46-.11Z"/><path id="path3628" class="cls-3" d="M180,297.08v3.56a9,9,0,0,0-3.26-1.34,16.49,16.49,0,0,0-3.27-.33,7.74,7.74,0,0,0-5.75,2.33,10.35,10.35,0,0,0-2.09,6.68c0,3,.65,5.11,2.09,6.67a7.14,7.14,0,0,0,5.75,2.34,15.79,15.79,0,0,0,3.27-.34,20.32,20.32,0,0,0,3.26-1.33v3.56a13.52,13.52,0,0,1-6.92,1.56,10.44,10.44,0,0,1-8.24-3.34c-2-2.23-3-5.23-3-9.12s1-6.79,3.14-9.12a11.13,11.13,0,0,1,8.49-3.34,16.83,16.83,0,0,1,3.4.33,25.17,25.17,0,0,0,3.13,1.23Z"/><path id="path3630" class="cls-3" d="M254.85,305.75V320.1h-3.79V305.86a8.34,8.34,0,0,0-1.31-5.11,4.46,4.46,0,0,0-3.79-1.56,6.08,6.08,0,0,0-4.84,2,8.16,8.16,0,0,0-1.82,5.45V320h-3.79V287.18h3.79v12.9a9.34,9.34,0,0,1,3.13-3.23,8.73,8.73,0,0,1,4.31-1.11,7.32,7.32,0,0,1,6,2.56c1.43,1.67,2.09,4.12,2.09,7.45Z"/><path id="path3632" class="cls-3" d="M328,305.75V320.1h-3.79V305.86a8.27,8.27,0,0,0-1.31-5.11,4.46,4.46,0,0,0-3.79-1.56,6,6,0,0,0-4.83,2,8.11,8.11,0,0,0-1.83,5.45V320h-3.79v-23.8h3.79v3.56a9.28,9.28,0,0,1,3.14-3.23,8.57,8.57,0,0,1,4.31-1.11,7.31,7.31,0,0,1,6,2.56c1.44,2,2.09,4.45,2.09,7.78Z"/><path id="path3634" class="cls-3" d="M390.76,299.08a6,6,0,0,0-4.84,2.33,11.2,11.2,0,0,0-1.83,6.68c0,2.89.53,5.12,1.7,6.67a5.69,5.69,0,0,0,4.84,2.34,6.13,6.13,0,0,0,4.83-2.34,13.09,13.09,0,0,0,0-13.35,5.44,5.44,0,0,0-4.7-2.33Zm0-3.34a9.47,9.47,0,0,1,7.71,3.34c1.83,2.11,2.87,5.23,2.87,9.12s-.91,6.9-2.87,9.12a10.72,10.72,0,0,1-15.55,0c-1.83-2.22-2.75-5.23-2.75-9.12s.92-6.9,2.75-9.12A9.91,9.91,0,0,1,390.76,295.74Z"/><path id="path3636" class="cls-3" d="M455.58,287.07h3.79v32.81h-3.79Z"/><path id="path3638" class="cls-3" d="M516.87,299.08a6,6,0,0,0-4.83,2.33,11.13,11.13,0,0,0-1.83,6.68c0,2.89.52,5.12,1.69,6.67a5.69,5.69,0,0,0,4.84,2.34,6.16,6.16,0,0,0,4.84-2.34,13.15,13.15,0,0,0,0-13.35A5.32,5.32,0,0,0,516.87,299.08Zm0-3.34a9.47,9.47,0,0,1,7.71,3.34c1.83,2.11,2.88,5.23,2.88,9.12s-.92,6.9-2.88,9.12a10.72,10.72,0,0,1-15.55,0c-1.83-2.22-2.74-5.23-2.74-9.12s.91-6.9,2.74-9.12A9.91,9.91,0,0,1,516.87,295.74Z"/><path id="path3640" class="cls-3" d="M597,307.87c0-2.9-.52-5-1.7-6.57a5.5,5.5,0,0,0-4.7-2.22,5.78,5.78,0,0,0-4.71,2.22c-1.17,1.56-1.7,3.67-1.7,6.57s.53,5,1.7,6.56a5.51,5.51,0,0,0,4.71,2.22,5.75,5.75,0,0,0,4.7-2.22A11.45,11.45,0,0,0,597,307.87Zm3.79,9.12c0,4.11-.91,6.89-2.61,9s-4.45,3-8,3c-1.31,0-2.62-.11-3.79-.22a9.16,9.16,0,0,1-3.4-1v-3.67a11.56,11.56,0,0,0,3.26,1.33,16.57,16.57,0,0,0,3.27.33,7.43,7.43,0,0,0,5.62-2c1.18-1.33,1.83-3.33,1.83-6.12v-1.89a9.38,9.38,0,0,1-3,3.12,8.86,8.86,0,0,1-11.23-2.23,14,14,0,0,1-2.62-8.78,14.26,14.26,0,0,1,2.62-8.79,8.21,8.21,0,0,1,6.79-3.34A8.09,8.09,0,0,1,597,300v-3.56h3.79V317Z"/><path id="path3642" class="cls-3" d="M665.33,322.21c-1.05,2.9-2.09,4.68-3.14,5.46a6.61,6.61,0,0,1-4.05,1.33h-3v-3.23h2.22a3.17,3.17,0,0,0,2.48-.89,12.54,12.54,0,0,0,2-3.55l.65-1.78-9.27-23.25h4.05l7.18,18.46,7.19-18.46h4l-10.32,25.91Z"/></g></g></svg>