<svg xmlns="http://www.w3.org/2000/svg" viewBox="0 0 692.13 276.19"><defs><style>.cls-1{fill:#4ab1d9;}.cls-2{fill:#0f5481;}.cls-3{fill:#4d4d4d;}</style></defs><title>Asset 1</title><g id="Layer_2" data-name="Layer 2"><g id="Layer_1-2" data-name="Layer 1"><g id="g3379"><path id="path3475" class="cls-1" d="M406.5,57.13H360.63V52.5l.12-40.25V1.37h-.12A71.23,71.23,0,0,0,347.88.25V124.62a105.28,105.28,0,0,0,12.75-1.12h.12V112.62l-.12-40.25V67.75h46.75c-.25,1.62-.5,3.12-.88,4.62-3.75,16.25-16.62,29.75-34,36.63v11.62c24.38-7.75,42.63-26.12,46.88-48.25.25-1.5.5-3.12.62-4.62.13-1.75.25-3.5.25-5.38,0-25.87-18.75-49.12-47.75-58.25V15.75c18.88,7.75,34,23.5,34,41.38"/><path id="path3477" class="cls-2" d="M331.5,12.13a71.22,71.22,0,0,1,12.75-1.51V0A103.29,103.29,0,0,0,331.5,1.13c-30.25,5-53.75,25.5-58.75,51.12-.25,1.5-.5,3.13-.62,4.63-.13,1.75-.25,3.5-.25,5.37s.12,3.63.25,5.38H331.5V112.5c-23.12-4.75-41.25-20.5-45.87-40.25H272.75c4.88,25.63,28.5,46.13,58.75,51.13a71.23,71.23,0,0,0,12.75,1.12V57H284.88c.25-1.62.5-3.12.87-4.62,4.5-19.76,22.5-35.5,45.75-40.25"/><path id="path3479" class="cls-1" d="M619.75,204.88h19.88c.12,1.87,1.37,3.12,3.75,3.87s6.5,1,12.62,1c6.38,0,10.63-.25,12.88-.88s3.37-1.62,3.37-3.24-1.12-2.5-3.25-3c-1-.25-6.5-.37-16.62-.5-9.38,0-15.25-.12-17.38-.37-6.12-.75-10.25-2.38-12.37-5-1.63-2-2.38-4.63-2.38-8,0-6.5,2.88-10.63,8.5-12.63,4.25-1.5,13.5-2.25,27.5-2.25,8.88,0,15.38.25,19.38.88A20.1,20.1,0,0,1,685,178a8.74,8.74,0,0,1,3,3.5,19.63,19.63,0,0,1,1.25,6H669.38c-.38-1.13-.75-1.88-1.38-2.13-1.62-.87-5.75-1.25-12.25-1.25-6.12,0-10.25.25-12.5.75s-3.37,1.5-3.37,2.75c0,1.75,1.5,2.75,4.75,2.88q3.75.18,26.62.37c7.38,0,12.63,1.13,15.88,3.13s5,5.5,5,10.5a14.53,14.53,0,0,1-2,8.12,10.76,10.76,0,0,1-6.13,4.63q-6.93,2.63-29.25,2.62c-9.5,0-16.37-.25-20.5-.87a21.92,21.92,0,0,1-9.75-3.63c-3-2.24-4.62-5.74-4.75-10.49"/><path id="path3481" class="cls-1" d="M593.13,157h19.5v61.75h-19.5Z"/><path id="path3483" class="cls-1" d="M564.88,157h19.5v61.75h-19.5Z"/><path id="path3485" class="cls-1" d="M536.5,157H556v12.25H536.5Z"/><path id="path3487" class="cls-1" d="M536.5,175H556v43.75H536.5Z"/><path id="path3489" class="cls-1" d="M429.38,157h23.5v22.12H503.5V157H527v61.75H503.5V196.5H452.88v22.25h-23.5Z"/><path id="path3491" class="cls-2" d="M321.63,175H340v6.62h1.13a13.62,13.62,0,0,1,7.62-6c3.38-1.13,8.13-1.76,14.5-1.76A66.17,66.17,0,0,1,378,175.12a19.73,19.73,0,0,1,8.75,4.26,13.19,13.19,0,0,1,4.63,6.75q1.13,3.75,1.12,12.75v19.87H373V198.87a30,30,0,0,0-.5-7.12,6,6,0,0,0-2-3.25c-1.87-1.5-6.25-2.38-13-2.38s-11.25,1-13.37,2.88a8.37,8.37,0,0,0-2.38,3.87,42.36,42.36,0,0,0-.5,8.38v17.5h-19.5L321.63,175Z"/><path id="path3493" class="cls-2" d="M294.5,204.75H314c-.5,4.75-2.25,8.12-5.12,10.25-2.5,1.88-6.13,3.13-10.63,3.75a139.31,139.31,0,0,1-20.62,1.13,124.4,124.4,0,0,1-17.5-.88,24.81,24.81,0,0,1-9.63-3.12,12.11,12.11,0,0,1-5.12-6.38c-.88-2.62-1.38-6.75-1.38-12.25a60.21,60.21,0,0,1,.5-9.37,16,16,0,0,1,2-5.63c2.13-3.5,5.88-5.75,11.25-6.87,4.63-.88,11.88-1.38,21.75-1.38a151,151,0,0,1,18.38.75c6.37.88,10.62,2.88,13,6s3.5,8.25,3.5,15.38c0,.75,0,2.12-.13,4.37h-51a14.29,14.29,0,0,0,.5,4.75,4.65,4.65,0,0,0,2,2.38c2,1.25,6.38,1.75,13.13,1.75a91.46,91.46,0,0,0,9.75-.38,10.15,10.15,0,0,0,4.5-1.37,5.22,5.22,0,0,0,1.37-2.88Zm.25-13.25c-.12-1.75-.25-2.87-.37-3.63a5.31,5.31,0,0,0-1.13-1.75c-1.75-1.5-6.25-2.12-13.5-2.12-6.62,0-10.87.5-13,1.5s-3.25,3-3.37,6Z"/><path id="path3495" class="cls-2" d="M166.75,175H189l16.25,31.13L221.38,175H243.5l-25.75,43.75H192.5Z"/><path id="path3497" class="cls-2" d="M146.63,204.75h19.5c-.5,4.75-2.25,8.12-5.13,10.25-2.5,1.88-6.12,3.13-10.62,3.75a139.47,139.47,0,0,1-20.63,1.13,124.59,124.59,0,0,1-17.5-.88,24.76,24.76,0,0,1-9.62-3.12,12.17,12.17,0,0,1-5.13-6.38c-.87-2.62-1.37-6.75-1.37-12.25a59,59,0,0,1,.5-9.37,15.76,15.76,0,0,1,2-5.63c2.12-3.5,5.87-5.75,11.25-6.87,4.62-.88,11.87-1.38,21.75-1.38a150.84,150.84,0,0,1,18.37.75c6.38.88,10.63,2.88,13,6s3.5,8.25,3.5,15.38c0,.75,0,2.12-.12,4.37h-51a14,14,0,0,0,.5,4.75,4.6,4.6,0,0,0,2,2.38c2,1.25,6.37,1.75,13.12,1.75a91.2,91.2,0,0,0,9.75-.38,10.06,10.06,0,0,0,4.5-1.37,5.15,5.15,0,0,0,1.38-2.88Zm.25-13.25c-.13-1.75-.25-2.87-.38-3.63a5.28,5.28,0,0,0-1.12-1.75c-1.75-1.5-6.25-2.12-13.5-2.12-6.63,0-10.88.5-13,1.5s-3.25,3-3.38,6Z"/><path id="path3499" class="cls-2" d="M.38,198.38H22.13c0,3.12.75,5,2.25,6a10,10,0,0,0,4.12,1c1.75.13,7.13.13,16.13.26,9.5,0,15.12-.13,17-.13a13.9,13.9,0,0,0,4.5-.75c1.62-.62,2.5-2.12,2.5-4.62,0-1.88-.63-3.13-1.75-3.63s-3.5-1-7.13-1c-2.75,0-8.62-.12-17.5-.5-9.12-.37-15.12-.62-17.87-.62A68.5,68.5,0,0,1,12,193.13a14.53,14.53,0,0,1-6.75-3.5C2.5,187,1.13,182.5,1.13,176.38c0-7,1.62-11.88,4.75-14.75C8.25,159.38,12,158,17,157.38s15.13-.88,30.38-.88c10.75,0,18.37.25,22.75.75C76.88,158,81.5,159.63,84,162s3.75,6.37,3.75,12v2.87H65.88a14.28,14.28,0,0,0-.5-3.5,2.8,2.8,0,0,0-1.63-1.5,13.89,13.89,0,0,0-5.12-.87c-2.38-.13-7.63-.25-15.5-.25-9.5,0-15.38.25-17.38.75a3.76,3.76,0,0,0-3.12,4.12,3.71,3.71,0,0,0,3.12,4c1.75.38,9.63.75,23.75,1.13,11.88.25,19.88.62,23.88,1.12s7.25,1.13,9.5,2.38a12.58,12.58,0,0,1,5.75,5.62c1.12,2.38,1.62,5.75,1.62,10.25,0,5.88-1,10.13-2.75,13a12.07,12.07,0,0,1-5.87,4.62,37.63,37.63,0,0,1-10.5,2.13c-4.88.37-13.88.5-27.13.5-11,0-19.25-.25-24.5-.75S10.25,218.25,7.63,217a12.43,12.43,0,0,1-5.75-5.25c-1-2.12-1.63-5.5-1.63-9.87l.13-3.5Z"/><g id="text3501"><path id="path3624" class="cls-3" d="M.14,241.5H27.29v3.09H15.83v23.93H11.46V244.59H0A22.83,22.83,0,0,0,.14,241.5Z"/><path id="path3626" class="cls-3" d="M99.62,257.53v1.6H81.33a7.06,7.06,0,0,0,2.46,5.27,9.94,9.94,0,0,0,6.14,1.83,18.36,18.36,0,0,0,4.37-.46,24.63,24.63,0,0,0,4.23-1.38v3.1a27.71,27.71,0,0,1-4.37,1.14,29.64,29.64,0,0,1-4.5.34c-3.82,0-7-.91-9.14-2.86a9.65,9.65,0,0,1-3.42-7.67,10.46,10.46,0,0,1,3.14-7.9,12.47,12.47,0,0,1,8.6-3c3.27,0,5.87.92,7.64,2.64a9,9,0,0,1,3.14,7.33Zm-4-1a5.84,5.84,0,0,0-1.77-4.35,6.93,6.93,0,0,0-4.64-1.6,8.61,8.61,0,0,0-5.32,1.6,6.29,6.29,0,0,0-2.32,4.47l14-.12Z"/><path id="path3628" class="cls-3" d="M172.63,248.94V252a11.83,11.83,0,0,0-3.41-1.15,17.92,17.92,0,0,0-3.41-.34,8.41,8.41,0,0,0-6,2.06,7.93,7.93,0,0,0-2.18,5.73,7.21,7.21,0,0,0,2.18,5.72,8.16,8.16,0,0,0,6,2.06,17.15,17.15,0,0,0,3.41-.34,19.84,19.84,0,0,0,3.41-1.15v3.1a20.12,20.12,0,0,1-3.41,1,20.41,20.41,0,0,1-3.82.34c-3.69,0-6.55-.92-8.6-2.86a10.18,10.18,0,0,1-3.14-7.79,9.77,9.77,0,0,1,3.28-7.78c2.18-1.95,5.18-2.87,8.87-2.87a17.49,17.49,0,0,1,3.54.35,18.78,18.78,0,0,1,3.28.8Z"/><path id="path3630" class="cls-3" d="M250.82,256.27v12.25h-3.95V256.38A6,6,0,0,0,245.5,252a5.3,5.3,0,0,0-3.95-1.37,7,7,0,0,0-5.05,1.71,6.22,6.22,0,0,0-1.91,4.7v11.45h-4v-28h4v11a8.71,8.71,0,0,1,3.27-2.75,10.63,10.63,0,0,1,4.5-.92c2.73,0,4.92.69,6.28,2.18s2.18,3.43,2.18,6.3Z"/><path id="path3632" class="cls-3" d="M327.25,256.27v12.25h-4V256.38a6,6,0,0,0-1.37-4.35,5.3,5.3,0,0,0-3.95-1.37,7.05,7.05,0,0,0-5.05,1.71,6.22,6.22,0,0,0-1.91,4.7v11.45h-4V248.25h4v3.09a8.8,8.8,0,0,1,3.27-2.75,10.65,10.65,0,0,1,4.51-.91c2.72,0,4.91.69,6.27,2.17s2.19,3.55,2.19,6.42Z"/><path id="path3634" class="cls-3" d="M392.75,250.54a6.38,6.38,0,0,0-5.05,2.06,9.83,9.83,0,0,0-.14,11.45,6.35,6.35,0,0,0,5.05,2.06,6.54,6.54,0,0,0,5.05-2.06,8.36,8.36,0,0,0,1.91-5.72,8.59,8.59,0,0,0-1.91-5.73,6.07,6.07,0,0,0-4.91-2.06Zm0-2.86c3.41,0,6.14.91,8.05,2.86a10.42,10.42,0,0,1,3,7.79c0,3.32-.95,5.95-3,7.78a13,13,0,0,1-16.24,0,10.49,10.49,0,0,1-2.86-7.78c0-3.32.95-6,2.86-7.79A11.9,11.9,0,0,1,392.75,247.68Z"/><path id="path3636" class="cls-3" d="M460.44,240.35h3.95v28h-3.95Z"/><path id="path3638" class="cls-3" d="M524.44,250.54a6.38,6.38,0,0,0-5.05,2.06,9.83,9.83,0,0,0-.14,11.45,6.35,6.35,0,0,0,5,2.06,6.54,6.54,0,0,0,5.05-2.06,8.36,8.36,0,0,0,1.91-5.72,8.59,8.59,0,0,0-1.91-5.73A5.9,5.9,0,0,0,524.44,250.54Zm0-2.86c3.41,0,6.14.91,8,2.86a10.42,10.42,0,0,1,3,7.79c0,3.32-1,5.95-3,7.78a13,13,0,0,1-16.24,0,10.49,10.49,0,0,1-2.86-7.78c0-3.32,1-6,2.86-7.79A11.9,11.9,0,0,1,524.44,247.68Z"/><path id="path3640" class="cls-3" d="M608.09,258.1a8,8,0,0,0-1.77-5.61,7.17,7.17,0,0,0-9.83,0,9.78,9.78,0,0,0,0,11.22,7.2,7.2,0,0,0,9.83,0A8.77,8.77,0,0,0,608.09,258.1Zm4,7.78c0,3.44-.95,6-2.73,7.67s-4.64,2.52-8.32,2.52c-1.37,0-2.73-.11-4-.23a16.71,16.71,0,0,1-3.55-.8v-3.2A15.51,15.51,0,0,0,596.9,273a17.16,17.16,0,0,0,3.41.35,8.82,8.82,0,0,0,5.87-1.72,6.73,6.73,0,0,0,1.91-5.15v-1.61a8.14,8.14,0,0,1-3.14,2.64,11.24,11.24,0,0,1-4.64.91,9,9,0,0,1-7.09-2.86,10.61,10.61,0,0,1-2.73-7.56,10.77,10.77,0,0,1,2.73-7.55,9.21,9.21,0,0,1,7.09-2.87,11.73,11.73,0,0,1,4.64.92,8.12,8.12,0,0,1,3.14,2.63V248h4v17.86Z"/><path id="path3642" class="cls-3" d="M679.47,270.35c-1.1,2.4-2.19,4-3.28,4.69a7.7,7.7,0,0,1-4.23,1.15h-3.14v-2.75h2.32a4.43,4.43,0,0,0,2.59-.69,10.68,10.68,0,0,0,2-3.09l.68-1.49-9.69-19.92H671l7.51,15.8,7.51-15.8h4.23l-10.78,22.1Z"/></g></g></g></g></svg>