<svg id="svg3371" xmlns="http://www.w3.org/2000/svg" viewBox="0 0 692.1 333"><defs><style>.cls-1{fill:#4ab1d9;}.cls-2{fill:#0f5481;}.cls-3{fill:#4d4d4d;}</style></defs><title>Logo</title><g id="g3379"><path id="path3475" class="cls-1" d="M406.5,66.33H360.62V60.91l.13-46.83V1.44h-.13A55.41,55.41,0,0,0,347.87.11V144.83a73.85,73.85,0,0,0,12.75-1.32h.13V130.87L360.62,84V78.61h46.76c-.25,1.93-.5,3.61-.88,5.42a59.74,59.74,0,0,1-34,42.5V140c24.38-9,42.63-30.34,46.88-56,.25-1.68.49-3.61.62-5.42.13-2,.25-4,.25-6.26A72.09,72.09,0,0,0,372.5,4.69V18.17c18.88,9.15,34,27.45,34,48.16"/><path id="path3477" class="cls-2" d="M331.5,14.08a55.71,55.71,0,0,1,12.75-1.69V.11A73.08,73.08,0,0,0,331.5,1.44c-30.25,5.78-53.75,29.61-58.75,59.35-.25,1.69-.5,3.62-.62,5.42-.13,2.05-.25,4-.25,6.26s.12,4.22.25,6.26H331.5v52.14C308.38,125.33,290.25,107,285.63,84H272.75c4.88,29.74,28.5,53.58,58.75,59.36a56.09,56.09,0,0,0,12.75,1.32V66.21H284.88c.25-1.92.5-3.61.87-5.42,4.5-22.87,22.5-41.17,45.75-46.71"/><path id="path3479" class="cls-1" d="M619.75,237.9h19.87c.13,2.17,1.38,3.61,3.75,4.58s6.5,1.2,12.63,1.2c6.37,0,10.62-.24,12.87-1.08s3.38-1.93,3.38-3.74-1.13-2.89-3.25-3.49c-1-.24-6.5-.36-16.63-.48-9.37,0-15.25-.12-17.37-.36-6.13-1-10.25-2.77-12.38-5.78-1.62-2.29-2.37-5.42-2.37-9.27,0-7.47,2.87-12.28,8.5-14.57,4.25-1.68,13.5-2.53,27.5-2.53,8.87,0,15.37.24,19.37,1.09A18.24,18.24,0,0,1,685,207.2a10.27,10.27,0,0,1,3,4,25.41,25.41,0,0,1,1.25,7H669.38c-.38-1.33-.75-2.17-1.38-2.41-1.62-1.09-5.75-1.45-12.25-1.45-6.12,0-10.25.24-12.5,1-2.25.48-3.37,1.68-3.37,3.25,0,2,1.5,3.25,4.75,3.37q3.75.18,26.62.36c7.38,0,12.62,1.32,15.88,3.61s5,6.38,5,12.16a18.9,18.9,0,0,1-2,9.39,11.59,11.59,0,0,1-6.13,5.42c-4.62,2-14.37,3.13-29.25,3.13-9.5,0-16.38-.24-20.5-1.08s-7.37-2.17-9.75-4.22c-3-3-4.63-7.22-4.75-12.76"/><path id="path3481" class="cls-1" d="M593.12,182.28h19.51V254H593.12Z"/><path id="path3483" class="cls-1" d="M564.87,182.28h19.51V254H564.87Z"/><path id="path3485" class="cls-1" d="M536.5,182.28H556v14.2H536.5Z"/><path id="path3487" class="cls-1" d="M536.5,203.23H556V254H536.5Z"/><path id="path3489" class="cls-1" d="M429.38,182.28h23.49V208H503.5V182.28H527V254H503.5V228.15H452.87V254H429.38Z"/><path id="path3491" class="cls-2" d="M321.62,203.23H340v7.7h1.12a14.13,14.13,0,0,1,7.63-7c3.38-1.33,8.13-2,14.5-2s11.13.36,14.75,1.45a18.68,18.68,0,0,1,8.75,4.93,15.46,15.46,0,0,1,4.63,7.95c.75,2.89,1.12,8,1.12,14.93v23.12H373V231a42.17,42.17,0,0,0-.5-8.31,6.89,6.89,0,0,0-2-3.73c-1.88-1.69-6.25-2.77-13-2.77s-11.25,1.2-13.38,3.37a10.11,10.11,0,0,0-2.37,4.58,56.58,56.58,0,0,0-.5,9.75v20.35h-19.5l-.13-51.05Z"/><path id="path3493" class="cls-2" d="M294.5,237.78H314c-.5,5.54-2.25,9.39-5.12,11.92-2.5,2.17-6.13,3.61-10.63,4.45s-11.5,1.33-20.62,1.33c-7.63,0-13.38-.24-17.5-1.08s-7.25-1.93-9.63-3.62a14.46,14.46,0,0,1-5.12-7.34c-.88-3.13-1.38-7.95-1.38-14.21a79.36,79.36,0,0,1,.5-10.83,21.67,21.67,0,0,1,2-6.63c2.12-4,5.87-6.74,11.25-8.06,4.62-1.09,11.87-1.57,21.75-1.57,8.75,0,14.87.24,18.37,1,6.38,1.08,10.63,3.37,13,7s3.5,9.51,3.5,17.82c0,1,0,2.41-.12,5.05h-51a19.11,19.11,0,0,0,.5,5.54,5,5,0,0,0,2,2.77c2,1.45,6.37,2,13.12,2a95.3,95.3,0,0,0,9.75-.36,9.89,9.89,0,0,0,4.5-1.57,8.74,8.74,0,0,0,1.38-3.61Zm.25-15.41c-.13-2.05-.25-3.37-.38-4.21a6.32,6.32,0,0,0-1.12-2c-1.75-1.69-6.25-2.41-13.5-2.41-6.63,0-10.87.48-13,1.69s-3.25,3.49-3.37,7Z"/><path id="path3495" class="cls-2" d="M166.75,203.23H189l16.25,36.24,16.12-36.24H243.5L217.75,254H192.5Z"/><path id="path3497" class="cls-2" d="M146.63,237.78h19.5c-.5,5.54-2.25,9.39-5.13,11.92-2.5,2.17-6.12,3.61-10.62,4.45s-11.5,1.33-20.63,1.33c-7.62,0-13.37-.24-17.5-1.08s-7.25-1.93-9.62-3.62a14.54,14.54,0,0,1-5.13-7.34c-.87-3.13-1.37-7.95-1.37-14.21a77.75,77.75,0,0,1,.5-10.83,21.67,21.67,0,0,1,2-6.63c2.12-4,5.87-6.74,11.25-8.06,4.62-1.09,11.87-1.57,21.75-1.57,8.75,0,14.87.24,18.37,1,6.38,1.08,10.63,3.37,13,7s3.5,9.51,3.5,17.82c0,1,0,2.41-.12,5.05h-51a19.11,19.11,0,0,0,.5,5.54,5,5,0,0,0,2,2.77c2,1.45,6.37,2,13.12,2a95.3,95.3,0,0,0,9.75-.36,9.89,9.89,0,0,0,4.5-1.57,9,9,0,0,0,1.38-3.61Zm.25-15.41c-.13-2.05-.25-3.37-.38-4.21a6.54,6.54,0,0,0-1.13-2c-1.75-1.69-6.25-2.41-13.5-2.41-6.62,0-10.87.48-13,1.69s-3.25,3.49-3.37,7Z"/><path id="path3499" class="cls-2" d="M.38,230.44H22.12c0,3.61.75,5.78,2.25,7a8.72,8.72,0,0,0,4.13,1.2c1.75.12,7.12.12,16.12.24,9.5,0,15.13-.12,17-.12s3.38-.24,4.5-1c1.63-.72,2.5-2.41,2.5-5.42,0-2.16-.62-3.61-1.75-4.21s-3.5-1.21-7.12-1.21c-2.75,0-8.63-.12-17.5-.48-9.13-.36-15.13-.72-17.88-.72A57.35,57.35,0,0,1,12,224.3a15.21,15.21,0,0,1-6.75-4c-2.75-3.13-4.13-8.3-4.13-15.41,0-8.19,1.63-13.84,4.75-17.1C8.25,185.29,12,183.6,17,182.88s15.12-1.09,30.37-1.09c10.75,0,18.38.25,22.75,1,6.75,1,11.38,2.77,13.88,5.54s3.75,7.34,3.75,14v3.37H65.88a16.48,16.48,0,0,0-.51-4A2.71,2.71,0,0,0,63.75,200a13.15,13.15,0,0,0-5.12-1.09c-2.38-.12-7.63-.24-15.51-.24-9.5,0-15.37.24-17.37,1-2.13.49-3.12,2.17-3.12,4.82,0,2.41,1,4,3.12,4.7,1.75.36,9.62,1,23.75,1.32,11.87.24,19.87.72,23.87,1.32a21.57,21.57,0,0,1,9.5,2.77,13.18,13.18,0,0,1,5.75,6.63c1.13,2.88,1.63,6.74,1.63,11.91,0,6.87-1,11.8-2.75,15.18a13.2,13.2,0,0,1-5.87,5.41,30.11,30.11,0,0,1-10.5,2.41c-4.88.36-13.88.48-27.13.48-11,0-19.25-.24-24.5-1-5.25-.48-9.25-1.57-11.87-3.13a13.44,13.44,0,0,1-5.75-6C.88,244,.25,240.07.25,234.89l.13-4.45Z"/><g id="text3501"><path id="path3624" class="cls-3" d="M.14,280.47H27.29V284H15.83v27.79H11.46V284H0A28.85,28.85,0,0,0,.14,280.47Z"/><path id="path3626" class="cls-3" d="M99.62,299.11V301H81.33a7.86,7.86,0,0,0,8.6,8.28,18.36,18.36,0,0,0,4.37-.45,26.94,26.94,0,0,0,4.23-1.54v3.53a28,28,0,0,1-4.37,1.32,31,31,0,0,1-4.5.33c-3.82,0-7-1.1-9.14-3.3a12,12,0,0,1-3.42-8.94,13.23,13.23,0,0,1,3.14-9.15,11.64,11.64,0,0,1,8.6-3.42,9.83,9.83,0,0,1,7.64,3.09c2.19,2.2,3.14,4.74,3.14,8.38Zm-4-1.21a7.53,7.53,0,0,0-1.77-5.08A6.31,6.31,0,0,0,89.25,291a7.75,7.75,0,0,0-5.32,1.87A7.89,7.89,0,0,0,81.61,298l14-.11Z"/><path id="path3628" class="cls-3" d="M172.63,289.07v3.53a9.76,9.76,0,0,0-3.41-1.32,17.91,17.91,0,0,0-3.41-.33,8.29,8.29,0,0,0-6,2.31,10,10,0,0,0-2.18,6.62c0,3,.68,5.07,2.18,6.62a7.68,7.68,0,0,0,6,2.31,17.91,17.91,0,0,0,3.41-.33,21.76,21.76,0,0,0,3.41-1.32v3.53a21.08,21.08,0,0,1-3.41,1.21,21.31,21.31,0,0,1-3.82.33c-3.69,0-6.55-1.1-8.6-3.31s-3.14-5.18-3.14-9a12.37,12.37,0,0,1,3.28-9,12,12,0,0,1,8.87-3.31,18.26,18.26,0,0,1,3.54.33,27.51,27.51,0,0,0,3.28,1.21Z"/><path id="path3630" class="cls-3" d="M250.82,297.68V311.9h-3.95V297.79a7.94,7.94,0,0,0-1.37-5.08,4.76,4.76,0,0,0-3.95-1.54,6.47,6.47,0,0,0-5.05,2,7.8,7.8,0,0,0-1.91,5.41v13.23h-4V279.26h4v12.79a8.71,8.71,0,0,1,7.77-4.3,7.8,7.8,0,0,1,6.28,2.54c1.5,1.65,2.18,4.08,2.18,7.39Z"/><path id="path3632" class="cls-3" d="M327.25,297.68V311.9h-4V297.79a7.94,7.94,0,0,0-1.37-5.08,4.76,4.76,0,0,0-3.95-1.54,6.49,6.49,0,0,0-5.05,2,7.8,7.8,0,0,0-1.91,5.41v13.23h-4v-23.6h4v3.53a8.71,8.71,0,0,1,7.78-4.3,7.8,7.8,0,0,1,6.27,2.54c1.5,2,2.19,4.41,2.19,7.72Z"/><path id="path3634" class="cls-3" d="M392.75,291.06a6.37,6.37,0,0,0-5.05,2.31,10.64,10.64,0,0,0-1.91,6.62c0,2.87.55,5.07,1.77,6.62a6.06,6.06,0,0,0,5.05,2.31,6.57,6.57,0,0,0,5.05-2.31,12.43,12.43,0,0,0,0-13.24,5.78,5.78,0,0,0-4.91-2.31Zm0-3.31a10.13,10.13,0,0,1,8.05,3.31c1.91,2.09,3,5.18,3,9s-.95,6.84-3,9a10.53,10.53,0,0,1-8.05,3.3,10.66,10.66,0,0,1-8.19-3.3c-1.91-2.21-2.86-5.19-2.86-9s.95-6.84,2.86-9A10.63,10.63,0,0,1,392.75,287.75Z"/><path id="path3636" class="cls-3" d="M460.44,279.15h3.95v32.53h-3.95Z"/><path id="path3638" class="cls-3" d="M524.44,291.06a6.37,6.37,0,0,0-5.05,2.31,10.64,10.64,0,0,0-1.91,6.62c0,2.87.55,5.07,1.77,6.62a6.06,6.06,0,0,0,5,2.31,6.57,6.57,0,0,0,5.05-2.31,12.43,12.43,0,0,0,0-13.24A5.62,5.62,0,0,0,524.44,291.06Zm0-3.31a10.13,10.13,0,0,1,8,3.31c1.91,2.09,3,5.18,3,9s-1,6.84-3,9a10.53,10.53,0,0,1-8,3.3,10.66,10.66,0,0,1-8.19-3.3c-1.91-2.21-2.86-5.19-2.86-9s1-6.84,2.86-9A10.63,10.63,0,0,1,524.44,287.75Z"/><path id="path3640" class="cls-3" d="M608.09,299.77c0-2.87-.54-5-1.77-6.51a5.88,5.88,0,0,0-4.91-2.2,6.16,6.16,0,0,0-4.92,2.2c-1.22,1.55-1.77,3.64-1.77,6.51s.55,5,1.77,6.51a5.89,5.89,0,0,0,4.92,2.2,6.14,6.14,0,0,0,4.91-2.2A11,11,0,0,0,608.09,299.77Zm4,9c0,4.09-.95,6.84-2.73,8.94s-4.64,3-8.32,3c-1.37,0-2.73-.12-4-.23a9.9,9.9,0,0,1-3.55-1v-3.64a12.46,12.46,0,0,0,3.41,1.33,17.91,17.91,0,0,0,3.41.33,8,8,0,0,0,5.87-2c1.23-1.32,1.91-3.31,1.91-6.06V307.6a9.64,9.64,0,0,1-3.14,3.09,8.77,8.77,0,0,1-4.64,1.1,8.56,8.56,0,0,1-7.09-3.31,13.38,13.38,0,0,1-2.73-8.71,13.6,13.6,0,0,1,2.73-8.71,8.75,8.75,0,0,1,7.09-3.31,9.11,9.11,0,0,1,4.64,1.1,8.67,8.67,0,0,1,3.14,3.09v-3.53h4v20.4Z"/><path id="path3642" class="cls-3" d="M679.47,314c-1.1,2.87-2.19,4.63-3.28,5.4a7.13,7.13,0,0,1-4.23,1.33h-3.14v-3.2h2.32a3.4,3.4,0,0,0,2.59-.89,12.21,12.21,0,0,0,2-3.52l.68-1.77-9.69-23.05H671l7.51,18.31L686,288.3h4.23L679.47,314Z"/></g></g></svg>