<?xml version="1.0" encoding="utf-8"?>
<!-- Generator: Adobe Illustrator 23.0.3, SVG Export Plug-In . SVG Version: 6.00 Build 0)  -->
<svg version="1.1" id="Capa_1" xmlns="http://www.w3.org/2000/svg" xmlns:xlink="http://www.w3.org/1999/xlink" x="0px" y="0px"
	 viewBox="0 0 512 512" style="enable-background:new 0 0 512 512;" xml:space="preserve">
<style type="text/css">
	.st0{fill:#25557E;}
</style>
<g>
	<g>
		<path class="st0" d="M349.9,0H162.1c-23.6,0-42.6,19.1-42.7,42.7v426.7c0,23.6,19.1,42.6,42.7,42.7h187.7
			c23.6,0,42.6-19.1,42.7-42.7V42.7C392.5,19.1,373.4,0,349.9,0z M222.1,494.9h-60c-14.1,0-25.6-11.5-25.6-25.6v-25.6h85.6
			C210.4,458.8,210.4,479.9,222.1,494.9z M256,494.9c-14.1,0-25.6-11.5-25.6-25.6s11.5-25.6,25.6-25.6c14.1,0,25.6,11.5,25.6,25.6
			S270.1,494.9,256,494.9z M375.5,469.3c0,14.1-11.5,25.6-25.6,25.6h-60c11.7-15.1,11.7-36.1,0-51.2h85.6V469.3z M375.5,426.7H136.5
			V93.9h238.9V426.7z M375.5,76.8H136.5V42.7c0-14.1,11.5-25.6,25.6-25.6h187.7c14.1,0,25.6,11.5,25.6,25.6V76.8z"/>
	</g>
</g>
<g>
	<g>
		<rect x="196.3" y="42.7" class="st0" width="85.3" height="17.1"/>
	</g>
</g>
<g>
	<g>
		<path class="st0" d="M221.9,170.7h-34.1c-14.1,0-25.6,11.5-25.6,25.6v34.1c0,14.1,11.5,25.6,25.6,25.6h34.1
			c14.1,0,25.6-11.5,25.6-25.6v-34.1C247.5,182.1,236,170.7,221.9,170.7z M230.4,230.4c0,4.7-3.8,8.5-8.5,8.5h-34.1
			c-4.7,0-8.5-3.8-8.5-8.5v-34.1c0-4.7,3.8-8.5,8.5-8.5h34.1c4.7,0,8.5,3.8,8.5,8.5V230.4z"/>
	</g>
</g>
<g>
	<g>
		<path class="st0" d="M324.3,170.7h-34.1c-14.1,0-25.6,11.5-25.6,25.6v34.1c0,14.1,11.5,25.6,25.6,25.6h34.1
			c14.1,0,25.6-11.5,25.6-25.6v-34.1C349.9,182.1,338.4,170.7,324.3,170.7z M332.8,230.4c0,4.7-3.8,8.5-8.5,8.5h-34.1
			c-4.7,0-8.5-3.8-8.5-8.5v-34.1c0-4.7,3.8-8.5,8.5-8.5h34.1c4.7,0,8.5,3.8,8.5,8.5V230.4z"/>
	</g>
</g>
<g>
	<g>
		<path class="st0" d="M221.9,273.1h-34.1c-14.1,0-25.6,11.5-25.6,25.6v34.1c0,14.1,11.5,25.6,25.6,25.6h34.1
			c14.1,0,25.6-11.5,25.6-25.6v-34.1C247.5,284.5,236,273.1,221.9,273.1z M230.4,332.8c0,4.7-3.8,8.5-8.5,8.5h-34.1
			c-4.7,0-8.5-3.8-8.5-8.5v-34.1c0-4.7,3.8-8.5,8.5-8.5h34.1c4.7,0,8.5,3.8,8.5,8.5V332.8z"/>
	</g>
</g>
<g>
	<g>
		<path class="st0" d="M324.3,273.1h-34.1c-14.1,0-25.6,11.5-25.6,25.6v34.1c0,14.1,11.5,25.6,25.6,25.6h34.1
			c14.1,0,25.6-11.5,25.6-25.6v-34.1C349.9,284.5,338.4,273.1,324.3,273.1z M332.8,332.8c0,4.7-3.8,8.5-8.5,8.5h-34.1
			c-4.7,0-8.5-3.8-8.5-8.5v-34.1c0-4.7,3.8-8.5,8.5-8.5h34.1c4.7,0,8.5,3.8,8.5,8.5V332.8z"/>
	</g>
</g>
<g>
	<g>
		<path class="st0" d="M187.7,110.9h-25.6c-4.7,0-8.5,3.8-8.5,8.5v25.6c0,4.7,3.8,8.5,8.5,8.5c4.7,0,8.5-3.8,8.5-8.5V128h17.1
			c4.7,0,8.5-3.8,8.5-8.5S192.4,110.9,187.7,110.9z"/>
	</g>
</g>
<g>
	<g>
		<path class="st0" d="M238.9,110.9h-17.1c-4.7,0-8.5,3.8-8.5,8.5s3.8,8.5,8.5,8.5h17.1c4.7,0,8.5-3.8,8.5-8.5
			S243.6,110.9,238.9,110.9z"/>
	</g>
</g>
<g>
	<g>
		<rect x="298.7" y="42.7" class="st0" width="17.1" height="17.1"/>
	</g>
</g>
</svg>
