<?xml version="1.0" encoding="iso-8859-1"?>
<!-- Generator: Adobe Illustrator 19.0.0, SVG Export Plug-In . SVG Version: 6.00 Build 0)  -->
<svg xmlns="http://www.w3.org/2000/svg" xmlns:xlink="http://www.w3.org/1999/xlink" version="1.1" id="Capa_1" x="0px" y="0px" viewBox="0 0 480 480" style="enable-background:new 0 0 480 480;" xml:space="preserve" width="512px" height="512px">
<g>
	<g>
		<path d="M328,0H152c-22.08,0.026-39.974,17.92-40,40v400c0.026,22.08,17.92,39.974,40,40h176c22.08-0.026,39.974-17.92,40-40V40    C367.974,17.92,350.08,0.026,328,0z M208.208,464H152c-13.255,0-24-10.745-24-24v-24h80.208    C197.267,430.13,197.267,449.87,208.208,464z M240,464c-13.255,0-24-10.745-24-24s10.745-24,24-24s24,10.745,24,24    S253.255,464,240,464z M352,440c0,13.255-10.745,24-24,24h-56.208c10.941-14.13,10.941-33.87,0-48H352V440z M352,400H128V88h224    V400z M352,72H128V40c0-13.255,10.745-24,24-24h176c13.255,0,24,10.745,24,24V72z" fill="#FFFFFF"/>
	</g>
</g>
<g>
	<g>
		<rect x="184" y="40" width="80" height="16" fill="#FFFFFF"/>
	</g>
</g>
<g>
	<g>
		<path d="M208,160h-32c-13.255,0-24,10.745-24,24v32c0,13.255,10.745,24,24,24h32c13.255,0,24-10.745,24-24v-32    C232,170.745,221.255,160,208,160z M216,216c0,4.418-3.582,8-8,8h-32c-4.418,0-8-3.582-8-8v-32c0-4.418,3.582-8,8-8h32    c4.418,0,8,3.582,8,8V216z" fill="#FFFFFF"/>
	</g>
</g>
<g>
	<g>
		<path d="M304,160h-32c-13.255,0-24,10.745-24,24v32c0,13.255,10.745,24,24,24h32c13.255,0,24-10.745,24-24v-32    C328,170.745,317.255,160,304,160z M312,216c0,4.418-3.582,8-8,8h-32c-4.418,0-8-3.582-8-8v-32c0-4.418,3.582-8,8-8h32    c4.418,0,8,3.582,8,8V216z" fill="#FFFFFF"/>
	</g>
</g>
<g>
	<g>
		<path d="M208,256h-32c-13.255,0-24,10.745-24,24v32c0,13.255,10.745,24,24,24h32c13.255,0,24-10.745,24-24v-32    C232,266.745,221.255,256,208,256z M216,312c0,4.418-3.582,8-8,8h-32c-4.418,0-8-3.582-8-8v-32c0-4.418,3.582-8,8-8h32    c4.418,0,8,3.582,8,8V312z" fill="#FFFFFF"/>
	</g>
</g>
<g>
	<g>
		<path d="M304,256h-32c-13.255,0-24,10.745-24,24v32c0,13.255,10.745,24,24,24h32c13.255,0,24-10.745,24-24v-32    C328,266.745,317.255,256,304,256z M312,312c0,4.418-3.582,8-8,8h-32c-4.418,0-8-3.582-8-8v-32c0-4.418,3.582-8,8-8h32    c4.418,0,8,3.582,8,8V312z" fill="#FFFFFF"/>
	</g>
</g>
<g>
	<g>
		<path d="M176,104h-24c-4.418,0-8,3.582-8,8v24c0,4.418,3.582,8,8,8s8-3.582,8-8v-16h16c4.418,0,8-3.582,8-8S180.418,104,176,104z" fill="#FFFFFF"/>
	</g>
</g>
<g>
	<g>
		<path d="M224,104h-16c-4.418,0-8,3.582-8,8s3.582,8,8,8h16c4.418,0,8-3.582,8-8S228.418,104,224,104z" fill="#FFFFFF"/>
	</g>
</g>
<g>
	<g>
		<rect x="280" y="40" width="16" height="16" fill="#FFFFFF"/>
	</g>
</g>
<g>
</g>
<g>
</g>
<g>
</g>
<g>
</g>
<g>
</g>
<g>
</g>
<g>
</g>
<g>
</g>
<g>
</g>
<g>
</g>
<g>
</g>
<g>
</g>
<g>
</g>
<g>
</g>
<g>
</g>
</svg>
