<svg xmlns="http://www.w3.org/2000/svg" viewBox="0 0 118.271 147.839">
  <g id="Group_196" data-name="Group 196" transform="translate(-151.124 -32.853)">
    <g id="Group_40" data-name="Group 40" transform="translate(151.124 32.853)">
      <g id="Group_39" data-name="Group 39">
        <path id="Path_17" data-name="Path 17" d="M153.951,0H60.32A12.335,12.335,0,0,0,48,12.32V78.847a12.335,12.335,0,0,0,12.32,12.32H94.012l-3.519,12.32h-8v4.928h49.28v-4.928h-8l-3.519-12.32h33.692a12.335,12.335,0,0,0,12.32-12.32V12.32A12.335,12.335,0,0,0,153.951,0ZM95.619,103.487l3.519-12.32h16l3.519,12.32Zm65.724-24.64a7.392,7.392,0,0,1-7.392,7.392H60.32a7.392,7.392,0,0,1-7.392-7.392V73.919H161.343Zm0-9.856H52.928V12.32A7.392,7.392,0,0,1,60.32,4.928h93.631a7.392,7.392,0,0,1,7.392,7.392Z" transform="translate(-48)"/>
      </g>
    </g>
    <g id="Group_42" data-name="Group 42" transform="translate(158.516 146.196)">
      <g id="Group_41" data-name="Group 41">
        <path id="Path_18" data-name="Path 18" d="M143.455,368H74.464A2.464,2.464,0,0,0,72,370.464v29.568a2.464,2.464,0,0,0,2.464,2.464h68.991a2.464,2.464,0,0,0,2.464-2.464V370.464A2.464,2.464,0,0,0,143.455,368Zm-2.464,29.568H76.928v-24.64h64.063Z" transform="translate(-72 -368)"/>
      </g>
    </g>
    <g id="Group_62" data-name="Group 62" transform="translate(237.363 146.196)">
      <g id="Group_61" data-name="Group 61">
        <path id="Path_19" data-name="Path 19" d="M340.32,368A12.32,12.32,0,0,0,328,380.32v9.856a12.32,12.32,0,0,0,24.64,0V380.32A12.32,12.32,0,0,0,340.32,368Zm7.392,22.176a7.392,7.392,0,0,1-14.784,0V380.32a7.392,7.392,0,0,1,14.784,0Z" transform="translate(-328 -368)"/>
      </g>
    </g>
  </g>
</svg>
