<svg id="undraw_warning_cyit" xmlns="http://www.w3.org/2000/svg" xmlns:xlink="http://www.w3.org/1999/xlink" width="1333.25" height="1075.435" viewBox="0 0 1333.25 1075.435">
  <defs>
    <linearGradient id="linear-gradient" y1="0.5" x2="1" y2="0.5" gradientUnits="objectBoundingBox">
      <stop offset="0" stop-color="gray" stop-opacity="0.251"/>
      <stop offset="0.54" stop-color="gray" stop-opacity="0.122"/>
      <stop offset="1" stop-color="gray" stop-opacity="0.102"/>
    </linearGradient>
    <linearGradient id="linear-gradient-2" x1="12.106" y1="0.5" x2="13.106" y2="0.5" xlink:href="#linear-gradient"/>
  </defs>
  <ellipse id="Ellipse_74" data-name="Ellipse 74" cx="602.504" cy="537.717" rx="602.504" ry="537.717" transform="translate(83.321 0)" fill="#4ab1d9" opacity="0.1"/>
  <ellipse id="Ellipse_75" data-name="Ellipse 75" cx="222.155" cy="34.434" rx="222.155" ry="34.434" transform="translate(0 778.342)" fill="#4ab1d9" opacity="0.1"/>
  <ellipse id="Ellipse_76" data-name="Ellipse 76" cx="86.408" cy="17.85" rx="86.408" ry="17.85" transform="translate(242.523 975.555)" fill="#4ab1d9" opacity="0.1"/>
  <ellipse id="Ellipse_77" data-name="Ellipse 77" cx="86.408" cy="17.85" rx="86.408" ry="17.85" transform="translate(832.95 906.881)" fill="#4ab1d9" opacity="0.1"/>
  <ellipse id="Ellipse_78" data-name="Ellipse 78" cx="140.513" cy="23.804" rx="140.513" ry="23.804" transform="translate(485.64 879.99)" fill="#4ab1d9" opacity="0.1"/>
  <ellipse id="Ellipse_79" data-name="Ellipse 79" cx="293.076" cy="45.903" rx="293.076" ry="45.903" transform="translate(747.098 740.059)" fill="#4ab1d9" opacity="0.1"/>
  <path id="Path_994" data-name="Path 994" d="M132.947,609.846A81.551,81.551,0,0,0,137.2,691.72c2.583,3.875,4.96,6.665,6.858,7.4,9.106,3.578,27.343,12.374,27.343,12.374l43.914-17.256s7.13-37.715,13.872-70.095h0c4.6-22.086,9.041-41.68,10.862-45.115,4.546-8.46,0-100.564,0-100.564s-43.914-2.945-55.991,30.908l-5.283,10.333Z" transform="translate(-72.203 95.999)" fill="#a8a8a8"/>
  <path id="Path_995" data-name="Path 995" d="M179.45,620.021c26.7,30.6,37.96,4.133,37.96,4.133h0c4.6-22.086,9.041-41.68,10.862-45.115,4.546-8.46,0-100.564,0-100.564s-43.914-2.945-55.991,30.908L167,519.715C163.615,546.8,160.27,598,179.45,620.021Z" transform="translate(-60.403 96.001)" fill="#fff" opacity="0.1"/>
  <path id="Path_996" data-name="Path 996" d="M180.59,728.884l154.992-17.9,27.653-181.96-20.911-47.259a191.492,191.492,0,0,0-36.165-54.557c-10.526-11.095-23.249-21.763-36.63-27.123a54.944,54.944,0,0,0-5.593-1.912,14.478,14.478,0,0,0-12.916,2.286c-19.116,13.549-25.948,71.154-28.157,98.885a309.458,309.458,0,0,1-4.611,33.956Z" transform="translate(-55.68 72.422)" fill="#a8a8a8"/>
  <path id="Path_997" data-name="Path 997" d="M267.892,527.063,235.6,606.5c16.92-12.374,41.99-79.756,41.99-79.756l22.461,76.824-17.9-80.97a253.242,253.242,0,0,0,2.273-53.136c-1.421-20.33-20.5-52.955-30.856-69.385a54.976,54.976,0,0,0-5.593-1.912,14.479,14.479,0,0,0-12.916,2.286c8.137,16.339,28.48,57.192,34.679,69.333C277.605,485.073,267.892,527.063,267.892,527.063Z" transform="translate(-39.797 72.419)" fill="#fff" opacity="0.1"/>
  <path id="Path_998" data-name="Path 998" d="M280.89,706.853h84.1a25.509,25.509,0,0,0,25.483-26.8c-1.86-36.061-6.574-100.357-17.785-141.172-6.058-22.022-13.1-33.582-19.555-39.277a19.077,19.077,0,0,0-11.121-5.231,14.6,14.6,0,0,0-9.041,2.2c-15.615,14.97-33.853,93.744-33.853,93.744Z" transform="translate(-26.433 100.64)" fill="#a8a8a8"/>
  <path id="Path_999" data-name="Path 999" d="M355.338,612.181c3.461,9.6,4.831,20.666,0,31.45L336.6,652.892s-50.372-21.35-44.25-65.109c0,0,1.653-9.041,19-8.344a49.171,49.171,0,0,1,43.992,32.742Z" transform="translate(-23.242 125.45)" fill="#fff" opacity="0.1"/>
  <path id="Path_1000" data-name="Path 1000" d="M330.862,521.948c-.581-15.344,7.75-20.666,14.634-22.358a19.077,19.077,0,0,0-11.121-5.231,29.526,29.526,0,0,0-9.7,15.5l-17.566,85.62S331.844,547.664,330.862,521.948Z" transform="translate(-18.787 100.652)" fill="#fff" opacity="0.1"/>
  <path id="Path_1001" data-name="Path 1001" d="M293.806,568.14,335.447,625.1l7.22,47.014-26.762,13.213-38.58,8.524a37.082,37.082,0,0,1-11.327.736L160.72,685.327l14.324-33.207,49.468-69.449Z" transform="translate(-61.474 122.166)" fill="#a8a8a8"/>
  <path id="Path_1002" data-name="Path 1002" d="M274.465,553.005s28.415,1.95,17.747,50.773S171.77,656.514,171.77,656.514s23.326-41.331,59.207-70.947c4.03-3.319,7.917-6.781,11.624-10.475C250.854,566.838,266.638,552.333,274.465,553.005Z" transform="translate(-58.252 117.746)" fill="#fff" opacity="0.1"/>
  <path id="Path_1003" data-name="Path 1003" d="M271.07,581.5s38.5,35.041,34.873,88.965" transform="translate(-29.296 126.062)" opacity="0.1"/>
  <path id="Path_1004" data-name="Path 1004" d="M331.365,496.06s-40.4,53.73-44.935,136.405" transform="translate(-24.817 101.148)" opacity="0.1"/>
  <path id="Path_1005" data-name="Path 1005" d="M220.468,478.43s19.555,88.8-29.268,155.728" transform="translate(-52.586 96.007)" opacity="0.1"/>
  <path id="Path_1006" data-name="Path 1006" d="M492.272,782.55H702.983a11.805,11.805,0,0,0,10.333-17.4L608.012,569.5a11.792,11.792,0,0,0-20.769,0L481.888,765.152a11.805,11.805,0,0,0,10.384,17.4ZM611.035,746.8H584.221V720h26.814Zm0-44.676H584.221V648.508h26.814Z" transform="translate(31.767 120.754)" fill="#464353"/>
  <path id="Path_1007" data-name="Path 1007" d="M492.272,782.55H702.983a11.805,11.805,0,0,0,10.333-17.4L608.012,569.5a11.792,11.792,0,0,0-20.769,0L481.888,765.152a11.805,11.805,0,0,0,10.384,17.4ZM611.035,746.8H584.221V720h26.814Zm0-44.676H584.221V648.508h26.814Z" transform="translate(31.767 120.754)" opacity="0.1"/>
  <path id="Path_1008" data-name="Path 1008" d="M492.272,787.55H702.983a11.805,11.805,0,0,0,10.333-17.4L608.012,574.5a11.792,11.792,0,0,0-20.769,0L481.888,770.152a11.805,11.805,0,0,0,10.384,17.4ZM611.035,751.8H584.221V725h26.814Zm0-44.676H584.221V653.508h26.814Z" transform="translate(31.767 122.212)" fill="#464353"/>
  <path id="Path_1009" data-name="Path 1009" d="M491.289,780.8a14.467,14.467,0,0,0-2.984-1.447c-3.462-1.292-7.156-1.627-10.617-2.867a15.2,15.2,0,0,1-5.334-3.151c-.258-.258-.5-.517-.736-.788,1.292-.814,2.467-1.627,3.746-2.389a44.378,44.378,0,0,0-15.577-15.5c2.079-3.061,6.768-2.816,9.506-5.283a9.041,9.041,0,0,0,2.583-5.076c1.02-5.076-.245-10.333-1.511-15.331-2.454-9.777-4.934-19.619-8.912-28.867a113.747,113.747,0,0,1-4.831-11.7c-3.345-11.134-1.007-23.249-3.539-34.628-.814-3.655-2.131-7.427-1.214-11.043,1.408-5.606,7.672-8.925,9.041-14.53,4.96-19.955,5.851-40.659,8.667-61.028a78.548,78.548,0,0,0,1.046-11.715c0-4.12-.736-8.2-1.033-12.309-.8-11.534,1.511-23.055,2.506-34.576a36.164,36.164,0,0,1,4.689,11.56,46.665,46.665,0,0,1,.271,11.469,53.871,53.871,0,0,1-.814,7.633c-.633,3-1.744,5.864-2.48,8.86a27.4,27.4,0,0,0,1.227,17.772c1.757,3.875,5.618,7.465,9.635,6.3,2.777-.8,4.456-3.565,5.7-6.187,3.875-8.215,6.032-17.734,3.423-26.465-1.718-5.812-5.489-11.069-5.838-17.139a44.3,44.3,0,0,1,.568-7.246c1.615-14.027-1.873-28.118-2.648-42.222-.207-3.733.129-8.37-.71-12.335-.1-.478-.22-.956-.362-1.408a3.02,3.02,0,0,1,.93.426,8.421,8.421,0,0,0-.181-7.22,18.359,18.359,0,0,1-1.214-2.273c-.491-1.292-.4-2.79-1.007-4.03a17.2,17.2,0,0,0-1.292-1.873c-1.666-2.415-1.757-5.541-1.8-8.473q-.3-22.939-1.292-45.826c-.349-7.75-.788-15.68-3.5-22.952a34.408,34.408,0,0,0-12.141-16.106,28.3,28.3,0,0,0-2.725-1.7,9.455,9.455,0,0,0,.775-3.487,8.344,8.344,0,0,0,0-1.137l-.077-.646h0a27.254,27.254,0,0,0-2.583-7.75,21.776,21.776,0,0,1-2.467-8.473,13.175,13.175,0,0,1,.09-1.6h0c.439-3.72,2.377-7.207,3.061-10.927a18.738,18.738,0,0,0,.284-3.5c0-.4,0-.814,0-1.227a35.208,35.208,0,0,0-4.146-13.045c-.646-1.292-1.292-2.583-2.015-3.875-.336-2.415-.71-4.831-1.085-7.233-.207-1.395-.426-2.79-.723-4.172q-.22-1.033-.5-2.015c2-1.886.84-4.65-.439-7.207-2.467-4.856-1.95-10.656-3-16a48.354,48.354,0,0,0-3.8-10.746,23.945,23.945,0,0,0-4.12-6.768,25.263,25.263,0,0,0-5.334-3.875,16.983,16.983,0,0,0-5.3-2.389c-1.175-.232-2.377-.22-3.539-.491a11.211,11.211,0,0,1-2.17-.788,14.762,14.762,0,0,0-4.637-1.692,10.333,10.333,0,0,0-4.469.852,16.442,16.442,0,0,1-4.8,1.292h-1.821a4.042,4.042,0,0,0-2.467.594,9.33,9.33,0,0,0-1.059,1.085,14.3,14.3,0,0,1-3.113,2.131,30.675,30.675,0,0,0-15.06,26.219,12.994,12.994,0,0,1-.375,4.249c-.375,1.085-1.111,2.028-1.421,3.139a8.808,8.808,0,0,0-.142,2.945c.1,1.511.258,3.009.426,4.521h0a9.507,9.507,0,0,0-1.886,4.172h0a5.69,5.69,0,0,0-.116.8v.1h0c-.142,2.7,1.188,5.166,1.963,7.75a27.537,27.537,0,0,1-.387,15.2c-.943,3.4-2.286,6.91-2.583,10.333h0v.232a12.49,12.49,0,0,0,.594,5.166c.426,1.175,1.059,2.273,1.447,3.461,1.369,4.211-.62,8.628-3.255,12.322h0c-.413.581-.84,1.137-1.292,1.679h.065L379,338.4l2.687,1.9c-.788.413-1.576.865-2.377,1.292a24.436,24.436,0,0,0-8.757,3.242,35.6,35.6,0,0,0-7.1,4.727,30.132,30.132,0,0,0-5.606,7.75,97.386,97.386,0,0,0-4.753,10.023,31.386,31.386,0,0,0-2.428,8.692c-1.111,2.364-2.028,4.908-3.048,7.194-.517,1.175-1.02,2.351-1.524,3.526L301.631,277.893l-6.9,2.867.542,1.292-1.434.607,1.95,4.753c-.284.194-.568.387-.84.594l-.362.284-.723.568-.362.3-.736.62-.271.232-.917.84h0c-.982.891-1.924,1.834-2.842,2.777l-2.364,2.441-.452.478-.788.8-.439.452-1.124,1.124L283.5,299l-.7.672-.439.413c-.181.181-.375.349-.568.517l-.542.5-.878.749-.258.232-1.2.956a33.669,33.669,0,0,1-5.166,3.319c-7.065,3.655-14.543,6.716-21.44,10.63a61.738,61.738,0,0,0-10.617,7.44c-4.559,4.043-8.421,9.041-13.7,11.973l-.581.31c-9.351,4.8-20.368,1.924-31,1.718-1.589,0-3.151,0-4.7.1-8.628.672-16.52,4.172-24.153,8.434-5.373,3.009-10.617,6.393-15.887,9.454-3.332,1.924-6.678,4.017-10.036,6.161-8.525,5.412-17.152,11.095-26.077,15.189-8.292,3.8-16.791,6.213-25.832,5.748H89.6a21.55,21.55,0,0,1-2.583-.22c-.84,6.781,4.585,12.244,8.2,18.212a18.456,18.456,0,0,1,3.061,8.628,15.5,15.5,0,0,1-.258,3.461c-.723,4.185-2.661,8.292-2.131,12.5a14.479,14.479,0,0,0,2.751,6.794c2.3,3.281,5.489,6.2,7.659,9.622,3.281,5.166,4.133,11.456,5.412,17.54a36.9,36.9,0,0,0,4.249,12.154c2.79,4.495,7.052,7.75,11.056,11.2.736.633,1.46,1.292,2.157,1.937.517.465,1.02.956,1.5,1.46,4.688,4.792,8.176,12.18,5.347,18.173-.09.207-.194.387-.3.581a5.161,5.161,0,0,0,.71.426c3.6,1.757,8.124-1.059,11.082-4.043,1.46-1.46,2.842-3.009,4.185-4.585,3.6-4,6.91-8.344,10.333-12.5.93-1.124,1.86-2.222,2.816-3.306a47.787,47.787,0,0,1,12.761-10.333,46.869,46.869,0,0,1,7.827-3.177c4-1.292,8.137-2.247,12.154-3.513a99.854,99.854,0,0,0,16-6.716A246.13,246.13,0,0,0,239.428,441.8l1.292-.84a44.275,44.275,0,0,0,7.685-6.135c.413-.452.814-.917,1.188-1.395,2.015-2.583,3.319-5.644,5.166-8.331a26.8,26.8,0,0,1,7.246-6.988c7.969-5.36,18.547-7.4,28.015-10.333h.1a108.883,108.883,0,0,0,44.134-26.207l7.078,17.333q-1.1,3.074-2.079,6.213c-1.576,5.166-2.867,10.488-5.954,14.853a11.082,11.082,0,0,0-2.247,3.991,12.915,12.915,0,0,1-.53,3.2c-.439.878-1.356,1.46-1.731,2.364-.542,1.292.168,2.958-.555,4.172a6.562,6.562,0,0,1-1.227,1.292c-1.847,1.64-2.338,4.224-2.338,6.574a23.028,23.028,0,0,1-.581,7.13,16.982,16.982,0,0,1,1.666-.865,7.751,7.751,0,0,0-.142,1.292,14.39,14.39,0,0,0,.452,3.629,28.661,28.661,0,0,0,3.771,7.543,53.609,53.609,0,0,0,4.043,5.812,52.957,52.957,0,0,0,8.55,7.646L355.452,483.8l-1.292,5.438c-2.842,11.392-5.709,22.926-5.851,34.679a149.435,149.435,0,0,0,1.046,16.649l1.124,11.34c.9,9.132,1.808,18.263,2.8,27.395.633,5.773,1.292,11.624,3.332,17.075,3.074,8.279-.323,17.63.982,26.387,1.033,6.858,3.074,13.949,1.02,20.575-.827,2.583-2.273,5.063-3.332,7.62-2.648,6.355-2.919,13.42-3.139,20.3a86.288,86.288,0,0,0,.659,18.082c1.111,6.174,3.565,12.231,3.087,18.5-.672,8.9-7.181,16.507-7.969,25.406-.633,7.091,2.454,13.949,5.773,20.239,2.441,4.637-.969,10.63-2.26,15.732-2.583,10.01,1.7,20.472,6.936,29.345a1.447,1.447,0,0,0,.659.7c.594.219,1.15-.375,1.537-.878a10.562,10.562,0,0,1,.775-.917c0,.4.077.8.1,1.188,0,.84.065,1.679.065,2.583a25.96,25.96,0,0,0,1.757,9.558,16.889,16.889,0,0,0,.723,1.731,7.983,7.983,0,0,0,1.292,2.079,7.892,7.892,0,0,0,5.166,2.17c4.288.465,8.6-.426,12.916-.8,4.546-.387,9.106-.22,13.665-.323a1.976,1.976,0,0,0,1.02-.219,1.744,1.744,0,0,0,.581-.93,10.333,10.333,0,0,0,.22-5.089,36.079,36.079,0,0,0-.969-4.043c-.607-2.131-1.162-4.275-1.692-6.458-.1-.4-.194-.8-.284-1.2l.207.09q4.172-9.377,8.357-18.754c1.408-3.164,2.842-6.587,2.144-9.984-.5-2.428-2.054-4.482-3.151-6.7-2.583-5.244-2.686-11.366-2.725-17.23l-.155-33.22c6.458-8.215,10.449-17.992,12.916-28.2a91.2,91.2,0,0,1,.762,43.914,40.913,40.913,0,0,0-1.227,6.69c-.5,9.209,6.665,17.01,8.576,26.026a5.864,5.864,0,0,1,.142,2.118,7.942,7.942,0,0,1-1.059,2.454c-3.436,6.29-3.061,13.885-2.583,21.04l1.511.245a4,4,0,0,0,1.6,1.576h0a7.9,7.9,0,0,0,2,.827,49.318,49.318,0,0,0,7.53,1.149c3.642.362,7.3.723,10.953.956,1.447.09,2.893.168,4.34.207a43.347,43.347,0,0,1,6.078.427,43.921,43.921,0,0,1,6.45,1.872c9.416,3.152,19.955,4.947,29.074,1.02a13.1,13.1,0,0,0,5.308-3.759,6.251,6.251,0,0,0-1.563-9.713Zm-124.923-368.2c1.369,2.725,2.738,5.438,3.875,8.266,2.234,5.476,3.591,11.624,2.17,17.333-.413,1.679-3.113,2.971-3.1,4.7a3.883,3.883,0,0,0-.207.4l-8.434-20.666a73.723,73.723,0,0,1,5.7-10.036Zm-9.261,43.914a35.738,35.738,0,0,1-4.572-7.892c-.155-.349-.323-.685-.478-1.033a3.1,3.1,0,0,0,1.227-.917c1.292-1.627.594-4,.788-6.1a13.175,13.175,0,0,1,2.054-5.166l7.917,19.374q-1.2,3.152-2.247,6.368a45.207,45.207,0,0,1-4.688-4.637Z" transform="translate(-82.99 23.591)" fill="url(#linear-gradient)"/>
  <path id="Path_1010" data-name="Path 1010" d="M318.5,274.451c-.142,2.7,1.2,5.166,1.989,7.75a27.421,27.421,0,0,1-.375,15.163c-1.447,5.166-3.875,10.63-2.028,15.68.426,1.188,1.072,2.273,1.46,3.461,1.6,4.908-1.369,10.074-4.624,14.091l12.774,8.951a14.685,14.685,0,0,0,6.458,3.087c2.389.284,5.166-.995,5.657-3.345.168-.8,0-1.64.155-2.454a6.665,6.665,0,0,1,3.578-4.96,11.7,11.7,0,0,1,6.187-1.15c7.84.426,14.5,5.58,21.634,8.886a87.034,87.034,0,0,0,14.556,4.831c2.829.736,5.967,1.408,8.525,0s3.733-4.676,3.539-7.633a24.965,24.965,0,0,0-2.712-8.408,21.388,21.388,0,0,1-2.493-8.46c0-4.34,2.377-8.292,3.177-12.554,1.124-6.058-1.162-12.218-3.952-17.721s-6.174-10.8-7.53-16.791a24.538,24.538,0,0,0-1.408-5.308,12.089,12.089,0,0,0-2.583-3.461c-4.792-4.74-11.624-6.988-18.315-7.478s-13.445.607-20.084,1.757a41.993,41.993,0,0,0-7.452,1.769,47.338,47.338,0,0,0-9.8,5.308C321.8,267.554,318.691,270.615,318.5,274.451Z" transform="translate(-16.51 31.295)" fill="#464353"/>
  <g id="Group_728" data-name="Group 728" transform="translate(298.372 304.894)" opacity="0.1">
    <path id="Path_1011" data-name="Path 1011" d="M375.17,306.859a5.674,5.674,0,0,0,.077,1.15c.4-3.784,2.389-7.336,3.1-11.121a18.367,18.367,0,0,0,.245-4.6,12.6,12.6,0,0,1-.245,2.015C377.534,298.567,375.119,302.519,375.17,306.859Z" transform="translate(-297.313 -263.164)"/>
    <path id="Path_1012" data-name="Path 1012" d="M320.547,283.508a23.133,23.133,0,0,0-.865-7.75,44.916,44.916,0,0,1-1.873-6.019c0,.271-.1.53-.116.8-.142,2.7,1.2,5.166,1.989,7.75A21.813,21.813,0,0,1,320.547,283.508Z" transform="translate(-314.076 -269.74)"/>
    <path id="Path_1013" data-name="Path 1013" d="M397.875,319.951a7.388,7.388,0,0,1-3.461,5.7c-2.583,1.408-5.7.736-8.525,0a85.918,85.918,0,0,1-14.556-4.844c-7.13-3.293-13.794-8.447-21.634-8.873a11.7,11.7,0,0,0-6.187,1.15,6.665,6.665,0,0,0-3.578,4.96c-.09.814,0,1.653-.155,2.454-.5,2.351-3.268,3.629-5.657,3.345a14.685,14.685,0,0,1-6.458-3.087l-11.482-8.06c-.426.581-.852,1.15-1.292,1.679l12.774,8.964a14.685,14.685,0,0,0,6.458,3.087c2.389.284,5.166-.995,5.657-3.345.168-.8,0-1.64.155-2.454a6.665,6.665,0,0,1,3.578-4.96,11.7,11.7,0,0,1,6.187-1.15c7.84.426,14.5,5.58,21.634,8.873a85.915,85.915,0,0,0,14.556,4.843c2.829.736,5.967,1.408,8.525,0s3.733-4.676,3.539-7.633C397.94,320.377,397.9,320.171,397.875,319.951Z" transform="translate(-314.89 -257.451)"/>
    <path id="Path_1014" data-name="Path 1014" d="M318.979,304.878a10,10,0,0,1,.349,1.589,9.364,9.364,0,0,0-.349-4.172c-.387-1.188-1.033-2.273-1.46-3.461a10.8,10.8,0,0,1-.594-2.674,12.141,12.141,0,0,0,.594,5.257C317.946,302.605,318.592,303.7,318.979,304.878Z" transform="translate(-314.317 -262.036)"/>
  </g>
  <path id="Path_1015" data-name="Path 1015" d="M338.82,688.327a1.692,1.692,0,0,1-.594.93,1.976,1.976,0,0,1-1.02.22c-4.6.1-9.2,0-13.781.323-4.34.375-8.692,1.292-13.019.8a6.678,6.678,0,0,1-6.458-4.249,16.886,16.886,0,0,1-.723-1.731,25.715,25.715,0,0,1-1.769-9.558c0-.865,0-1.7,0-2.583a19.6,19.6,0,0,0-.375-2.816,4.275,4.275,0,0,1,.129-3.268c1.834-3.345,6.264-4.017,9.674-4.275a79.885,79.885,0,0,1,23.572,1.731c.607,2.971,1.292,5.916,2.015,8.86q.8,3.242,1.7,6.458a36.161,36.161,0,0,1,.982,4.043A10.334,10.334,0,0,1,338.82,688.327Z" transform="translate(-20.622 149.505)" fill="#464353"/>
  <path id="Path_1016" data-name="Path 1016" d="M338.276,683.51a1.692,1.692,0,0,1-.594.93,1.976,1.976,0,0,1-1.02.22c-4.6.1-9.2,0-13.781.323-4.34.375-8.692,1.292-13.019.8a6.678,6.678,0,0,1-6.458-4.249,16.886,16.886,0,0,1-.723-1.731h1.653c5.438,0,10.888-.194,16.326-.194a41.741,41.741,0,0,0,4.921-.271c1.627-.194,2.958-.465,4.443-.646a60.847,60.847,0,0,1,6.69-.271h1.834A10.333,10.333,0,0,1,338.276,683.51Z" transform="translate(-20.079 154.322)" opacity="0.06"/>
  <path id="Path_1017" data-name="Path 1017" d="M420.642,668.418a13.212,13.212,0,0,1-5.347,3.759c-9.2,3.875-19.826,2.131-29.319-1.021a44.683,44.683,0,0,0-6.523-1.873,43.919,43.919,0,0,0-6.109-.426c-1.459,0-2.919-.116-4.379-.207-3.694-.233-7.375-.594-11.043-.956a49.884,49.884,0,0,1-7.595-1.149,8.073,8.073,0,0,1-2.028-.827h0a3.113,3.113,0,0,1-1.86-2.777c.1-1.64,1.808-2.583,3.306-3.293,13.291-5.748,27.731-8.24,42.067-10.242a16.861,16.861,0,0,0,4.223-1.292c1.615-.646,1.782.413,2.583,1.6a9.97,9.97,0,0,0,1.292,1.524,15.371,15.371,0,0,0,5.373,3.151c3.487,1.292,7.22,1.64,10.707,2.867A14.659,14.659,0,0,1,419,658.705a6.226,6.226,0,0,1,1.576,9.713Z" transform="translate(-7.319 145.429)" fill="#464353"/>
  <path id="Path_1018" data-name="Path 1018" d="M415.557,665.983a13.213,13.213,0,0,1-5.347,3.759c-9.2,3.875-19.826,2.131-29.319-1.02a44.682,44.682,0,0,0-6.523-1.873,43.9,43.9,0,0,0-6.109-.426c-1.46,0-2.919-.116-4.379-.207,1.188-1.124,2.4-2.221,3.642-3.281a10.852,10.852,0,0,1,3.061-2.015,8.86,8.86,0,0,1,4.353-.3c7.388,1.02,14.027,6.2,21.479,5.748a26.429,26.429,0,0,0,9.881-3.19,17.244,17.244,0,0,0,6.458-4.6,7.455,7.455,0,0,0,1.2-2.312,6.225,6.225,0,0,1,1.576,9.713Z" transform="translate(-2.233 147.865)" opacity="0.06"/>
  <path id="Path_1019" data-name="Path 1019" d="M408.648,514.895c-1.292,2.583-2.945,5.386-5.735,6.187-4.056,1.162-7.956-2.48-9.726-6.3a27.226,27.226,0,0,1-1.292-17.772c.736-2.984,1.86-5.851,2.493-8.847a53.881,53.881,0,0,0,.827-7.633,46.666,46.666,0,0,0-.271-11.469c-2.079-11.095-11.624-19.374-14.8-30.275-1.6-5.438-1.524-11.224-1.434-16.894a17.37,17.37,0,0,1,.439-4.262,6.652,6.652,0,0,1,.388-1.111c2.131-4.727,8.447-5.373,12.838-8.124,2.428-1.511,7.943-6.38,9.984-1.937a14.607,14.607,0,0,1,.982,3.087c.84,3.952.5,8.589.71,12.322.788,14.1,4.3,28.183,2.674,42.209a44.031,44.031,0,0,0-.568,7.233c.349,6.071,4.146,11.327,5.89,17.139C414.732,497.187,412.575,506.706,408.648,514.895Z" transform="translate(2.079 74.486)" fill="#fbbebe"/>
  <path id="Path_1020" data-name="Path 1020" d="M403.282,409.571a4.352,4.352,0,0,0-2.971,0l-8.744,2.583a54.143,54.143,0,0,0-8.925,3.242,20.937,20.937,0,0,0-3.552,2.209,6.653,6.653,0,0,1,.387-1.111c2.131-4.727,8.447-5.373,12.838-8.124,2.428-1.511,7.943-6.38,9.984-1.937a14.6,14.6,0,0,1,.982,3.139Z" transform="translate(2.202 74.48)" opacity="0.1"/>
  <path id="Path_1021" data-name="Path 1021" d="M407.757,433.422a3.952,3.952,0,0,0-3.539-.284l-8.744,2.583a54.142,54.142,0,0,0-8.925,3.242,20.51,20.51,0,0,0-4.249,2.764c-4.081-7.091-5.166-15.5-5.915-23.636-.413-4.74-.723-9.493-.9-14.208a63.73,63.73,0,0,1,.207-10.178c.491-3.875,1.614-7.659,2.312-11.508a52.526,52.526,0,0,0,.8-6.82,66.685,66.685,0,0,0-.685-14.97,92.783,92.783,0,0,0-3.591-15.5c-.827-2.312-1.821-4.546-2.725-6.82l-.31-.8a94.154,94.154,0,0,1-3.991-12.8c-.413-1.782-.439-3.655-1.808-4.869a24.3,24.3,0,0,1,3.875-.155h.775a28.97,28.97,0,0,1,14.776,5.166,34.524,34.524,0,0,1,12.244,16.2c2.725,7.272,3.177,15.176,3.526,22.939q1.046,22.887,1.292,45.8c0,2.932.129,6.058,1.808,8.473a17.293,17.293,0,0,1,1.292,1.873c.607,1.292.517,2.725,1.007,4.03a20.373,20.373,0,0,0,1.227,2.273,8.331,8.331,0,0,1,.245,7.207Z" transform="translate(-1.705 49.648)" fill="#464353"/>
  <path id="Path_1022" data-name="Path 1022" d="M332.575,290.6c-1.292-.426-2.583-.878-3.875-1.292l2.686.207a5.425,5.425,0,0,1,1.188,1.085Z" transform="translate(-12.491 40.861)" fill="#fbbebe"/>
  <path id="Path_1023" data-name="Path 1023" d="M386.913,336.918c-.258.878-.517,1.757-.8,2.583a49.359,49.359,0,0,1-2.389,6.213,28.907,28.907,0,0,1-6.109,8.86,8.111,8.111,0,0,1-3.048,2.015,9.686,9.686,0,0,1-3,.284q-5.166,0-10.333-.155a36.707,36.707,0,0,1-7.982-.788,28.5,28.5,0,0,1-8.137-3.668c-9.648-5.967-17.579-15.06-20.976-25.832-.426-1.369-.723-3.009.22-4.081a5,5,0,0,1,3.294-1.124h.155a20.808,20.808,0,0,0,7.866-2.7,8.086,8.086,0,0,0,3.591-3.668,9.894,9.894,0,0,0-.116-5.709l-2.867-13.019a13.484,13.484,0,0,0-2.286-5.8c.84.3,1.679.568,2.583.8,7.982,2.157,16.713.852,24.54,3.681,3,1.1,5.993,3.074,6.9,6.148,1.511,5.166-3.539,10.526-2.092,15.693.969,3.513,4.546,5.541,7.75,7.181l2.157,1.1,5.98,3.035.827.413.129.065c1.886.956,3.875,2.144,4.534,4.172a7.75,7.75,0,0,1-.388,4.3Z" transform="translate(-13.939 41.158)" fill="#fbbebe"/>
  <path id="Path_1024" data-name="Path 1024" d="M402.67,360.6a27.886,27.886,0,0,1-2.377,9.558,39.044,39.044,0,0,0-4.068,16.791c-.994,17.437-7.62,38.193,1.873,52.839.232.362.465.723.685,1.1a20.505,20.505,0,0,0-4.249,2.764c-4.081-7.091-5.166-15.5-5.915-23.636-.413-4.74-.723-9.493-.9-14.208a63.733,63.733,0,0,1,.207-10.178c.491-3.875,1.614-7.659,2.312-11.508a52.52,52.52,0,0,0,.8-6.82,66.684,66.684,0,0,0-.685-14.97,92.787,92.787,0,0,0-3.591-15.5c-.827-2.312-1.821-4.546-2.725-6.82l-.31-.8a28.907,28.907,0,0,1-6.109,8.86,8.112,8.112,0,0,1-3.048,2.015,9.686,9.686,0,0,1-3,.284q-5.166,0-10.333-.155a36.707,36.707,0,0,1-7.982-.788,28.505,28.505,0,0,1-8.137-3.668c-9.648-5.967-17.579-15.06-20.976-25.832-.426-1.369-.723-3.009.22-4.081a5,5,0,0,1,3.294-1.124h.155L339.434,329.1a23.247,23.247,0,0,1,3.358,5.024,3,3,0,0,0,1.033,1.537,2.648,2.648,0,0,0,1.292.232h36.371a9.442,9.442,0,0,0-1.6-5.438c-.336.078-.788.1-.09-.1a36.6,36.6,0,0,0-4-11.973,8.33,8.33,0,0,0-.4-.749,13.768,13.768,0,0,1-1.912-4.185,6.974,6.974,0,0,1,4.236,0c1.589.685,2.415,2.4,3.113,3.991.594,1.292,1.188,2.674,1.718,4.03,0,.142.129.3.181.439a29.24,29.24,0,0,1,2.144,8.382c.078,1.059.336,2.4,1.214,2.751a1.15,1.15,0,0,0,.439.1,4.882,4.882,0,0,1,5.283,1.292,11.625,11.625,0,0,1,2.583,5.089A27.852,27.852,0,0,0,396.225,345c1.666,3.177-.878,4.6,2.131,6.548a10.488,10.488,0,0,1,3.539,3.177,9.919,9.919,0,0,1,.775,5.877Z" transform="translate(-13.939 47.802)" opacity="0.1"/>
  <path id="Path_1025" data-name="Path 1025" d="M334.364,663.892c.607,2.971,1.292,5.916,2.015,8.86l-.077.181c-5.9-2.583-11.947-5.283-18.392-5.851-5.98-.517-12.477,1.1-16.545,5.438a19.594,19.594,0,0,0-.375-2.816,4.275,4.275,0,0,1,.129-3.268c1.834-3.345,6.264-4.017,9.674-4.275a79.887,79.887,0,0,1,23.572,1.731Z" transform="translate(-20.649 149.517)" opacity="0.1"/>
  <path id="Path_1026" data-name="Path 1026" d="M366.24,328.37c.607,0,.387,0,.09.1S365.543,328.577,366.24,328.37Z" transform="translate(-1.649 52.25)" opacity="0.1"/>
  <path id="Path_1027" data-name="Path 1027" d="M399.977,651.24a112.182,112.182,0,0,0-16.171,12.516,16.932,16.932,0,0,1-5.1,3.733,14.906,14.906,0,0,1-6.148.633,209.254,209.254,0,0,1-24.256-2.4h0a3.113,3.113,0,0,1-1.86-2.777c.1-1.64,1.808-2.583,3.307-3.293,13.291-5.748,27.731-8.24,42.067-10.242a16.853,16.853,0,0,0,4.224-1.292c1.615-.646,1.782.413,2.583,1.6a9.956,9.956,0,0,0,1.356,1.524Z" transform="translate(-7.319 145.429)" opacity="0.1"/>
  <path id="Path_1028" data-name="Path 1028" d="M321.49,317.8c1.9,1.692,4.069,3.061,5.993,4.7,5.166,4.379,8.421,10.5,11.624,16.468a10.772,10.772,0,0,1-5.928.4,42.52,42.52,0,0,0,.5,17.269,16.016,16.016,0,0,0-5.773,7.168,47.926,47.926,0,0,0-1.886,9.041q-2.79,20.162-5.606,40.324a6.251,6.251,0,0,1-1.292,3.629,6.959,6.959,0,0,0-.982.969,5.36,5.36,0,0,0-.452,2.777c-.077.943-.7,2.067-1.64,1.937a2.041,2.041,0,0,1-1.15-.749,26.376,26.376,0,0,1-2.583-3.2C304.7,433.151,301.031,448.908,297,464.9c-2.88,11.392-5.76,22.913-5.9,34.666a149.413,149.413,0,0,0,1.046,16.636l1.137,11.34c.917,9.119,1.834,18.25,2.829,27.369.646,5.786,1.292,11.624,3.371,17.075,3.1,8.279-.336,17.617.982,26.374,1.033,6.858,3.087,13.949,1.02,20.562-.827,2.648-2.273,5.063-3.358,7.62-2.661,6.355-2.932,13.42-3.164,20.3a85.244,85.244,0,0,0,.672,18.082c1.111,6.187,3.6,12.244,3.113,18.5-.685,8.9-7.246,16.507-8.047,25.393-.633,7.091,2.48,13.936,5.825,20.226,2.467,4.637-.969,10.63-2.273,15.732-2.583,10,1.718,20.459,6.988,29.332a1.408,1.408,0,0,0,.672.7c.607.22,1.15-.375,1.55-.878,3.965-5.089,10.991-7.013,17.437-6.458s12.477,3.216,18.392,5.851l8.382-18.663c1.421-3.164,2.867-6.587,2.157-9.984-.5-2.428-2.067-4.482-3.177-6.7-2.583-5.244-2.712-11.353-2.738-17.23l-.155-33.194c6.535-8.215,10.526-17.979,13.045-28.183a90.412,90.412,0,0,1,.775,43.914,39.845,39.845,0,0,0-1.292,6.69c-.5,9.209,6.716,17,8.641,26.013a5.592,5.592,0,0,1,.155,2.118,7.981,7.981,0,0,1-1.072,2.454c-3.461,6.277-3.087,13.885-2.583,21.04a209.656,209.656,0,0,0,27.395,2.932,15.4,15.4,0,0,0,6.148-.633,16.972,16.972,0,0,0,5.1-3.746,112.644,112.644,0,0,1,19.206-14.531,44.716,44.716,0,0,0-15.693-15.5c2.079-3.061,6.82-2.816,9.584-5.27a9.041,9.041,0,0,0,2.583-5.089c1.033-5.063-.245-10.333-1.524-15.305-2.48-9.79-4.973-19.619-9.041-28.867a110.912,110.912,0,0,1-4.856-11.689c-3.384-11.134-1.02-23.249-3.578-34.628-.827-3.642-2.157-7.4-1.227-11.03,1.421-5.593,7.75-8.912,9.144-14.518,5-19.955,5.89-40.634,8.731-61a78.375,78.375,0,0,0,1.02-11.766c0-4.12-.736-8.2-1.033-12.309-1.162-16.442,4.094-32.845,2.751-49.274a62,62,0,0,0-9.713-28.415c-9.493-14.66-2.867-35.4-1.873-52.839a38.851,38.851,0,0,1,4.056-16.791,27.551,27.551,0,0,0,2.39-9.558,9.881,9.881,0,0,0-.723-6.032,10.19,10.19,0,0,0-3.526-3.177c-3.009-1.963-.465-3.384-2.131-6.561a27.563,27.563,0,0,1-1.834-5.476,11.521,11.521,0,0,0-2.583-5.076,4.882,4.882,0,0,0-5.283-1.292c-1.227,0-1.563-1.627-1.666-2.854-.349-4.495-2.209-8.718-4.03-12.851-.7-1.589-1.524-3.306-3.113-3.991a7.117,7.117,0,0,0-4.249,0,13.729,13.729,0,0,0,1.924,4.2,36.474,36.474,0,0,1,4.391,12.709c-1.292.387,1.292,0,0,0a9.041,9.041,0,0,1,1.692,5.541H353.509a2.583,2.583,0,0,1-1.292-.232,3.1,3.1,0,0,1-1.046-1.537,22.384,22.384,0,0,0-3.358-5.011L335.026,314.35a3.229,3.229,0,0,0-1.1-.994,2.97,2.97,0,0,0-1.614,0C328.168,313.962,325.107,315.693,321.49,317.8Z" transform="translate(-23.597 47.84)" fill="#4ab1d9"/>
  <path id="Path_1029" data-name="Path 1029" d="M352.508,482.21a12.322,12.322,0,0,1,6.29,1.627,6.342,6.342,0,0,1,3.126,5.451c-.142,2.441-2.015,4.379-3.371,6.458a17.312,17.312,0,0,0-1.989,4.081,1.64,1.64,0,0,0-.1,1.046c.155.491.685.736,1.137.956a9.7,9.7,0,0,1,5.7,8.473c-.116,5.037-5.037,9.119-4.766,14.207a29.226,29.226,0,0,0,.543,3.152,24.075,24.075,0,0,1-1.744,12.774c-1.563,4.056-3.694,7.866-5.373,11.883-4.534,10.914-5.515,23-5.166,34.873.271,8.06-2.583,15.732-5.166,23.4a336.414,336.414,0,0,0,1.162-46.5c-.181-4.211-.71-8.189-.517-12.412.31-6.7,4.056-12.8,5.011-19.374.542-3.759.181-7.582.271-11.379.181-7.75,2.286-15.4,2.428-23.171C350.157,492.272,349.654,486.615,352.508,482.21Z" transform="translate(-8.724 97.109)" opacity="0.1"/>
  <path id="Path_1030" data-name="Path 1030" d="M312.868,319.686a35.415,35.415,0,0,0-7.155,4.727,30.482,30.482,0,0,0-5.657,7.75,98.97,98.97,0,0,0-4.792,10.023c-1.821,4.443-3.332,9.364-2.079,14,1.137,4.2,4.353,7.465,6.574,11.2s3.526,8.111,5.231,12.206c2.273,5.463,5.386,10.552,7.633,16.029s3.6,11.624,2.183,17.32c-.413,1.679-3.139,2.984-3.139,4.7,0,2.842,4.107,5.928,6.833,6.755,3.139.969,6.561-.478,9.132-2.583,4.714-3.733,7.582-9.325,9.7-14.957,3.41-9.041,5.231-18.638,6.871-28.17,1.188-7,2.3-14.014,2.932-21.066.581-6.355.762-12.916-.917-19.012a32.291,32.291,0,0,0-8.822-14.673c-3.358-3.229-8.86-7.569-13.743-7.685C319.791,316.237,316.174,317.865,312.868,319.686Z" transform="translate(-22.982 48.716)" fill="#464353"/>
  <path id="Path_1031" data-name="Path 1031" d="M355.255,452.7a6.174,6.174,0,0,1-2.88,4.3,16.959,16.959,0,0,1-4.921,2.015c-3.461,1.007-7.13,1.937-10.63,1.046a21.337,21.337,0,0,1-7.465-4.249l-39.109-29.939a52.817,52.817,0,0,1-8.615-7.646,55.066,55.066,0,0,1-4.081-5.8,28.416,28.416,0,0,1-3.8-7.543,13.808,13.808,0,0,1-.465-3.629,6.833,6.833,0,0,1,.827-3.319c.943-1.576,2.958-1.9,4.611-2.338a48.383,48.383,0,0,1,17.01-1.292,2.312,2.312,0,0,1,2.3,1.563c.865,1.589,1.614,3.242,2.389,4.9a35.388,35.388,0,0,0,4.611,7.892,66.563,66.563,0,0,0,5.748,5.541c4.133,3.875,7.517,8.525,11.921,12.089,5.1,4.12,11.3,6.587,17.114,9.622s11.547,6.975,14.466,12.851a7.529,7.529,0,0,1,.969,3.939Z" transform="translate(-28.649 71.405)" fill="#fbbebe"/>
  <path id="Path_1032" data-name="Path 1032" d="M386.24,284.96a31.98,31.98,0,1,1-.891-7.491A31.981,31.981,0,0,1,386.24,284.96Z" transform="translate(-14.364 30.267)" opacity="0.1"/>
  <path id="Path_1033" data-name="Path 1033" d="M386.24,283.96a31.98,31.98,0,1,1-.891-7.491A31.981,31.981,0,0,1,386.24,283.96Z" transform="translate(-14.364 29.976)" fill="#fbbebe"/>
  <path id="Path_1034" data-name="Path 1034" d="M300.426,400.712c-1.472.943-3.655.633-5.476.22-7.181-1.6-15.112-2.751-21.66.323a6.833,6.833,0,0,1,.827-3.319c.943-1.576,2.958-1.9,4.611-2.338a48.382,48.382,0,0,1,17.01-1.292,2.312,2.312,0,0,1,2.3,1.563C298.9,397.406,299.652,399.059,300.426,400.712Z" transform="translate(-28.649 71.405)" opacity="0.1"/>
  <path id="Path_1035" data-name="Path 1035" d="M287.276,373.157c-1.589,5.166-2.893,10.475-6.006,14.853A10.978,10.978,0,0,0,279,391.988a12.4,12.4,0,0,1-.53,3.2c-.439.878-1.369,1.46-1.744,2.364-.555,1.292.168,2.958-.568,4.172a6.2,6.2,0,0,1-1.227,1.292c-1.757,1.627-2.2,4.223-2.234,6.626s.194,4.856-.594,7.117c6.82-4.069,15.5-2.854,23.249-1.124,2.157.478,4.831.84,6.225-.891s.594-4,.788-6.083c.258-2.712,2.118-4.96,3.268-7.427,1.292-2.777,1.731-5.877,2.725-8.77,2.054-6.083,6.458-11.043,9.287-16.791a16.133,16.133,0,0,0,1.834-6.38,19.038,19.038,0,0,0-2.209-8.279,113.247,113.247,0,0,0-9.558-17.062c-1.64-2.415-4.469-6.884-7.013-3.022-2.067,3.113-3.358,7.078-4.882,10.488a191.953,191.953,0,0,0-8.537,21.737Z" transform="translate(-28.996 55.472)" fill="#464353"/>
  <path id="Path_1036" data-name="Path 1036" d="M390.552,347.5a26.1,26.1,0,0,1-20.9-8.253,3.2,3.2,0,0,1-.93-1.511,3.035,3.035,0,0,1,.594-2.118c1.55-2.389,4.224-3.965,5.463-6.536s.814-5.528.93-8.344c.207-5.05,2.2-10.049,2.364-15.021a15.694,15.694,0,0,0-.284-3.8,23.8,23.8,0,0,1-1.085-5.722c.168-3.784,3.578-6.729,4.146-10.462.736-4.753-3.2-8.886-7.168-11.624a42.713,42.713,0,0,0-9.764-5.05,31.786,31.786,0,0,0-6.561-1.589A25.573,25.573,0,0,0,345,268.852a20.192,20.192,0,0,0-4.6,2.454,6.225,6.225,0,0,0-2.054,2.131,6.935,6.935,0,0,0-.543,3.087c-.077,5.283.517,10.9-2,15.5-1.292,2.467-3.487,4.469-4.559,7.078a11.765,11.765,0,0,0-.814,3.4,34.224,34.224,0,0,0-.194,3.642c-.077,6.807,0,13.988,3.461,19.891a51.844,51.844,0,0,1,3.319,5.567,6.342,6.342,0,0,1-.323,6.187,7.039,7.039,0,0,1-2.583,1.937,20.665,20.665,0,0,1-16.52.594,20.937,20.937,0,0,0,4.882-23.352,13.782,13.782,0,0,1-1.782-5.166,13.109,13.109,0,0,1,1.292-4.727,25.832,25.832,0,0,0,.788-15.138c-.788-3.074-2.157-6.045-2.4-9.209a27.856,27.856,0,0,1,.31-7.155A23.249,23.249,0,0,1,336.6,257.241c.659-.22,1.292-.426,2.015-.607a42.964,42.964,0,0,1,9.545-1.02c7.168-.233,14.44-.439,21.35,1.434a28.647,28.647,0,0,1,11.056,5.683,19.954,19.954,0,0,1,5.347,7.065,24.538,24.538,0,0,1,1.511,4.882c.3,1.382.517,2.777.736,4.172,1.563,9.932,3.126,20.059,1.46,29.978-.659,3.875-1.808,7.75-2.325,11.7C386.045,329.635,388.3,338.689,390.552,347.5Z" transform="translate(-15.731 30.992)" fill="#464353"/>
  <circle id="Ellipse_80" data-name="Ellipse 80" cx="2.402" cy="2.402" r="2.402" transform="translate(326.528 386.446)" fill="#fff"/>
  <circle id="Ellipse_81" data-name="Ellipse 81" cx="2.402" cy="2.402" r="2.402" transform="translate(367.072 385.309)" fill="#fff"/>
  <path id="Path_1037" data-name="Path 1037" d="M339.716,243.324l-5.166-9.752a9.439,9.439,0,0,1,1.072-1.085,4.094,4.094,0,0,1,2.493-.594Z" transform="translate(-10.786 24.114)" opacity="0.1"/>
  <path id="Path_1038" data-name="Path 1038" d="M351.653,231.923l-5.851,8.654-3.332-9.493a10.566,10.566,0,0,1,4.508-.852,14.982,14.982,0,0,1,4.676,1.692Z" transform="translate(-8.476 23.632)" opacity="0.1"/>
  <g id="Group_729" data-name="Group 729" transform="translate(301.859 295.636)" opacity="0.1">
    <path id="Path_1039" data-name="Path 1039" d="M336.693,317.646a7.04,7.04,0,0,1-2.583,1.937,20.756,20.756,0,0,1-14.685,1.227,20.11,20.11,0,0,1-1.834,1.95,20.665,20.665,0,0,0,16.52-.594,7.039,7.039,0,0,0,2.583-1.937,5.567,5.567,0,0,0,.827-4.469A4.585,4.585,0,0,1,336.693,317.646Z" transform="translate(-317.59 -247.062)"/>
    <path id="Path_1040" data-name="Path 1040" d="M322.095,286.666a25.443,25.443,0,0,1,.736,5.166,25.74,25.74,0,0,0-.736-7.75c-.788-3.074-2.157-6.045-2.4-9.209a7.737,7.737,0,0,0-.065-1.214,28.807,28.807,0,0,0,.065,3.8C319.938,280.622,321.307,283.592,322.095,286.666Z" transform="translate(-317.006 -259.338)"/>
    <path id="Path_1041" data-name="Path 1041" d="M373.887,299.143a56.508,56.508,0,0,0,.7-10.333,53.845,53.845,0,0,1-.7,7.75c-.659,3.875-1.808,7.75-2.325,11.7a40.769,40.769,0,0,0-.3,6.393,38.13,38.13,0,0,1,.3-3.81C372.078,306.892,373.228,303.056,373.887,299.143Z" transform="translate(-301.945 -254.921)"/>
    <path id="Path_1042" data-name="Path 1042" d="M321.733,302a21.233,21.233,0,0,1-1.627-3.991,5.84,5.84,0,0,0-.155,1.421,13.783,13.783,0,0,0,1.782,5.166,19.515,19.515,0,0,1,1.615,6.845A20.019,20.019,0,0,0,321.733,302Z" transform="translate(-316.902 -252.238)"/>
    <path id="Path_1043" data-name="Path 1043" d="M364.454,292.892a16.87,16.87,0,0,1,.245,1.782v-.568a15.692,15.692,0,0,0-.284-3.8c-.284-1.356-.749-2.7-.969-4.069a5.729,5.729,0,0,0-.116.93,23.806,23.806,0,0,0,1.124,5.722Z" transform="translate(-304.252 -255.67)"/>
    <path id="Path_1044" data-name="Path 1044" d="M358.115,318.439a6.806,6.806,0,0,1-.555-.659,2.674,2.674,0,0,0-.375,1.731,3.2,3.2,0,0,0,.93,1.511,26.1,26.1,0,0,0,20.9,8.253c-.22-.852-.439-1.692-.646-2.583a26.065,26.065,0,0,1-20.252-8.253Z" transform="translate(-306.05 -246.473)"/>
    <path id="Path_1045" data-name="Path 1045" d="M376.271,281.207a.556.556,0,0,1,0-.142c.736-4.753-3.2-8.886-7.168-11.624a42.712,42.712,0,0,0-9.764-5.05,31.788,31.788,0,0,0-6.561-1.589,25.574,25.574,0,0,0-12.361,1.382,20.189,20.189,0,0,0-4.6,2.454,6.226,6.226,0,0,0-2.054,2.131,6.935,6.935,0,0,0-.543,3.087c0,.891,0,1.782,0,2.687v-.1a6.936,6.936,0,0,1,.542-3.087,6.226,6.226,0,0,1,2.054-2.131,20.186,20.186,0,0,1,4.6-2.454,25.574,25.574,0,0,1,12.361-1.382,31.788,31.788,0,0,1,6.561,1.589,42.711,42.711,0,0,1,9.764,5.05C372.4,274.246,375.638,277.449,376.271,281.207Z" transform="translate(-313.035 -262.572)"/>
    <path id="Path_1046" data-name="Path 1046" d="M332.947,284.088c-1.292,2.467-3.487,4.469-4.559,7.078a11.765,11.765,0,0,0-.814,3.4,34.224,34.224,0,0,0-.194,3.642v2.583a34.251,34.251,0,0,1,.194-3.648,11.766,11.766,0,0,1,.813-3.391c1.072-2.583,3.216-4.611,4.559-7.078,2.079-3.875,2.041-8.331,2-12.761a21.544,21.544,0,0,1-2,10.178Z" transform="translate(-314.735 -259.266)"/>
  </g>
  <path id="Path_1047" data-name="Path 1047" d="M386.66,275.782a3.758,3.758,0,0,1-.62.685,5.917,5.917,0,0,1-1.511.9c-3.759,1.627-3.6-3.681-5.567-5.5a6.677,6.677,0,0,0-4.366-1.292q-5.67-.284-11.353-.5c-6.316-.232-12.619-.349-18.922-.207q-4.534.077-9.041.375c-3.487.232-7.233.685-10.2,2.338a10.811,10.811,0,0,0-2.725,2.131c-.71.775-1.46,1.757-2.441,1.937a23.249,23.249,0,0,1,15.925-18.328,31.967,31.967,0,0,1,43.914,5.489,19.955,19.955,0,0,1,5.347,7.065,24.539,24.539,0,0,1,1.563,4.908Z" transform="translate(-15.055 29.978)" opacity="0.1"/>
  <path id="Path_1048" data-name="Path 1048" d="M384.828,281.139c-3.759,1.627-3.6-3.681-5.567-5.5a6.678,6.678,0,0,0-4.366-1.292,344.251,344.251,0,0,0-39.316-.336c-4.663.31-9.777,1.008-12.916,4.469-.8.878-1.64,2.015-2.841,1.976-.4-2.583-.685-5.27-.878-7.917a8.81,8.81,0,0,1,.155-2.971c.323-1.111,1.059-2.054,1.434-3.139a12.579,12.579,0,0,0,.388-4.236,30.611,30.611,0,0,1,15.06-26.039,13.68,13.68,0,0,0,3.139-2.118,9.437,9.437,0,0,1,1.072-1.085,4.094,4.094,0,0,1,2.493-.594h1.834a16.676,16.676,0,0,0,4.844-1.292,10.566,10.566,0,0,1,4.508-.852,14.983,14.983,0,0,1,4.676,1.692,11.323,11.323,0,0,0,2.183.788c1.175.271,2.389.258,3.565.491a17.4,17.4,0,0,1,5.347,2.377,25.509,25.509,0,0,1,5.373,3.875,23.777,23.777,0,0,1,4.159,6.768,48.472,48.472,0,0,1,3.875,10.746c1.046,5.347.529,11.134,3.009,15.99C387.566,275.985,388.948,279.369,384.828,281.139Z" transform="translate(-15.354 23.626)" fill="#fed253"/>
  <path id="Path_1049" data-name="Path 1049" d="M319.25,269.248s26.775-24.359,66.646-4.159C385.9,265.089,340.884,254.847,319.25,269.248Z" transform="translate(-15.247 31.461)" opacity="0.1"/>
  <path id="Path_1050" data-name="Path 1050" d="M95.256,390.77c-3.642-5.967-9.119-11.431-8.266-18.2,10.023,1.15,19.529-1.292,28.712-5.541s17.708-9.764,26.31-15.176c3.384-2.131,6.755-4.224,10.113-6.161,5.321-3.048,10.6-6.458,16.016-9.442,7.75-4.262,15.654-7.75,24.359-8.421a44.425,44.425,0,0,1,4.74-.116c10.72.207,21.828,3.087,31.257-1.718l.581-.31c5.347-2.932,9.235-7.917,13.82-11.96a61.726,61.726,0,0,1,10.707-7.44c6.962-3.875,14.5-6.975,21.621-10.63a32.792,32.792,0,0,0,5.166-3.306l1.214-.969.271-.232c.3-.245.594-.491.878-.749l.555-.491.568-.517.439-.413.71-.672.078-.09,1.124-1.111.452-.452.788-.814.465-.465c.788-.814,1.576-1.64,2.377-2.441s1.886-1.886,2.854-2.777h0l.93-.827.271-.232.749-.62.349-.3.736-.568.362-.284c.362-.271.736-.53,1.111-.788a8.086,8.086,0,0,1,1.085-.633l-2.415-5.851,6.949-2.867L399.13,499.742l-6.962,2.867L337.353,369.575l-.387.387a110.045,110.045,0,0,1-45.322,26.969h-.1c-9.545,2.88-20.226,4.921-28.26,10.268a27.124,27.124,0,0,0-7.3,6.988c-1.886,2.686-3.2,5.748-5.166,8.331-.375.478-.788.943-1.2,1.382a44.909,44.909,0,0,1-7.75,6.148l-1.227.84a251.173,251.173,0,0,1-25.961,16,102.426,102.426,0,0,1-16.132,6.716c-4.043,1.292-8.215,2.234-12.257,3.513A48,48,0,0,0,178.4,460.3c-6.845,3.578-12.1,9.183-17.075,15.163-4.353,5.244-8.486,10.8-13.265,15.577-3,2.971-7.556,5.786-11.172,4.043l-.736-.426c.116-.194.207-.388.31-.594,2.854-5.98-.659-13.368-5.386-18.16-.491-.5-.995-.995-1.511-1.46s-1.447-1.292-2.183-1.937c-4.043-3.474-8.344-6.7-11.146-11.185a36.487,36.487,0,0,1-4.288-12.154c-1.292-6.083-2.157-12.348-5.463-17.527-2.17-3.423-5.4-6.342-7.75-9.622a14.659,14.659,0,0,1-2.842-6.639c-.53-4.2,1.421-8.3,2.157-12.49a15.59,15.59,0,0,0,.271-3.461,18.328,18.328,0,0,0-3.061-8.654Z" transform="translate(-82.999 34.411)" fill="url(#linear-gradient-2)"/>
  <rect id="Rectangle_833" data-name="Rectangle 833" width="7.401" height="247.302" transform="translate(313.575 532.202) rotate(157.6)" fill="#d6d8e1"/>
  <path id="Path_1051" data-name="Path 1051" d="M108.188,428.559c3.242,5.1,4.107,11.25,5.36,17.23a36.294,36.294,0,0,0,4.224,11.96c2.764,4.4,6.988,7.582,10.953,10.991.723.633,1.447,1.292,2.144,1.912.5.452,1.007.943,1.485,1.421,4.65,4.714,8.1,11.986,5.3,17.863a4.919,4.919,0,0,1-.3.581,5.9,5.9,0,0,0,.71.413c3.565,1.731,8.047-1.033,10.991-3.965,4.7-4.7,8.77-10.152,13.045-15.305,4.882-5.89,10.062-11.4,16.791-14.918a46.5,46.5,0,0,1,7.75-3.126c3.965-1.292,8.072-2.209,12.051-3.449a101.431,101.431,0,0,0,15.861-6.6,248.68,248.68,0,0,0,25.574-15.745l1.214-.827a44.366,44.366,0,0,0,7.62-6.032c.413-.439.814-.891,1.188-1.369,1.989-2.583,3.294-5.541,5.166-8.189a26.685,26.685,0,0,1,7.181-6.871c7.9-5.257,18.392-7.272,27.782-10.1h.1a108.417,108.417,0,0,0,44.56-26.517,7.259,7.259,0,0,0,2.234-3.281c.4-1.821-.581-3.629-1.524-5.231-1.1-1.886-2.17-3.771-3.229-5.683a253.8,253.8,0,0,1-12.735-26.775c-.814-2.015-1.6-4.017-2.364-6.045q-2.932-7.75-5.347-15.719c-.53-1.757-1.046-3.526-1.537-5.3-.09-.336-.194-.7-.284-1.085-2.144-8.615-5.011-28.777-13.846-22.745a51.11,51.11,0,0,0-7.3,6.342c-1.718,1.744-3.4,3.539-5.166,5.27a52.234,52.234,0,0,1-4.559,3.991,33.49,33.49,0,0,1-5.166,3.255c-7.013,3.591-14.427,6.6-21.26,10.449a60.436,60.436,0,0,0-10.539,7.31c-4.508,3.978-8.331,8.886-13.588,11.766l-.568.31c-9.274,4.714-20.188,1.886-30.74,1.679a46.384,46.384,0,0,0-4.65.116c-8.563.646-16.39,4.081-23.959,8.279-5.321,2.945-10.514,6.277-15.745,9.287-3.306,1.9-6.613,3.952-9.945,6.058-8.447,5.321-17.01,10.9-25.832,14.931-9.041,4.107-18.379,6.561-28.234,5.438-.84,6.652,4.534,12.025,8.124,17.889a17.759,17.759,0,0,1,3.035,8.486,15,15,0,0,1-.245,3.4c-.723,4.12-2.583,8.15-2.118,12.3a14.273,14.273,0,0,0,2.777,6.5C102.88,422.32,106.044,425.2,108.188,428.559Z" transform="translate(-82.395 36.674)" fill="#f86d70"/>
  <path id="Path_1052" data-name="Path 1052" d="M307.239,414.71s11.314,9.868,22.784,15.125,3.875,24.114,3.875,24.114-12.154,2.79-20.666-9.041S307.239,414.71,307.239,414.71Z" transform="translate(-18.851 77.427)" fill="#fbbebe"/>
  <path id="Path_1053" data-name="Path 1053" d="M798.761,544.811s-29.965,39.432-54.828,39.755-39.458,16.61-27.653,26.788,140.448-5.812,140.448-5.812S857.942,557.082,846.8,550,798.761,544.811,798.761,544.811Z" transform="translate(99.312 115.297)" fill="#444176"/>
  <path id="Path_1054" data-name="Path 1054" d="M1031.5,583.562s4.585,31.231-9.584,52.529,25.6,29.513,25.6,29.513,28.893,8.047,31-20.5,1.421-50.372-1.292-52.7-4.973-18.379-4.973-18.379Z" transform="translate(188.759 123.884)" fill="#444176"/>
  <path id="Path_1055" data-name="Path 1055" d="M677.45,702.277S676.4,601.261,776.361,560.2l23.21-44.16L810.7,488.918a66,66,0,0,1,46.614-39.342l18-4.043,5.567-23.455A65.974,65.974,0,0,1,933.6,372.3a184.583,184.583,0,0,1,33.194-3.1,28.57,28.57,0,0,1,24.269,14.208h0s94.7-1.046,98.9,50.514c0,0,9.48,47.337,23.158,55.758,0,0,23.146-5.257,46.291,28.415l25.251,86.279s66.285,62.074,46.291,118.827c0,0-27.356,38.929-166.241,12.619,0,0-148.353,45.206-227.321-16.791C837.376,719.106,705.865,744.357,677.45,702.277Z" transform="translate(89.202 64.156)" fill="#a8a8a8"/>
  <path id="Path_1056" data-name="Path 1056" d="M728.77,642.594s21.053-29.461,19.994-50.514,4.96-72.329,4.96-72.329" transform="translate(104.167 108.056)" fill="none" stroke="#000" stroke-miterlimit="10" stroke-width="1" opacity="0.1"/>
  <path id="Path_1057" data-name="Path 1057" d="M788.24,575.656s21.04-38.929,18.935-59.969c0,0,22.1-40.039,38.929-36.836" transform="translate(121.509 96.077)" fill="none" stroke="#000" stroke-miterlimit="10" stroke-width="1" opacity="0.1"/>
  <path id="Path_1058" data-name="Path 1058" d="M877.85,476.77s57.864-21.04,61.028-37.87" transform="translate(147.638 84.481)" fill="none" stroke="#000" stroke-miterlimit="10" stroke-width="1" opacity="0.1"/>
  <path id="Path_1059" data-name="Path 1059" d="M894.14,513.541s61.028-27.356,61.028-34.731h30.495s44.2,57.876,38.942,83.127" transform="translate(152.389 96.118)" fill="none" stroke="#000" stroke-miterlimit="10" stroke-width="1" opacity="0.1"/>
  <path id="Path_1060" data-name="Path 1060" d="M992.778,538.386s-58.923-4.211-79.976,12.632-58.923,25.251-58.923,25.251-22.1,47.35-30.521,55.758-22.1,37.883-22.1,37.883" transform="translate(125.305 113.354)" fill="none" stroke="#000" stroke-miterlimit="10" stroke-width="1" opacity="0.1"/>
  <path id="Path_1061" data-name="Path 1061" d="M949.54,581.46s6.3,22.086,14.724,34.718,21.04,57.864,21.04,57.864" transform="translate(168.543 126.05)" fill="none" stroke="#000" stroke-miterlimit="10" stroke-width="1" opacity="0.1"/>
  <path id="Path_1062" data-name="Path 1062" d="M1026.11,631.15s13.355,37.159,25.1,37.521" transform="translate(190.871 140.54)" fill="none" stroke="#000" stroke-miterlimit="10" stroke-width="1" opacity="0.1"/>
  <path id="Path_1063" data-name="Path 1063" d="M958.38,507.66s34.692,9.377,49.2,32.1,58.806,43.32,58.806,43.32" transform="translate(171.121 104.531)" fill="none" stroke="#000" stroke-miterlimit="10" stroke-width="1" opacity="0.1"/>
  <path id="Path_1064" data-name="Path 1064" d="M969.9,421s0,48.4,13.678,48.4,44.2,5.257,44.2,5.257" transform="translate(174.48 79.261)" fill="none" stroke="#000" stroke-miterlimit="10" stroke-width="1" opacity="0.1"/>
  <path id="Path_1065" data-name="Path 1065" d="M922.829,376.5s-3.5,83.605-21.389,105.252" transform="translate(154.517 66.285)" fill="none" stroke="#000" stroke-miterlimit="10" stroke-width="1" opacity="0.1"/>
  <g id="Group_730" data-name="Group 730" transform="translate(833.919 432.349)" opacity="0.05">
    <path id="Path_1066" data-name="Path 1066" d="M1120.742,603.594l-25.251-86.279C1072.345,483.643,1049.2,488.9,1049.2,488.9c-13.678-8.421-23.145-55.771-23.145-55.771-4.211-51.56-98.91-50.5-98.91-50.5h0a28.57,28.57,0,0,0-24.321-14.208c-4.469,0-9.041.142-13.614.517q3.875.387,7.427,1.1L904,382.666s94.687-1.059,98.9,50.5c0,0,9.48,47.35,23.158,55.771,0,0,23.145-5.27,46.291,28.415l25.251,86.279s66.285,62.074,46.291,118.827c0,0-13.5,19.206-69.643,21.531,75.7,2.777,92.788-21.531,92.788-21.531C1187.026,665.668,1120.742,603.594,1120.742,603.594Z" transform="translate(-682.968 -368.42)"/>
    <path id="Path_1067" data-name="Path 1067" d="M796.938,639.29a491.3,491.3,0,0,1-67.408,7.375c26.361,1.007,53.782-1.847,71.451-4.275C799.612,641.344,798.269,640.336,796.938,639.29Z" transform="translate(-729.53 -289.435)"/>
    <path id="Path_1068" data-name="Path 1068" d="M980.11,652.33a432.135,432.135,0,0,1-99.349,15.706c48.5,1.757,94.442-8.357,113.376-13.213C989.564,654.061,984.927,653.2,980.11,652.33Z" transform="translate(-685.432 -285.633)"/>
  </g>
  <path id="Path_1069" data-name="Path 1069" d="M306.73,782.921s28.945-.891,37.663-7.1,44.508-13.626,46.678-3.668,43.488,49.533,10.811,49.8-75.907-5.089-84.612-10.4S306.73,782.921,306.73,782.921Z" transform="translate(-18.898 180.235)" fill="#a8a8a8"/>
  <path id="Path_1070" data-name="Path 1070" d="M402.476,814.945c-32.677.271-75.92-5.089-84.625-10.333-6.626-4.043-9.274-18.534-10.152-25.212h-.969s1.834,23.339,10.539,28.635,51.948,10.656,84.612,10.4c9.442-.078,12.7-3.436,12.516-8.408C413.093,813.02,409.489,814.893,402.476,814.945Z" transform="translate(-18.898 183.769)" opacity="0.2"/>
  <path id="Path_1071" data-name="Path 1071" d="M883.277,730.748s-34.085-6.82-43.165-15.912-49.985-24.979-54.531-13.626-61.338,49.985-22.719,56.83,90.877,9.041,102.243,4.546S883.277,730.748,883.277,730.748Z" transform="translate(110.206 159.82)" fill="#a8a8a8"/>
  <path id="Path_1072" data-name="Path 1072" d="M762.859,746.258c38.632,6.807,90.877,9.041,102.243,4.534,8.641-3.461,14.66-20.084,17.036-27.821l1.137.245s-6.82,27.253-18.173,31.8-63.611,2.273-102.243-4.546c-11.146-1.963-14.337-6.587-13.135-12.425C750.68,741.892,754.567,744.824,762.859,746.258Z" transform="translate(110.208 167.314)" opacity="0.2"/>
  <path id="Path_1073" data-name="Path 1073" d="M619.063,151.1h-8.111a5.683,5.683,0,1,0,0-11.366H545.235a5.683,5.683,0,1,0,0,11.366h8.111a5.683,5.683,0,0,0,0,11.353H541.993a5.683,5.683,0,1,0,0,11.366h65.716a5.683,5.683,0,0,0,0-11.366h11.353a5.683,5.683,0,1,0,0-11.353Z" transform="translate(48.047 -2.756)" fill="#4ab1d9" opacity="0.1"/>
  <path id="Path_1074" data-name="Path 1074" d="M816.7,305.9h-8.111a5.683,5.683,0,0,0,0-11.353H742.8a5.683,5.683,0,1,0,0,11.353h8.111a5.683,5.683,0,0,0,0,11.353H739.563a5.683,5.683,0,1,0,0,11.366h65.7a5.683,5.683,0,0,0,0-11.366H816.7a5.683,5.683,0,1,0,0-11.353Z" transform="translate(105.657 42.387)" fill="#4ab1d9" opacity="0.1"/>
  <path id="Path_1075" data-name="Path 1075" d="M523.858,277.265h-8.111a5.683,5.683,0,1,0,0-11.353H450.018a5.683,5.683,0,1,0,0,11.353h8.111a5.683,5.683,0,1,0,0,11.353H446.763a5.683,5.683,0,1,0,0,11.366h65.716a5.683,5.683,0,1,0,0-11.366h11.353a5.683,5.683,0,1,0,0-11.353Z" transform="translate(20.278 34.036)" fill="#4ab1d9" opacity="0.1"/>
</svg>
