<svg xmlns="http://www.w3.org/2000/svg" xmlns:xlink="http://www.w3.org/1999/xlink" width="777.994" height="893.909" viewBox="0 0 777.994 893.909"><defs><style>.a{fill:#b0bec5;}.b{fill:url(#a);}.c{fill:#eceff1;}.d{fill:#64ffda;}.e{opacity:0.7;}.f{opacity:0.6;}.g{opacity:0.5;}.h{opacity:0.4;}.i{opacity:0.3;}.j{fill:#597690;}.k{fill:url(#e);}.l{fill:url(#f);}.m{fill:url(#g);}.n{fill:url(#h);}.o{fill:url(#i);}.p{fill:url(#k);}.af,.q{opacity:0.2;}.r{fill:url(#m);}.s{fill:url(#n);}.t{fill:url(#o);}.u{fill:url(#p);}.v{fill:url(#q);}.w{fill:url(#r);}.x{fill:url(#s);}.y{fill:url(#t);}.z{fill:url(#v);}.aa{fill:url(#w);}.ab{fill:url(#x);}.ac{fill:#ca7070;}.ad{fill:#263238;}.ae{fill:#5caade;}.af,.ag{fill:#fff;}.ah{fill:url(#aa);}</style><linearGradient id="a" x1="0.5" y1="1" x2="0.5" gradientUnits="objectBoundingBox"><stop offset="0" stop-color="gray" stop-opacity="0.251"/><stop offset="0.54" stop-color="gray" stop-opacity="0.122"/><stop offset="1" stop-color="gray" stop-opacity="0.102"/></linearGradient><linearGradient id="e" x1="0.5" y1="1" x2="0.5" y2="0.002" xlink:href="#a"/><linearGradient id="f" x1="0.5" y1="1" x2="0.5" y2="0" xlink:href="#a"/><linearGradient id="g" x1="0.5" y1="1" x2="0.5" y2="0" xlink:href="#a"/><linearGradient id="h" x1="0.5" y1="1" x2="0.5" y2="0" xlink:href="#a"/><linearGradient id="i" x1="0.5" y1="1" x2="0.5" y2="0" xlink:href="#a"/><linearGradient id="k" x1="0.5" y1="1" x2="0.5" y2="0" xlink:href="#a"/><linearGradient id="m" x1="0.5" y1="1" x2="0.5" y2="0" xlink:href="#a"/><linearGradient id="n" x1="0.5" y1="1" x2="0.5" y2="0" xlink:href="#a"/><linearGradient id="o" x1="0.501" y1="1.001" x2="0.501" y2="0.001" xlink:href="#a"/><linearGradient id="p" x1="0.5" y1="1" x2="0.5" y2="0" xlink:href="#a"/><linearGradient id="q" x1="0.5" y1="1" x2="0.5" y2="0" xlink:href="#a"/><linearGradient id="r" x1="0.5" y1="1" x2="0.5" y2="0" xlink:href="#a"/><linearGradient id="s" x1="0.5" y1="1" x2="0.5" y2="0" xlink:href="#a"/><linearGradient id="t" x1="0.5" y1="1" x2="0.5" y2="0" xlink:href="#a"/><linearGradient id="v" x1="0.5" y1="1" x2="0.5" y2="0" xlink:href="#a"/><linearGradient id="w" x1="0.5" y1="1" x2="0.5" y2="0" xlink:href="#a"/><linearGradient id="x" x1="0.5" y1="1" x2="0.5" y2="0" xlink:href="#a"/><linearGradient id="aa" x1="0.5" y1="1" x2="0.5" y2="0" xlink:href="#a"/></defs><g transform="translate(0.02)"><rect class="a" width="11.098" height="7.402" transform="translate(390.696 328.048)"/><rect class="a" width="11.098" height="7.402" transform="translate(405.489 328.048)"/><rect class="a" width="11.098" height="7.402" transform="translate(420.293 328.048)"/><rect class="a" width="11.098" height="7.402" transform="translate(435.086 328.048)"/><rect class="a" width="11.098" height="7.402" transform="translate(449.891 328.048)"/><rect class="a" width="11.098" height="7.402" transform="translate(464.695 328.048)"/><rect class="a" width="11.098" height="7.402" transform="translate(479.488 328.048)"/><rect class="a" width="11.098" height="7.402" transform="translate(494.293 328.048)"/><rect class="a" width="11.098" height="7.402" transform="translate(509.086 328.048)"/><rect class="a" width="11.098" height="7.402" transform="translate(523.891 328.048)"/><rect class="b" width="477.491" height="532.932" transform="translate(300.484 333.186)"/><rect class="c" width="461.712" height="165.514" transform="translate(308.379 689.002)"/><rect class="d" width="17.89" height="84.804" transform="translate(346.27 728.266)"/><g class="e" transform="translate(381.592 728.266)"><rect class="d" width="17.89" height="84.804"/></g><g class="f" transform="translate(416.915 728.266)"><rect class="d" width="17.89" height="84.804"/></g><g class="g" transform="translate(452.237 728.266)"><rect class="d" width="17.89" height="84.804"/></g><g class="g" transform="translate(487.559 728.266)"><rect class="d" width="17.89" height="84.804"/></g><g class="h" transform="translate(522.882 728.266)"><rect class="d" width="17.89" height="84.804"/></g><g class="i" transform="translate(558.192 728.266)"><rect class="d" width="17.89" height="84.804"/></g><circle class="j" cx="43.17" cy="43.17" r="43.17" transform="translate(661.543 726.952)"/><rect class="c" width="461.712" height="165.514" transform="translate(308.379 517.048)"/><rect class="d" width="17.89" height="84.804" transform="translate(346.27 556.312)"/><g class="e" transform="translate(381.592 556.312)"><rect class="d" width="17.89" height="84.804"/></g><g class="f" transform="translate(416.915 556.312)"><rect class="d" width="17.89" height="84.804"/></g><g class="g" transform="translate(452.237 556.312)"><rect class="d" width="17.89" height="84.804"/></g><g class="g" transform="translate(487.559 556.312)"><rect class="d" width="17.89" height="84.804"/></g><g class="h" transform="translate(522.882 556.312)"><rect class="d" width="17.89" height="84.804"/></g><g class="i" transform="translate(558.192 556.312)"><rect class="d" width="17.89" height="84.804"/></g><circle class="j" cx="43.17" cy="43.17" r="43.17" transform="translate(661.543 555.01)"/><rect class="c" width="461.712" height="165.514" transform="translate(308.379 345.105)"/><rect class="d" width="17.89" height="84.804" transform="translate(346.27 384.357)"/><g class="e" transform="translate(381.592 384.357)"><rect class="d" width="17.89" height="84.804"/></g><g class="f" transform="translate(416.915 384.357)"><rect class="d" width="17.89" height="84.804"/></g><g class="g" transform="translate(452.237 384.357)"><rect class="d" width="17.89" height="84.804"/></g><g class="g" transform="translate(487.559 384.357)"><rect class="d" width="17.89" height="84.804"/></g><g class="h" transform="translate(522.882 384.357)"><rect class="d" width="17.89" height="84.804"/></g><g class="i" transform="translate(558.192 384.357)"><rect class="d" width="17.89" height="84.804"/></g><circle class="b" cx="46.537" cy="46.537" r="46.537" transform="translate(658.176 379.689)"/><circle class="b" cx="46.537" cy="46.537" r="46.537" transform="translate(658.176 552.792)"/><circle class="b" cx="46.537" cy="46.537" r="46.537" transform="translate(658.176 724.735)"/><circle class="j" cx="43.17" cy="43.17" r="43.17" transform="translate(661.543 383.055)"/><path class="k" d="M766.249,372.772H595.726a5.866,5.866,0,0,1-5.866-5.866v-9.291a5.866,5.866,0,0,1,5.866-5.866H766.249Z" transform="translate(-212.761 -20.053)"/><path class="a" d="M765.793,370.117H598.355a5.866,5.866,0,0,1-5.866-5.866v-5.6a5.866,5.866,0,0,1,5.866-5.866H765.793Z" transform="translate(-212.305 -19.873)"/><path class="l" d="M371.053,278.722,494.229,387.68l143.119-30.231L626.263,325.2,515.357,338.292,404.393,240.924a25.21,25.21,0,0,0-37.211,4.387h0A25.21,25.21,0,0,0,371.053,278.722Z" transform="translate(-252.108 -40.323)"/><path class="m" d="M598.376,344.265s36.507,1.009,50-19.145-61.084-13.1-61.084-13.1Z" transform="translate(-213.206 -27.138)"/><circle class="n" cx="63.489" cy="63.489" r="63.489" transform="translate(39.303 40.402)"/><path class="o" d="M345.006,217.718s-81.531,54.9-60.826,224.627a148.586,148.586,0,0,1-5.232,61.084L268.39,538.153s179.368,4.036,184.4,0c3.12-2.5.692-66.457-8.059-155.179-5.361-54.35,11.45-129.957-46.35-171.274Z" transform="translate(-268.41 -44.297)"/><path class="b" d="M184.4,419.27l79.607,168.282,9.068,171.3H216.65L192.46,581.5l-48.367-85.649-48.367,263H39.3L56.427,563.363,0,421.288Z" transform="translate(0.003 72.579)"/><path class="p" d="M510.122,777.74l17.127,26.2s57.482,22.172,32.249,36.272H449.66V777.74Z" transform="translate(-237.031 53.689)"/><path class="p" d="M358.082,777.74l17.127,26.2s57.482,22.172,32.249,36.272H297.62V777.74Z" transform="translate(-263.35 53.689)"/><g class="q" transform="translate(72.525 39.37)"><path class="r" d="M361.505,102.6a63.172,63.172,0,0,0-31.275,8.212,63.477,63.477,0,0,1,56.509,113.5A63.489,63.489,0,0,0,361.505,102.56Z" transform="translate(-330.23 -102.56)"/></g><path class="s" d="M446.2,69,428.53,95.982c-6.347,9.7-15.567,20.717-26.982,18.465-5.3-1.044-9.549-4.868-13.784-8.212-13.854-11-30.994-18.465-48.684-18.57s-35.792,7.86-45.751,22.465c-7.379,10.781-9.924,24.084-11.379,37.059-2.921,25.949,0,56.579,21.667,71.149a10.182,10.182,0,0,0,6.147,2.217c2.346-.153,4.247-1.642,6.006-3.12,27.122-22.723,42.232-59.676,74.891-75.278,14.418-6.874,35.393-6.933,47.018-18.617C454.808,106.364,435.85,84.8,446.2,69Z" transform="translate(-266.227 -69)"/><g class="q" transform="translate(39.526)"><path class="t" d="M372.691,103.484c4.235,3.367,8.47,7.191,13.784,8.212a15.251,15.251,0,0,0,6.523-.129c-5.056-1.173-9.15-4.868-13.244-8.106C365.9,92.457,348.759,85,331.069,84.89c-1.243,0-2.475,0-3.719.106C343.891,85.969,359.786,93.231,372.691,103.484Z" transform="translate(-297.729 -66.249)"/><path class="u" d="M442.545,69,432.35,84.591c.974,12.822,6.6,26.982-5.338,38.947-11.637,11.731-32.612,11.731-47.018,18.617-32.695,15.6-47.781,52.567-74.891,75.278a19.355,19.355,0,0,1-3,2.159,7.871,7.871,0,0,0,4.047.962c2.346-.153,4.247-1.642,6.006-3.12,27.122-22.723,42.232-59.676,74.891-75.278,14.418-6.874,35.393-6.933,47.018-18.617C451.155,106.364,432.2,84.8,442.545,69Z" transform="translate(-302.1 -69)"/></g><g class="q" transform="translate(117.772 167.414)"><path class="v" d="M427.385,382.984c-5.361-54.35,11.45-129.957-46.35-171.274L368.8,213.094c55.547,41.622,39.182,116.138,44.484,169.913,8.751,88.722,11.191,152.68,8.059,155.179-1.537,1.173-19.286,1.713-43.206,1.783,30.771.082,55.488-.317,57.318-1.783C438.565,535.664,436.125,471.706,427.385,382.984Z" transform="translate(-368.8 -211.71)"/></g><path class="w" d="M340.8,297.088,463.972,406.047l143.119-30.231L595.9,343.579l-110.847,13.1L374.088,259.314a25.21,25.21,0,0,0-37.211,4.387h0A25.21,25.21,0,0,0,340.8,297.088Z" transform="translate(-257.349 -37.139)"/><path class="x" d="M568.121,362.645s36.507,1.009,50-19.145S557,330.4,557,330.4Z" transform="translate(-218.449 -23.957)"/><rect class="y" width="54.409" height="54.409" rx="20.47" transform="translate(75.575 140.175)"/><g class="q" transform="translate(84.643 491.849)"><path class="b" d="M120.517,484.55l-48.367,263H83.236l45.646-248.195Z" transform="translate(-72.15 -407.969)"/><path class="z" d="M238.424,587.552,158.817,419.27l-11.027.117,79.549,168.165,9.068,171.3h11.086Z" transform="translate(-59.056 -419.27)"/></g><g class="q" transform="translate(268.047 831.441)"><path class="aa" d="M519.072,803.946l-17.127-26.2H496.9l17.127,26.2s57.447,22.2,32.26,36.272h5.033C576.507,826.141,519.072,803.946,519.072,803.946Z" transform="translate(-496.9 -777.75)"/></g><g class="q" transform="translate(94.744 831.441)"><path class="ab" d="M371.33,803.946,354.2,777.75H349.17l17.127,26.2s57.482,22.172,32.249,36.272h5.033C428.742,826.141,371.33,803.946,371.33,803.946Z" transform="translate(-349.17 -777.75)"/></g><g class="q" transform="translate(251.882 305.431)"><path class="b" d="M319.68,266.6l-2.147-6.241L214.71,272.513Z" transform="translate(-214.71 -260.36)"/></g><path class="u" d="M43.17,230.124,77.413,165.45l57.06,21.562-57.06,82.423Z" transform="translate(7.477 28.641)"/><path class="ac" d="M373.35,283.416,493.113,389.394,632.279,360,621.5,328.639l-107.809,12.74-107.926-94.74a24.518,24.518,0,0,0-36.19,4.27h0A24.518,24.518,0,0,0,373.35,283.416Z" transform="translate(-251.672 -39.303)"/><path class="ac" d="M594.441,347.159s35.51.985,48.625-18.617S583.66,315.8,583.66,315.8Z" transform="translate(-213.834 -26.478)"/><circle class="ac" cx="61.741" cy="61.741" r="61.741" transform="translate(44.218 51.558)"/><path class="ad" d="M347.991,224.082s-79.3,53.4-59.16,218.48a144.516,144.516,0,0,1-5.091,59.418l-10.23,33.774s174.453,3.918,179.357,0c3.038-2.428.669-64.638-7.836-150.932-5.209-52.86,11.133-126.4-45.083-166.581Z" transform="translate(-267.524 -43.165)"/><path class="ae" d="M184.457,418.22l77.425,163.672,8.81,166.6H215.814L192.293,576.015,145.251,492.7,98.21,748.5H43.32L59.978,558.371,5.1,420.179Z" transform="translate(0.886 72.398)"/><path class="ad" d="M508.6,768.76l16.658,25.48s55.863,21.562,31.357,35.287H449.79V768.76Z" transform="translate(-237.008 52.135)"/><path class="ad" d="M360.669,768.76l16.658,25.48s55.863,21.562,31.357,35.287H301.92V768.76Z" transform="translate(-262.606 52.135)"/><path class="af" d="M364.059,112.117a61.435,61.435,0,0,0-30.419,8.024A61.741,61.741,0,0,1,388.6,230.472a61.752,61.752,0,0,0-24.541-118.4Z" transform="translate(-257.115 -61.544)"/><path class="ad" d="M446.415,79.44,429.24,105.706c-6.171,9.385-15.133,20.142-26.2,17.96-5.162-1.021-9.279-4.692-13.4-8.012-13.491-10.7-30.149-17.96-47.3-18.066s-34.806,7.649-44.578,21.843c-7.168,10.476-9.643,23.462-11.074,36.05-2.839,25.234,0,55.031,21.116,69.213a9.913,9.913,0,0,0,5.971,2.147c2.229-.153,4.129-1.6,5.866-3.038,26.372-22.09,41.059-58.045,72.85-73.214,14.019-6.687,34.419-6.745,45.751-18.1C454.8,115.783,436.361,94.808,446.415,79.44Z" transform="translate(-265.401 -67.193)"/><g class="q" transform="translate(44.37 12.247)"><path class="ag" d="M374.958,112.976c4.118,3.273,8.212,7.039,13.4,8.012a14.887,14.887,0,0,0,6.346-.117c-4.915-1.173-8.9-4.692-12.9-7.883-13.456-10.71-30.114-17.972-47.265-18.078-1.173,0-2.4,0-3.613.106C346.909,95.942,362.336,102.946,374.958,112.976Z" transform="translate(-301.956 -76.762)"/><path class="ag" d="M442.874,79.44l-9.924,15.168c.938,12.47,6.429,26.207-5.2,37.88-11.32,11.356-31.674,11.414-45.751,18.1-31.8,15.168-46.467,51.124-72.85,73.214a18.772,18.772,0,0,1-2.921,2.1,7.649,7.649,0,0,0,3.93.939c2.229-.153,4.129-1.6,5.866-3.038,26.372-22.09,41.059-58.045,72.85-73.214,14.019-6.687,34.419-6.745,45.751-18.1C451.261,115.783,432.82,94.808,442.874,79.44Z" transform="translate(-306.23 -79.44)"/></g><path class="af" d="M428.128,384.811c-5.209-52.86,11.133-126.4-45.083-166.581l-11.9,1.349c54.022,40.484,38.1,112.982,43.264,165.268,8.505,86.294,10.875,148.5,7.836,150.932-1.49,1.173-18.77,1.666-42.021,1.736,29.938.082,53.963-.317,55.746-1.736C439.014,533.315,436.668,471.117,428.128,384.811Z" transform="translate(-250.621 -43.167)"/><path class="ac" d="M343.913,301.333,463.676,407.264l139.166-29.4-10.781-31.357-107.809,12.74-107.926-94.74a24.518,24.518,0,0,0-36.19,4.27h0A24.518,24.518,0,0,0,343.913,301.333Z" transform="translate(-256.771 -36.21)"/><path class="ac" d="M565,365.029s35.51.985,48.625-18.617-59.406-12.74-59.406-12.74Z" transform="translate(-218.93 -23.384)"/><rect class="ac" width="52.919" height="52.919" rx="20.47" transform="translate(79.493 148.574)"/><g class="q" transform="translate(88.315 490.618)"><path class="ag" d="M122.322,481.71,75.28,737.506H86.061l44.39-241.391Z" transform="translate(-75.28 -407.229)"/><path class="ag" d="M237,581.892,159.574,418.22l-10.734.117,77.378,163.555,8.81,166.6h10.781Z" transform="translate(-62.546 -418.22)"/></g><path class="af" d="M517.3,794.25l-16.658-25.48h-4.9L512.4,794.25s55.863,21.562,31.357,35.287h4.9C573.165,815.812,517.3,794.25,517.3,794.25Z" transform="translate(-229.054 52.137)"/><path class="af" d="M373.62,794.25l-16.658-25.48H352l16.658,25.48s55.863,21.562,31.357,35.287h4.9C429.425,815.812,373.62,794.25,373.62,794.25Z" transform="translate(-253.936 52.137)"/><path class="af" d="M316.014,269.735l-2.076-6.065L213.93,275.483Z" transform="translate(37.037 45.644)"/><path class="ad" d="M47.09,234.25l33.293-62.89,55.5,20.963-55.5,80.159Z" transform="translate(8.155 29.664)"/><path class="ah" d="M730.24,374.956,831.127,237.773a5.866,5.866,0,0,1,8.212-1.243l4.693,3.461a5.865,5.865,0,0,1,1.243,8.212L744.388,385.385Z" transform="translate(-188.46 -40.198)"/><path class="a" d="M731.95,375.87l99.175-134.908a5.866,5.866,0,0,1,8.212-1.243l.481.352a5.865,5.865,0,0,1,1.243,8.212L741.886,383.191Z" transform="translate(-188.163 -39.646)"/></g></svg>