<?xml version="1.0" encoding="utf-8"?>
<!-- Generator: Adobe Illustrator 22.1.0, SVG Export Plug-In . SVG Version: 6.00 Build 0)  -->
<svg version="1.1" id="Capa_1" xmlns="http://www.w3.org/2000/svg" xmlns:xlink="http://www.w3.org/1999/xlink" x="0px" y="0px"
	 viewBox="0 0 420.6 420.6" style="enable-background:new 0 0 420.6 420.6;" xml:space="preserve">
<style type="text/css">
	.st0{fill:#FFFFFF;}
</style>
<g>
	<g>
		<path class="st0" d="M419.7,319.1c-3.5-11.6-9.9-22.1-18.5-30.6c-13.7-13.8-32.3-21.5-51.8-21.4c-9.9,0-19.8,2-28.9,5.9l-72-72
			l95.6-94.9l22.6-0.6c2.7-0.1,5.2-1.6,6.6-3.9L405.8,47c1.9-3.1,1.4-7.2-1.2-9.8l-28-28c-2.6-2.6-6.6-3.1-9.8-1.2l-54.5,32.4
			c-2.4,1.4-3.8,3.9-3.9,6.6l-0.6,22.6l-95.4,95.2L147,99.4c6.9-39.8-19.9-77.7-59.7-84.6c-18.5-3.2-37.4,0.8-53,11.2
			c-3.7,2.5-4.6,7.4-2.1,11.1c0.7,1,1.6,1.9,2.7,2.5l36.3,20.2c8,4.6,9.6,18.2,3.1,29.7c-6.5,11.5-18.9,17.4-27,13L13.7,84.3
			c-3.9-2.1-8.7-0.7-10.9,3.2c-0.7,1.3-1.1,2.8-1,4.4c2.5,40.3,37.3,71,77.6,68.5c8.3-0.5,16.5-2.5,24.2-5.8l59.5,59.5l-25.8,25.8
			l-5.8-5.8c-6.5-6.2-16.7-6.2-23.1,0l-8,8c-6.1,5.9-6.5,15.6-0.9,22L4.9,358.5c-6.4,6.1-6.6,16.2-0.5,22.6c0.2,0.2,0.3,0.3,0.5,0.5
			l27,27c6.1,6.4,16.2,6.6,22.6,0.5c0.2-0.2,0.3-0.3,0.5-0.5l94.7-94.6c6.4,5.6,16.1,5.2,22-0.9l8-8c6.4-6.1,6.6-16.2,0.5-22.6
			c-0.2-0.2-0.3-0.3-0.5-0.5l-5.8-5.8l25.6-26.2l77.6,77.6c-6.7,39.9,20.2,77.6,60,84.3c23.6,4,47.7-3.9,64.4-21
			c2.9-3.3,2.6-8.4-0.7-11.3c-0.9-0.8-1.9-1.3-2.9-1.7L353,366c-4.4-1.4-7.9-4.8-9.4-9.2c-2.3-6-2.6-12.7-0.8-18.9
			c3.4-12.6,14-21.5,23-19.1l44.6,12c0.7,0.1,1.4,0.1,2.2,0c4.4,0.1,8-3.5,8.1-7.9C420.6,321.6,420.3,320.3,419.7,319.1z
			 M321.2,78.5c1.4-1.4,2.3-3.4,2.3-5.4l0.6-21.4l45.4-27L388.7,44l-26.4,45.3l-21.8,0.8c-2,0.1-4,0.9-5.4,2.3l-97.6,97.5
			l-13.8-13.8L321.2,78.5z M43.7,397.3l-27.4-27.3l95.1-94.9l13.8,13.8l13.1,13.6L43.7,397.3z M160.8,301.3l-10.6-10.6l-4.1-4.1
			l-33.6-33.8l8-8l48,48.6L160.8,301.3z M162.3,264.9l-13.8-13.8l25.8-25.8l13.8,13.8L162.3,264.9z M369.7,303.3
			c-2.4-0.6-4.8-1-7.3-1c-17.4,1.4-31.8,14.2-35.3,31.4c-2.7,9.6-2.2,19.9,1.5,29.2c3.4,8.9,10.9,15.8,20.1,18.4l29.8,8
			c-27.1,16.2-62.2,7.3-78.4-19.9c-7.6-12.7-9.9-27.9-6.5-42.4c0.6-2.7-0.2-5.5-2.2-7.4L111,139.2c-2.6-2.4-6.4-2.9-9.4-1.1
			c-8.3,4.4-17.5,6.6-26.8,6.6c-24.1,0-45.6-15-53.8-37.7l18.2,10.2c4.3,2.4,9,3.6,13.9,3.6c14.8-0.9,28.1-9.5,34.8-22.7
			c10.9-19.4,6.6-42.6-9.4-51.5L55.3,33.3c29.8-10.6,62.5,4.9,73.1,34.6c3.7,10.3,4.3,21.5,1.9,32.2c-0.6,2.7,0.2,5.5,2.2,7.4
			l180.7,180.6c2.5,2.5,6.3,3.1,9.4,1.4c8.3-4.4,17.5-6.6,26.8-6.6c20.3,0,39,10.7,49.3,28.2L369.7,303.3z"/>
	</g>
</g>
</svg>
