<?xml version="1.0" encoding="iso-8859-1"?>
<!-- Generator: Adobe Illustrator 19.0.0, SVG Export Plug-In . SVG Version: 6.00 Build 0)  -->
<svg version="1.1" id="Capa_1" xmlns="http://www.w3.org/2000/svg" xmlns:xlink="http://www.w3.org/1999/xlink" x="0px" y="0px"
	 viewBox="0 0 475.312 475.312" style="enable-background:new 0 0 475.312 475.312;" xml:space="preserve">
<g>
	<g>
		<rect x="402.061" y="214.373" transform="matrix(0.7071 -0.7071 0.7071 0.7071 -27.8834 377.4301)" width="79.192" height="16"/>
	</g>
</g>
<g>
	<g>
		<path d="M423.312,280.684l-79.768-79.768c5.664-3.783,10.945-8.111,15.768-12.92l28-28L376,148.684l-28,28
			c-34.455,34.374-90.233,34.374-124.688,0l-12-12c-2.995-2.992-7.803-3.132-10.968-0.32l-21.272,18.896
			c-22.968,20.382-57.168,21.6-81.528,2.904l107.736-101c7.404-6.968,17.193-10.84,27.36-10.824h94.4
			c6.371,0.02,12.485-2.512,16.976-7.032l43.312-43.312L376,12.684l-43.312,43.312c-1.502,1.502-3.54,2.346-5.664,2.344h-94.4
			c-14.233-0.019-27.936,5.401-38.304,15.152L80.184,180.508c-3.222,3.024-3.382,8.086-0.358,11.308
			c0.057,0.061,0.115,0.121,0.174,0.18c29.968,29.909,78.043,31.311,109.704,3.2l15.624-13.88L212,187.98
			c30.756,30.774,77.425,39.135,116.952,20.952L412,291.996c7.797,8.047,7.594,20.891-0.453,28.688
			c-7.868,7.623-20.367,7.623-28.235,0l-20-20L352,311.996l20,20c7.912,7.926,7.912,20.762,0,28.688
			c-8.033,7.649-20.655,7.649-28.688,0l-20-20L312,351.996l20,20c7.912,7.926,7.912,20.762,0,28.688
			c-8.033,7.649-20.655,7.649-28.688,0l-20-20L272,391.996l20,20c7.912,7.926,7.912,20.762,0,28.688
			c-8.033,7.649-20.655,7.649-28.688,0L248.8,426.172c13.247-14.827,11.966-37.585-2.861-50.831
			c-7.746-6.92-18.103-10.158-28.411-8.881c2.45-19.642-11.487-37.55-31.129-40c-2.946-0.367-5.925-0.367-8.871,0
			c2.45-19.642-11.487-37.55-31.129-40c-2.946-0.367-5.925-0.367-8.871,0c2.435-19.733-11.588-37.703-31.32-40.138
			c-10.298-1.271-20.643,1.964-28.384,8.874l-66.512-66.512L0,199.996l66.344,66.344L52,280.684
			c-14.169,14.154-14.182,37.116-0.027,51.285c6.808,6.816,16.049,10.642,25.683,10.635c1.382-0.055,2.76-0.186,4.128-0.392
			c-2.426,19.734,11.605,37.698,31.339,40.123c1.504,0.185,3.018,0.275,4.533,0.269c1.382-0.055,2.76-0.186,4.128-0.392
			c-2.426,19.734,11.605,37.698,31.339,40.123c1.504,0.185,3.018,0.275,4.533,0.269c1.382-0.055,2.76-0.186,4.128-0.392
			c-2.332,19.843,11.863,37.819,31.706,40.151c11.004,1.293,21.993-2.527,29.822-10.367l14.344-14.344L252,451.996
			c14.16,14.17,37.126,14.178,51.296,0.017c7.786-7.781,11.617-18.676,10.416-29.617c19.899,2.193,37.807-12.161,40-32.06
			c0.291-2.639,0.291-5.301,0-7.94c19.899,2.193,37.807-12.161,40-32.06c0.291-2.639,0.291-5.301,0-7.94
			c19.913,2.187,37.828-12.182,40.016-32.095C434.93,299.36,431.098,288.465,423.312,280.684z M92,320.684
			c-7.93,7.903-20.758,7.903-28.688,0c-7.912-7.926-7.912-20.762,0-28.688l24-24c8.047-7.797,20.891-7.594,28.688,0.453
			c7.624,7.868,7.624,20.367,0,28.235L92,320.684z M132,360.684c-7.93,7.903-20.758,7.903-28.688,0
			c-7.912-7.926-7.912-20.762,0-28.688l24-24c8.047-7.797,20.891-7.594,28.688,0.452c7.624,7.868,7.624,20.367,0,28.236L132,360.684
			z M143.312,400.684c-7.912-7.926-7.912-20.762,0-28.688l24-24c8.047-7.797,20.891-7.594,28.688,0.452
			c7.624,7.868,7.624,20.367,0,28.236l-24,24C164.07,408.587,151.242,408.587,143.312,400.684z M236,416.684l-24,24
			c-8.047,7.797-20.891,7.594-28.688-0.453c-7.624-7.868-7.624-20.367,0-28.235l24-24c8.047-7.797,20.891-7.594,28.688,0.452
			C243.624,396.316,243.624,408.816,236,416.684z"/>
	</g>
</g>
<g>
	<g>
		<path d="M148.288,58.34c-2.124,0.002-4.162-0.842-5.664-2.344L99.312,12.684L88,23.996l43.312,43.312
			c4.491,4.52,10.605,7.052,16.976,7.032h25.368v-16H148.288z"/>
	</g>
</g>
<g>
</g>
<g>
</g>
<g>
</g>
<g>
</g>
<g>
</g>
<g>
</g>
<g>
</g>
<g>
</g>
<g>
</g>
<g>
</g>
<g>
</g>
<g>
</g>
<g>
</g>
<g>
</g>
<g>
</g>
</svg>
