<svg id="quality" xmlns="http://www.w3.org/2000/svg" viewBox="0 0 91.352 110">
  <path id="Path_235" data-name="Path 235" d="M131.057,97.918,116.494,62.761a1.755,1.755,0,0,0-3.243,1.343l13.165,31.783-12.008-3.48a1.755,1.755,0,0,0-2.026.839L106.35,104.2l-14.126-34.1A35.4,35.4,0,1,0,57.143,56.463L39.972,97.918a1.755,1.755,0,0,0,2.11,2.358l14.167-4.105,7.115,12.921A1.756,1.756,0,0,0,64.9,110l.1,0a1.756,1.756,0,0,0,1.525-1.081L80.13,76.068a1.755,1.755,0,0,0-3.243-1.343L64.678,104.2,58.647,93.247a1.755,1.755,0,0,0-2.026-.839l-12.008,3.48L59.684,59.5a35.275,35.275,0,0,0,25.83,11.235c1.051,0,2.091-.049,3.119-.139l15.872,38.319A1.755,1.755,0,0,0,106.03,110l.1,0a1.755,1.755,0,0,0,1.537-.909l7.115-12.921,14.167,4.105a1.755,1.755,0,0,0,2.11-2.358Zm-77.4-62.55A31.858,31.858,0,1,1,85.514,67.226,31.894,31.894,0,0,1,53.657,35.368Z" transform="translate(-39.838 0)"/>
  <path id="Path_236" data-name="Path 236" d="M188.623,74.736a1.756,1.756,0,0,0-1.379-1.189l-11.811-1.982L169.9,60.944a1.755,1.755,0,0,0-3.113,0L161.25,71.565l-11.811,1.982a1.755,1.755,0,0,0-.962,2.961l8.39,8.546L155.1,96.9a1.755,1.755,0,0,0,2.519,1.83l10.721-5.339,10.721,5.339a1.755,1.755,0,0,0,2.519-1.83l-1.764-11.846,8.39-8.546a1.755,1.755,0,0,0,.417-1.772ZM176.7,83.218a1.755,1.755,0,0,0-.484,1.488l1.4,9.379-8.488-4.227a1.754,1.754,0,0,0-1.565,0l-8.488,4.227,1.4-9.379a1.755,1.755,0,0,0-.484-1.488l-6.643-6.767,9.352-1.569a1.755,1.755,0,0,0,1.266-.92l4.382-8.409,4.382,8.409a1.755,1.755,0,0,0,1.266.92l9.352,1.569L176.7,83.218Z" transform="translate(-122.665 -45.957)"/>
  <path id="Path_237" data-name="Path 237" d="M168.818,60.118a1.754,1.754,0,0,0-1.971,1.51,24.836,24.836,0,1,1,0-6.56,1.755,1.755,0,1,0,3.48-.461,28.346,28.346,0,1,0,0,7.482A1.755,1.755,0,0,0,168.818,60.118Z" transform="translate(-96.552 -22.979)"/>
</svg>
